<svg xmlns="http://www.w3.org/2000/svg" xmlns:xlink="http://www.w3.org/1999/xlink" viewBox="0 0 586.69 607.74"><defs><linearGradient id="linear-gradient" x1="2216.16" y1="247.07" x2="2155.61" y2="217.48" gradientTransform="matrix(-1.28 0 0 1.31 3323.8 -109.65)" gradientUnits="userSpaceOnUse"><stop offset="0" stop-color="#2d4057"/><stop offset="1" stop-color="#264f6e"/></linearGradient><linearGradient id="linear-gradient-2" x1="2224.55" y1="265.45" x2="2213.8" y2="352.49" gradientTransform="matrix(-1.28 0 0 1.31 3323.8 -109.65)" gradientUnits="userSpaceOnUse"><stop offset="0" stop-color="#82263c"/><stop offset="1" stop-color="#7a2235"/></linearGradient><linearGradient id="linear-gradient-3" x1="2282.97" y1="351.09" x2="2285.74" y2="431.18" gradientTransform="matrix(-1.28 0 0 1.31 3323.8 -109.65)" gradientUnits="userSpaceOnUse"><stop offset="0" stop-color="#731a2f"/><stop offset="1" stop-color="#6e1528"/></linearGradient><linearGradient id="linear-gradient-4" x1="2255.94" y1="379.73" x2="2254.86" y2="388.51" xlink:href="#linear-gradient-2"/><linearGradient id="linear-gradient-5" x1="2213.77" y1="248.15" x2="2170.7" y2="227.11" xlink:href="#linear-gradient"/><linearGradient id="linear-gradient-6" x1="2207.39" y1="233.25" x2="2167.3" y2="213.66" xlink:href="#linear-gradient"/><linearGradient id="linear-gradient-7" x1="2208.59" y1="258.61" x2="2206.32" y2="277.01" xlink:href="#linear-gradient-2"/><linearGradient id="linear-gradient-8" x1="2226.81" y1="315.22" x2="2224.74" y2="332.01" xlink:href="#linear-gradient-2"/><style>.cls-3{fill:#ec6727}.cls-13,.cls-25,.cls-31,.cls-36,.cls-8{mix-blend-mode:multiply}.cls-13,.cls-36,.cls-8{opacity:.4}.cls-7,.cls-8{fill:#442e38}.cls-25{opacity:.3}.cls-12,.cls-13{fill:#5e5c67}.cls-18,.cls-36{fill:#43607d}.cls-20{fill:#1f2f3e}.cls-24,.cls-25,.cls-31{fill:#731a2f}.cls-26{fill:#6e152a}.cls-30{fill:#490e1c}.cls-31{opacity:.2}</style></defs><g style="isolation:isolate"><g id="Слой_1" data-name="Слой 1"><rect x="126.96" width="340.23" height="528.58" rx="46.01" fill="#f2f1ef"/><path class="cls-3" d="M249.4 185.86a8.52 8.52 0 118.52-8.52 8.53 8.53 0 01-8.52 8.52zm-34.94 0a8.52 8.52 0 118.51-8.52 8.52 8.52 0 01-8.51 8.52zm-33.87 0a8.52 8.52 0 118.52-8.52 8.53 8.53 0 01-8.52 8.52zm-34.95 0a8.52 8.52 0 118.52-8.52 8.53 8.53 0 01-8.52 8.52zm-33.36 0a8.52 8.52 0 118.52-8.52 8.52 8.52 0 01-8.52 8.52zm-34.95 0a8.52 8.52 0 118.52-8.52 8.53 8.53 0 01-8.52 8.52zm-33.86 0a8.52 8.52 0 118.53-8.52 8.52 8.52 0 01-8.53 8.52zm-34.95 0a8.52 8.52 0 118.48-8.52 8.52 8.52 0 01-8.48 8.52z"/><circle class="cls-3" cx="249.4" cy="218.94" r="8.52"/><path class="cls-3" d="M214.46 227.46a8.53 8.53 0 118.51-8.52 8.52 8.52 0 01-8.51 8.52zm-33.87 0a8.53 8.53 0 118.52-8.52 8.53 8.53 0 01-8.52 8.52zm-34.95 0a8.53 8.53 0 118.52-8.52 8.53 8.53 0 01-8.52 8.52zm-33.36 0a8.53 8.53 0 118.52-8.52 8.52 8.52 0 01-8.52 8.52z"/><circle class="cls-3" cx="77.33" cy="218.94" r="8.52"/><circle class="cls-3" cx="43.47" cy="218.94" r="8.52"/><path class="cls-3" d="M8.52 227.46a8.53 8.53 0 118.48-8.52 8.52 8.52 0 01-8.48 8.52zM249.4 272.2a8.53 8.53 0 118.52-8.53 8.53 8.53 0 01-8.52 8.53zm-34.94 0a8.53 8.53 0 118.51-8.53 8.52 8.52 0 01-8.51 8.53zm-33.87 0a8.53 8.53 0 118.52-8.53 8.53 8.53 0 01-8.52 8.53zm-34.95 0a8.53 8.53 0 118.52-8.53 8.53 8.53 0 01-8.52 8.53zm-33.36 0a8.53 8.53 0 118.52-8.53 8.52 8.52 0 01-8.52 8.53zm-34.95 0a8.53 8.53 0 118.52-8.53 8.53 8.53 0 01-8.52 8.53zm-33.86 0a8.53 8.53 0 118.53-8.53 8.52 8.52 0 01-8.53 8.53zm-34.95 0a8.53 8.53 0 118.48-8.53 8.52 8.52 0 01-8.48 8.53zm240.88 41.59a8.52 8.52 0 118.52-8.52 8.52 8.52 0 01-8.52 8.52zm-34.94 0a8.52 8.52 0 118.51-8.52 8.51 8.51 0 01-8.51 8.52zm-33.87 0a8.52 8.52 0 118.52-8.52 8.52 8.52 0 01-8.52 8.52zm-34.95 0a8.52 8.52 0 118.52-8.52 8.52 8.52 0 01-8.52 8.52zm-33.36 0a8.52 8.52 0 118.52-8.52 8.51 8.51 0 01-8.52 8.52zm-34.95 0a8.52 8.52 0 118.52-8.52 8.52 8.52 0 01-8.52 8.52zm-33.86 0a8.52 8.52 0 118.53-8.52 8.51 8.51 0 01-8.53 8.52zm-34.95 0a8.52 8.52 0 118.48-8.52 8.51 8.51 0 01-8.48 8.52z"/><path d="M342.92 570.11c0 15.39 34.15 38.79 85.76 37.59 34.27-.81 62.51-13 73.67-26.05 3.31-3.86 5.12-7.82 5.12-11.54a12.58 12.58 0 00-1.47-5.73c-.13 5-3.39 10.15-9.08 14.94-12.92 10.87-38.47 19.82-69.12 20.22-42.25.52-77.33-15.58-84.87-30-.01.22-.01.38-.01.57z" fill="#5f5e67"/><path d="M342.93 569.58c7.54 14.38 42.62 30.48 84.87 30 30.65-.4 56.2-9.35 69.12-20.22 5.69-4.79 8.95-10 9.08-14.94-7.26-14.36-40.66-27.78-79.93-27.78-34.24 0-65.08 8.85-77.42 21.43-3.54 3.53-5.56 7.44-5.72 11.51z" fill="#787880"/><path d="M348.65 558c24.65-2.54 47.85-7.83 86.53 1.06a387 387 0 0161.74 20.23c2 .82 3.77 1.61 5.43 2.33 3.31-3.86 5.12-7.82 5.12-11.54a12.58 12.58 0 00-1.47-5.73c-7.26-14.36-40.66-27.78-79.93-27.78-34.24.03-65.07 8.88-77.42 21.43z" style="mix-blend-mode:multiply" opacity=".4" fill="#787880"/><path class="cls-7" d="M385.63 558.19c0 7.87 17.13 14.18 38.64 14.18 14.64 0 27.56-2.94 34.29-7.28 3.17-2 4.95-4.38 4.93-6.9-.05-4.46-17.15-11.78-38.64-11.78-20.23 0-37.11 5.87-39 10.86a2.18 2.18 0 00-.22.92z"/><path class="cls-8" d="M385.83 557.27c15-.19 46-1.33 72.73 7.82 3.17-2 4.95-4.38 4.93-6.9-.05-4.46-17.15-11.78-38.64-11.78-20.23 0-37.11 5.87-39.02 10.86z"/><path d="M250.4 533s12.39 9.82 24.47 18.42c4.22 3 8.43 6 12.29 8.66 7.22 5 13.23 8.76 15.89 9.13 4.64.68 16.22 1 31.85-1.35 20.05-3 24.33-6.12 24.33-6.12l-29.52-18-28.44-17.34a78.62 78.62 0 01-23 4.31C265.89 531 250.4 533 250.4 533z" fill="#827e74"/><path d="M287.16 560.06c7.22 5 13.23 8.76 15.89 9.13 4.64.68 16.22 1 31.85-1.35 20.05-3 24.33-6.12 24.33-6.12l-29.52-18c-11.62 8.92-32.4 14.18-42.55 16.34z" style="mix-blend-mode:screen" opacity=".3" fill="#827e74"/><path d="M304.38 569.43a33.42 33.42 0 01-9.52-4.53c-4.53-3-43.78-31.69-43.78-31.69l-.68-.23s-8.62-6.42-11.35-8-5.23-3.14-5.23-3.14 4.79 5.92 8.4 9.4 6.63 6.26 8.63 8.08a77.88 77.88 0 009.51 7.31c3.76 2.43 14.08 9.21 18.36 11.7s10.61 6 13.86 7.56 4.72 2.48 7.89 3.16 3.91.38 3.91.38z" fill="#766e64"/><path class="cls-12" d="M403.29 467.79l.89 86c9.11 4.34 17 5.19 23.36 4.5a33 33 0 0018.22-7.67l.32-19.89.09-5.5.85-51.77.07-4.35s-2.66 4.09-20.35 5a47.86 47.86 0 01-11.34-.66c-8.92-1.67-12.11-5.66-12.11-5.66z"/><path class="cls-13" d="M415.4 473.46l12.14 84.85a33 33 0 0018.22-7.67l1.33-81.51s-2.66 4.09-20.35 5a47.86 47.86 0 01-11.34-.67z"/><path style="mix-blend-mode:screen" fill="#5e5c67" opacity=".3" d="M415.12 482.41l-7.08-3.92 1.77 74.56 10.32.6-5.01-71.24z"/><path d="M403.29 467.79c3.7 6.76 12.38 22.24 16.25 26.69 5 5.75 17.69.32 17.69.32s6-12.1 9.79-21.32l.07-4.35s-2.66 4.09-20.35 5a47.86 47.86 0 01-11.34-.66c-8.92-1.69-12.11-5.68-12.11-5.68z" style="mix-blend-mode:multiply" fill="#4d4c54" opacity=".3"/><path d="M228.61 519.38c.16 3.47 6.81 13.27 17.46 22.8 1.91 1.7 3.94 3.41 6.1 5.05 6 4.58 39.72 27.15 52.1 27.86 1.15.06 2.44.08 3.82.08 17.27 0 51.65-4.8 56-9.74 2.58-2.91 11.56-29.59 24-66.95 5.31-16 9.87-29.74 11.31-33.16 3.56-8.49 19-11.87 20.89-11.61a1.76 1.76 0 002-1.49 1.78 1.78 0 00-1.39-2.07c-3.42-.63-22 .41-26.25 10.61-.39.95-1.08 2.75-2 5.27-2.53 6.94-6.74 19.11-10.83 31.39-8.32 25.05-20.19 61.47-22.56 64.3-3 3.46-37.8 8.67-54.85 7.71-11.34-.65-38.05-19.24-47.3-25.32-7.9-5.17-19-16.68-23.26-22.27C237.34 523.69 250 533 250.4 533c15.89-1 26.83-1.62 34.29-2.5 15.91-1.87 16.22-3.69 16.58-4.08 1-.94 1.4-4.21 4.43-21.41 3.1-17.65 7.33-41.81 11.36-51.45a64.17 64.17 0 018.48-14.76c3-3.73 6.74-6.79 10.86-7.22 7.75-.81 40.94-7.63 98.6-20.31 2.71-.59 4.37-1 4.65-1 .48-.11 1.09-.24 2.41-3.39 2.15-5.13 6.2-18.26 14.89-52.33 9.3 2.51 53.81 14.49 66.37 18.1 1.86.54 3.63 1 5.26 1.43 10.86 2.85 14.52 3.8 12.51 15.54-1.62 9.26-5.53 20.21-8.74 28.39-1.19 3-2.29 5.66-3.12 7.7-.62 1.53-1.11 2.68-1.4 3.45 0 .07-.06.19-.37.32-2.07.85-7.88-1.06-11.32-2.72a1.77 1.77 0 00-2.35.89 1.83 1.83 0 00.86 2.41c1.63.76 9.93 4.51 14.12 2.79a4.11 4.11 0 002.37-2.39c.27-.72.75-1.87 1.34-3.33.86-2.05 1.94-4.7 3.14-7.72 3.27-8.34 7.29-19.58 8.94-29.18 2.59-15-4.45-16.88-15.12-19.66-1.59-.42-3.32-.87-5.16-1.4-14-4-67.61-18.43-68.17-18.58a1.76 1.76 0 00-1.34.2 1.82 1.82 0 00-.81 1.1c-4.92 19.35-13.31 50.64-15.61 54.95-.32.08-.76.16-1.33.29l-2.76.62c-57.54 12.64-93.06 18.08-100.69 18.85-5.78.58-10.26 4.44-13.63 9.1-4.13 5.7-6.61 12.63-7.83 16.26-3.47 10.3-13.91 68.49-14.58 70.63-4.28 1.25-30.62 3.82-48 5-17.38-12.14-19.16-10.76-20.13-10a2.17 2.17 0 00-.79 1.79z" fill="#54434c"/><path d="M513.79 427.62a1.83 1.83 0 00.86 2.41c1.63.76 9.93 4.51 14.12 2.79a4.11 4.11 0 002.37-2.39c.27-.72.75-1.87 1.34-3.33.86-2.05 1.94-4.7 3.14-7.72-1-.47-2.07-.94-3.27-1.4-1.19 3-2.29 5.66-3.12 7.7-.62 1.53-1.11 2.68-1.4 3.45 0 .07-.06.19-.37.32-2.07.85-7.88-1.06-11.32-2.72a1.77 1.77 0 00-2.35.89zm-193.85 8.05a10.16 10.16 0 013.46 1.77 10.11 10.11 0 002.14 1.34c3-3.73 6.74-6.79 10.86-7.22 7.75-.81 40.94-7.63 98.6-20.31 2.71-.59 4.37-1 4.65-1 .48-.11 1.09-.24 2.41-3.39-.56 0-1.08 0-1.57.11-1 .09-2.12.12-3.47.14l-2.76.62c-57.54 12.64-93.06 18.08-100.69 18.85-5.78.57-10.26 4.42-13.63 9.09zm-73.87 106.51c1.91 1.7 3.94 3.41 6.1 5.05 6 4.58 39.72 27.15 52.1 27.86 1.15.06 2.44.08 3.82.08 17.27 0 51.65-4.8 56-9.74 2.58-2.91 11.56-29.59 24-66.95 5.31-16 9.87-29.74 11.31-33.16 3.56-8.49 19-11.87 20.89-11.61a1.76 1.76 0 002-1.49 1.78 1.78 0 00-1.39-2.07c-3.42-.63-22 .41-26.25 10.61-.39.95-1.08 2.75-2 5.27a31 31 0 013 1.6s-11.5 37.73-18.28 58.25a376.45 376.45 0 01-15.05 38s-20 5.75-36.85 7.86-26.54-.9-26.54-.9-26-11.78-39.24-20.23c-4.3-2.73-9.11-5.67-13.62-8.43z" style="mix-blend-mode:multiply" fill="#54434c" opacity=".5"/><path class="cls-7" d="M403.29 467.78c-.21 4.94 10.42 8.33 21.27 9 11 .67 22.23-1.47 22.53-7.63.33-6.88-24.88-9.83-37.22-6.47-3.87 1.02-6.47 2.7-6.58 5.1z"/><path class="cls-8" d="M409.87 462.66a125.42 125.42 0 0014.69 14.1c7.27.43 14.65-.34 18.9-2.72 2.18-1.2 3.52-2.82 3.63-4.91a2.62 2.62 0 00-.13-1c-1.9-6.13-25.34-8.67-37.09-5.47z"/><path class="cls-12" d="M311.6 363.33h4c-.27-.8-11.92-34-11.52-47.28a19 19 0 013.54-10.67 23.56 23.56 0 019.23-7.54c5.54.12 86.94 9.4 93.23 11.26a10.88 10.88 0 012.19 1c3.92 2.21 6.54 6.61 7.36 8.13l-9.2 26.73 5.15-.75 7.5-26.3-.27-.57a26.91 26.91 0 00-6.85-8.67 15 15 0 00-5-2.7c-4.32-1.27-36-5.05-49.37-6.6s-46.93-6.17-48.2-5.73a22.11 22.11 0 00-10.39 8.82 22.79 22.79 0 00-3.49 11.82c-.41 13.87 10.97 45.72 12.09 49.05z"/><path class="cls-13" d="M303 302.46c1.52.88 3.08 1.9 4.6 2.92a23.56 23.56 0 019.23-7.54c5.54.12 86.94 9.4 93.23 11.26a10.88 10.88 0 012.19 1c1.27-.55 2.52-1.05 3.69-1.43a15 15 0 00-5-2.7c-4.32-1.27-36-5.05-49.37-6.6s-46.93-6.17-48.2-5.73a22.11 22.11 0 00-10.37 8.82z"/><path class="cls-8" d="M420.42 465.21l.56 3.92 22.48 4.87c2.18-1.2 3.52-2.82 3.63-4.91a2.62 2.62 0 00-.13-1z"/><path class="cls-18" d="M515.76 236l3.31.84s5.53-11.46 9.76-20.31c2.56-5.36 4.64-9.76 4.77-10.1l-4.72-1.06-4.69 11z"/><path d="M524.19 216.37a13.52 13.52 0 014.64.18c2.56-5.36 4.64-9.76 4.77-10.1l-4.72-1.06z" style="mix-blend-mode:multiply" fill="#43607d" opacity=".5"/><path class="cls-20" d="M560.52 213.17a11.46 11.46 0 001.27 2.66c3.79 5.74 12.51 5.85 20.55-6.9a30.34 30.34 0 002.86-5.78c4.35-11.88-1.72-21.26-7.29-21.68a1.13 1.13 0 00-.26 0c-7.39-.33-13.35 9.24-16.06 18.33-1.59 5.27-2.05 10.4-1.07 13.37z"/><path d="M560.52 213.17a11.46 11.46 0 001.27 2.66c3.79 5.74 12.51 5.85 20.55-6.9a30.34 30.34 0 002.86-5.78c-6.14-.46-18.36-1.7-22.63-4.69l-1 1.34c-1.57 5.27-2.03 10.4-1.05 13.37z" style="mix-blend-mode:multiply" fill="#1f2f3e" opacity=".4"/><path d="M498.58 202s3.66-.07 9.75.47a158 158 0 0122.41 3.75 302.37 302.37 0 0131 9.62 11.46 11.46 0 01-1.27-2.66c-.91-2.76-.55-7.36.76-12.23 2.52-9.41 8.67-19.8 16.37-19.47-8.25-5.52-25.77-10.74-46-12.68-12.14-1.16-19.89.58-24.46 2.4v.6l-4.71 1.93a5.93 5.93 0 00-.6.5s-1.13 2.74-2.27 6.64c-1.76 6.07-3.47 14.98-.98 21.13z" fill="url(#linear-gradient)"/><path d="M414.53 342.81l112.15 31.42 12.25 3.43c-.93-.53-16.1-8.79-14.39-20.51.66-4.5 3.87-17.73 7.91-33 3.95-14.83 8.65-31.58 12.53-44 .33-1.1.67-2.15 1-3.16.1-.29.19-.6.29-.88s.27-.85.41-1.26.26-.81.41-1.21c.63-2 1.25-3.77 1.81-5.32.12-.28.2-.54.29-.79.27-.75.55-1.45.79-2.08a33.61 33.61 0 011.38-3.12c4.74-8.43 13.58-12.06 16.54-12.06a9.12 9.12 0 011.73.15c-12-5.25-102.83-27.21-109.68-23.69-7.07 3.63-22.91 44.46-28.31 59.15-1.71 4.67-3.63 10.52-5.55 16.68-5.8 18.72-11.56 40.25-11.56 40.25z" fill="url(#linear-gradient-2)"/><path class="cls-24" d="M526.68 374.23l12.25 3.43h.07s16-41.42 26.4-72.4c2.73-8.1 5.06-15.44 6.64-21.18 7-25.43 3.69-32.64-2.39-33.65a9.12 9.12 0 00-1.73-.15c-3 0-11.8 3.63-16.54 12.06a33.61 33.61 0 00-1.38 3.12c-.24.63-.51 1.33-.79 2.08-.09.25-.17.51-.29.79-.56 1.55-1.16 3.34-1.81 5.32-.15.4-.28.79-.41 1.21s-.29.83-.41 1.26-.19.57-.29.88c-.33 1-.67 2.06-1 3.16-4 12.48-8.9 29.34-13 44.15s-7.49 27.78-8.28 32.22c-1.72 9.47.06 14.73 2.96 17.7z"/><path class="cls-25" d="M414.53 342.81l112.15 31.42 12.25 3.43h.07s16-41.42 26.4-72.4c-10.71 8.87-20.52 15.39-32.93 18.9a1.82 1.82 0 01-.25.07l-.26.08c-16.21 4.44-39.55 2.64-39.55 2.64s-34.51-7.24-46.89-12.08c-5.75-2.22-13.13-7.39-19.41-12.3-5.82 18.71-11.58 40.24-11.58 40.24z"/><path class="cls-26" d="M304.06 285.1c.39 6.17 7.77 8.5 19 10.69 10.12 2 90.64 11.1 90.64 11.1a31.35 31.35 0 00.16-5.05 10.66 10.66 0 00-1-4.4c-1.61-2.88-37.2-11.17-70.92-16.51-29.25-4.64-35.73-1.78-37.58 2.07a3.83 3.83 0 00-.3 2.1z"/><path d="M563.17 278.66c2.84.69.59 12.07-2.95 10.27s-2.06-11.47 2.95-10.27zm-15.04 52.52c3.4 2.1-1.18 13-4.72 10s.3-12.72 4.72-10z" fill="#66142c"/><path d="M297.74 412.09c8.84 7.24 69.75 42.86 89.81 43.46S497.7 439.25 506 438s10-6 14.73-19.92c4.07-11.93 4.2-27.71.4-38.18a26.82 26.82 0 00-2.17-4.67c-.74-1.25-2.72-2.66-5.64-4.16-22.37-11.55-99.95-29.05-99.95-29.05s-20 2.7-42.93 6.4c-29.12 4.68-63.08 10.95-67.36 15.33a18.21 18.21 0 00-2.82 4.06c-6.26 11.77-10.26 37.93-2.52 44.28z" fill="url(#linear-gradient-3)"/><path class="cls-25" d="M297.74 412.09c8.84 7.24 69.75 42.41 89.81 43h1.84c23.17-.3 108.54-15.88 116.61-17.09 8.24-1.18 10-6 14.73-19.92a61.36 61.36 0 003-16.82c.41-7.7-.49-15.39-2.64-21.36-7.36 5.22-31.72 11.22-58.79 17.21-31.18 6.9-65.95 12.55-72.64 12.69a6.61 6.61 0 01-.8 0c-4-.46-63.26-25.81-77.86-34a45.79 45.79 0 01-10.78-8 65 65 0 00-5.61 17.65c-1.95 11.09-1.68 22.68 3.13 26.64z"/><path d="M498.88 378c2.36 3.31 2.06 5.73 2.06 5.73s-15 5.74-41 12.08-69 12.07-69 12.07l.59-3.62s40.1-6.34 66.94-13.29S498.88 378 498.88 378z" style="mix-blend-mode:screen" opacity=".1" fill="url(#linear-gradient-4)"/><path class="cls-25" d="M370.41 348.45c14.67 3.81 43.46 10.87 61.51 12.61 22.94 2.23 52.76 2.41 81.37 10-22.37-11.55-99.95-29.05-99.95-29.05s-19.96 2.74-42.93 6.44z"/><path class="cls-30" d="M304.06 285.1c.39 6.17 7.77 8.5 19 10.69 10.12 2 90.64 11.1 90.64 11.1a31.35 31.35 0 00.16-5.05c-8.88-.59-34.41-2.46-60.83-6.12-24.14-3.33-41.29-9.64-48.64-12.72a3.83 3.83 0 00-.33 2.1z"/><path class="cls-24" d="M518.47 277.67a4.54 4.54 0 001.82 6.05 4.35 4.35 0 005.69-2.48 4.55 4.55 0 00-1.83-6 4.35 4.35 0 00-5.68 2.43zM465 262.07c3.61-2.78 7.67 5.73 3.83 7.54s-8.59-3.92-3.83-7.54z"/><path class="cls-31" d="M297.74 412.09c8.84 7.24 69.75 42.41 89.81 43S497.7 439.25 506 438s10-6 14.73-19.92a61.36 61.36 0 003-16.82c-5.3 6.68-13.66 11.7-13.66 11.7s-42 9.51-71.22 14.94-50 3.63-50 3.63-34.95-10-53.08-18.57c-13.31-6.32-32.11-20.43-41.17-27.5-1.94 11.08-1.67 22.67 3.14 26.63z"/><path d="M386.22 434.72c.71 3.9 2.07 12.88 3.17 20.38 10.63-.15 34.33-3.49 57.65-7.18 2.25-.37 4.49-.74 6.72-1.09 6.12-1 12.12-2 17.75-2.95C489 441 502.93 438.49 506 438c8.24-1.18 10-6 14.73-19.92a61.36 61.36 0 003-16.82c.41-7.7-.49-15.39-2.64-21.36-4.68 3.33-16.25 7-31.05 10.73-8.42 2.13-17.9 4.31-27.74 6.48-10.3 2.28-21 4.42-30.92 6.27-2.47.47-4.92.9-7.27 1.32-16.9 3-30.52 5-34.45 5.1-2.56 8.72-4.47 19.29-3.44 24.92z" style="mix-blend-mode:multiply" opacity=".15" fill="#731a2f"/><path class="cls-20" d="M507.13 170.6v.59z"/><path d="M499.77 174.82l2.64-1.08c-.38.29-.58.48-.58.48s-7.38 17.66-3.25 27.77c0 0 3.66-.07 9.76.48-2 2.67-9 11-13.3 4.35-5.04-7.82 4.73-32 4.73-32z" fill="#192530"/><path d="M502.41 173.74a20.6 20.6 0 014.72-2.54v.61z" fill="#2d4057"/><path d="M498.58 202s3.66-.07 9.75.47a158 158 0 0122.41 3.75 302.37 302.37 0 0131 9.62 11.46 11.46 0 01-1.27-2.66c-.91-2.76-.55-7.36.76-12.23a174.46 174.46 0 00-22-7.4c-25.66-6.95-33.62-6-33.62-6a18.27 18.27 0 01-6.11-6.63c-1.7 6.02-3.41 14.93-.92 21.08z" style="mix-blend-mode:multiply" fill="url(#linear-gradient-5)" opacity=".3"/><path class="cls-18" d="M493.72 201.16c.49 9.69 5.16 8.31 5.82 8.16 0 0-3.47-3.7-2.65-11.17a110.1 110.1 0 013.27-14.61c1.52-5.55 3-10.22 3-10.22l-3.38 1.5s-1.1 2.7-2.38 6.6c-1.83 5.58-3.99 13.73-3.68 19.74z"/><path class="cls-36" d="M493.72 201.16c.49 9.69 5.16 8.31 5.82 8.16 0 0-3.47-3.7-2.65-11.17a110.1 110.1 0 013.27-14.61c-1.08-.8-2-1.5-2.77-2.12-1.82 5.58-3.98 13.73-3.67 19.74z"/><path class="cls-18" d="M556.9 210.36c1.07 6.18 5.88 8.83 9.6 8.83 0 0-9.26-4.16-5-17.42.35-1.12.73-2.23 1.1-3.31 3.43-9.74 7.84-17.15 15.8-16.73h1.12a32.61 32.61 0 00-5.49-2.32s-9.46.41-14.47 14.52c-.31.83-.59 1.71-.85 2.62-1.64 5.69-2.4 10.45-1.81 13.81z"/><path class="cls-36" d="M556.9 210.36c1.07 6.18 5.88 8.83 9.6 8.83 0 0-9.26-4.16-5-17.42.35-1.12.73-2.23 1.1-3.31-.9-1.25-1.94-2.77-3-4.53-.31.83-.59 1.71-.85 2.62-1.68 5.69-2.44 10.45-1.85 13.81z"/><path d="M564.35 180.86a13.44 13.44 0 00-6.49 6.95s-26.83-8.15-52.2-6.65l4.42-6.34s15.63-8.14 54.27 6.04z" style="mix-blend-mode:screen" fill="url(#linear-gradient-6)" opacity=".3"/><path class="cls-25" d="M471.51 443.88C489 441 502.93 438.49 506 438c8.24-1.18 10-6 14.73-19.92a61.36 61.36 0 003-16.82c.41-7.7-.49-15.39-2.64-21.36-4.68 3.33-16.25 7-31.05 10.73-3.17 18.03-12.32 39.82-18.53 53.25zm-47.39-39.15L447 447.92c2.25-.37 4.49-.74 6.72-1.09l-22.37-43.42c-2.43.47-4.88.9-7.23 1.32z"/><path class="cls-12" d="M421.31 341a18.4 18.4 0 00.18 2.86c2.33 21.11 29.1 100.05 30.27 103.53l3.82-.61c-.3-.88-30-89.25-29.55-103.89.41-13.65 12.43-19.34 14.08-20 6.1.14 85 12.24 102.66 12.4a5.35 5.35 0 011.34.17c5 1.08 8 7.64 9.12 9.68a.91.91 0 00.09.17l-23.82 84.47-14.85 2.74-3 3.49 20.61-3 24.85-88.08-.3-.6a25.73 25.73 0 00-1.79-3.11c-2-3-5.57-7.42-10.53-9.18-.24-.09-.48-.16-.72-.23-4.76-1.41-39.6-5.58-54.38-7.31-12.85-1.5-40.75-4.27-48.31-5-1-.09-1.7-.17-1.87-.17-6.55-.33-17.46 6.67-17.9 21.67z"/><path class="cls-13" d="M511.64 436l20.61-3 24.85-88.08-.3-.6a25.73 25.73 0 00-1.79-3.11l-1.78 3.91a.91.91 0 00.09.17l-23.82 84.49-14.85 2.74zm-90.15-92.14c2.33 21.11 29.1 100.05 30.27 103.53l3.82-.61c-.3-.88-30-89.25-29.55-103.89.41-13.65 12.43-19.34 14.08-20 6.1.14 85 12.24 102.66 12.4a5.35 5.35 0 011.34.17c.14-1.13.27-2.32.37-3.41-.24-.09-.48-.16-.72-.23-4.76-1.41-39.6-5.58-54.38-7.31-12.85-1.5-40.75-4.27-48.31-5L426 333.9s-2.15 4.58-4.51 9.96z"/><path class="cls-26" d="M426 308.85c.44 6.79 8.55 9.36 20.93 11.77 11.15 2.18 99.85 12.23 99.85 12.23a34.35 34.35 0 00.05-7 9.38 9.38 0 00-1-3.46c-1.76-3.17-38.78-11-75.94-16.91-33-5.21-42-3.3-43.71 1.3a5.07 5.07 0 00-.18 2.07z"/><path class="cls-30" d="M426 308.85c.44 6.79 8.55 9.36 20.93 11.77 11.15 2.18 99.85 12.23 99.85 12.23a36.54 36.54 0 00-.23-5.89c-7.52.43-21.67 0-56.84-4.53-38.79-5-61.49-12.23-61.49-12.23s-2.22-2.11-2.22-1.35z"/><path d="M556.68 251.5c-.88.3-16.22-5.43-36.87-10.26s-51-10.87-51-10.87l-9.43.6-1.77 4.83s30.08 1.81 44.24 7.24 30.37 10.27 30.37 10.27H552z" style="mix-blend-mode:screen" fill="url(#linear-gradient-7)" opacity=".2"/><path class="cls-31" d="M454.34 375.56c-7 3.22-9.73-.9-7.37-2.42s15.92-1.5 7.37 2.42zm-46.6 10.56c-.65 3.36-11.5 1.82-12.09-1.2s12.68-1.81 12.09 1.2zm8.56-27.76c-.92 2.24-11.5 1.5-11.5-.31s12.97-3.32 11.5.31zM365 368.61c-.32 3.24-11.21 2.43-11.21-1.2-.02-2.41 11.49-1.81 11.21 1.2z"/><path class="cls-12" d="M420.54 451.93l.18 6.57.26 10.63h6.2l1.7-11.85.95-6.71-9.29 1.36z"/><path class="cls-13" d="M420.54 451.93l.18 6.57a41.41 41.41 0 018.16-1.22l.95-6.71z"/><path class="cls-7" d="M418.07 491.47l-4.13 2.41 3.24 13.9 5.02-2.13-4.13-14.18z"/><path d="M476.46 591.39s-25.07 10.87-65.47 7.24S353.48 582 353.48 582s30.08 10.56 62.24 12.68a270.8 270.8 0 0060.74-3.29z" style="mix-blend-mode:screen" opacity=".4" fill="#787880"/><path d="M474.4 582.33c-13 7.55-34.51 10.86-66.66 6.63s-39.21-15.69-39.21-15.69l13.56-6.33s23.3 12.68 52.2 12.37 30.71-4.82 30.71-4.82z" style="mix-blend-mode:screen" opacity=".2" fill="#787880"/><path d="M458.56 565.09c-3.63 2.45-19.85 6.07-39.9 4s-32.44-8.46-32.44-8.46-.3 9.37 30.08 11.47 42.26-7.01 42.26-7.01z" style="mix-blend-mode:screen" fill="#442e38" opacity=".4"/><path d="M467.44 544.83a5 5 0 002.32.59c2.32 0 4.7-1.58 8-5.34 7.73-8.86 10.88-22.86 11-23.45a1.93 1.93 0 00-.14-1.19l-3.6 1.48c-.88 3.38-4 13.93-9.95 20.73-2.39 2.75-4.19 4.14-5.34 4.14a2.13 2.13 0 01-1.17-.45c-.36 1.21-.75 2.42-1.12 3.49z" style="mix-blend-mode:multiply" opacity=".6" fill="#4d4c54"/><path d="M533.09 320l2.36 3.62s-32.74-2.72-58.1-6.65-39.52-8.75-40.4-8.75-5.32-2.41-5.32-2.41 8.56-2.42 28.32.91S533.09 320 533.09 320z" style="mix-blend-mode:screen" fill="url(#linear-gradient-8)" opacity=".2"/><path d="M432.52 321.52a20.69 20.69 0 00-11.21 20.83 41.82 41.82 0 015.46-13.43c4.28-6.79 5.75-7.4 5.75-7.4z" fill="#a4a4a9"/><path d="M430.45 561.21h-3.83s4.43 6.33 10.33 6.63l3.83-.9s-7.37-4.22-10.33-5.73z" fill="#a4a4a9" opacity=".4"/><path class="cls-13" d="M410.41 502l2.93 2.11 7.08 2.71 25.66 23.89.09-5.5c-5.57-5-25.88-22.95-26.63-23.21s-9.13 0-9.13 0z"/><path d="M409.31 501.83a1.73 1.73 0 002.21 1.17l8.77-2.85c5.16 4.68 35.12 32 40.28 37.68.81.89 1.52 1.76 2.2 2.54 1.63 2 3 3.62 4.67 4.46a5 5 0 002.32.59c2.32 0 4.7-1.58 8-5.34 7.73-8.86 10.88-22.86 11-23.45a1.93 1.93 0 00-.14-1.19 2 2 0 00-.43-.57l-41.29-37.28-.08 4.82 38.28 34.45v.06c-.88 3.38-4 13.93-9.95 20.73-2.39 2.75-4.19 4.14-5.34 4.14a2.13 2.13 0 01-1.17-.45 7 7 0 01-.77-.65 35.58 35.58 0 01-2.41-2.68c-.69-.81-1.43-1.72-2.28-2.64-5.74-6.34-39.82-37.29-41.27-38.61a1.69 1.69 0 00-1.7-.37l-9.73 3.18a1.78 1.78 0 00-1.17 2.26z" fill="#4d4c54"/></g></g></svg>