<svg width="802" height="92" fill="none" xmlns="http://www.w3.org/2000/svg"><path d="M798 0h4v50h-4V0z" fill="#F2F1EF"/><g opacity=".8"><path fill="#F2F1EF" d="M.24 41.969L799.144.1l2.616 49.932L2.857 91.9z"/><g clip-path="url(#clip0_75_710)" fill-rule="evenodd" clip-rule="evenodd"><path d="M3.522 75.551l-1.138.723-.376-.563 1.079-.685c.129.187.274.363.435.525zm14.492-18.613L7.593 70.14l1.02.763 4.42-2.964c1.517-2.6 5.707-8.574 5.905-11.198.074-.944.068-1.062-.924.197z" fill="#E94D35"/><path d="M6.963 69.335a3.91 3.91 0 00-2.552.337 3.779 3.779 0 00-1.756 1.84 3.642 3.642 0 00-.165 2.506 3.718 3.718 0 001.503 2.034 3.886 3.886 0 002.487.64 3.875 3.875 0 002.343-1.046 3.703 3.703 0 001.135-2.257 3.64 3.64 0 00-.59-2.442 3.738 3.738 0 00-1.036-1.041 3.844 3.844 0 00-1.369-.571zm-2.17 1.579a2.58 2.58 0 011.656-.387 2.54 2.54 0 011.529.725c.407.407.658.94.707 1.507a2.422 2.422 0 01-.435 1.606c-.33.47-.818.815-1.38.975a2.583 2.583 0 01-1.698-.1 2.492 2.492 0 01-1.246-1.127 2.407 2.407 0 01-.227-1.644c.068-.316.2-.616.387-.883a2.5 2.5 0 01.703-.672h.004zm-.221-13.271l11.738 12.04-.935.865-4.704-2.485c-1.78-2.428-6.572-7.931-7.043-10.52-.168-.93-.174-1.049.944.1z" fill="#E94D35"/><path d="M16.861 68.816a3.91 3.91 0 012.573.069 3.778 3.778 0 011.94 1.646c.431.751.582 1.626.425 2.475a3.718 3.718 0 01-1.281 2.18 3.886 3.886 0 01-2.407.896 3.874 3.874 0 01-2.44-.795 3.702 3.702 0 01-1.364-2.126 3.648 3.648 0 01.33-2.49 3.74 3.74 0 01.923-1.144 3.85 3.85 0 011.301-.711zm2.323 1.343a2.58 2.58 0 00-1.687-.211 2.543 2.543 0 00-1.444.88 2.43 2.43 0 00-.546 1.574c.01.57.222 1.118.6 1.551.378.433.9.725 1.474.825.575.1 1.169.003 1.68-.276.51-.278.906-.72 1.12-1.252a2.407 2.407 0 00-.425-2.497 2.503 2.503 0 00-.771-.594z" fill="#E94D35"/><path d="M11.411 65.736a1.275 1.275 0 01.954.07 1.234 1.234 0 01.619.709c.101.306.074.64-.076.927a1.248 1.248 0 01-1.208.665 1.27 1.27 0 01-.851-.423 1.19 1.19 0 01-.16-1.343c.15-.288.411-.505.726-.606h-.004zm.848-.38a.09.09 0 01-.123.019.085.085 0 01-.02-.12l6.157-8.122a.092.092 0 01.124-.018.085.085 0 01.018.12l-6.156 8.122zm-.963-.058a.084.084 0 01-.005.121.091.091 0 01-.126-.005L4.197 57.98a.084.084 0 01.01-.121.091.091 0 01.125.005l6.964 7.434zm.876.875a.83.83 0 00-1.023.223.79.79 0 00-.07.892.815.815 0 00.654.408.847.847 0 00.602-.192.812.812 0 00.288-.55.794.794 0 00-.451-.781z" fill="#fff"/><path d="M6.08 71.436a1.611 1.611 0 00-.987.403 1.54 1.54 0 00-.503.921c-.054.355.02.716.21 1.022.19.307.482.54.828.659.345.119.723.117 1.069-.005a1.59 1.59 0 00.825-.666 1.518 1.518 0 00-.3-1.94 1.585 1.585 0 00-1.142-.394zm-1.313.317a1.919 1.919 0 012.361-.355c.374.217.66.554.807.953.148.4.149.836.003 1.237-.146.4-.43.74-.802.96a1.93 1.93 0 01-1.244.247 1.891 1.891 0 01-1.12-.578 1.808 1.808 0 01-.487-1.141 1.81 1.81 0 01.482-1.322zm13.188-.939c-.365.02-.713.161-.984.402-.27.241-.448.566-.5.92a1.51 1.51 0 00.21 1.019c.188.305.48.537.825.656a1.62 1.62 0 001.066-.005 1.58 1.58 0 00.823-.663 1.514 1.514 0 00-.299-1.936 1.581 1.581 0 00-1.14-.393zm-1.313.317a1.919 1.919 0 012.361-.355c.374.217.66.554.807.953.148.399.149.836.003 1.237-.146.4-.43.74-.802.96-.373.22-.813.307-1.244.246a1.891 1.891 0 01-1.12-.578 1.807 1.807 0 01-.486-1.14 1.81 1.81 0 01.48-1.323z" fill="#E94D35"/></g><path d="M223.347 55.685l-4.019.21.556 10.612-1.998.105L217.33 56l-3.974.209-.089-1.7 9.991-.524.089 1.7zm7.468-2.303c1.5-.079 2.628.192 3.382.813.754.62 1.169 1.65 1.244 3.09l.44 8.384-1.47.077-.482-1.725-.092.004a7.01 7.01 0 01-1.044 1.184c-.352.31-.769.547-1.252.71-.468.163-1.046.262-1.735.298-.735.039-1.408-.056-2.019-.285a3.08 3.08 0 01-1.44-1.123c-.366-.533-.571-1.213-.614-2.04-.064-1.225.369-2.192 1.299-2.901.929-.724 2.395-1.17 4.398-1.336l2.087-.179-.039-.735c-.054-1.026-.313-1.726-.778-2.1-.465-.376-1.103-.542-1.915-.5a5.651 5.651 0 00-1.822.396c-.572.214-1.104.457-1.597.728l-.699-1.483c.52-.32 1.143-.597 1.868-.835a8.164 8.164 0 012.28-.442zm.941 6.538c-1.528.141-2.579.442-3.154.902-.559.46-.819 1.08-.778 1.86.036.69.27 1.184.7 1.484.445.299.997.431 1.656.397 1.041-.055 1.891-.384 2.551-.986.658-.618.956-1.524.894-2.719l-.058-1.102-1.811.164zM50.594 74.378l-2.343.123-4.714-6.893-4.037 7.351-2.182.114 4.996-8.83-5.51-7.587 2.296-.12 4.356 6.22 3.706-6.643 2.182-.114-4.667 8.075 5.917 8.304zm12.901-6.872c.054 1.026-.036 1.944-.27 2.755-.22.795-.567 1.48-1.044 2.058a4.794 4.794 0 01-1.748 1.359c-.69.312-1.471.492-2.344.537a6.013 6.013 0 01-2.273-.295 5.096 5.096 0 01-1.857-1.17c-.534-.524-.967-1.17-1.3-1.935-.317-.782-.502-1.686-.556-2.712-.071-1.363.098-2.523.508-3.481.41-.974 1.03-1.728 1.863-2.263.83-.55 1.836-.856 3.015-.918 1.117-.058 2.11.143 2.98.604.883.445 1.586 1.13 2.11 2.054.54.909.845 2.044.916 3.407zm-9.302.488c.05.964.217 1.8.5 2.507.297.69.724 1.213 1.28 1.568s1.247.51 2.074.467c.827-.043 1.498-.27 2.014-.681.516-.411.878-.975 1.086-1.692.223-.734.309-1.583.258-2.547-.051-.98-.225-1.808-.521-2.484-.297-.675-.723-1.182-1.278-1.522-.54-.355-1.232-.51-2.074-.467-1.256.066-2.145.527-2.668 1.384-.524.856-.747 2.012-.67 3.467zm14.443-2.416c.037.72.265 1.246.681 1.577.431.315 1.03.453 1.795.412.766-.04 1.457-.19 2.072-.453a12.612 12.612 0 001.88-1.066l-.278-5.283 2.022-.106.645 12.311-2.022.106-.287-5.49a11.29 11.29 0 01-1.99 1.164c-.645.28-1.434.444-2.369.493-1.255.066-2.252-.212-2.991-.834-.724-.622-1.114-1.484-1.172-2.587l-.242-4.617 2.02-.105.235 4.478zM85.94 59.95c1.057-.055 1.972.127 2.747.547.79.42 1.405 1.04 1.848 1.86.456.806.714 1.768.773 2.885l.063 1.218-8.429.442c.104 1.391.512 2.437 1.224 3.137.727.683 1.703.993 2.928.929.78-.041 1.466-.146 2.056-.315A12.485 12.485 0 0091 69.91l.092 1.769a9.054 9.054 0 01-1.829.694c-.605.17-1.329.277-2.171.321-1.164.061-2.21-.122-3.138-.55-.913-.427-1.647-1.095-2.201-2.003-.54-.923-.845-2.067-.917-3.43-.07-1.347.091-2.515.485-3.503.408-.989 1.005-1.764 1.79-2.328.799-.563 1.742-.874 2.83-.931zm.064 1.655c-.965.05-1.714.405-2.248 1.062-.519.641-.803 1.516-.852 2.624l6.27-.328c-.037-.705-.176-1.312-.418-1.821a2.598 2.598 0 00-1.051-1.166c-.445-.283-1.012-.407-1.701-.371zm25.336-2.756l.645 12.311-16.698.875-.645-12.31 2.021-.107.556 10.612 5.306-.278-.556-10.612 2.021-.106.556 10.612 5.329-.28-.556-10.61 2.021-.107zm10.477 4.38c-.094-1.792.003-3.325.289-4.599.301-1.29.807-2.33 1.518-3.12.725-.805 1.678-1.37 2.859-1.692a81.303 81.303 0 012.887-.727c.94-.218 1.821-.418 2.64-.6l.437 1.751a42.33 42.33 0 00-1.32.3 60.97 60.97 0 00-1.479.33 36.59 36.59 0 00-1.457.33c-.456.101-.857.199-1.205.294-.5.133-.942.34-1.327.622-.385.266-.712.62-.98 1.065-.253.443-.448.983-.583 1.62-.136.636-.196 1.384-.182 2.243l.138-.007c.199-.302.474-.616.826-.942.366-.326.804-.61 1.314-.852.524-.242 1.124-.38 1.797-.416 1.072-.056 1.973.135 2.702.572.744.422 1.313 1.037 1.709 1.845.411.808.645 1.763.703 2.866.071 1.362-.106 2.516-.533 3.46-.426.943-1.049 1.666-1.867 2.17-.819.488-1.787.761-2.905.82-.842.044-1.616-.077-2.322-.362a4.936 4.936 0 01-1.846-1.377c-.523-.618-.94-1.394-1.25-2.33-.31-.936-.498-2.024-.563-3.264zm6.054 5.648c.674-.035 1.248-.204 1.724-.505.491-.302.858-.774 1.1-1.417.243-.642.337-1.484.283-2.525-.066-1.256-.355-2.23-.868-2.926-.498-.71-1.282-1.038-2.354-.982a3.724 3.724 0 00-1.814.556c-.536.32-.977.68-1.325 1.083-.347.402-.591.737-.73 1.005.039.75.131 1.475.275 2.174.144.699.361 1.325.651 1.878.305.536.703.96 1.195 1.273.507.296 1.128.424 1.863.386zm19.585-5.771c.054 1.026-.036 1.944-.27 2.755a5.486 5.486 0 01-1.043 2.058 4.8 4.8 0 01-1.749 1.359c-.69.312-1.471.491-2.344.537a6.012 6.012 0 01-2.272-.296 5.088 5.088 0 01-1.858-1.169c-.534-.525-.967-1.17-1.299-1.935-.318-.782-.503-1.686-.557-2.712-.071-1.363.098-2.523.509-3.482.409-.973 1.03-1.727 1.862-2.262.831-.55 1.836-.856 3.015-.918 1.118-.059 2.111.143 2.979.604.884.445 1.587 1.13 2.112 2.054.539.909.844 2.044.915 3.407zm-9.302.487c.051.965.217 1.8.5 2.508.297.69.724 1.213 1.28 1.568s1.247.51 2.074.467c.827-.043 1.498-.27 2.014-.681.516-.411.878-.975 1.086-1.693.223-.733.309-1.582.258-2.547-.051-.98-.225-1.807-.521-2.483-.297-.675-.723-1.182-1.278-1.522-.54-.355-1.232-.511-2.074-.467-1.256.066-2.145.527-2.668 1.383-.524.857-.747 2.013-.671 3.467zm18.509-7.35c1.516-.079 2.761.386 3.735 1.394.989 1.008 1.54 2.576 1.651 4.704.073 1.393-.079 2.584-.458 3.57-.363.972-.915 1.723-1.655 2.253-.725.514-1.601.798-2.627.851-.628.033-1.191-.022-1.69-.165a4.66 4.66 0 01-1.297-.576 5.369 5.369 0 01-.92-.85l-.137.007c.044.258.092.586.143.983.052.396.085.74.1 1.03l.265 5.054-2.021.106-.934-17.824 1.654-.086.363 1.662.092-.005c.226-.365.5-.702.822-1.01a4.06 4.06 0 011.204-.754c.481-.195 1.051-.309 1.71-.343zm-.279 1.72c-.827.043-1.484.239-1.973.587-.489.332-.832.819-1.029 1.459-.197.64-.277 1.442-.242 2.407l.02.39c.053 1.012.205 1.863.457 2.557.251.693.639 1.21 1.164 1.55.539.341 1.253.488 2.142.441.75-.039 1.352-.278 1.805-.716.468-.44.798-1.017.991-1.733.207-.733.287-1.559.239-2.477-.074-1.41-.409-2.52-1.004-3.333-.58-.814-1.437-1.192-2.57-1.132zm20.069 3.623c.054 1.026-.036 1.945-.27 2.755a5.507 5.507 0 01-1.044 2.059 4.798 4.798 0 01-1.748 1.358c-.69.313-1.472.492-2.344.537a6.015 6.015 0 01-2.273-.295 5.095 5.095 0 01-1.858-1.17c-.534-.524-.967-1.17-1.299-1.935-.317-.782-.503-1.686-.557-2.712-.071-1.362.099-2.523.509-3.481.41-.974 1.03-1.728 1.862-2.263.831-.55 1.836-.856 3.015-.918 1.118-.058 2.111.143 2.98.604.883.445 1.587 1.13 2.111 2.054.539.909.844 2.044.916 3.407zm-9.302.488c.05.964.217 1.8.5 2.507.297.69.723 1.213 1.279 1.568.556.355 1.248.51 2.075.467.826-.043 1.498-.27 2.014-.681.516-.411.878-.975 1.086-1.692.222-.734.308-1.583.258-2.547-.052-.98-.226-1.808-.522-2.483-.296-.676-.722-1.183-1.277-1.523-.541-.355-1.233-.51-2.075-.467-1.255.066-2.145.527-2.668 1.384-.523.857-.747 2.012-.67 3.467zm21.805-7.292l.556 10.611 1.791-.094.313 5.972-1.952.102-.224-4.272-8.567.45.224 4.271-1.93.101-.313-5.972.988-.051a14.988 14.988 0 001.578-3.284 18.32 18.32 0 00.867-3.685c.178-1.283.242-2.554.192-3.81l6.477-.34zm-4.603 1.83a19.311 19.311 0 01-.313 3.264 21.281 21.281 0 01-.844 3.222c-.345 1.032-.766 1.93-1.264 2.692l5.627-.295-.473-9.026-2.733.143zm7.357-1.975l2.159-.113 3.032 6.866c.174.405.333.796.476 1.172.158.376.3.745.426 1.107.126.346.228.686.307 1.02l.092-.005c.072-.387.191-.893.358-1.516.166-.638.34-1.276.521-1.916l2.138-7.113 2.182-.114-4.571 14.288a9.098 9.098 0 01-.929 2.053 3.954 3.954 0 01-1.354 1.407c-.535.35-1.2.546-1.996.588-.368.02-.691.013-.969-.019a6.352 6.352 0 01-.718-.077l-.084-1.608c.17.022.371.042.602.06a6 6 0 00.76.007c.475-.025.876-.138 1.203-.34.344-.186.629-.455.856-.804.228-.335.415-.728.56-1.181l.558-1.665-5.609-12.097z" fill="#161513"/><g clip-path="url(#clip1_75_710)" fill-rule="evenodd" clip-rule="evenodd"><path d="M351.723 57.303l-1.138.722-.376-.563 1.079-.685c.128.188.274.364.435.526zm14.491-18.613l-10.42 13.202 1.019.762 4.421-2.963c1.517-2.602 5.707-8.575 5.904-11.199.074-.943.068-1.061-.924.198z" fill="#E94D35"/><path d="M355.164 51.086a3.911 3.911 0 00-2.552.338 3.78 3.78 0 00-1.757 1.84 3.644 3.644 0 00-.164 2.505 3.72 3.72 0 001.502 2.035 3.887 3.887 0 002.488.64 3.874 3.874 0 002.343-1.047 3.7 3.7 0 001.134-2.256 3.64 3.64 0 00-.589-2.443 3.727 3.727 0 00-1.037-1.04 3.845 3.845 0 00-1.368-.572zm-2.17 1.579a2.58 2.58 0 011.656-.387c.58.062 1.121.318 1.528.725a2.42 2.42 0 01.273 3.113c-.331.47-.819.815-1.38.975a2.585 2.585 0 01-1.699-.099 2.497 2.497 0 01-1.245-1.128 2.402 2.402 0 01-.227-1.644c.068-.316.2-.616.387-.883s.426-.495.703-.672h.004zm-.222-13.271l11.738 12.04-.934.866-4.704-2.486c-1.781-2.428-6.572-7.93-7.043-10.52-.168-.93-.175-1.048.943.1z" fill="#E94D35"/><path d="M365.062 50.567a3.91 3.91 0 012.573.07 3.782 3.782 0 011.94 1.645c.431.752.581 1.626.425 2.475a3.716 3.716 0 01-1.282 2.18 3.884 3.884 0 01-2.407.897 3.874 3.874 0 01-2.439-.796 3.698 3.698 0 01-1.364-2.125 3.645 3.645 0 01.33-2.49 3.73 3.73 0 01.923-1.145c.381-.318.824-.56 1.301-.71zm2.323 1.344a2.58 2.58 0 00-1.687-.212 2.544 2.544 0 00-1.445.88 2.42 2.42 0 00.055 3.125 2.53 2.53 0 001.474.826 2.59 2.59 0 001.679-.276 2.5 2.5 0 001.121-1.252 2.41 2.41 0 00-.425-2.497 2.505 2.505 0 00-.772-.594z" fill="#E94D35"/><path d="M359.612 47.487a1.273 1.273 0 01.953.07 1.203 1.203 0 01.544 1.637 1.25 1.25 0 01-1.208.665 1.269 1.269 0 01-.851-.423 1.187 1.187 0 01-.161-1.343c.151-.288.412-.506.727-.606h-.004zm.848-.379a.09.09 0 01-.124.02.087.087 0 01-.035-.057.086.086 0 01.016-.064l6.156-8.122a.092.092 0 01.125-.018.085.085 0 01.034.056.09.09 0 01-.016.063l-6.156 8.122zm-.963-.058a.085.085 0 01-.006.12.09.09 0 01-.125-.004l-6.968-7.435a.088.088 0 01-.021-.062.086.086 0 01.031-.059.09.09 0 01.125.005l6.964 7.435zm.876.875a.832.832 0 00-1.023.222.791.791 0 00-.071.892.82.82 0 00.655.408.846.846 0 00.602-.192.814.814 0 00.288-.55.768.768 0 00-.038-.311.819.819 0 00-.413-.47z" fill="#fff"/><path d="M354.281 53.188a1.613 1.613 0 00-.988.402 1.543 1.543 0 00-.503.922c-.053.354.021.716.211 1.022.189.306.481.539.827.658.346.12.724.117 1.069-.005a1.58 1.58 0 00.825-.665 1.516 1.516 0 00-.3-1.941 1.59 1.59 0 00-1.141-.393zm-1.314.317a1.917 1.917 0 012.361-.354c.375.216.66.552.808.952.147.399.148.836.003 1.236-.146.401-.43.74-.803.96a1.92 1.92 0 01-1.243.247 1.892 1.892 0 01-1.12-.578 1.807 1.807 0 01-.487-1.14 1.815 1.815 0 01.481-1.323zm13.189-.939c-.366.019-.714.16-.984.402a1.536 1.536 0 00-.501.919 1.51 1.51 0 00.21 1.02c.189.305.48.536.825.655a1.62 1.62 0 001.066-.005c.345-.121.636-.356.823-.663.188-.307.261-.668.206-1.02a1.524 1.524 0 00-.504-.916 1.61 1.61 0 00-1.141-.393zm-1.313.317a1.92 1.92 0 012.361-.354c.374.216.659.552.807.951.148.4.149.837.003 1.237-.146.4-.429.74-.803.96-.373.22-.812.307-1.243.247a1.889 1.889 0 01-1.119-.578 1.808 1.808 0 01-.488-1.141 1.81 1.81 0 01.482-1.322z" fill="#E94D35"/></g><path d="M254.826 50.098c.934-.05 1.753.038 2.455.263.702.209 1.257.548 1.666 1.018.408.454.629 1.026.666 1.715.039.75-.137 1.359-.527 1.824-.391.45-.941.794-1.65 1.031l.005.092c.497.112.959.28 1.385.503.426.224.772.528 1.038.913.281.385.438.89.471 1.519a3.148 3.148 0 01-.478 1.867c-.338.57-.89 1.037-1.654 1.4-.748.361-1.728.574-2.937.637-.582.03-1.143.03-1.682-.004a9.023 9.023 0 01-1.438-.2 6.15 6.15 0 01-1.126-.38l-.095-1.814a12 12 0 001.873.57c.73.161 1.516.22 2.358.176a6.115 6.115 0 001.643-.294c.498-.164.885-.4 1.161-.705.275-.322.398-.743.371-1.264-.025-.474-.175-.85-.451-1.128-.276-.292-.678-.501-1.207-.627-.513-.127-1.168-.17-1.964-.127l-1.654.086-.087-1.654 1.332-.07c1.057-.055 1.892-.237 2.505-.545.628-.325.924-.832.888-1.52-.031-.583-.299-1.006-.804-1.272-.49-.265-1.186-.375-2.09-.328-.674.036-1.267.136-1.781.301-.498.149-1.047.37-1.646.662l-.796-1.57a9.543 9.543 0 012.033-.752 11.86 11.86 0 012.217-.323zm13.165-.667c1.5-.079 2.628.192 3.382.813.754.62 1.169 1.65 1.244 3.09l.44 8.383-1.47.078-.482-1.726-.092.005a7.01 7.01 0 01-1.044 1.184c-.352.31-.769.546-1.252.71-.468.163-1.046.262-1.735.298-.735.039-1.408-.056-2.019-.285a3.08 3.08 0 01-1.44-1.123c-.366-.533-.571-1.213-.614-2.04-.064-1.225.369-2.192 1.299-2.901.929-.725 2.395-1.17 4.398-1.336l2.087-.179-.039-.735c-.054-1.026-.313-1.726-.778-2.1-.465-.376-1.103-.542-1.915-.5a5.651 5.651 0 00-1.822.395c-.572.215-1.104.458-1.597.73l-.699-1.484c.521-.32 1.143-.598 1.868-.835a8.164 8.164 0 012.28-.442zm.941 6.538c-1.528.141-2.579.442-3.154.902-.559.46-.819 1.08-.778 1.86.036.69.27 1.184.7 1.483.446.3.998.432 1.656.397 1.041-.054 1.892-.383 2.551-.985.658-.618.956-1.525.894-2.719l-.058-1.102-1.811.163zm9.764-2.4c.038.719.265 1.244.682 1.576.431.315 1.029.452 1.795.412.766-.04 1.456-.191 2.072-.454a12.634 12.634 0 001.879-1.066l-.277-5.282 2.021-.106.645 12.31-2.021.107-.287-5.49c-.666.48-1.329.868-1.989 1.164-.646.28-1.436.444-2.37.493-1.255.066-2.253-.212-2.992-.834-.723-.622-1.114-1.485-1.172-2.587l-.241-4.617 2.021-.106.234 4.48zm14.584-5.256l.645 12.31-2.021.107-.645-12.311 2.021-.106zm-1.23-4.565c.307-.016.58.077.821.28.255.186.395.5.418.945.023.428-.083.756-.317.984a1.142 1.142 0 01-.787.363 1.2 1.2 0 01-.867-.277c-.24-.202-.372-.518-.395-.946-.023-.444.075-.772.294-.983a1.2 1.2 0 01.833-.366zm11.205 16.617c-1.087.057-2.071-.114-2.952-.513-.865-.4-1.568-1.054-2.106-1.962-.524-.91-.824-2.092-.9-3.546-.08-1.516.108-2.762.564-3.738.455-.976 1.1-1.708 1.935-2.197.849-.49 1.825-.764 2.928-.822a7.853 7.853 0 011.825.112c.588.092 1.071.22 1.448.385l-.532 1.71a12.022 12.022 0 00-1.307-.324 5.704 5.704 0 00-1.388-.111c-.827.043-1.499.255-2.016.635-.518.38-.889.922-1.113 1.624-.224.703-.309 1.567-.255 2.593.051.98.225 1.808.521 2.483.297.676.714 1.176 1.254 1.5.539.326 1.199.468 1.98.427.673-.035 1.259-.135 1.757-.3.514-.165.98-.358 1.398-.58l.094 1.792c-.402.236-.853.42-1.353.555-.484.148-1.078.24-1.782.277zm13.201-13.267l2.205-.115-4.95 6.201 6.031 6.087-2.343.123-5.885-5.956.327 6.247-2.021.106-.645-12.311 2.021-.106.313 5.972 4.947-6.248zm3.426-.18l2.159-.112 3.031 6.865c.175.406.334.797.476 1.173.158.375.3.744.427 1.106.125.347.228.687.307 1.02l.091-.004c.072-.388.192-.893.359-1.516.166-.638.34-1.277.521-1.916l2.138-7.114 2.182-.114-4.572 14.289a9.054 9.054 0 01-.929 2.052 3.936 3.936 0 01-1.354 1.407c-.534.35-1.2.546-1.996.588-.367.02-.69.013-.968-.018a6.326 6.326 0 01-.718-.078l-.084-1.607c.17.021.37.042.602.06.246.018.5.02.76.006.475-.025.876-.138 1.203-.339a2.36 2.36 0 00.856-.805c.228-.334.415-.728.56-1.18l.557-1.665-5.608-12.097z" fill="#161513"/><g clip-path="url(#clip2_75_710)" fill-rule="evenodd" clip-rule="evenodd"><path d="M583.769 45.142l-1.138.722-.376-.563 1.079-.685c.129.188.274.364.435.526zm14.492-18.613L587.84 39.73l1.019.762 4.421-2.963c1.517-2.602 5.707-8.575 5.905-11.199.074-.943.068-1.061-.924.198z" fill="#E94D35"/><path d="M587.21 38.925a3.912 3.912 0 00-2.552.338 3.779 3.779 0 00-1.756 1.84 3.639 3.639 0 00-.165 2.505 3.716 3.716 0 001.503 2.035 3.884 3.884 0 002.487.64 3.874 3.874 0 002.343-1.047 3.707 3.707 0 001.135-2.256 3.652 3.652 0 00-.589-2.443 3.74 3.74 0 00-1.037-1.04 3.842 3.842 0 00-1.369-.572zm-2.17 1.579a2.58 2.58 0 011.656-.387 2.544 2.544 0 011.529.725 2.42 2.42 0 01.272 3.113 2.53 2.53 0 01-1.38.975 2.584 2.584 0 01-1.698-.099 2.495 2.495 0 01-1.246-1.128 2.414 2.414 0 01.16-2.527c.187-.267.426-.495.703-.672h.004zm-.221-13.271l11.738 12.04-.935.865-4.704-2.485c-1.78-2.428-6.572-7.93-7.043-10.52-.168-.93-.174-1.048.944.1z" fill="#E94D35"/><path d="M597.108 38.406a3.91 3.91 0 012.573.07 3.778 3.778 0 011.94 1.645 3.64 3.64 0 01.425 2.475 3.72 3.72 0 01-1.281 2.18 3.888 3.888 0 01-2.407.897 3.876 3.876 0 01-2.44-.796 3.708 3.708 0 01-1.364-2.125 3.65 3.65 0 01.33-2.49c.228-.438.541-.826.923-1.145a3.83 3.83 0 011.301-.71zm2.324 1.344a2.582 2.582 0 00-1.688-.212 2.542 2.542 0 00-1.444.88 2.43 2.43 0 00-.546 1.574c.01.57.222 1.118.6 1.552.378.433.9.724 1.474.825.575.1 1.169.002 1.679-.276a2.49 2.49 0 001.121-1.252 2.41 2.41 0 00-.425-2.497 2.49 2.49 0 00-.771-.594z" fill="#E94D35"/><path d="M591.658 35.326a1.275 1.275 0 01.954.07 1.233 1.233 0 01.619.71c.101.306.074.64-.076.927a1.247 1.247 0 01-1.208.664 1.237 1.237 0 01-1.088-.838 1.191 1.191 0 01.076-.927c.151-.288.412-.506.727-.606h-.004zm.848-.379a.089.089 0 01-.123.019.083.083 0 01-.035-.056.082.082 0 01.016-.064l6.156-8.122a.09.09 0 01.058-.034.092.092 0 01.066.016.082.082 0 01.034.056.08.08 0 01-.016.063l-6.156 8.122zm-.963-.058a.083.083 0 01.023.061.085.085 0 01-.028.06.094.094 0 01-.064.022.09.09 0 01-.062-.027l-6.967-7.435a.08.08 0 01-.021-.062.081.081 0 01.03-.059.09.09 0 01.064-.022c.023 0 .045.01.062.027l6.963 7.435zm.877.875a.832.832 0 00-1.024.222.797.797 0 00.274 1.215.84.84 0 001.112-.354.767.767 0 00.05-.614.822.822 0 00-.412-.47z" fill="#fff"/><path d="M586.327 41.027a1.607 1.607 0 00-.987.402c-.272.242-.45.567-.503.922-.054.354.021.715.21 1.022.189.306.482.539.828.658.346.12.723.117 1.069-.005.345-.122.637-.357.825-.665a1.516 1.516 0 00-.301-1.941 1.615 1.615 0 00-1.141-.393zm-1.313.317a1.92 1.92 0 012.361-.354c.374.216.659.552.807.952.148.399.149.836.003 1.236-.146.401-.429.74-.802.96-.373.22-.813.308-1.244.247a1.889 1.889 0 01-1.119-.578 1.806 1.806 0 01-.006-2.463zm13.188-.94c-.365.02-.713.162-.984.403a1.536 1.536 0 00-.501.919 1.51 1.51 0 00.21 1.02c.189.304.481.536.826.655a1.62 1.62 0 001.066-.005 1.58 1.58 0 00.823-.663 1.52 1.52 0 00.206-1.02 1.53 1.53 0 00-.505-.916 1.608 1.608 0 00-1.141-.393zm-1.313.318a1.918 1.918 0 012.361-.355c.374.217.659.553.807.952.148.4.149.837.003 1.237-.146.4-.429.74-.802.96-.373.22-.813.307-1.244.247a1.892 1.892 0 01-1.119-.578 1.806 1.806 0 01-.006-2.463z" fill="#E94D35"/></g><g clip-path="url(#clip3_75_710)" fill-rule="evenodd" clip-rule="evenodd"><path d="M766.889 35.545l-1.138.722-.376-.563 1.079-.684c.129.187.274.363.435.525zm14.492-18.613L770.96 30.134l1.019.762 4.421-2.963c1.517-2.601 5.707-8.575 5.905-11.198.074-.944.067-1.062-.924.197z" fill="#E94D35"/><path d="M770.33 29.328a3.911 3.911 0 00-2.552.338 3.785 3.785 0 00-1.757 1.84 3.644 3.644 0 00-.164 2.505 3.716 3.716 0 001.503 2.035 3.884 3.884 0 002.487.64 3.875 3.875 0 002.343-1.047 3.707 3.707 0 001.135-2.256 3.652 3.652 0 00-.589-2.443 3.755 3.755 0 00-1.037-1.04 3.842 3.842 0 00-1.369-.572zm-2.17 1.58a2.58 2.58 0 011.656-.388 2.544 2.544 0 011.529.725 2.42 2.42 0 01.272 3.113 2.533 2.533 0 01-1.38.975 2.583 2.583 0 01-1.698-.099 2.494 2.494 0 01-1.246-1.128 2.408 2.408 0 01-.227-1.644c.068-.316.2-.616.387-.883s.426-.495.703-.672h.004zm-.221-13.272l11.737 12.04-.934.866-4.704-2.486c-1.78-2.428-6.572-7.93-7.043-10.52-.168-.93-.174-1.048.944.1z" fill="#E94D35"/><path d="M780.228 28.81a3.91 3.91 0 012.573.069 3.778 3.778 0 011.94 1.645c.431.752.581 1.626.425 2.475a3.72 3.72 0 01-1.281 2.18 3.889 3.889 0 01-2.407.897 3.876 3.876 0 01-2.44-.795 3.703 3.703 0 01-1.364-2.126 3.645 3.645 0 01.33-2.49c.228-.437.541-.826.923-1.145a3.83 3.83 0 011.301-.71zm2.323 1.343a2.579 2.579 0 00-1.687-.212 2.542 2.542 0 00-1.444.88 2.418 2.418 0 00.054 3.125 2.53 2.53 0 001.474.826c.575.1 1.169.002 1.679-.276a2.49 2.49 0 001.121-1.252 2.41 2.41 0 00-.425-2.497 2.494 2.494 0 00-.772-.594z" fill="#E94D35"/><path d="M774.778 25.73a1.273 1.273 0 01.953.069 1.225 1.225 0 01.62.71c.101.306.074.64-.076.927a1.25 1.25 0 01-1.208.665 1.27 1.27 0 01-.851-.423 1.192 1.192 0 01-.161-1.343c.151-.288.412-.506.727-.606h-.004zm.848-.38a.09.09 0 01-.124.02.09.09 0 01-.035-.057.091.091 0 01.016-.064l6.157-8.122a.09.09 0 01.058-.034.093.093 0 01.066.016.082.082 0 01.034.056.08.08 0 01-.016.063l-6.156 8.122zm-.963-.058a.083.083 0 01.023.061.085.085 0 01-.028.06.094.094 0 01-.064.022.09.09 0 01-.062-.027l-6.968-7.435a.083.083 0 01-.02-.062.081.081 0 01.03-.059.09.09 0 01.125.005l6.964 7.435zm.876.875a.832.832 0 00-1.023.222.797.797 0 00.274 1.215.84.84 0 001.112-.354.767.767 0 00.05-.614.802.802 0 00-.413-.47z" fill="#fff"/><path d="M769.447 31.43a1.608 1.608 0 00-.987.402c-.272.242-.45.568-.503.922-.054.354.021.716.21 1.022.189.306.482.539.828.658.345.12.723.117 1.069-.005.345-.122.637-.357.825-.665a1.517 1.517 0 00-.301-1.941 1.617 1.617 0 00-1.141-.393zm-1.313.317a1.92 1.92 0 012.361-.355c.374.217.659.553.807.953.148.399.149.836.003 1.236-.146.401-.429.74-.803.96a1.92 1.92 0 01-1.243.247 1.89 1.89 0 01-1.119-.578 1.808 1.808 0 01-.488-1.14 1.81 1.81 0 01.482-1.323zm13.188-.939c-.365.019-.713.16-.984.402a1.536 1.536 0 00-.501.92c-.053.353.021.713.21 1.018.189.306.481.537.825.656.345.119.722.117 1.067-.004.344-.122.635-.357.823-.664a1.52 1.52 0 00.206-1.02 1.53 1.53 0 00-.505-.915 1.61 1.61 0 00-1.141-.393zm-1.313.317a1.92 1.92 0 012.361-.355c.374.217.659.553.807.952.148.4.149.837.003 1.237-.146.4-.429.74-.802.96-.373.22-.813.308-1.244.247a1.89 1.89 0 01-1.119-.578 1.806 1.806 0 01-.006-2.463z" fill="#E94D35"/></g><path d="M487.24 37.917c.934-.049 1.752.04 2.455.263.702.21 1.257.549 1.666 1.019.407.454.629 1.026.665 1.715.04.75-.136 1.358-.526 1.824-.391.45-.941.794-1.65 1.03l.005.093c.497.112.959.28 1.385.503.426.223.772.528 1.038.913.281.384.438.89.471 1.518a3.155 3.155 0 01-.478 1.868c-.338.57-.89 1.037-1.654 1.4-.749.361-1.728.573-2.937.637-.582.03-1.143.03-1.682-.004a9.035 9.035 0 01-1.438-.201 6.06 6.06 0 01-1.126-.379l-.095-1.814c.534.218 1.158.407 1.873.57.73.161 1.516.22 2.358.175a6.123 6.123 0 001.643-.293c.498-.164.885-.4 1.16-.706.275-.321.399-.742.372-1.263-.025-.474-.175-.85-.451-1.128-.276-.292-.679-.502-1.207-.627-.514-.127-1.168-.17-1.965-.128l-1.653.087-.087-1.654 1.332-.07c1.057-.055 1.892-.237 2.505-.546.628-.324.924-.831.888-1.52-.031-.582-.299-1.005-.804-1.27-.49-.267-1.187-.376-2.09-.329a7.077 7.077 0 00-1.781.3c-.499.15-1.047.37-1.646.663l-.797-1.57a9.552 9.552 0 012.034-.752 11.835 11.835 0 012.217-.324zm13.165-.666c1.5-.08 2.628.192 3.382.813.754.62 1.169 1.65 1.244 3.09l.439 8.383-1.469.077-.482-1.725-.092.005a7.01 7.01 0 01-1.044 1.183c-.352.31-.77.547-1.252.71-.468.163-1.046.263-1.735.299-.735.038-1.408-.057-2.019-.286a3.083 3.083 0 01-1.441-1.122c-.365-.533-.57-1.214-.613-2.04-.064-1.226.369-2.193 1.299-2.902.929-.724 2.395-1.17 4.398-1.336l2.086-.178-.038-.735c-.054-1.026-.313-1.726-.778-2.101s-1.103-.541-1.915-.499a5.651 5.651 0 00-1.822.395c-.572.215-1.104.457-1.597.729l-.699-1.484c.52-.319 1.143-.597 1.868-.834a8.164 8.164 0 012.28-.442zm.941 6.537c-1.528.142-2.579.443-3.154.903-.56.459-.819 1.079-.778 1.86.036.689.269 1.183.7 1.483.445.3.997.432 1.656.397 1.041-.054 1.891-.383 2.551-.986.658-.618.956-1.524.894-2.718l-.058-1.103-1.811.164zm9.764-2.4c.038.72.265 1.245.682 1.576.431.316 1.029.453 1.795.413a6.069 6.069 0 002.072-.454 12.634 12.634 0 001.879-1.066l-.277-5.283 2.021-.105.645 12.31-2.021.106-.288-5.489a11.31 11.31 0 01-1.989 1.164c-.645.28-1.435.444-2.369.492-1.256.066-2.253-.212-2.992-.833-.723-.623-1.114-1.485-1.172-2.587l-.242-4.617 2.022-.106.234 4.479zm14.584-5.255l.645 12.31-2.021.107-.646-12.312 2.022-.105zm-1.23-4.565c.306-.017.58.077.821.279.255.186.395.501.418.945.022.43-.083.757-.317.984a1.142 1.142 0 01-.787.364 1.2 1.2 0 01-.867-.277c-.241-.202-.372-.518-.395-.947-.023-.444.075-.771.294-.982a1.2 1.2 0 01.833-.366zm11.205 16.617c-1.087.057-2.071-.114-2.952-.513-.866-.4-1.568-1.054-2.107-1.963-.523-.909-.823-2.09-.899-3.546-.08-1.515.108-2.761.564-3.737.455-.976 1.1-1.708 1.934-2.197.85-.49 1.826-.764 2.928-.822a7.859 7.859 0 011.826.112c.588.092 1.071.22 1.448.385l-.532 1.709a12.022 12.022 0 00-1.307-.323 5.707 5.707 0 00-1.388-.112c-.827.044-1.499.255-2.016.636-.518.38-.889.921-1.113 1.624-.224.703-.309 1.567-.256 2.593.052.98.226 1.808.522 2.483.297.675.714 1.176 1.253 1.5.539.325 1.199.467 1.98.426.674-.035 1.26-.135 1.758-.299a8.636 8.636 0 001.398-.58l.094 1.792a5.47 5.47 0 01-1.353.554c-.484.149-1.078.241-1.782.278zm13.2-13.267l2.205-.116-4.949 6.202 6.031 6.087-2.343.122-5.886-5.956.328 6.248-2.021.106-.646-12.311 2.022-.106.313 5.971 4.946-6.247zm3.426-.18l2.16-.113 3.031 6.866c.175.405.333.796.476 1.173.158.375.3.744.427 1.106.125.346.227.686.306 1.02l.092-.005c.072-.387.191-.892.358-1.515.167-.639.34-1.277.522-1.916l2.137-7.114 2.182-.114-4.571 14.288a9.054 9.054 0 01-.929 2.053 3.945 3.945 0 01-1.354 1.407c-.534.35-1.2.546-1.996.588-.368.02-.69.013-.968-.018a6.3 6.3 0 01-.718-.078l-.085-1.608c.17.022.371.042.602.06.247.019.5.02.761.007.474-.025.875-.138 1.203-.34.343-.186.628-.454.856-.804.228-.335.414-.728.56-1.181l.557-1.665-5.609-12.097zm77.611 9.279l-2.241-4.972-6.5.34-1.686 5.179-2.091.11 5.546-16.805 1.86-.098 7.248 16.134-2.136.112zm-5.055-11.642c-.052-.12-.14-.338-.265-.654a78.54 78.54 0 01-.373-.971 13.41 13.41 0 00-.272-.792c-.06.31-.128.629-.203.955-.06.31-.13.598-.208.863a18.9 18.9 0 01-.172.677l-1.6 5.059 5.191-.272-2.098-4.865zm8.608 4.04c-.094-1.792.002-3.325.288-4.598.301-1.29.807-2.33 1.518-3.12.726-.806 1.679-1.37 2.86-1.693a81.303 81.303 0 012.887-.727c.94-.219 1.82-.418 2.64-.6l.437 1.751a41.69 41.69 0 00-1.32.3c-.486.102-.979.212-1.48.33-.501.104-.987.214-1.457.33a26.15 26.15 0 00-1.205.294c-.5.134-.942.34-1.326.622-.385.266-.712.62-.981 1.065-.253.443-.447.983-.583 1.62-.135.636-.196 1.384-.182 2.243l.138-.007c.199-.302.475-.616.826-.942.367-.326.805-.61 1.314-.852.525-.242 1.124-.38 1.798-.416 1.072-.056 1.972.135 2.702.572.743.422 1.313 1.037 1.708 1.845.411.808.646 1.763.703 2.865.072 1.363-.106 2.517-.532 3.46-.427.944-1.049 1.667-1.867 2.17-.819.489-1.787.762-2.905.82-.842.045-1.616-.076-2.322-.361a4.936 4.936 0 01-1.846-1.377c-.524-.618-.941-1.394-1.251-2.33-.31-.936-.497-2.024-.562-3.264zm6.054 5.648c.673-.035 1.248-.204 1.724-.505.49-.302.857-.774 1.1-1.417.243-.642.337-1.484.282-2.525-.066-1.255-.355-2.23-.867-2.925-.498-.711-1.283-1.039-2.355-.983a3.721 3.721 0 00-1.813.556c-.536.32-.978.68-1.325 1.083-.348.402-.591.737-.731 1.005.04.75.131 1.475.275 2.174.145.699.362 1.325.652 1.878.304.536.703.96 1.195 1.273.507.296 1.128.424 1.863.386zm19.585-5.771c.054 1.026-.036 1.944-.27 2.755-.22.794-.567 1.48-1.044 2.058a4.798 4.798 0 01-1.748 1.359c-.69.312-1.471.491-2.344.537a6.017 6.017 0 01-2.273-.295 5.104 5.104 0 01-1.858-1.17c-.534-.525-.967-1.17-1.299-1.936-.317-.781-.503-1.685-.556-2.711-.072-1.363.098-2.523.508-3.482.41-.973 1.03-1.727 1.862-2.262.831-.55 1.836-.856 3.015-.918 1.118-.059 2.111.143 2.98.604.883.445 1.587 1.13 2.111 2.054.539.909.845 2.044.916 3.407zm-9.302.487c.05.965.217 1.8.5 2.508.297.69.724 1.213 1.279 1.568.556.355 1.248.51 2.075.467.827-.043 1.498-.27 2.014-.681.516-.411.878-.975 1.086-1.693.222-.733.308-1.582.258-2.547-.051-.98-.225-1.807-.522-2.483-.296-.675-.722-1.182-1.277-1.522-.541-.355-1.232-.511-2.075-.467-1.255.066-2.145.527-2.668 1.384-.523.856-.746 2.012-.67 3.466zM389.76 41.16c2.144-.113 3.728.227 4.752 1.017 1.024.791 1.576 1.952 1.656 3.483a5.625 5.625 0 01-.242 1.97 4.241 4.241 0 01-.993 1.711c-.479.517-1.133.942-1.959 1.277-.828.32-1.855.512-3.08.576l-1.883.099.335 6.385-2.067.109-.86-16.4 4.341-.227zm-.091 1.778l-2.09.11.339 6.477 1.654-.087c1.041-.055 1.901-.207 2.579-.458.677-.266 1.171-.652 1.482-1.16.311-.508.446-1.16.404-1.956-.055-1.056-.433-1.827-1.134-2.313-.701-.485-1.779-.69-3.234-.613zm21.099 7.37c.054 1.026-.036 1.944-.27 2.755a5.486 5.486 0 01-1.043 2.058 4.801 4.801 0 01-1.749 1.358c-.69.313-1.471.492-2.344.538a6.012 6.012 0 01-2.272-.296 5.087 5.087 0 01-1.858-1.17c-.534-.524-.967-1.169-1.299-1.935-.318-.782-.503-1.685-.557-2.711-.071-1.363.098-2.524.509-3.482.409-.973 1.03-1.727 1.862-2.262.831-.55 1.836-.857 3.015-.918 1.118-.059 2.111.142 2.979.604.884.445 1.587 1.13 2.112 2.054.539.908.844 2.044.915 3.407zm-9.302.487c.051.965.217 1.8.5 2.507.297.691.724 1.214 1.28 1.569.556.354 1.247.51 2.074.467.827-.044 1.498-.27 2.014-.682.516-.41.878-.975 1.086-1.692.223-.733.309-1.582.258-2.547-.051-.98-.225-1.808-.521-2.483-.297-.675-.723-1.183-1.278-1.522-.54-.356-1.232-.511-2.074-.467-1.256.066-2.145.527-2.668 1.383-.524.857-.747 2.012-.671 3.467zm12.278-1.864c-.094-1.791.003-3.324.289-4.598.301-1.29.807-2.33 1.518-3.12.725-.806 1.678-1.37 2.859-1.693a81.303 81.303 0 012.887-.727 302.49 302.49 0 012.64-.6l.438 1.751a42.06 42.06 0 00-1.321.3c-.486.102-.979.212-1.479.33-.502.104-.987.214-1.457.33a26.15 26.15 0 00-1.205.294c-.5.134-.942.341-1.327.622a3.415 3.415 0 00-.98 1.065c-.253.443-.448.983-.583 1.62-.136.636-.196 1.384-.182 2.243l.138-.007a5.24 5.24 0 01.826-.941c.366-.327.804-.61 1.314-.852.524-.243 1.124-.382 1.797-.417 1.072-.056 1.973.135 2.702.572.744.422 1.313 1.037 1.709 1.845.411.808.645 1.763.703 2.866.071 1.362-.106 2.516-.533 3.46-.426.943-1.049 1.666-1.867 2.17-.819.488-1.787.761-2.905.82-.842.044-1.616-.077-2.322-.362a4.925 4.925 0 01-1.845-1.377c-.524-.618-.941-1.394-1.251-2.33-.31-.936-.498-2.024-.563-3.264zm6.054 5.648c.674-.035 1.249-.204 1.724-.505.491-.302.858-.774 1.1-1.416.243-.643.337-1.485.283-2.526-.066-1.255-.355-2.23-.868-2.925-.498-.711-1.282-1.039-2.354-.983a3.727 3.727 0 00-1.814.556c-.536.32-.977.68-1.325 1.083-.347.402-.591.737-.73 1.006.039.75.131 1.474.275 2.173.144.699.361 1.325.651 1.878.305.536.703.96 1.195 1.273.507.296 1.128.424 1.863.386zm10.861-3.932c.007.138.01.337.008.599.013.244.019.513.019.805l-.004.806c-.002.246-.007.446-.014.6l6.051-10.659 2.481-.13.645 12.311-1.883.099-.381-7.258-.05-.965-.016-1.173a26.744 26.744 0 01-.001-.899l-6.006 10.633-2.504.132-.645-12.312 1.906-.1.394 7.511zm26.145-8.901l.645 12.31-1.814.096-.412-7.855a22.88 22.88 0 01-.03-1.012l.038-1.039-.069.004-3.501 10.11-1.699.09-4.424-9.696-.069.004c.048.335.082.679.1 1.031.034.352.061.71.08 1.078l.408 7.787-1.815.095-.645-12.311 2.688-.141 4.4 9.696 3.432-10.107 2.687-.14zm15.434 5.34c.054 1.026-.036 1.944-.27 2.755a5.507 5.507 0 01-1.044 2.059 4.797 4.797 0 01-1.748 1.358c-.69.312-1.472.492-2.344.537a6.017 6.017 0 01-2.273-.295 5.096 5.096 0 01-1.858-1.17c-.534-.524-.967-1.17-1.299-1.935-.317-.782-.503-1.686-.556-2.712-.072-1.363.098-2.523.508-3.481.41-.974 1.03-1.728 1.862-2.263.831-.55 1.836-.856 3.015-.918 1.118-.058 2.111.143 2.98.604.883.445 1.587 1.13 2.111 2.054.539.909.844 2.044.916 3.407zm-9.302.488c.05.964.217 1.8.5 2.507.297.69.723 1.213 1.279 1.568.556.355 1.248.51 2.075.467.827-.043 1.498-.27 2.014-.681.516-.411.878-.975 1.086-1.692.222-.734.308-1.583.258-2.547-.052-.98-.225-1.808-.522-2.483-.296-.676-.722-1.183-1.277-1.523-.541-.355-1.232-.51-2.075-.467-1.255.066-2.145.527-2.668 1.384-.523.856-.747 2.012-.67 3.467zm209.63-13.209c-.093-1.791.003-3.324.289-4.598.301-1.29.807-2.33 1.518-3.12.725-.806 1.679-1.37 2.859-1.693a81.852 81.852 0 012.887-.727c.941-.218 1.821-.418 2.64-.599l.438 1.75a41.69 41.69 0 00-1.32.3c-.486.102-.98.213-1.48.331-.501.103-.987.213-1.457.33-.455.1-.857.198-1.205.293-.5.134-.942.341-1.326.622a3.406 3.406 0 00-.981 1.065c-.253.443-.448.983-.583 1.62-.136.637-.196 1.384-.182 2.244l.138-.008c.199-.302.474-.616.826-.941.366-.327.805-.61 1.314-.852.525-.243 1.124-.382 1.798-.417 1.071-.056 1.972.135 2.701.573.744.421 1.314 1.036 1.709 1.845.411.807.645 1.762.703 2.865.072 1.363-.106 2.516-.533 3.46-.426.943-1.048 1.667-1.867 2.17-.818.488-1.787.762-2.905.82-.842.044-1.616-.076-2.322-.362a4.933 4.933 0 01-1.845-1.377c-.524-.617-.941-1.394-1.251-2.33-.31-.935-.498-2.023-.563-3.264zm6.054 5.648c.674-.035 1.249-.203 1.724-.505.491-.302.858-.774 1.101-1.416.242-.642.336-1.484.282-2.526-.066-1.255-.355-2.23-.867-2.925-.498-.711-1.283-1.038-2.355-.982a3.72 3.72 0 00-1.813.556c-.536.32-.978.68-1.326 1.082-.347.402-.591.738-.73 1.006.039.75.131 1.475.275 2.174.144.698.361 1.324.651 1.877a3.55 3.55 0 001.196 1.273c.506.296 1.127.425 1.862.386zm19.586-5.77c.053 1.025-.037 1.944-.271 2.754a5.49 5.49 0 01-1.043 2.059 4.793 4.793 0 01-1.749 1.358c-.689.313-1.471.492-2.344.537a6.012 6.012 0 01-2.272-.295 5.096 5.096 0 01-1.858-1.17c-.534-.524-.967-1.17-1.299-1.935-.317-.782-.503-1.686-.557-2.712-.071-1.362.098-2.523.509-3.481.409-.974 1.03-1.728 1.862-2.263.831-.55 1.836-.856 3.015-.918 1.118-.058 2.111.143 2.98.604.883.445 1.587 1.13 2.111 2.055.539.908.844 2.044.916 3.406zm-9.303.487c.051.965.218 1.8.5 2.507.298.69.724 1.213 1.28 1.568s1.248.51 2.074.467c.827-.043 1.499-.27 2.015-.681.515-.41.877-.975 1.085-1.692.223-.733.309-1.583.259-2.547-.052-.98-.226-1.808-.522-2.483-.297-.676-.722-1.183-1.278-1.523-.54-.355-1.232-.51-2.074-.467-1.255.066-2.145.527-2.668 1.384-.523.857-.747 2.012-.671 3.467zm18.509-7.35c1.516-.08 2.761.385 3.735 1.393.989 1.008 1.54 2.576 1.651 4.704.073 1.394-.079 2.584-.457 3.571-.364.971-.916 1.722-1.656 2.252-.725.514-1.601.798-2.627.852-.628.033-1.191-.022-1.69-.165a4.66 4.66 0 01-1.297-.577 5.325 5.325 0 01-.919-.85l-.138.007c.044.259.092.587.143.983.052.397.085.74.101 1.031l.264 5.053-2.021.106-.934-17.823 1.654-.087.363 1.662.092-.005c.227-.365.501-.701.822-1.01.337-.31.739-.56 1.205-.754.481-.194 1.051-.308 1.709-.343zm-.278 1.719c-.827.043-1.485.239-1.973.587-.49.333-.833.819-1.03 1.459-.196.64-.277 1.442-.242 2.408l.021.39c.053 1.01.205 1.863.456 2.556.251.693.639 1.21 1.164 1.551.54.34 1.254.487 2.142.44.75-.039 1.352-.278 1.805-.716.468-.439.799-1.017.991-1.733.208-.733.287-1.558.239-2.477-.074-1.409-.408-2.52-1.004-3.333-.58-.814-1.436-1.191-2.569-1.132zm20.068 3.624c.054 1.026-.036 1.944-.27 2.755-.22.794-.567 1.48-1.044 2.058a4.798 4.798 0 01-1.748 1.358c-.69.313-1.471.492-2.344.538a6.017 6.017 0 01-2.273-.296 5.103 5.103 0 01-1.858-1.17c-.534-.524-.967-1.17-1.299-1.935-.317-.782-.503-1.685-.556-2.711-.072-1.363.098-2.524.508-3.482.41-.973 1.031-1.727 1.862-2.262.831-.55 1.836-.857 3.015-.918 1.118-.059 2.111.142 2.98.604.883.445 1.587 1.13 2.112 2.054.538.908.844 2.044.915 3.407zm-9.302.487c.05.965.217 1.8.5 2.507.297.691.724 1.214 1.28 1.569.556.354 1.247.51 2.074.467.827-.044 1.498-.27 2.014-.682.516-.41.878-.975 1.086-1.692.222-.733.308-1.582.258-2.547-.051-.98-.225-1.808-.522-2.483-.296-.675-.722-1.183-1.277-1.522-.541-.356-1.232-.511-2.074-.467-1.256.066-2.145.527-2.669 1.383-.523.857-.746 2.013-.67 3.467zm21.805-7.292l.556 10.611 1.792-.094.312 5.972-1.952.103-.224-4.273-8.567.45.224 4.272-1.929.1-.313-5.971.987-.052a15.037 15.037 0 001.579-3.284c.413-1.189.702-2.417.866-3.684.178-1.284.242-2.554.192-3.81l6.477-.34zm-4.603 1.83a19.307 19.307 0 01-.312 3.264 21.283 21.283 0 01-.845 3.223c-.345 1.031-.766 1.928-1.264 2.692l5.628-.295-.473-9.027-2.734.143zm7.357-1.974l2.159-.114 3.032 6.866c.175.406.333.796.476 1.173.158.376.3.744.426 1.106.126.347.228.687.307 1.02l.092-.004c.072-.388.191-.893.358-1.516.166-.638.34-1.277.522-1.916l2.137-7.114 2.182-.114-4.571 14.289a9.098 9.098 0 01-.929 2.052 3.945 3.945 0 01-1.354 1.407c-.535.35-1.2.547-1.996.588-.368.02-.69.013-.968-.018a6.346 6.346 0 01-.719-.078l-.084-1.607c.17.021.371.042.602.06.247.018.5.02.761.006.474-.024.875-.138 1.202-.34a2.35 2.35 0 00.857-.804c.228-.334.414-.728.559-1.18l.558-1.665-5.609-12.097z" fill="#161513"/></g><defs><clipPath id="clip0_75_710"><path fill="#fff" transform="rotate(-3 1087.893 8.904)" d="M0 0h20v20H0z"/></clipPath><clipPath id="clip1_75_710"><path fill="#fff" transform="rotate(-3 913.552 -6648.852)" d="M0 0h20v20H0z"/></clipPath><clipPath id="clip2_75_710"><path fill="#fff" transform="rotate(-3 797.37 -11085.672)" d="M0 0h20v20H0z"/></clipPath><clipPath id="clip3_75_710"><path fill="#fff" transform="rotate(-3 705.685 -14587.006)" d="M0 0h20v20H0z"/></clipPath></defs></svg>