<svg width="642" height="84" fill="none" xmlns="http://www.w3.org/2000/svg"><path d="M638 0h4v50h-4V0z" fill="#F2F1EF"/><path fill="#F2F1EF" d="M.13 33.782L639.253.287l2.617 49.931L2.747 83.713z"/><path d="M215.249 47.917l-4.02.21.556 10.612-1.998.105-.556-10.612-3.973.208-.09-1.7 9.992-.523.089 1.7zm7.467-2.303c1.501-.079 2.628.192 3.382.813.754.62 1.169 1.65 1.245 3.09l.439 8.383-1.47.078-.482-1.726-.092.005a7.051 7.051 0 01-1.043 1.183c-.353.31-.77.547-1.253.71-.467.164-1.046.263-1.735.3-.735.038-1.408-.058-2.018-.287a3.079 3.079 0 01-1.441-1.122c-.366-.533-.57-1.214-.614-2.04-.064-1.225.369-2.192 1.299-2.901.93-.725 2.396-1.17 4.398-1.336l2.087-.179-.039-.735c-.053-1.026-.313-1.726-.778-2.101s-1.103-.541-1.914-.498a5.645 5.645 0 00-1.822.394 12.06 12.06 0 00-1.597.729l-.7-1.483c.521-.32 1.143-.598 1.868-.835a8.174 8.174 0 012.28-.442zm.941 6.537c-1.528.142-2.579.443-3.154.903-.559.459-.818 1.08-.777 1.86.036.69.269 1.183.699 1.483.446.3.998.432 1.656.397 1.042-.054 1.892-.383 2.551-.986.659-.617.957-1.524.894-2.718l-.058-1.103-1.811.164zM42.495 66.61l-2.343.122-4.714-6.892-4.037 7.35-2.182.115 4.996-8.83-5.51-7.587 2.296-.12 4.357 6.22 3.705-6.643 2.182-.114-4.666 8.075 5.916 8.303zm12.902-6.872c.053 1.026-.036 1.944-.27 2.755-.22.794-.568 1.48-1.044 2.058a4.795 4.795 0 01-1.748 1.359c-.69.312-1.472.491-2.345.537a6.013 6.013 0 01-2.272-.295 5.095 5.095 0 01-1.858-1.17c-.534-.525-.967-1.17-1.299-1.935-.317-.782-.503-1.686-.557-2.712-.071-1.363.099-2.523.509-3.481.41-.974 1.03-1.728 1.862-2.263.831-.55 1.836-.856 3.015-.918 1.118-.059 2.111.143 2.98.604.883.445 1.587 1.13 2.111 2.054.54.908.844 2.044.916 3.407zm-9.303.487c.051.965.218 1.8.5 2.508.298.69.724 1.213 1.28 1.568s1.248.51 2.075.467c.826-.043 1.498-.27 2.014-.681.515-.411.877-.975 1.086-1.693.222-.733.308-1.582.258-2.547-.052-.98-.226-1.807-.522-2.483-.296-.675-.722-1.182-1.277-1.522-.541-.355-1.233-.511-2.075-.467-1.255.066-2.145.527-2.668 1.384-.523.856-.747 2.012-.67 3.466zm14.443-2.415c.038.72.265 1.245.681 1.577.432.315 1.03.453 1.796.412.765-.04 1.456-.191 2.072-.454a12.617 12.617 0 001.879-1.066l-.277-5.282 2.02-.106.646 12.31-2.021.107-.288-5.49c-.666.48-1.329.868-1.989 1.164-.645.28-1.435.444-2.37.493-1.255.066-2.252-.212-2.99-.834-.724-.622-1.115-1.484-1.173-2.587l-.242-4.617 2.021-.106.235 4.48zm17.305-5.628c1.056-.056 1.972.127 2.746.547.79.42 1.406 1.04 1.848 1.86.457.806.714 1.767.773 2.885l.064 1.218-8.43.441c.104 1.392.512 2.438 1.224 3.138.727.683 1.703.993 2.928.929.78-.041 1.466-.146 2.056-.315a12.477 12.477 0 001.85-.742l.093 1.768a9.051 9.051 0 01-1.83.695c-.605.17-1.329.277-2.17.321-1.164.061-2.21-.122-3.139-.55-.913-.428-1.646-1.095-2.2-2.003-.54-.924-.846-2.067-.917-3.43-.071-1.347.09-2.515.484-3.503.409-.989 1.005-1.765 1.79-2.328.8-.564 1.742-.874 2.83-.931zm.063 1.655c-.964.05-1.713.404-2.247 1.062-.52.641-.803 1.516-.853 2.624l6.27-.329c-.036-.704-.176-1.31-.417-1.82a2.599 2.599 0 00-1.052-1.166c-.445-.283-1.011-.407-1.7-.371zm25.336-2.756l.646 12.311-16.699.875-.645-12.31 2.021-.107.557 10.612 5.305-.278-.556-10.612 2.021-.106.556 10.612 5.329-.28-.556-10.611 2.021-.106zm10.478 4.38c-.094-1.792.002-3.325.288-4.599.301-1.29.807-2.33 1.518-3.12.726-.805 1.679-1.37 2.859-1.692a81.852 81.852 0 012.887-.727c.941-.219 1.821-.418 2.641-.6l.437 1.751a41.97 41.97 0 00-1.32.3c-.486.102-.98.212-1.48.33-.501.104-.987.213-1.457.33-.455.1-.857.199-1.205.294-.5.133-.942.34-1.326.622-.386.266-.712.62-.981 1.065-.253.443-.447.983-.583 1.62-.136.636-.196 1.384-.182 2.243l.138-.007c.199-.302.474-.616.826-.942.367-.326.805-.61 1.314-.852.525-.242 1.124-.381 1.798-.416 1.072-.056 1.972.134 2.701.572.744.422 1.314 1.037 1.709 1.845.411.808.645 1.763.703 2.865.072 1.363-.106 2.516-.532 3.46-.427.944-1.049 1.667-1.867 2.17-.819.489-1.788.762-2.905.82-.843.045-1.617-.076-2.323-.361a4.94 4.94 0 01-1.845-1.378c-.524-.617-.941-1.394-1.251-2.33-.31-.935-.497-2.023-.562-3.263zm6.053 5.648c.674-.036 1.249-.204 1.724-.505.491-.302.858-.775 1.101-1.417.242-.642.337-1.484.282-2.525-.066-1.256-.355-2.23-.867-2.926-.498-.71-1.283-1.038-2.355-.982a3.72 3.72 0 00-1.813.556 5.35 5.35 0 00-1.325 1.083c-.348.402-.591.737-.731 1.005.039.75.131 1.475.275 2.174.144.699.361 1.325.651 1.877a3.55 3.55 0 001.196 1.274c.507.295 1.127.424 1.862.386zm19.586-5.771c.054 1.026-.036 1.944-.27 2.755-.22.794-.568 1.48-1.044 2.058a4.796 4.796 0 01-1.748 1.358c-.69.313-1.472.492-2.344.538a6.015 6.015 0 01-2.273-.296 5.098 5.098 0 01-1.858-1.169c-.534-.525-.967-1.17-1.299-1.936-.317-.782-.503-1.685-.557-2.711-.071-1.363.099-2.524.509-3.482.41-.973 1.03-1.727 1.862-2.262.831-.55 1.836-.857 3.015-.918 1.118-.059 2.111.142 2.98.604.883.445 1.587 1.13 2.111 2.054.539.908.844 2.044.916 3.407zm-9.302.487c.05.965.217 1.8.499 2.508.298.69.724 1.213 1.28 1.568.556.354 1.248.51 2.075.467.826-.044 1.498-.27 2.014-.682.516-.41.878-.975 1.086-1.692.222-.733.308-1.582.258-2.547-.052-.98-.226-1.808-.522-2.483-.296-.675-.722-1.183-1.277-1.522-.541-.356-1.233-.511-2.075-.467-1.255.066-2.145.527-2.668 1.383-.523.857-.747 2.013-.67 3.467zm18.508-7.35c1.516-.079 2.761.386 3.735 1.394.99 1.008 1.54 2.575 1.652 4.704.073 1.393-.08 2.584-.458 3.57-.364.972-.916 1.722-1.656 2.252-.725.514-1.601.798-2.627.852-.627.033-1.191-.022-1.69-.165a4.677 4.677 0 01-1.297-.577 5.362 5.362 0 01-.919-.85l-.138.008c.044.258.092.586.144.983.051.396.084.74.1 1.03l.264 5.054-2.021.106-.934-17.824 1.654-.087.363 1.663.092-.005a5.23 5.23 0 01.822-1.01 4.07 4.07 0 011.205-.755c.481-.194 1.051-.308 1.709-.343zm-.278 1.72c-.827.043-1.485.238-1.973.586-.49.333-.833.82-1.029 1.46-.197.64-.278 1.442-.243 2.407l.021.39c.053 1.011.205 1.863.456 2.556.251.694.639 1.21 1.164 1.552.54.34 1.254.487 2.142.44.75-.04 1.352-.278 1.805-.716.468-.44.799-1.017.992-1.734.207-.732.286-1.558.238-2.477-.074-1.408-.408-2.52-1.004-3.333-.58-.814-1.436-1.191-2.569-1.132zm20.068 3.623c.054 1.026-.036 1.944-.27 2.755-.219.794-.567 1.48-1.044 2.058a4.798 4.798 0 01-1.748 1.359c-.69.312-1.471.491-2.344.537a6.017 6.017 0 01-2.273-.295 5.091 5.091 0 01-1.857-1.17c-.535-.524-.968-1.17-1.299-1.935-.318-.782-.503-1.686-.557-2.712-.072-1.363.098-2.523.508-3.481.41-.974 1.031-1.728 1.862-2.263.831-.55 1.837-.856 3.016-.918 1.117-.059 2.111.143 2.979.604.883.445 1.587 1.13 2.112 2.054.539.909.844 2.044.915 3.407zm-9.302.488c.051.964.217 1.8.5 2.507.297.69.724 1.213 1.28 1.568s1.247.51 2.074.467c.827-.043 1.498-.27 2.014-.681.516-.411.878-.975 1.086-1.692.223-.734.309-1.583.258-2.547-.051-.98-.225-1.808-.522-2.483-.296-.676-.722-1.183-1.277-1.523-.541-.355-1.232-.511-2.074-.467-1.256.066-2.145.527-2.669 1.384-.523.856-.746 2.012-.67 3.467zm21.805-7.293l.556 10.612 1.792-.094.313 5.972-1.953.102-.224-4.272-8.567.449.224 4.272-1.929.101-.313-5.972.987-.051a15.037 15.037 0 001.579-3.285 18.38 18.38 0 00.866-3.684c.178-1.284.242-2.554.192-3.81l6.477-.34zm-4.603 1.83a19.203 19.203 0 01-.312 3.265 21.283 21.283 0 01-.845 3.222c-.345 1.032-.766 1.929-1.263 2.692l5.627-.295-.473-9.026-2.734.143zm7.357-1.974l2.159-.113 3.032 6.866c.175.405.333.796.476 1.172.158.376.3.745.426 1.107.126.346.228.686.307 1.02l.092-.005c.072-.388.191-.893.358-1.516.166-.638.34-1.277.522-1.916l2.137-7.113 2.182-.115-4.571 14.29a9.054 9.054 0 01-.929 2.052 3.945 3.945 0 01-1.354 1.406c-.535.35-1.2.547-1.996.589-.368.019-.69.013-.968-.019a6.3 6.3 0 01-.718-.077l-.085-1.608c.17.022.371.042.602.06.247.018.5.02.761.007.474-.025.875-.138 1.203-.34.343-.187.628-.455.856-.805.228-.334.414-.728.56-1.18l.557-1.665-5.609-12.097z" fill="#161513"/><g clip-path="url(#clip0_75_711)" fill-rule="evenodd" clip-rule="evenodd"><path d="M343.624 49.535l-1.138.722-.376-.563 1.079-.685c.129.188.274.363.435.526zm14.492-18.613l-10.421 13.201 1.019.763 4.421-2.964c1.517-2.6 5.707-8.574 5.905-11.198.074-.943.068-1.061-.924.198z" fill="#E94D35"/><path d="M347.065 43.318a3.912 3.912 0 00-2.552.338 3.779 3.779 0 00-1.756 1.84 3.639 3.639 0 00-.165 2.505 3.717 3.717 0 001.503 2.035 3.884 3.884 0 002.487.64 3.875 3.875 0 002.343-1.047 3.707 3.707 0 001.135-2.256 3.652 3.652 0 00-.589-2.443 3.74 3.74 0 00-1.037-1.04 3.842 3.842 0 00-1.369-.572zm-2.17 1.579a2.58 2.58 0 011.656-.387 2.544 2.544 0 011.529.725 2.42 2.42 0 01.272 3.113 2.53 2.53 0 01-1.38.975 2.582 2.582 0 01-1.698-.1 2.495 2.495 0 01-1.246-1.127 2.414 2.414 0 01.16-2.527c.187-.267.426-.495.703-.672h.004zm-.221-13.271l11.738 12.04-.935.865-4.704-2.485c-1.78-2.428-6.572-7.93-7.043-10.52-.168-.93-.174-1.049.944.1z" fill="#E94D35"/><path d="M356.963 42.8a3.91 3.91 0 012.573.068 3.778 3.778 0 011.94 1.646c.431.751.582 1.626.425 2.475a3.72 3.72 0 01-1.281 2.18 3.888 3.888 0 01-2.407.897 3.876 3.876 0 01-2.44-.796 3.708 3.708 0 01-1.364-2.125 3.65 3.65 0 01.33-2.491 3.75 3.75 0 01.923-1.144 3.83 3.83 0 011.301-.71zm2.324 1.343a2.582 2.582 0 00-1.688-.212 2.542 2.542 0 00-1.444.88 2.43 2.43 0 00-.546 1.574c.01.57.222 1.118.6 1.551a2.53 2.53 0 001.474.825c.575.1 1.169.003 1.679-.276a2.49 2.49 0 001.121-1.251 2.41 2.41 0 00-.425-2.497 2.491 2.491 0 00-.771-.595z" fill="#E94D35"/><path d="M351.513 39.719a1.275 1.275 0 01.954.07 1.231 1.231 0 01.619.709c.101.306.074.64-.076.928a1.25 1.25 0 01-1.208.664 1.274 1.274 0 01-.469-.128 1.236 1.236 0 01-.619-.71 1.192 1.192 0 01.076-.928c.151-.287.412-.505.727-.605h-.004zm.848-.379a.09.09 0 01-.058.034.088.088 0 01-.1-.071.082.082 0 01.016-.064l6.156-8.123a.092.092 0 01.124-.018.082.082 0 01.034.056.08.08 0 01-.016.064l-6.156 8.122zm-.963-.058a.083.083 0 01.023.061.085.085 0 01-.028.06.093.093 0 01-.126-.006l-6.967-7.434a.08.08 0 01-.021-.062.08.08 0 01.03-.059.09.09 0 01.125.005l6.964 7.435zm.876.875a.832.832 0 00-1.023.222.797.797 0 00.274 1.215.842.842 0 001.112-.354.768.768 0 00.05-.614.813.813 0 00-.413-.47z" fill="#fff"/><path d="M346.182 45.42a1.608 1.608 0 00-.987.402c-.272.242-.45.567-.503.922-.054.354.021.715.21 1.022.189.306.482.539.828.658s.723.117 1.069-.005a1.58 1.58 0 00.825-.666 1.516 1.516 0 00-.301-1.94 1.615 1.615 0 00-1.141-.393zm-1.313.317a1.92 1.92 0 012.361-.355c.374.217.659.553.807.952.148.4.149.837.003 1.237-.146.4-.429.74-.802.96-.373.22-.813.308-1.244.247a1.889 1.889 0 01-1.119-.578 1.806 1.806 0 01-.006-2.463zm13.188-.94c-.365.02-.713.162-.984.403a1.536 1.536 0 00-.501.919 1.51 1.51 0 00.21 1.019c.189.305.481.537.826.656a1.62 1.62 0 001.066-.005c.344-.122.635-.356.823-.663a1.52 1.52 0 00.206-1.02 1.53 1.53 0 00-.505-.916 1.608 1.608 0 00-1.141-.393zm-1.313.317a1.918 1.918 0 012.361-.354c.374.216.659.553.807.952.148.4.149.836.003 1.237-.146.4-.429.74-.802.96-.373.22-.813.307-1.244.247a1.892 1.892 0 01-1.119-.578 1.806 1.806 0 01-.006-2.463z" fill="#E94D35"/></g><path d="M246.728 42.33c.934-.05 1.752.038 2.455.262.702.21 1.257.549 1.665 1.019.408.454.63 1.026.666 1.715.039.75-.136 1.358-.526 1.824-.391.45-.941.794-1.651 1.031l.005.092c.497.112.959.28 1.385.503a2.84 2.84 0 011.039.913c.281.384.438.89.471 1.518a3.155 3.155 0 01-.478 1.868c-.339.57-.89 1.037-1.654 1.4-.749.361-1.728.574-2.938.637a14.7 14.7 0 01-1.681-.004 9.059 9.059 0 01-1.439-.2 6.173 6.173 0 01-1.125-.38l-.095-1.814c.533.218 1.157.408 1.872.57.73.161 1.516.22 2.358.175a6.108 6.108 0 001.643-.293c.498-.164.885-.4 1.161-.706.275-.321.399-.742.371-1.263-.024-.474-.175-.85-.45-1.128-.277-.292-.679-.502-1.208-.627-.513-.127-1.168-.17-1.964-.128l-1.654.087-.086-1.654 1.332-.07c1.056-.055 1.891-.237 2.505-.545.627-.325.923-.832.887-1.521-.03-.582-.298-1.005-.803-1.27-.49-.267-1.187-.376-2.09-.329-.674.036-1.268.136-1.781.3a11 11 0 00-1.647.663l-.796-1.57a9.543 9.543 0 012.033-.752 11.858 11.858 0 012.218-.323zm13.164-.667c1.501-.079 2.628.192 3.382.813.754.62 1.169 1.65 1.245 3.09l.439 8.383-1.47.077-.482-1.725-.092.005a7.051 7.051 0 01-1.043 1.183c-.353.31-.77.547-1.253.71-.467.163-1.046.263-1.735.299-.735.038-1.407-.057-2.018-.286a3.079 3.079 0 01-1.441-1.122c-.366-.533-.57-1.214-.614-2.04-.064-1.225.369-2.192 1.299-2.901.93-.725 2.396-1.17 4.398-1.337l2.087-.178-.039-.735c-.053-1.026-.313-1.726-.778-2.101s-1.103-.541-1.914-.499a5.645 5.645 0 00-1.822.395 12.06 12.06 0 00-1.597.729l-.7-1.483c.521-.32 1.144-.598 1.868-.835a8.178 8.178 0 012.28-.442zm.942 6.537c-1.529.142-2.58.443-3.155.903-.559.459-.818 1.079-.777 1.86.036.689.269 1.183.699 1.483.446.3.998.432 1.656.397 1.042-.054 1.892-.383 2.551-.986.659-.618.957-1.524.894-2.718l-.058-1.103-1.81.164zm9.764-2.4c.038.72.265 1.245.681 1.577.431.315 1.03.452 1.795.412.766-.04 1.457-.191 2.072-.454a12.584 12.584 0 001.879-1.066l-.277-5.282 2.022-.106.645 12.31-2.021.107-.288-5.49c-.666.48-1.329.868-1.989 1.164-.646.28-1.435.444-2.369.492-1.256.066-2.253-.212-2.992-.833-.724-.622-1.114-1.485-1.172-2.587l-.242-4.617 2.021-.106.235 4.479zm14.583-5.255l.645 12.31-2.021.107-.645-12.312 2.021-.105zm-1.229-4.565a1.14 1.14 0 01.82.28c.256.185.395.5.418.945.023.428-.083.756-.316.983a1.144 1.144 0 01-.788.364 1.2 1.2 0 01-.866-.277c-.241-.202-.373-.518-.395-.947-.024-.444.074-.771.294-.982.218-.227.496-.349.833-.366zm11.204 16.617c-1.087.057-2.071-.114-2.952-.513-.865-.4-1.567-1.054-2.106-1.963-.524-.909-.824-2.09-.9-3.545-.079-1.516.109-2.762.564-3.738.456-.976 1.101-1.708 1.935-2.197.849-.49 1.825-.764 2.928-.822a7.855 7.855 0 011.825.112c.589.092 1.071.22 1.448.385l-.532 1.709c-.375-.119-.81-.226-1.307-.323a5.704 5.704 0 00-1.387-.112c-.827.044-1.499.255-2.017.636-.517.38-.888.922-1.112 1.624-.225.703-.31 1.567-.256 2.593.051.98.225 1.808.522 2.483.296.676.714 1.176 1.253 1.5.539.326 1.199.468 1.98.427.674-.036 1.26-.136 1.758-.3a8.624 8.624 0 001.397-.58l.094 1.792c-.402.236-.853.42-1.353.554-.483.149-1.077.241-1.782.278zm13.201-13.267l2.205-.116-4.949 6.202 6.03 6.087-2.342.123-5.886-5.957.327 6.248-2.021.106-.645-12.311 2.021-.106.313 5.971 4.947-6.247zm3.426-.18l2.159-.113 3.032 6.866c.174.406.333.796.476 1.173.157.375.3.744.426 1.106.126.346.228.687.307 1.02l.092-.005c.072-.387.191-.892.358-1.515.166-.639.34-1.277.521-1.916l2.138-7.114 2.182-.114-4.571 14.289a9.098 9.098 0 01-.929 2.052 3.947 3.947 0 01-1.355 1.407c-.534.35-1.199.546-1.995.588-.368.02-.691.013-.969-.018a6.352 6.352 0 01-.718-.078l-.084-1.608c.17.022.371.042.602.061.247.018.5.02.76.006.475-.025.876-.138 1.203-.34a2.34 2.34 0 00.856-.804c.228-.335.415-.728.56-1.181l.558-1.664-5.609-12.098z" fill="#161513"/><g clip-path="url(#clip1_75_711)" fill-rule="evenodd" clip-rule="evenodd"><path d="M575.67 37.374l-1.137.722-.376-.563 1.078-.685c.129.188.275.363.435.526zm14.492-18.614l-10.421 13.202 1.02.763 4.42-2.964c1.517-2.6 5.708-8.574 5.905-11.198.074-.943.068-1.061-.924.198z" fill="#E94D35"/><path d="M579.111 31.157a3.908 3.908 0 00-2.551.338 3.776 3.776 0 00-1.757 1.84 3.644 3.644 0 00-.164 2.505 3.72 3.72 0 001.502 2.035 3.887 3.887 0 002.488.64 3.88 3.88 0 002.343-1.047 3.7 3.7 0 001.134-2.256c.1-.857-.109-1.72-.589-2.443a3.74 3.74 0 00-1.037-1.04 3.842 3.842 0 00-1.369-.572zm-2.17 1.579a2.582 2.582 0 011.656-.387 2.544 2.544 0 011.529.725c.408.407.658.94.708 1.508a2.426 2.426 0 01-.435 1.605c-.331.47-.819.815-1.38.975a2.585 2.585 0 01-1.699-.1 2.489 2.489 0 01-1.245-1.127 2.427 2.427 0 01.159-2.527c.187-.267.426-.495.704-.672h.003zm-.221-13.271l11.738 12.04-.934.865-4.704-2.485c-1.781-2.428-6.573-7.93-7.043-10.52-.169-.93-.175-1.048.943.1z" fill="#E94D35"/><path d="M589.01 30.638a3.91 3.91 0 012.573.07 3.776 3.776 0 011.939 1.645 3.64 3.64 0 01.426 2.475 3.716 3.716 0 01-1.282 2.18 3.886 3.886 0 01-2.407.896 3.872 3.872 0 01-2.439-.795 3.704 3.704 0 01-1.365-2.125 3.651 3.651 0 01.331-2.491 3.74 3.74 0 01.922-1.144c.382-.318.824-.56 1.302-.711zm2.323 1.343a2.58 2.58 0 00-1.687-.211 2.544 2.544 0 00-1.445.88 2.43 2.43 0 00-.546 1.574c.01.57.222 1.118.6 1.551.379.434.9.725 1.475.825.575.1 1.168.003 1.679-.276.51-.278.906-.72 1.12-1.251a2.4 2.4 0 00.054-1.66 2.434 2.434 0 00-.478-.837 2.507 2.507 0 00-.772-.595z" fill="#E94D35"/><path d="M583.559 27.558a1.278 1.278 0 01.954.07 1.231 1.231 0 01.619.709 1.2 1.2 0 01-.075.928 1.25 1.25 0 01-1.208.664 1.269 1.269 0 01-.852-.422 1.192 1.192 0 01-.16-1.343c.15-.288.412-.506.726-.606h-.004zm.848-.379a.086.086 0 01-.057.035.09.09 0 01-.066-.016.083.083 0 01-.035-.056.082.082 0 01.016-.064l6.156-8.123a.089.089 0 01.059-.033.09.09 0 01.065.015.087.087 0 01.035.056.09.09 0 01-.016.064l-6.157 8.122zm-.963-.058a.083.083 0 01.023.061.085.085 0 01-.028.06.09.09 0 01-.064.022.094.094 0 01-.062-.028l-6.967-7.434a.084.084 0 01-.021-.062.089.089 0 01.03-.059.094.094 0 01.064-.023.09.09 0 01.062.028l6.963 7.435zm.877.875a.846.846 0 00-.631-.048.827.827 0 00-.392.27.784.784 0 00-.071.892.837.837 0 001.456-.03.786.786 0 00-.362-1.084z" fill="#fff"/><path d="M578.228 33.259a1.613 1.613 0 00-.987.402 1.517 1.517 0 00-.293 1.944c.19.306.482.539.828.658s.724.117 1.069-.005c.346-.122.637-.358.825-.666a1.516 1.516 0 00-.3-1.94 1.594 1.594 0 00-1.142-.393zm-1.313.317a1.918 1.918 0 012.361-.354c.374.216.66.552.807.951.148.4.149.837.003 1.237-.145.4-.429.74-.802.96a1.92 1.92 0 01-1.243.247 1.892 1.892 0 01-1.12-.578 1.807 1.807 0 01-.487-1.141 1.81 1.81 0 01.481-1.322zm13.189-.94c-.366.02-.714.161-.985.402a1.54 1.54 0 00-.5.92 1.51 1.51 0 00.21 1.019c.188.305.48.537.825.656a1.62 1.62 0 001.066-.005c.345-.121.636-.356.823-.663.188-.307.261-.668.206-1.02a1.524 1.524 0 00-.504-.916 1.613 1.613 0 00-1.141-.393zm-1.314.317a1.916 1.916 0 012.361-.354c.375.216.66.553.808.952.147.4.148.836.003 1.237-.146.4-.43.74-.803.96-.373.22-.812.307-1.243.247a1.892 1.892 0 01-1.12-.578 1.807 1.807 0 01-.487-1.141c-.025-.485.148-.96.481-1.323z" fill="#E94D35"/></g><g clip-path="url(#clip2_75_711)" fill-rule="evenodd" clip-rule="evenodd"><path d="M3.412 67.365l-1.137.722-.376-.563 1.078-.685c.13.187.275.363.435.526zm14.492-18.613L7.484 61.953l1.019.763 4.42-2.964c1.517-2.6 5.708-8.574 5.905-11.198.074-.944.068-1.062-.924.198z" fill="#E94D35"/><path d="M6.853 61.148a3.91 3.91 0 00-2.551.337 3.78 3.78 0 00-1.757 1.84 3.642 3.642 0 00-.165 2.506 3.718 3.718 0 001.503 2.034 3.886 3.886 0 002.488.64 3.875 3.875 0 002.343-1.046 3.703 3.703 0 001.134-2.257c.1-.856-.109-1.72-.589-2.442a3.738 3.738 0 00-1.037-1.041 3.844 3.844 0 00-1.369-.571zm-2.17 1.579a2.58 2.58 0 011.656-.387 2.546 2.546 0 011.53.725c.407.407.657.94.707 1.507a2.422 2.422 0 01-.435 1.606c-.331.47-.82.815-1.38.975a2.583 2.583 0 01-1.699-.1 2.492 2.492 0 01-1.245-1.127 2.407 2.407 0 01-.227-1.644c.068-.316.2-.616.386-.883a2.5 2.5 0 01.704-.672h.003zm-.221-13.271L16.2 61.496l-.934.865-4.704-2.485c-1.781-2.428-6.573-7.93-7.043-10.52-.169-.93-.175-1.049.943.1z" fill="#E94D35"/><path d="M16.752 60.629a3.91 3.91 0 012.573.07 3.779 3.779 0 011.94 1.645c.43.751.58 1.626.425 2.475a3.718 3.718 0 01-1.282 2.18 3.886 3.886 0 01-2.407.896 3.875 3.875 0 01-2.44-.795 3.703 3.703 0 01-1.364-2.125 3.648 3.648 0 01.33-2.491 3.74 3.74 0 01.923-1.144c.382-.318.824-.56 1.302-.711zm2.323 1.343a2.58 2.58 0 00-1.687-.211 2.543 2.543 0 00-1.445.88 2.429 2.429 0 00-.546 1.574c.01.57.222 1.118.6 1.551.379.433.9.725 1.475.825.575.1 1.168.003 1.678-.276.511-.278.907-.72 1.121-1.251a2.407 2.407 0 00-.424-2.497 2.504 2.504 0 00-.772-.595z" fill="#E94D35"/><path d="M11.301 57.549a1.276 1.276 0 01.954.07 1.203 1.203 0 01.544 1.637 1.248 1.248 0 01-1.208.664 1.268 1.268 0 01-.852-.423 1.19 1.19 0 01-.16-1.343c.15-.287.412-.505.726-.605h-.004zm.848-.38a.09.09 0 01-.123.019.085.085 0 01-.02-.12l6.157-8.122a.091.091 0 01.124-.018.089.089 0 01.035.056.084.084 0 01-.017.064L12.15 57.17zm-.963-.057a.084.084 0 01-.005.12.092.092 0 01-.126-.005l-6.967-7.434a.084.084 0 01.01-.121.091.091 0 01.125.005l6.963 7.434zm.877.874a.845.845 0 00-.631-.047.83.83 0 00-.392.27.798.798 0 00-.071.891.816.816 0 00.655.409.845.845 0 00.602-.192.813.813 0 00.288-.55.797.797 0 00-.45-.781z" fill="#fff"/><path d="M5.97 63.25a1.611 1.611 0 00-.987.402 1.54 1.54 0 00-.503.922c-.053.354.021.715.21 1.022.19.306.482.538.828.658.346.119.724.117 1.07-.005.345-.122.636-.358.824-.666a1.518 1.518 0 00-.3-1.94 1.615 1.615 0 00-1.141-.393zm-1.313.317a1.919 1.919 0 012.361-.355c.374.217.66.553.807.952.148.4.15.837.003 1.237-.145.4-.429.74-.802.96-.373.22-.813.307-1.243.247a1.89 1.89 0 01-1.12-.578 1.808 1.808 0 01-.487-1.141 1.81 1.81 0 01.481-1.322zm13.189-.94c-.366.02-.714.161-.985.402-.27.241-.448.566-.5.92a1.51 1.51 0 00.21 1.019c.188.305.48.537.825.656a1.62 1.62 0 001.066-.005 1.58 1.58 0 00.823-.663 1.514 1.514 0 00-.298-1.936 1.581 1.581 0 00-1.141-.393zm-1.314.317a1.918 1.918 0 012.361-.355c.375.217.66.554.808.953.147.399.148.836.003 1.237-.146.4-.43.74-.803.96-.373.22-.812.307-1.243.247a1.891 1.891 0 01-1.12-.579 1.807 1.807 0 01-.487-1.14 1.81 1.81 0 01.481-1.323z" fill="#E94D35"/></g><path d="M479.141 30.15c.934-.05 1.753.038 2.455.262.702.209 1.258.548 1.666 1.018.408.455.63 1.027.666 1.716.039.75-.136 1.358-.527 1.824-.39.45-.941.794-1.65 1.03l.005.093c.497.112.959.28 1.385.503.426.223.773.527 1.038.913.282.384.439.89.472 1.518a3.155 3.155 0 01-.478 1.868c-.339.57-.89 1.037-1.654 1.4-.749.36-1.728.573-2.938.637-.582.03-1.142.029-1.682-.004a9.062 9.062 0 01-1.438-.201 6.099 6.099 0 01-1.125-.379l-.096-1.814c.534.217 1.158.407 1.873.57.73.16 1.516.22 2.358.175a6.115 6.115 0 001.643-.293c.498-.164.885-.4 1.161-.706.275-.321.399-.742.371-1.263-.025-.475-.175-.85-.45-1.128-.277-.293-.679-.502-1.208-.628-.513-.126-1.168-.169-1.964-.127l-1.654.087-.087-1.654 1.333-.07c1.056-.055 1.891-.237 2.504-.546.628-.324.924-.831.888-1.52-.03-.582-.298-1.006-.804-1.271-.49-.266-1.186-.375-2.09-.328a7.068 7.068 0 00-1.78.3 11 11 0 00-1.647.663l-.796-1.57a9.543 9.543 0 012.033-.752 11.86 11.86 0 012.217-.324zm13.165-.668c1.5-.078 2.628.193 3.382.814.754.62 1.169 1.65 1.245 3.09l.439 8.383-1.47.077-.482-1.725-.092.005a7.051 7.051 0 01-1.043 1.183c-.353.31-.77.547-1.253.71-.467.163-1.046.263-1.735.299-.735.038-1.408-.057-2.018-.286a3.079 3.079 0 01-1.441-1.122c-.366-.534-.57-1.214-.614-2.04-.064-1.226.369-2.193 1.299-2.902.93-.724 2.396-1.17 4.398-1.336l2.087-.178-.039-.735c-.054-1.026-.313-1.727-.778-2.101-.465-.375-1.103-.541-1.914-.499a5.64 5.64 0 00-1.822.395 12 12 0 00-1.597.729l-.7-1.484c.521-.319 1.143-.597 1.868-.835a8.174 8.174 0 012.28-.442zm.941 6.538c-1.528.141-2.579.442-3.154.902-.559.46-.818 1.08-.777 1.86.036.69.269 1.184.699 1.484.446.3.998.431 1.656.397 1.041-.055 1.892-.383 2.551-.986.659-.618.957-1.524.894-2.718l-.058-1.103-1.811.164zm9.765-2.4c.037.72.265 1.245.681 1.576.431.315 1.03.453 1.795.413a6.064 6.064 0 002.072-.454 12.634 12.634 0 001.879-1.066l-.277-5.283 2.021-.106.646 12.311-2.022.106-.287-5.49c-.666.481-1.329.869-1.989 1.165-.646.28-1.436.443-2.37.492-1.255.066-2.252-.212-2.991-.833-.724-.623-1.115-1.485-1.172-2.587l-.242-4.617 2.021-.106.235 4.479zm14.583-5.256l.645 12.311-2.021.106-.645-12.31 2.021-.107zm-1.23-4.565c.307-.016.58.078.821.28.256.186.395.501.418.945.023.429-.083.757-.317.984a1.14 1.14 0 01-.787.364 1.198 1.198 0 01-.866-.277c-.241-.203-.373-.518-.395-.947-.024-.444.074-.771.293-.982.219-.227.497-.349.833-.367zm11.205 16.618c-1.087.057-2.071-.114-2.952-.514-.865-.4-1.567-1.053-2.106-1.962-.524-.91-.824-2.091-.9-3.546-.08-1.516.109-2.762.564-3.737.456-.976 1.101-1.709 1.935-2.198.849-.49 1.825-.763 2.928-.821a7.855 7.855 0 011.825.112c.588.092 1.071.22 1.448.384l-.532 1.71c-.375-.119-.81-.227-1.307-.323a5.704 5.704 0 00-1.388-.112c-.826.043-1.499.255-2.016.635-.517.38-.888.922-1.113 1.625-.224.703-.309 1.567-.255 2.593.051.98.225 1.808.522 2.483.296.675.714 1.175 1.253 1.5.539.325 1.199.467 1.98.426.673-.035 1.259-.135 1.757-.3.514-.164.98-.358 1.398-.579l.094 1.791a5.402 5.402 0 01-1.353.555c-.483.148-1.077.24-1.782.278zm13.201-13.267l2.205-.116-4.95 6.202 6.031 6.086-2.342.123-5.886-5.956.327 6.248-2.021.105-.645-12.31 2.021-.107.313 5.972 4.947-6.247zm3.426-.18l2.159-.113 3.031 6.866c.175.405.334.796.476 1.172.158.376.3.745.427 1.107.126.346.228.686.307 1.02l.092-.005c.071-.388.191-.893.358-1.516.166-.638.34-1.276.521-1.916l2.138-7.113 2.182-.115-4.572 14.29c-.25.78-.56 1.464-.928 2.052a3.947 3.947 0 01-1.355 1.407c-.534.35-1.199.546-1.996.588-.367.019-.69.013-.968-.019a6.326 6.326 0 01-.718-.077l-.084-1.608c.17.022.37.042.602.06.246.019.5.02.76.007.475-.025.876-.138 1.203-.34a2.36 2.36 0 00.856-.804c.228-.335.415-.728.56-1.181l.558-1.665-5.609-12.097zm77.45 9.288l-2.242-4.973-6.5.34-1.686 5.179-2.09.11 5.545-16.805 1.86-.097 7.249 16.133-2.136.112zm-5.056-11.643a23.88 23.88 0 01-.264-.654 78.37 78.37 0 01-.374-.97c-.11-.348-.201-.612-.271-.793-.061.31-.129.629-.204.955-.06.31-.13.598-.208.863a18.9 18.9 0 01-.172.677l-1.6 5.059 5.191-.272-2.098-4.865zm8.608 4.04c-.094-1.791.002-3.324.289-4.598.301-1.29.807-2.33 1.518-3.12.725-.806 1.678-1.37 2.859-1.693a81.303 81.303 0 012.887-.727c.94-.218 1.82-.418 2.64-.6l.437 1.752c-.395.082-.835.181-1.32.299-.486.102-.979.212-1.48.33a36.76 36.76 0 00-1.456.33c-.456.101-.857.199-1.206.294a3.963 3.963 0 00-1.326.622 3.43 3.43 0 00-.981 1.065c-.253.443-.447.983-.583 1.62-.135.636-.196 1.384-.181 2.243l.137-.007c.2-.302.475-.616.826-.941.367-.327.805-.61 1.314-.852.525-.243 1.124-.382 1.798-.417 1.072-.056 1.973.135 2.702.573.744.421 1.313 1.036 1.709 1.845.411.807.645 1.762.703 2.865.071 1.363-.107 2.516-.533 3.46-.427.943-1.049 1.666-1.867 2.17-.819.488-1.787.762-2.905.82-.842.044-1.616-.076-2.322-.362a4.936 4.936 0 01-1.846-1.377c-.523-.617-.94-1.394-1.25-2.33-.31-.936-.498-2.024-.563-3.264zm6.054 5.648c.674-.035 1.248-.204 1.724-.505.491-.302.857-.774 1.1-1.416.243-.643.337-1.484.282-2.526-.065-1.255-.355-2.23-.867-2.925-.498-.711-1.283-1.039-2.355-.982a3.724 3.724 0 00-1.813.555c-.536.32-.978.681-1.325 1.083-.348.402-.591.737-.73 1.006.039.75.131 1.475.275 2.173.144.7.361 1.325.651 1.878.304.537.703.961 1.195 1.273.507.296 1.128.425 1.863.386zm-249.592-.912c2.144-.112 3.728.227 4.752 1.018 1.024.79 1.577 1.952 1.657 3.483a5.672 5.672 0 01-.242 1.97 4.264 4.264 0 01-.993 1.71c-.48.517-1.133.943-1.96 1.278-.828.32-1.854.512-3.079.576l-1.884.099.335 6.385-2.067.108-.86-16.4 4.341-.227zm-.091 1.779l-2.09.11.34 6.476 1.653-.086c1.042-.055 1.901-.208 2.579-.458.677-.266 1.171-.653 1.482-1.16.312-.508.446-1.16.405-1.956-.056-1.056-.434-1.827-1.135-2.313-.701-.485-1.779-.69-3.234-.613zm21.1 7.37c.054 1.025-.036 1.944-.27 2.754-.22.795-.568 1.481-1.044 2.059a4.798 4.798 0 01-1.748 1.358c-.69.313-1.472.492-2.344.538a6.015 6.015 0 01-2.273-.296 5.096 5.096 0 01-1.858-1.17c-.534-.524-.967-1.17-1.299-1.935-.317-.782-.503-1.686-.557-2.712-.071-1.362.099-2.523.509-3.48.41-.974 1.03-1.728 1.862-2.263.831-.55 1.836-.857 3.015-.919 1.118-.058 2.111.143 2.98.604.883.445 1.587 1.13 2.111 2.055.539.908.844 2.044.916 3.406zm-9.302.487c.05.965.217 1.8.499 2.507.298.691.724 1.214 1.28 1.568.556.355 1.248.51 2.075.468.826-.044 1.498-.271 2.014-.682.516-.41.878-.975 1.086-1.692.222-.733.308-1.582.258-2.547-.052-.98-.226-1.808-.522-2.483-.296-.675-.722-1.183-1.277-1.522-.541-.356-1.233-.512-2.075-.467-1.255.065-2.145.527-2.668 1.383-.523.857-.747 2.012-.67 3.467zm12.278-1.864c-.094-1.792.002-3.324.288-4.599.301-1.29.807-2.33 1.518-3.12.726-.805 1.679-1.37 2.859-1.692a82.182 82.182 0 012.887-.727c.941-.218 1.821-.418 2.641-.6l.437 1.751c-.395.082-.835.182-1.32.3-.486.102-.979.212-1.48.33-.501.104-.987.214-1.457.33-.455.1-.857.199-1.205.294-.5.133-.942.34-1.326.622-.386.266-.712.62-.981 1.065-.253.443-.447.983-.583 1.62-.135.636-.196 1.384-.182 2.243l.138-.007a5.24 5.24 0 01.826-.942c.367-.326.805-.61 1.314-.852.525-.242 1.124-.38 1.798-.416 1.072-.056 1.972.134 2.701.572.744.422 1.314 1.037 1.709 1.845.411.808.646 1.763.703 2.865.072 1.363-.106 2.516-.532 3.46-.427.944-1.049 1.667-1.867 2.17-.819.489-1.788.762-2.905.82-.843.045-1.617-.076-2.323-.361a4.94 4.94 0 01-1.845-1.377c-.524-.618-.941-1.394-1.251-2.33-.31-.936-.497-2.024-.562-3.264zm6.054 5.648c.673-.036 1.248-.204 1.723-.505.491-.302.858-.774 1.101-1.417.243-.642.337-1.484.282-2.525-.066-1.256-.355-2.23-.867-2.926-.498-.71-1.283-1.038-2.355-.982a3.722 3.722 0 00-1.813.556c-.536.32-.978.68-1.325 1.083-.348.402-.591.737-.731 1.005.04.75.131 1.475.275 2.174.144.699.361 1.325.651 1.877a3.55 3.55 0 001.196 1.274c.507.296 1.128.424 1.863.386zm10.86-3.932c.007.138.01.337.009.598.012.245.019.514.019.805l-.004.807a16.22 16.22 0 01-.015.6l6.052-10.659 2.48-.13.645 12.311-1.883.099-.38-7.258-.051-.965-.015-1.174a24.263 24.263 0 01-.001-.898l-6.007 10.633-2.504.131-.645-12.31 1.907-.1.393 7.51zm26.145-8.902l.646 12.312-1.815.095-.412-7.856a26.413 26.413 0 01-.03-1.011l.038-1.039-.069.004-3.5 10.11-1.7.089-4.424-9.695-.068.004c.048.335.081.679.1 1.03.033.352.06.712.079 1.08l.408 7.786-1.814.095-.645-12.312 2.687-.14 4.4 9.696 3.432-10.107 2.687-.14zm15.434 5.341c.054 1.026-.036 1.944-.27 2.755-.219.794-.567 1.48-1.044 2.058a4.796 4.796 0 01-1.748 1.359c-.69.312-1.471.491-2.344.537a6.017 6.017 0 01-2.273-.295 5.094 5.094 0 01-1.857-1.17c-.535-.524-.968-1.17-1.299-1.935-.318-.782-.503-1.686-.557-2.712-.072-1.363.098-2.523.508-3.481.41-.974 1.031-1.728 1.863-2.263.831-.55 1.836-.856 3.015-.918 1.117-.059 2.111.143 2.979.604.883.445 1.587 1.13 2.112 2.054.539.909.844 2.044.915 3.407zm-9.302.488c.051.964.217 1.8.5 2.507.297.69.724 1.213 1.28 1.568s1.247.51 2.074.467c.827-.043 1.498-.27 2.014-.681.516-.411.878-.975 1.086-1.693.223-.733.309-1.582.258-2.546-.051-.98-.225-1.808-.522-2.484-.296-.675-.722-1.182-1.277-1.522-.541-.355-1.232-.511-2.074-.467-1.256.066-2.145.527-2.669 1.384-.523.856-.746 2.012-.67 3.467z" fill="#161513"/><defs><clipPath id="clip0_75_711"><path fill="#fff" transform="rotate(-3 761.175 -6498.092)" d="M0 0h20v20H0z"/></clipPath><clipPath id="clip1_75_711"><path fill="#fff" transform="rotate(-3 644.993 -10934.912)" d="M0 0h20v20H0z"/></clipPath><clipPath id="clip2_75_711"><path fill="#fff" transform="rotate(-3 931.515 6.904)" d="M0 0h20v20H0z"/></clipPath></defs></svg>