<svg width="1920" height="152" fill="none" xmlns="http://www.w3.org/2000/svg"><path fill="#F2F1EF" d="M1916 1h4v50h-4z"/><path fill="#F2F1EF" d="M.007 101.277L1917.376.792l2.617 49.931L2.623 151.208z"/><g clip-path="url(#clip0_75_712)" fill-rule="evenodd" clip-rule="evenodd"><path d="M14.274 134.284l-1.137.722-.376-.563 1.078-.685c.13.188.275.364.435.526zm14.492-18.613l-10.42 13.202 1.019.762 4.42-2.963c1.517-2.602 5.708-8.575 5.905-11.199.074-.943.068-1.061-.924.198z" fill="#E94D35"/><path d="M17.715 128.067a3.908 3.908 0 00-2.551.338 3.78 3.78 0 00-1.757 1.839 3.643 3.643 0 00-.165 2.506 3.72 3.72 0 001.503 2.035 3.89 3.89 0 002.488.639 3.87 3.87 0 002.343-1.046 3.7 3.7 0 001.134-2.256 3.65 3.65 0 00-.589-2.443 3.748 3.748 0 00-1.037-1.041 3.847 3.847 0 00-1.369-.571zm-2.17 1.579a2.577 2.577 0 011.656-.387 2.551 2.551 0 011.53.725 2.42 2.42 0 01.273 3.113 2.54 2.54 0 01-1.381.975 2.58 2.58 0 01-1.699-.099 2.492 2.492 0 01-1.245-1.128 2.405 2.405 0 01-.227-1.644 2.447 2.447 0 011.09-1.555h.004zm-.221-13.271l11.738 12.041-.934.864-4.704-2.485c-1.78-2.428-6.573-7.931-7.043-10.519-.169-.931-.175-1.049.943.099z" fill="#E94D35"/><path d="M27.614 127.548a3.908 3.908 0 012.573.07 3.776 3.776 0 011.94 1.645c.43.752.58 1.626.425 2.475a3.72 3.72 0 01-1.282 2.181 3.89 3.89 0 01-2.407.896 3.875 3.875 0 01-2.44-.796 3.698 3.698 0 01-1.364-2.125 3.649 3.649 0 01.33-2.491 3.777 3.777 0 012.225-1.855zm2.323 1.344a2.58 2.58 0 00-1.687-.212 2.54 2.54 0 00-1.445.881 2.428 2.428 0 00-.546 1.573c.01.57.222 1.118.6 1.552.379.433.9.724 1.475.825.575.1 1.168.002 1.678-.276a2.49 2.49 0 001.121-1.252 2.407 2.407 0 00-.424-2.497 2.487 2.487 0 00-.772-.594z" fill="#E94D35"/><path d="M22.163 124.468a1.28 1.28 0 01.954.07 1.226 1.226 0 01.62.709c.1.307.073.64-.076.928a1.25 1.25 0 01-1.208.665 1.255 1.255 0 01-.851-.423 1.19 1.19 0 01-.16-1.343c.15-.288.41-.506.725-.606h-.004zm.848-.379a.09.09 0 01-.057.035.09.09 0 01-.066-.016.085.085 0 01-.035-.056.083.083 0 01.016-.064l6.156-8.122a.086.086 0 01.059-.034.086.086 0 01.066.016.084.084 0 01.018.119l-6.157 8.122zm-.962-.058a.085.085 0 01.022.061.083.083 0 01-.028.059.089.089 0 01-.064.023.094.094 0 01-.062-.027l-6.967-7.435a.085.085 0 01.01-.121.092.092 0 01.063-.022.09.09 0 01.062.027l6.963 7.435zm.876.875a.843.843 0 00-1.023.222.799.799 0 00-.071.892.837.837 0 001.257.216.802.802 0 00.288-.549.79.79 0 00-.196-.587.801.801 0 00-.255-.194z" fill="#fff"/><path d="M16.832 130.169a1.615 1.615 0 00-.987.402 1.517 1.517 0 00-.293 1.944c.19.306.482.539.828.658s.724.117 1.07-.005c.345-.122.636-.357.824-.665a1.518 1.518 0 00-.3-1.941 1.586 1.586 0 00-1.142-.393zm-1.313.317a1.92 1.92 0 012.361-.355c.374.217.66.553.807.952.148.4.15.837.003 1.237-.145.401-.429.74-.802.96a1.92 1.92 0 01-1.243.247 1.89 1.89 0 01-1.12-.578 1.807 1.807 0 01-.487-1.141 1.81 1.81 0 01.481-1.322zm13.189-.94c-.366.02-.714.162-.985.403a1.54 1.54 0 00-.5.919 1.51 1.51 0 00.21 1.019c.188.305.48.537.825.656s.722.117 1.066-.005c.345-.121.635-.356.823-.663a1.514 1.514 0 00-.298-1.936 1.604 1.604 0 00-1.141-.393zm-1.314.318a1.901 1.901 0 011.117-.59c.43-.064.87.019 1.245.235.374.217.659.553.807.952.147.399.148.836.003 1.237a1.85 1.85 0 01-.803.96c-.373.22-.812.307-1.243.247a1.891 1.891 0 01-1.12-.578 1.81 1.81 0 01-.487-1.141 1.809 1.809 0 01.481-1.322z" fill="#E94D35"/></g><path d="M234.1 114.417l-4.02.211.557 10.611-1.999.105-.556-10.611-3.973.208-.089-1.7 9.991-.523.089 1.699zm7.467-2.303c1.501-.078 2.628.193 3.382.813.754.621 1.169 1.651 1.245 3.091l.439 8.383-1.47.077-.482-1.725-.092.005a7.013 7.013 0 01-1.043 1.183c-.352.31-.77.547-1.253.711-.467.162-1.045.262-1.735.298-.735.038-1.407-.057-2.018-.286a3.08 3.08 0 01-1.441-1.122c-.366-.534-.57-1.214-.614-2.041-.064-1.225.369-2.192 1.299-2.901.93-.724 2.396-1.169 4.398-1.336l2.087-.178-.039-.735c-.053-1.026-.313-1.727-.778-2.101-.464-.375-1.103-.541-1.914-.499a5.64 5.64 0 00-1.822.395c-.572.214-1.105.457-1.597.729l-.7-1.484c.521-.319 1.144-.597 1.868-.835a8.182 8.182 0 012.28-.442zm.942 6.538c-1.528.142-2.58.442-3.155.902-.559.46-.818 1.08-.777 1.861.036.689.269 1.183.699 1.483.446.299.998.431 1.656.397 1.042-.055 1.892-.383 2.551-.986.659-.618.957-1.524.894-2.718l-.058-1.103-1.81.164zM61.346 133.11l-2.343.123-4.714-6.893-4.037 7.352-2.182.114 4.996-8.83-5.51-7.588 2.296-.12 4.357 6.221 3.705-6.643 2.182-.115-4.666 8.075 5.916 8.304zm12.902-6.871c.054 1.025-.037 1.944-.27 2.754-.22.795-.568 1.481-1.044 2.059a4.786 4.786 0 01-1.748 1.358c-.69.313-1.472.492-2.345.538a6.015 6.015 0 01-2.272-.296 5.092 5.092 0 01-1.858-1.169c-.534-.525-.967-1.17-1.299-1.936-.317-.782-.503-1.685-.556-2.711-.072-1.363.097-2.524.508-3.482.41-.973 1.03-1.727 1.862-2.262.831-.551 1.836-.857 3.015-.918 1.118-.059 2.111.142 2.98.603.883.446 1.587 1.13 2.111 2.055.54.908.844 2.044.916 3.407zm-9.302.487c.05.965.217 1.801.5 2.507.297.691.723 1.214 1.28 1.569.555.354 1.247.51 2.074.467.826-.044 1.498-.271 2.014-.682.516-.411.878-.975 1.086-1.692.222-.733.308-1.582.258-2.547-.052-.98-.226-1.808-.522-2.483-.296-.675-.722-1.183-1.277-1.522-.541-.356-1.233-.511-2.075-.467-1.255.065-2.145.527-2.668 1.383-.523.857-.747 2.012-.67 3.467zm14.442-2.415c.038.72.265 1.245.682 1.576.43.316 1.029.453 1.795.413.765-.04 1.456-.191 2.072-.454a12.582 12.582 0 001.879-1.066l-.277-5.283 2.02-.106.646 12.312-2.021.106-.288-5.49a11.37 11.37 0 01-1.989 1.164c-.645.279-1.435.443-2.37.492-1.255.066-2.252-.212-2.99-.833-.724-.622-1.115-1.485-1.173-2.587l-.242-4.617 2.021-.106.235 4.479zm17.305-5.628c1.056-.056 1.972.126 2.746.547.79.419 1.406 1.039 1.848 1.86.457.806.715 1.767.773 2.885l.064 1.217-8.43.442c.104 1.392.512 2.438 1.224 3.137.727.684 1.703.993 2.928.929.78-.041 1.466-.146 2.056-.315a12.39 12.39 0 001.85-.742l.093 1.769a9.124 9.124 0 01-1.829.695c-.606.17-1.33.277-2.172.321-1.163.061-2.21-.122-3.138-.55-.913-.428-1.646-1.096-2.2-2.003-.54-.924-.846-2.067-.917-3.43-.07-1.348.09-2.515.484-3.503.409-.989 1.005-1.765 1.79-2.328.8-.564 1.743-.874 2.83-.931zm.064 1.654c-.965.051-1.714.405-2.248 1.063-.52.641-.803 1.516-.853 2.624l6.27-.329c-.036-.704-.176-1.311-.417-1.82a2.598 2.598 0 00-1.052-1.166c-.444-.284-1.011-.408-1.7-.372zm25.335-2.755l.646 12.311-16.698.875-.646-12.311 2.022-.106.556 10.611 5.305-.278-.556-10.611 2.021-.106.557 10.611 5.328-.279-.556-10.611 2.021-.106zm10.478 4.379c-.094-1.791.002-3.324.288-4.598.301-1.29.807-2.33 1.518-3.12.726-.805 1.679-1.37 2.859-1.693a83.078 83.078 0 012.887-.727c.941-.218 1.821-.418 2.641-.599l.437 1.751c-.395.082-.835.182-1.32.299-.486.102-.979.213-1.48.331-.501.103-.987.213-1.457.33-.455.1-.857.198-1.205.293-.5.134-.942.341-1.326.623-.386.265-.712.62-.981 1.064-.253.444-.447.983-.583 1.62-.135.637-.196 1.385-.182 2.244l.138-.008c.199-.302.474-.616.826-.941.367-.326.805-.61 1.314-.852.525-.242 1.124-.381 1.798-.417 1.072-.056 1.972.135 2.701.573.744.421 1.314 1.036 1.709 1.845.411.807.646 1.762.703 2.865.072 1.363-.106 2.516-.532 3.46-.427.943-1.049 1.667-1.867 2.17-.819.488-1.788.762-2.905.82-.843.045-1.617-.076-2.323-.362a4.925 4.925 0 01-1.845-1.377c-.524-.617-.941-1.394-1.251-2.33-.31-.935-.497-2.023-.562-3.264zm6.054 5.648c.673-.035 1.248-.203 1.723-.505.491-.302.858-.774 1.101-1.416.243-.642.337-1.484.282-2.525-.066-1.256-.355-2.231-.867-2.926-.498-.711-1.283-1.038-2.355-.982a3.71 3.71 0 00-1.813.556c-.536.319-.978.68-1.325 1.082-.348.402-.591.738-.731 1.006.04.75.131 1.475.275 2.174.144.698.361 1.324.651 1.877.305.537.703.961 1.196 1.273.507.296 1.128.425 1.863.386zm19.585-5.771c.054 1.026-.036 1.945-.27 2.755-.22.795-.568 1.481-1.044 2.059a4.799 4.799 0 01-1.748 1.358c-.69.313-1.472.492-2.344.537a5.997 5.997 0 01-2.273-.295 5.107 5.107 0 01-1.858-1.169c-.534-.525-.967-1.17-1.299-1.936-.317-.782-.503-1.686-.556-2.712-.072-1.362.098-2.523.508-3.481.41-.973 1.03-1.728 1.862-2.263.831-.55 1.836-.856 3.015-.918 1.118-.058 2.111.143 2.98.604.883.445 1.587 1.13 2.111 2.055.539.908.844 2.044.916 3.406zm-9.302.488c.05.965.217 1.8.5 2.507.297.691.723 1.214 1.279 1.568.556.355 1.248.511 2.075.467.827-.043 1.498-.27 2.014-.681.516-.411.878-.975 1.086-1.692.222-.733.308-1.582.258-2.547-.052-.98-.225-1.808-.522-2.483-.296-.676-.722-1.183-1.277-1.522-.541-.356-1.232-.512-2.075-.468-1.255.066-2.145.527-2.668 1.384-.523.857-.747 2.012-.67 3.467zm18.508-7.35c1.516-.079 2.761.385 3.735 1.394.99 1.007 1.54 2.575 1.652 4.704.073 1.393-.08 2.583-.458 3.57-.364.971-.916 1.722-1.656 2.252-.725.514-1.601.798-2.627.852-.627.033-1.191-.022-1.689-.165a4.654 4.654 0 01-1.297-.577 5.324 5.324 0 01-.92-.85l-.138.007c.044.259.092.587.144.983.051.397.084.74.1 1.031l.265 5.053-2.022.106-.934-17.823 1.654-.087.363 1.662.092-.004c.227-.365.501-.702.823-1.011a4.062 4.062 0 011.204-.754c.481-.194 1.051-.308 1.709-.343zm-.278 1.719c-.827.043-1.485.239-1.973.587-.49.333-.833.819-1.029 1.459-.197.64-.278 1.442-.243 2.408l.021.39c.053 1.011.205 1.863.456 2.556.252.693.639 1.21 1.164 1.551.54.34 1.254.487 2.142.441.75-.04 1.352-.278 1.805-.717.468-.439.799-1.017.992-1.733.207-.732.286-1.558.238-2.477-.074-1.409-.408-2.52-1.004-3.333-.58-.814-1.436-1.191-2.569-1.132zm20.068 3.624c.054 1.026-.036 1.944-.27 2.755-.219.794-.567 1.48-1.044 2.058a4.78 4.78 0 01-1.748 1.358c-.69.313-1.471.492-2.344.538a6.017 6.017 0 01-2.273-.296 5.077 5.077 0 01-1.857-1.169c-.535-.525-.968-1.17-1.299-1.936-.318-.781-.503-1.685-.557-2.711-.072-1.363.098-2.523.508-3.482.41-.973 1.031-1.727 1.863-2.262.831-.55 1.836-.856 3.015-.918 1.117-.059 2.111.142 2.979.604.883.445 1.587 1.129 2.112 2.054.539.908.844 2.044.915 3.407zm-9.302.487c.051.965.217 1.801.5 2.507.297.691.724 1.214 1.28 1.569.556.354 1.247.51 2.074.467.827-.044 1.498-.271 2.014-.682.516-.41.878-.975 1.086-1.692.223-.733.309-1.582.258-2.547-.051-.98-.225-1.807-.522-2.483-.296-.675-.722-1.183-1.277-1.522-.541-.356-1.232-.511-2.074-.467-1.256.066-2.145.527-2.668 1.383-.524.857-.747 2.013-.671 3.467zm21.805-7.292l.556 10.611 1.792-.093.313 5.971-1.953.103-.224-4.272-8.567.449.224 4.272-1.929.101-.313-5.972.987-.052a14.982 14.982 0 001.579-3.284c.413-1.188.702-2.417.866-3.684.178-1.284.242-2.554.192-3.811l6.477-.339zm-4.602 1.83a19.302 19.302 0 01-.313 3.264 21.282 21.282 0 01-.845 3.223c-.345 1.031-.766 1.929-1.263 2.692l5.627-.295-.473-9.027-2.733.143zm7.357-1.974l2.159-.113 3.031 6.865c.175.406.334.797.476 1.173.158.376.3.744.427 1.106.125.347.227.687.306 1.021l.092-.005c.072-.388.191-.893.358-1.516.167-.638.34-1.277.522-1.916l2.137-7.114 2.182-.114-4.571 14.289a9.038 9.038 0 01-.929 2.052 3.945 3.945 0 01-1.354 1.407c-.534.351-1.2.547-1.996.588-.367.02-.69.013-.968-.018a6.134 6.134 0 01-.718-.078l-.085-1.607c.17.021.371.042.602.06.247.018.5.02.761.006.474-.024.875-.138 1.203-.339.343-.187.628-.455.856-.805.228-.334.415-.728.56-1.181l.557-1.664-5.608-12.097z" fill="#161513"/><g clip-path="url(#clip1_75_712)" fill-rule="evenodd" clip-rule="evenodd"><path d="M362.475 116.035l-1.137.723-.377-.563 1.079-.685c.129.187.274.363.435.525zm14.492-18.613l-10.421 13.202 1.019.762 4.421-2.963c1.517-2.601 5.707-8.574 5.905-11.198.074-.944.068-1.062-.924.197z" fill="#E94D35"/><path d="M365.916 109.819a3.905 3.905 0 00-2.551.337 3.779 3.779 0 00-1.757 1.84 3.639 3.639 0 00-.165 2.506 3.713 3.713 0 001.503 2.034 3.884 3.884 0 002.487.64 3.875 3.875 0 002.343-1.046 3.707 3.707 0 001.135-2.257 3.65 3.65 0 00-.589-2.442 3.737 3.737 0 00-1.037-1.041 3.829 3.829 0 00-1.369-.571zm-2.17 1.579a2.577 2.577 0 013.185.338 2.421 2.421 0 01.272 3.113c-.331.47-.818.815-1.38.975a2.591 2.591 0 01-1.698-.099 2.499 2.499 0 01-1.246-1.128 2.414 2.414 0 01.16-2.527c.187-.267.426-.495.703-.672h.004zm-.221-13.271l11.738 12.04-.934.865-4.705-2.485c-1.78-2.428-6.572-7.931-7.043-10.52-.168-.93-.174-1.049.944.1z" fill="#E94D35"/><path d="M375.815 109.3a3.905 3.905 0 012.572.069 3.777 3.777 0 011.94 1.646c.431.751.582 1.626.425 2.475a3.718 3.718 0 01-1.281 2.18 3.886 3.886 0 01-2.407.896 3.87 3.87 0 01-2.44-.795 3.71 3.71 0 01-1.364-2.126 3.649 3.649 0 01.33-2.49c.228-.437.541-.826.923-1.144.382-.318.824-.56 1.302-.711zm2.323 1.343a2.582 2.582 0 00-1.688-.211 2.543 2.543 0 00-1.444.88 2.421 2.421 0 00.054 3.125c.379.433.9.725 1.475.825a2.58 2.58 0 001.678-.276 2.487 2.487 0 001.121-1.252 2.41 2.41 0 00-.425-2.496 2.497 2.497 0 00-.771-.595z" fill="#E94D35"/><path d="M370.364 106.22a1.279 1.279 0 01.954.069 1.24 1.24 0 01.619.71c.101.306.074.64-.076.927a1.24 1.24 0 01-.723.608 1.28 1.28 0 01-.954-.071 1.24 1.24 0 01-.619-.71 1.191 1.191 0 01.076-.928c.151-.288.412-.505.727-.606l-.004.001zm.848-.379a.09.09 0 01-.058.034.088.088 0 01-.065-.015.085.085 0 01-.035-.057.083.083 0 01.016-.064l6.156-8.122a.09.09 0 01.124-.018.082.082 0 01.034.056.08.08 0 01-.016.064l-6.156 8.122zm-.963-.059a.084.084 0 01-.005.121.1.1 0 01-.064.023.09.09 0 01-.062-.028l-6.967-7.434a.08.08 0 01-.021-.063.08.08 0 01.03-.058.09.09 0 01.064-.023.094.094 0 01.062.028l6.963 7.434zm.877.875a.85.85 0 00-.632-.047.828.828 0 00-.392.27.795.795 0 00.274 1.215.838.838 0 001.112-.355.763.763 0 00.088-.302.794.794 0 00-.45-.781z" fill="#fff"/><path d="M365.033 111.92a1.606 1.606 0 00-.987.403c-.272.241-.45.567-.503.921a1.51 1.51 0 00.21 1.022c.189.307.482.539.828.659.346.119.724.117 1.069-.005a1.59 1.59 0 00.825-.666 1.517 1.517 0 00-.301-1.941 1.603 1.603 0 00-1.141-.393zm-1.313.317a1.904 1.904 0 011.116-.589c.431-.064.871.019 1.245.235.374.216.659.553.807.952.148.399.149.836.003 1.237-.146.401-.429.74-.802.96-.373.22-.813.307-1.244.247a1.895 1.895 0 01-1.119-.578 1.808 1.808 0 01-.006-2.464zm13.188-.939a1.608 1.608 0 00-.984.402 1.536 1.536 0 00-.501.92 1.51 1.51 0 00.21 1.019c.189.305.481.537.826.656s.721.117 1.066-.005c.344-.122.635-.356.823-.663a1.52 1.52 0 00.206-1.021 1.532 1.532 0 00-.505-.915 1.583 1.583 0 00-1.141-.393zm-1.313.317a1.904 1.904 0 011.117-.589c.43-.065.87.018 1.244.235.374.216.66.553.807.952.148.399.149.836.003 1.237-.145.4-.429.74-.802.96-.373.22-.813.307-1.243.247a1.893 1.893 0 01-1.12-.579 1.805 1.805 0 01-.006-2.463z" fill="#E94D35"/></g><path d="M265.579 108.83c.934-.049 1.752.039 2.455.263.702.209 1.257.548 1.665 1.018.408.455.63 1.027.666 1.716.039.75-.136 1.358-.526 1.824-.391.45-.941.794-1.651 1.031l.005.092c.497.112.959.279 1.385.503a2.83 2.83 0 011.039.913c.281.384.438.89.471 1.518a3.157 3.157 0 01-.478 1.868c-.339.57-.89 1.037-1.654 1.399-.749.362-1.728.574-2.938.638-.582.03-1.142.029-1.681-.004a9.059 9.059 0 01-1.439-.201 6.099 6.099 0 01-1.125-.379l-.095-1.814c.533.217 1.157.407 1.872.569.73.162 1.516.22 2.359.176a6.124 6.124 0 001.642-.293c.499-.164.885-.4 1.161-.706.275-.321.399-.742.372-1.263-.025-.475-.176-.851-.451-1.128-.276-.293-.679-.502-1.208-.628-.513-.126-1.168-.169-1.964-.127l-1.654.087-.086-1.654 1.332-.07c1.056-.055 1.891-.237 2.505-.546.628-.324.923-.831.887-1.52-.03-.582-.298-1.006-.803-1.271-.49-.266-1.187-.375-2.09-.328-.674.035-1.268.135-1.781.301a10.88 10.88 0 00-1.647.662l-.796-1.571a9.53 9.53 0 012.034-.751 11.778 11.778 0 012.217-.324zm13.164-.667c1.501-.078 2.628.193 3.382.813.755.621 1.169 1.651 1.245 3.091l.439 8.383-1.47.077-.482-1.725-.092.005a7.013 7.013 0 01-1.043 1.183c-.352.31-.77.547-1.253.71-.467.163-1.045.263-1.734.299-.735.038-1.408-.057-2.019-.286a3.08 3.08 0 01-1.441-1.122c-.366-.534-.57-1.214-.614-2.041-.064-1.225.369-2.192 1.299-2.901.93-.724 2.396-1.169 4.399-1.336l2.086-.178-.038-.735c-.054-1.026-.314-1.727-.779-2.101-.464-.375-1.103-.541-1.914-.499a5.64 5.64 0 00-1.822.395c-.572.214-1.105.457-1.597.729l-.7-1.484c.521-.319 1.144-.597 1.868-.835a8.182 8.182 0 012.28-.442zm.942 6.538c-1.528.142-2.58.442-3.155.902-.559.46-.818 1.08-.777 1.861.036.689.269 1.183.699 1.483.446.299.998.431 1.656.397 1.042-.055 1.892-.383 2.551-.986.659-.618.957-1.524.894-2.719l-.058-1.102-1.81.164zm9.764-2.4c.038.719.265 1.245.681 1.576.431.315 1.03.453 1.795.413.766-.04 1.457-.192 2.072-.454a12.56 12.56 0 001.879-1.066l-.277-5.283 2.022-.106.645 12.311-2.021.106-.288-5.489c-.666.48-1.329.868-1.989 1.164-.645.279-1.435.443-2.369.492-1.256.066-2.253-.212-2.992-.833-.724-.623-1.114-1.485-1.172-2.588l-.242-4.616 2.021-.106.235 4.479zm14.583-5.256l.646 12.311-2.022.106-.645-12.311 2.021-.106zm-1.229-4.565c.306-.016.58.077.82.28.256.186.395.501.419.945.022.429-.084.757-.317.984a1.142 1.142 0 01-.787.364 1.205 1.205 0 01-.867-.277c-.241-.203-.373-.518-.395-.947-.023-.444.075-.771.294-.983.218-.226.496-.348.833-.366zm11.204 16.618c-1.087.057-2.071-.114-2.951-.513-.866-.4-1.568-1.055-2.107-1.963-.524-.909-.824-2.091-.9-3.546-.079-1.516.109-2.762.564-3.737.456-.976 1.101-1.709 1.935-2.198.85-.489 1.826-.763 2.928-.821a7.812 7.812 0 011.825.112c.589.092 1.071.22 1.448.384l-.532 1.71c-.375-.119-.81-.227-1.307-.323a5.716 5.716 0 00-1.387-.112c-.827.043-1.499.255-2.017.635-.517.381-.888.922-1.112 1.625-.224.703-.31 1.567-.256 2.593.051.98.225 1.807.522 2.483.296.675.714 1.175 1.253 1.5.539.325 1.199.467 1.98.426.674-.035 1.26-.135 1.758-.299a8.57 8.57 0 001.397-.58l.094 1.792c-.402.236-.853.42-1.353.554-.483.148-1.077.241-1.782.278zm13.201-13.267l2.205-.116-4.949 6.202 6.031 6.086-2.343.123-5.886-5.956.327 6.247-2.021.106-.645-12.311 2.021-.106.313 5.972 4.947-6.247zm3.426-.18l2.159-.113 3.032 6.866c.174.405.333.796.476 1.172.158.376.3.745.426 1.107.126.346.228.686.307 1.02l.092-.005c.072-.387.191-.893.358-1.516.166-.638.34-1.277.521-1.916l2.138-7.113 2.182-.115-4.571 14.289a9.11 9.11 0 01-.929 2.053 3.942 3.942 0 01-1.354 1.406c-.535.351-1.2.547-1.996.589a5.917 5.917 0 01-.969-.019 6.433 6.433 0 01-.718-.077l-.084-1.608c.17.022.371.042.602.061.247.017.5.02.76.006.475-.025.876-.138 1.203-.34.344-.186.629-.455.856-.804.228-.335.415-.728.56-1.181l.558-1.665-5.609-12.097z" fill="#161513"/><g clip-path="url(#clip2_75_712)" fill-rule="evenodd" clip-rule="evenodd"><path d="M594.521 103.874l-1.137.723-.376-.563 1.078-.685c.129.187.275.363.435.525zm14.492-18.613l-10.421 13.202 1.02.762 4.42-2.963c1.517-2.601 5.708-8.574 5.905-11.198.074-.944.068-1.062-.924.197z" fill="#E94D35"/><path d="M597.963 97.658a3.911 3.911 0 00-2.552.337 3.776 3.776 0 00-1.757 1.84 3.645 3.645 0 00-.164 2.506 3.716 3.716 0 001.502 2.034 3.887 3.887 0 002.488.64 3.875 3.875 0 002.343-1.046 3.7 3.7 0 001.134-2.257 3.64 3.64 0 00-.589-2.442 3.728 3.728 0 00-1.037-1.041 3.843 3.843 0 00-1.368-.571zm-2.17 1.579a2.579 2.579 0 011.655-.387 2.544 2.544 0 011.529.725c.408.407.658.94.708 1.507a2.427 2.427 0 01-.435 1.606c-.331.47-.819.815-1.38.974a2.581 2.581 0 01-1.699-.099 2.49 2.49 0 01-1.245-1.127 2.422 2.422 0 01.159-2.527c.187-.267.426-.495.704-.672h.004zm-.222-13.271l11.738 12.04-.934.865-4.704-2.485c-1.781-2.428-6.573-7.931-7.043-10.52-.169-.93-.175-1.049.943.1z" fill="#E94D35"/><path d="M607.861 97.139a3.91 3.91 0 012.573.069 3.776 3.776 0 011.939 1.646 3.64 3.64 0 01.426 2.475 3.714 3.714 0 01-1.282 2.18 3.884 3.884 0 01-2.407.896 3.866 3.866 0 01-2.439-.795 3.706 3.706 0 01-1.365-2.126 3.65 3.65 0 01.331-2.49c.227-.437.541-.826.922-1.144.382-.318.824-.56 1.302-.711zm2.323 1.343a2.579 2.579 0 00-1.687-.211 2.544 2.544 0 00-1.445.88 2.42 2.42 0 00.055 3.125c.378.433.899.725 1.474.825.575.1 1.168.003 1.679-.276.51-.279.906-.721 1.12-1.252.215-.53.234-1.117.054-1.659a2.434 2.434 0 00-.478-.838 2.508 2.508 0 00-.772-.594z" fill="#E94D35"/><path d="M602.411 94.058a1.27 1.27 0 01.953.07 1.233 1.233 0 01.619.71c.101.306.074.64-.075.927a1.25 1.25 0 01-1.208.665 1.265 1.265 0 01-.851-.423 1.192 1.192 0 01-.161-1.343c.15-.288.412-.505.726-.606h-.003zm.847-.378a.086.086 0 01-.057.034.09.09 0 01-.066-.015.087.087 0 01-.035-.057.082.082 0 01.016-.064l6.156-8.122a.093.093 0 01.125-.018.09.09 0 01.034.056.09.09 0 01-.016.063l-6.157 8.123zm-.962-.059a.085.085 0 01-.006.12.09.09 0 01-.064.023.094.094 0 01-.062-.027l-6.967-7.434a.084.084 0 01.009-.121.094.094 0 01.064-.023.09.09 0 01.062.028l6.964 7.434zm.876.875a.846.846 0 00-.631-.047.828.828 0 00-.392.27.791.791 0 00-.071.892.835.835 0 00.975.37.814.814 0 00.57-.704.8.8 0 00-.451-.781z" fill="#fff"/><path d="M597.08 99.76a1.612 1.612 0 00-.988.402 1.516 1.516 0 00-.293 1.943c.19.307.482.539.828.658.346.12.724.118 1.069-.004.346-.123.637-.358.825-.666a1.517 1.517 0 00-.3-1.941 1.607 1.607 0 00-1.141-.393zm-1.314.316a1.918 1.918 0 012.361-.354c.374.216.66.553.807.952.148.399.149.836.003 1.237-.145.401-.429.74-.802.96-.373.22-.812.307-1.243.247a1.897 1.897 0 01-1.12-.578 1.81 1.81 0 01-.487-1.141 1.816 1.816 0 01.481-1.323zm13.189-.939a1.61 1.61 0 00-.985.402 1.54 1.54 0 00-.5.92 1.51 1.51 0 00.21 1.019c.188.305.48.537.825.656.345.118.722.117 1.066-.005.345-.122.636-.356.823-.663.188-.307.261-.668.206-1.021a1.524 1.524 0 00-.504-.915 1.613 1.613 0 00-1.141-.393zm-1.314.317a1.92 1.92 0 012.362-.355c.374.217.659.553.807.953.147.399.148.836.003 1.237-.146.4-.43.739-.803.96a1.92 1.92 0 01-2.363-.332 1.805 1.805 0 01-.006-2.463z" fill="#E94D35"/></g><g clip-path="url(#clip3_75_712)" fill-rule="evenodd" clip-rule="evenodd"><path d="M777.641 94.277l-1.137.723-.376-.563 1.079-.685c.128.187.274.363.434.525zm14.492-18.613l-10.42 13.202 1.019.763 4.421-2.964c1.516-2.601 5.707-8.574 5.904-11.198.074-.944.068-1.062-.924.197z" fill="#E94D35"/><path d="M781.083 88.06a3.911 3.911 0 00-2.552.338 3.776 3.776 0 00-1.757 1.84 3.644 3.644 0 00-.164 2.506 3.72 3.72 0 001.502 2.034 3.888 3.888 0 002.488.64 3.874 3.874 0 002.343-1.046 3.7 3.7 0 001.134-2.257 3.64 3.64 0 00-.589-2.442 3.727 3.727 0 00-1.037-1.041 3.846 3.846 0 00-1.368-.571zm-2.17 1.58a2.58 2.58 0 011.656-.387 2.54 2.54 0 011.528.725c.408.407.658.94.708 1.507a2.42 2.42 0 01-.435 1.606c-.331.47-.819.815-1.38.975a2.585 2.585 0 01-1.699-.1 2.492 2.492 0 01-1.245-1.127 2.402 2.402 0 01-.227-1.644c.068-.316.2-.616.387-.883a2.49 2.49 0 01.703-.672h.004zm-.222-13.271l11.738 12.04-.934.865-4.704-2.485c-1.781-2.428-6.573-7.931-7.043-10.52-.168-.93-.175-1.049.943.1z" fill="#E94D35"/><path d="M790.981 87.542a3.91 3.91 0 012.573.07 3.776 3.776 0 011.939 1.645 3.64 3.64 0 01.426 2.475 3.716 3.716 0 01-1.282 2.18 3.884 3.884 0 01-2.407.896 3.872 3.872 0 01-2.439-.795 3.698 3.698 0 01-1.364-2.126 3.645 3.645 0 01.33-2.49 3.73 3.73 0 01.923-1.144 3.84 3.84 0 011.301-.711zm2.323 1.343a2.58 2.58 0 00-1.687-.211 2.545 2.545 0 00-1.445.88 2.42 2.42 0 00.055 3.125 2.53 2.53 0 001.474.825c.575.1 1.168.003 1.679-.276.51-.278.906-.72 1.121-1.252.214-.53.233-1.117.053-1.659a2.435 2.435 0 00-.478-.837 2.507 2.507 0 00-.772-.595z" fill="#E94D35"/><path d="M785.531 84.462a1.275 1.275 0 01.953.07 1.204 1.204 0 01.544 1.637 1.249 1.249 0 01-1.208.664 1.265 1.265 0 01-.851-.423 1.187 1.187 0 01-.161-1.343c.151-.288.412-.505.727-.606h-.004zm.848-.38a.09.09 0 01-.124.02.086.086 0 01-.035-.056.086.086 0 01.016-.065l6.156-8.122a.092.092 0 01.125-.018.09.09 0 01.034.056.09.09 0 01-.016.063l-6.156 8.123zm-.963-.058a.085.085 0 01-.006.12.09.09 0 01-.125-.004l-6.968-7.434a.084.084 0 01.009-.121.094.094 0 01.064-.023.09.09 0 01.062.028l6.964 7.434zm.876.875a.832.832 0 00-1.023.222.791.791 0 00-.071.892.82.82 0 00.655.409.844.844 0 00.602-.192.814.814 0 00.288-.55.767.767 0 00-.038-.311.819.819 0 00-.413-.47z" fill="#fff"/><path d="M780.2 90.162a1.613 1.613 0 00-.988.403 1.517 1.517 0 00-.293 1.944c.19.306.482.538.828.657.346.12.724.118 1.069-.004.346-.123.637-.358.825-.666a1.517 1.517 0 00-.3-1.94 1.588 1.588 0 00-1.141-.394zm-1.314.317a1.918 1.918 0 012.361-.355c.375.217.66.554.808.953.147.4.148.836.003 1.237-.146.4-.43.74-.803.96-.373.22-.812.307-1.243.247a1.892 1.892 0 01-1.12-.578 1.807 1.807 0 01-.487-1.141c-.025-.485.148-.96.481-1.323zm13.189-.939c-.366.02-.714.161-.984.402a1.536 1.536 0 00-.501.92 1.51 1.51 0 00.21 1.019c.189.305.48.537.825.656.345.118.722.117 1.066-.005.345-.122.636-.356.823-.663.188-.307.261-.668.206-1.021a1.524 1.524 0 00-.504-.915 1.613 1.613 0 00-1.141-.393zm-1.314.317a1.92 1.92 0 012.362-.355c.374.217.659.554.807.953.148.399.149.836.003 1.237-.146.4-.43.74-.803.96a1.92 1.92 0 01-1.243.246 1.89 1.89 0 01-1.119-.578 1.808 1.808 0 01-.488-1.14 1.815 1.815 0 01.481-1.323z" fill="#E94D35"/></g><path d="M497.993 96.65c.934-.049 1.752.039 2.455.263.702.209 1.257.548 1.665 1.018.408.455.63 1.026.666 1.716.039.75-.136 1.358-.526 1.824-.391.45-.941.794-1.651 1.03l.005.092c.498.112.959.28 1.386.503.426.224.772.528 1.038.913.281.385.438.891.471 1.519a3.154 3.154 0 01-.478 1.867c-.339.571-.89 1.037-1.654 1.4-.749.361-1.728.574-2.938.637-.582.031-1.142.03-1.681-.004a9.059 9.059 0 01-1.439-.201 6.1 6.1 0 01-1.125-.378l-.095-1.815c.533.218 1.157.408 1.872.57.73.161 1.516.22 2.359.176a6.139 6.139 0 001.643-.293c.498-.165.884-.4 1.16-.706.275-.322.399-.743.372-1.263-.025-.475-.176-.851-.451-1.128-.276-.293-.679-.502-1.208-.628-.513-.127-1.168-.169-1.964-.127l-1.654.086-.086-1.653 1.332-.07c1.056-.056 1.891-.238 2.505-.546.628-.325.923-.832.887-1.52-.03-.582-.298-1.006-.803-1.271-.49-.266-1.187-.376-2.09-.328-.674.035-1.268.135-1.781.3-.499.15-1.048.37-1.647.662l-.796-1.57a9.537 9.537 0 012.034-.752 11.827 11.827 0 012.217-.323zm13.164-.667c1.501-.079 2.628.192 3.382.813.755.62 1.169 1.65 1.245 3.09l.439 8.384-1.47.077-.482-1.725-.092.004a7.021 7.021 0 01-1.043 1.184c-.352.31-.77.547-1.253.71-.467.163-1.045.262-1.734.298-.735.039-1.408-.056-2.019-.285a3.08 3.08 0 01-1.441-1.122c-.366-.534-.57-1.214-.613-2.041-.065-1.225.368-2.192 1.298-2.901.93-.724 2.396-1.17 4.399-1.336l2.086-.179-.038-.735c-.054-1.025-.314-1.726-.778-2.1-.465-.376-1.104-.542-1.915-.5a5.643 5.643 0 00-1.822.396c-.572.214-1.105.457-1.597.728l-.7-1.483c.521-.32 1.144-.598 1.868-.835a8.178 8.178 0 012.28-.442zm.942 6.538c-1.528.141-2.58.442-3.154.902-.56.459-.819 1.079-.778 1.86.036.689.269 1.184.699 1.484.446.299.998.431 1.656.397 1.042-.055 1.892-.384 2.551-.986.659-.618.957-1.524.894-2.719l-.057-1.102-1.811.164zm9.764-2.401c.038.72.265 1.246.681 1.577.432.315 1.03.453 1.795.413.766-.041 1.457-.192 2.073-.455a12.542 12.542 0 001.878-1.065l-.277-5.283 2.022-.106.645 12.311-2.021.106-.288-5.489c-.666.48-1.329.868-1.989 1.163-.645.28-1.435.444-2.369.493-1.256.066-2.253-.212-2.992-.834-.724-.622-1.114-1.484-1.172-2.587l-.242-4.617 2.021-.106.235 4.479zm14.583-5.255l.646 12.311-2.022.106-.645-12.311 2.021-.106zm-1.229-4.565c.306-.016.58.077.821.28.255.186.394.5.418.945.022.429-.084.757-.317.984a1.144 1.144 0 01-.787.364 1.2 1.2 0 01-.867-.278c-.241-.202-.373-.517-.395-.946-.023-.444.075-.772.294-.983.218-.226.496-.348.833-.366zm11.205 16.617c-1.088.057-2.072-.114-2.952-.513-.866-.4-1.568-1.054-2.107-1.962-.524-.909-.824-2.091-.9-3.546-.079-1.516.109-2.762.564-3.738.456-.975 1.101-1.708 1.935-2.197.85-.49 1.826-.763 2.928-.821a7.855 7.855 0 011.825.111c.589.092 1.071.22 1.449.385l-.533 1.71c-.374-.12-.81-.227-1.306-.324a5.707 5.707 0 00-1.388-.111c-.827.043-1.499.255-2.017.635-.517.38-.888.922-1.112 1.625-.224.702-.31 1.567-.256 2.592.052.98.225 1.808.522 2.484.296.675.714 1.175 1.253 1.5.539.325 1.199.467 1.98.426.674-.035 1.26-.135 1.758-.299a8.66 8.66 0 001.397-.58l.094 1.791a5.44 5.44 0 01-1.353.555c-.483.148-1.077.241-1.781.277zm13.2-13.267l2.205-.115-4.949 6.201 6.031 6.087-2.343.123-5.886-5.956.327 6.247-2.021.106-.645-12.311 2.021-.106.313 5.972 4.947-6.248zm3.426-.18l2.159-.112 3.032 6.865c.174.406.333.797.476 1.173.158.376.3.744.426 1.106.126.347.228.687.307 1.021l.092-.005c.072-.388.191-.893.358-1.516.166-.638.34-1.277.521-1.916l2.138-7.114 2.182-.114-4.571 14.289a9.082 9.082 0 01-.929 2.052 3.945 3.945 0 01-1.354 1.407c-.535.351-1.2.547-1.996.588-.368.02-.691.014-.969-.018a6.433 6.433 0 01-.718-.077l-.084-1.608c.17.022.371.042.602.06.247.018.5.02.76.007.475-.025.876-.138 1.203-.34a2.35 2.35 0 00.856-.805c.229-.334.415-.728.56-1.181l.558-1.664-5.609-12.097zm77.611 9.28l-2.242-4.973-6.5.34-1.686 5.179-2.09.11 5.545-16.805 1.86-.097 7.249 16.134-2.136.112zm-5.056-11.643c-.052-.12-.14-.338-.264-.654s-.249-.64-.373-.97a13.959 13.959 0 00-.272-.792c-.061.31-.129.628-.204.955-.06.31-.129.597-.208.863-.063.264-.12.49-.171.677l-1.601 5.058 5.191-.272-2.098-4.865zm8.608 4.04c-.094-1.791.003-3.324.289-4.598.301-1.29.807-2.33 1.518-3.12.725-.805 1.678-1.37 2.859-1.693a81.086 81.086 0 012.887-.727c.94-.218 1.821-.418 2.64-.599l.437 1.75a42.33 42.33 0 00-1.32.3 60.5 60.5 0 00-1.479.331c-.502.103-.987.213-1.457.33-.456.1-.857.198-1.205.293a3.95 3.95 0 00-1.327.623 3.4 3.4 0 00-.98 1.064c-.253.444-.448.983-.583 1.62-.136.637-.196 1.385-.182 2.244l.138-.008c.199-.302.474-.616.825-.941a5.52 5.52 0 011.315-.852c.524-.243 1.124-.381 1.797-.417 1.072-.056 1.973.135 2.702.573.744.421 1.313 1.036 1.709 1.845.411.807.645 1.762.703 2.865.071 1.363-.106 2.516-.533 3.46-.426.943-1.049 1.667-1.867 2.17-.819.488-1.787.762-2.905.82-.842.045-1.616-.076-2.322-.362a4.92 4.92 0 01-1.846-1.377c-.523-.617-.94-1.394-1.25-2.33-.31-.935-.498-2.023-.563-3.264zm6.054 5.648c.674-.035 1.248-.203 1.724-.505.491-.302.858-.774 1.1-1.416.243-.642.337-1.484.283-2.525-.066-1.256-.355-2.231-.868-2.926-.498-.71-1.282-1.038-2.354-.982a3.725 3.725 0 00-1.814.555 5.37 5.37 0 00-1.325 1.083c-.347.402-.591.738-.73 1.006.039.75.131 1.475.275 2.174.144.698.361 1.324.651 1.877.305.537.703.961 1.195 1.273.507.296 1.128.425 1.863.386zm19.585-5.77c.054 1.025-.036 1.944-.27 2.754-.219.795-.567 1.481-1.043 2.059a4.8 4.8 0 01-1.749 1.358c-.69.313-1.471.492-2.344.537a5.992 5.992 0 01-2.272-.295 5.099 5.099 0 01-1.858-1.169c-.534-.525-.967-1.17-1.299-1.936-.318-.782-.503-1.686-.557-2.712-.071-1.362.098-2.523.509-3.481.409-.973 1.03-1.728 1.862-2.263.831-.55 1.836-.856 3.015-.918 1.118-.058 2.111.143 2.979.604.884.445 1.587 1.13 2.112 2.055.539.908.844 2.044.915 3.406zm-9.302.487c.051.965.217 1.8.5 2.507.297.69.724 1.214 1.28 1.568.556.355 1.247.511 2.074.467.827-.043 1.498-.27 2.014-.681.516-.41.878-.975 1.086-1.692.223-.733.309-1.582.258-2.547-.051-.98-.225-1.808-.521-2.483-.297-.676-.723-1.183-1.278-1.522-.54-.356-1.232-.512-2.074-.468-1.256.066-2.145.528-2.668 1.384-.524.857-.747 2.012-.671 3.467zm371.822-22.93l-4.02.21.56 10.612-2 .105-.56-10.612-3.97.208-.09-1.7 9.99-.523.09 1.7zm7.47-2.303c1.5-.079 2.63.192 3.38.813.75.62 1.17 1.65 1.24 3.09l.44 8.383-1.47.078-.48-1.726-.09.005a7.33 7.33 0 01-1.04 1.183c-.36.31-.77.547-1.26.71-.46.164-1.04.263-1.73.3-.74.038-1.41-.058-2.02-.287a3.13 3.13 0 01-1.44-1.122c-.37-.533-.57-1.214-.61-2.04-.07-1.225.37-2.192 1.3-2.901.92-.725 2.39-1.17 4.39-1.336l2.09-.179-.04-.735c-.05-1.026-.31-1.726-.78-2.101-.46-.375-1.1-.541-1.91-.499-.64.034-1.25.166-1.82.395-.58.215-1.11.457-1.6.729l-.7-1.483c.52-.32 1.14-.598 1.87-.835.72-.253 1.48-.4 2.28-.442zm.94 6.537c-1.53.142-2.58.443-3.15.903-.56.459-.82 1.08-.78 1.86.03.689.27 1.184.7 1.483.44.3 1 .432 1.65.397 1.04-.054 1.9-.383 2.55-.986.66-.618.96-1.524.9-2.718l-.06-1.103-1.81.164zM400.513 99.892c2.143-.112 3.727.227 4.751 1.018 1.024.791 1.577 1.952 1.657 3.483a5.67 5.67 0 01-.242 1.97 4.268 4.268 0 01-.993 1.711c-.48.516-1.133.942-1.96 1.277-.828.32-1.854.512-3.079.576l-1.884.099.335 6.385-2.067.108-.859-16.399 4.341-.228zm-.092 1.778l-2.09.11.34 6.477 1.654-.087c1.041-.054 1.9-.207 2.578-.457.677-.266 1.171-.653 1.482-1.16.312-.508.446-1.16.405-1.956-.056-1.057-.434-1.828-1.135-2.313-.701-.485-1.779-.69-3.234-.614zm21.1 7.37c.054 1.026-.036 1.944-.27 2.755-.22.795-.568 1.481-1.044 2.058a4.801 4.801 0 01-1.748 1.359c-.69.312-1.472.492-2.344.537a6.017 6.017 0 01-2.273-.295 5.097 5.097 0 01-1.858-1.17c-.534-.524-.967-1.17-1.299-1.935-.317-.782-.503-1.686-.556-2.712-.072-1.363.098-2.523.508-3.481.41-.974 1.03-1.728 1.862-2.263.831-.55 1.836-.856 3.015-.918 1.118-.058 2.111.143 2.98.604.883.445 1.587 1.13 2.111 2.054.539.909.844 2.044.916 3.407zm-9.302.488c.05.964.217 1.8.5 2.507.297.691.723 1.213 1.279 1.568.556.355 1.248.51 2.075.467.827-.043 1.498-.27 2.014-.681.516-.411.878-.975 1.086-1.692.222-.734.308-1.583.258-2.547-.052-.98-.225-1.808-.522-2.483-.296-.676-.722-1.183-1.277-1.523-.541-.355-1.232-.511-2.075-.467-1.255.066-2.145.527-2.668 1.384-.523.856-.747 2.012-.67 3.467zm12.278-1.865c-.094-1.791.002-3.324.288-4.598.301-1.29.807-2.33 1.518-3.12.726-.805 1.679-1.37 2.86-1.693a81.81 81.81 0 012.886-.727c.941-.218 1.821-.418 2.641-.599l.437 1.75a41.97 41.97 0 00-1.32.3c-.486.103-.979.213-1.48.331-.501.103-.987.213-1.457.33-.455.1-.857.198-1.205.293-.5.134-.942.341-1.326.623-.385.266-.712.62-.981 1.064-.253.444-.447.984-.583 1.62-.135.637-.196 1.385-.182 2.244l.138-.007c.199-.303.475-.616.826-.942.367-.326.805-.61 1.314-.852.525-.242 1.124-.381 1.798-.417 1.072-.056 1.972.135 2.702.573.743.421 1.313 1.037 1.708 1.845.411.808.646 1.763.703 2.865.072 1.363-.106 2.516-.532 3.46-.427.943-1.049 1.667-1.867 2.17-.819.489-1.788.762-2.905.821-.842.044-1.617-.077-2.322-.362a4.933 4.933 0 01-1.846-1.378c-.524-.617-.941-1.394-1.251-2.329-.31-.936-.497-2.024-.562-3.265zm6.054 5.648c.673-.035 1.248-.203 1.724-.505.49-.302.857-.774 1.1-1.416.243-.642.337-1.484.282-2.525-.066-1.256-.355-2.231-.867-2.926-.498-.711-1.283-1.038-2.355-.982a3.72 3.72 0 00-1.813.556c-.536.319-.978.68-1.325 1.082-.348.403-.591.738-.731 1.006.04.75.131 1.475.275 2.174.145.698.362 1.324.652 1.877.304.537.702.961 1.195 1.273.507.296 1.128.425 1.863.386zm10.86-3.931c.007.137.01.337.009.598.012.245.019.513.019.805l-.004.806c-.003.246-.007.446-.015.6l6.052-10.658 2.48-.13.646 12.311-1.884.098-.38-7.258-.051-.964-.015-1.174a24.252 24.252 0 01-.001-.898l-6.007 10.633-2.504.131-.645-12.311 1.907-.1.393 7.511zm26.146-8.902l.645 12.311-1.815.095-.411-7.855a22.904 22.904 0 01-.03-1.012l.037-1.038-.069.003-3.5 10.111-1.7.089-4.423-9.695-.069.003c.048.336.081.679.1 1.032.034.351.06.71.079 1.078l.408 7.786-1.814.095-.645-12.311 2.687-.141 4.4 9.696 3.432-10.106 2.688-.141zm15.433 5.341c.054 1.026-.036 1.944-.27 2.755-.219.794-.567 1.48-1.044 2.058a4.78 4.78 0 01-1.748 1.358c-.69.313-1.471.492-2.344.538a6.017 6.017 0 01-2.273-.296 5.09 5.09 0 01-1.857-1.169 6.035 6.035 0 01-1.299-1.936c-.318-.782-.503-1.685-.557-2.711-.071-1.363.098-2.524.508-3.482.41-.973 1.031-1.727 1.863-2.262.831-.55 1.836-.856 3.015-.918 1.117-.059 2.111.142 2.979.604.884.445 1.587 1.129 2.112 2.054.539.908.844 2.044.915 3.407zm-9.302.487c.051.965.217 1.801.5 2.507.297.691.724 1.214 1.28 1.569.556.354 1.247.51 2.074.467.827-.044 1.498-.271 2.014-.682.516-.411.878-.975 1.086-1.692.223-.733.309-1.582.258-2.547-.051-.98-.225-1.807-.521-2.483-.297-.675-.723-1.183-1.278-1.522-.541-.356-1.232-.511-2.074-.467-1.256.066-2.145.527-2.668 1.383-.524.857-.747 2.012-.671 3.467zm209.631-13.208c-.094-1.792.002-3.325.289-4.599.3-1.29.806-2.33 1.517-3.12.726-.805 1.679-1.37 2.86-1.692a81.081 81.081 0 012.887-.727c.94-.218 1.82-.418 2.64-.6l.437 1.751c-.395.082-.835.182-1.32.3-.486.102-.979.212-1.48.33a37.61 37.61 0 00-1.456.33c-.456.1-.858.199-1.206.294a3.954 3.954 0 00-1.326.622c-.385.266-.712.62-.981 1.065-.253.443-.447.983-.583 1.62-.135.636-.196 1.384-.181 2.243l.137-.007a5.28 5.28 0 01.826-.942c.367-.326.805-.61 1.314-.852.525-.242 1.124-.38 1.798-.416 1.072-.056 1.972.134 2.702.572.743.422 1.313 1.037 1.709 1.845.41.808.645 1.763.703 2.865.071 1.363-.107 2.516-.533 3.46-.427.944-1.049 1.667-1.867 2.17-.819.489-1.787.762-2.905.821-.842.044-1.616-.077-2.322-.362a4.937 4.937 0 01-1.846-1.377c-.524-.618-.94-1.394-1.251-2.33-.31-.936-.497-2.024-.562-3.264zm6.054 5.648c.673-.036 1.248-.204 1.724-.505.491-.302.857-.775 1.1-1.417.243-.642.337-1.484.282-2.525-.066-1.256-.355-2.23-.867-2.926-.498-.71-1.283-1.038-2.355-.982a3.725 3.725 0 00-1.813.556c-.536.32-.978.68-1.325 1.083-.348.402-.591.737-.731 1.005.04.75.131 1.475.276 2.174.144.699.361 1.325.651 1.877.304.537.703.962 1.195 1.274.507.296 1.128.424 1.863.386zm19.585-5.771c.054 1.026-.036 1.944-.27 2.755-.219.794-.567 1.48-1.044 2.058a4.796 4.796 0 01-1.748 1.359c-.69.312-1.471.491-2.344.537a6.015 6.015 0 01-2.273-.296 5.091 5.091 0 01-1.857-1.169c-.535-.525-.968-1.17-1.3-1.936-.317-.781-.502-1.685-.556-2.711-.072-1.363.098-2.523.508-3.481.41-.974 1.031-1.728 1.862-2.263.831-.55 1.836-.856 3.015-.918 1.118-.059 2.112.143 2.98.604.883.445 1.587 1.13 2.112 2.054.539.908.844 2.044.915 3.407zm-9.302.487c.05.965.217 1.8.5 2.508.297.69.724 1.213 1.28 1.568s1.247.51 2.074.467c.827-.043 1.498-.27 2.014-.681.516-.411.878-.975 1.086-1.693.223-.733.309-1.582.258-2.547-.051-.98-.225-1.807-.522-2.483-.296-.675-.722-1.183-1.277-1.522-.541-.355-1.232-.511-2.074-.467-1.256.066-2.145.527-2.669 1.384-.523.856-.746 2.012-.67 3.466zm18.508-7.35c1.516-.079 2.761.386 3.735 1.394.99 1.008 1.54 2.576 1.652 4.704.073 1.394-.08 2.584-.458 3.57-.364.972-.915 1.722-1.655 2.253-.726.514-1.601.797-2.627.851-.628.033-1.191-.022-1.69-.165a4.667 4.667 0 01-1.297-.576 5.332 5.332 0 01-.92-.85l-.138.007c.044.258.092.586.144.983.051.396.085.74.1 1.03l.265 5.054-2.021.106-.935-17.824 1.654-.086.364 1.662.092-.005c.226-.365.5-.702.822-1.01a4.06 4.06 0 011.204-.754c.481-.195 1.051-.309 1.709-.343zm-.278 1.72c-.827.043-1.485.239-1.973.587-.489.332-.832.819-1.029 1.458-.197.64-.278 1.443-.242 2.408l.02.39c.053 1.011.205 1.863.456 2.556.252.694.64 1.21 1.164 1.552.54.34 1.254.487 2.142.44.751-.04 1.352-.278 1.805-.716.469-.44.799-1.017.992-1.734.207-.732.287-1.558.239-2.476-.074-1.41-.409-2.52-1.004-3.333-.58-.814-1.437-1.192-2.57-1.132zm20.068 3.623c.054 1.026-.036 1.944-.27 2.755a5.49 5.49 0 01-1.043 2.059 4.792 4.792 0 01-1.749 1.358c-.69.312-1.471.492-2.344.537a6.01 6.01 0 01-2.272-.295 5.088 5.088 0 01-1.858-1.17c-.534-.524-.967-1.17-1.299-1.935-.318-.782-.503-1.686-.557-2.712-.071-1.363.098-2.523.509-3.481.409-.974 1.03-1.728 1.862-2.263.831-.55 1.836-.856 3.015-.918 1.118-.058 2.111.143 2.98.604.883.445 1.587 1.13 2.111 2.054.539.909.844 2.044.915 3.407zm-9.302.488c.051.964.217 1.8.5 2.507.297.69.724 1.213 1.28 1.568s1.247.51 2.074.467c.827-.043 1.499-.27 2.014-.681.516-.411.878-.975 1.086-1.692.223-.734.309-1.583.258-2.547-.051-.98-.225-1.808-.521-2.483-.297-.676-.723-1.183-1.278-1.523-.54-.355-1.232-.51-2.074-.467-1.256.066-2.145.527-2.668 1.384-.523.856-.747 2.012-.671 3.467zm21.805-7.293l.556 10.612 1.792-.094.313 5.972-1.952.102-.224-4.272-8.568.449.224 4.272-1.929.101-.313-5.972.988-.051a14.988 14.988 0 001.578-3.284 18.31 18.31 0 00.866-3.685 21.29 21.29 0 00.192-3.81l6.477-.34zm-4.602 1.83a19.31 19.31 0 01-.313 3.265 21.275 21.275 0 01-.844 3.222c-.345 1.032-.767 1.93-1.264 2.692l5.627-.295-.473-9.026-2.733.143zm7.357-1.974l2.159-.113 3.031 6.866c.175.405.334.796.476 1.172.158.376.3.745.427 1.107.125.346.228.686.307 1.02l.091-.005c.072-.388.192-.893.359-1.516.166-.638.34-1.277.521-1.916l2.138-7.113 2.182-.115-4.572 14.29a9.062 9.062 0 01-.929 2.052 3.937 3.937 0 01-1.354 1.407c-.534.35-1.2.546-1.996.588-.367.019-.69.013-.968-.019a6.406 6.406 0 01-.718-.077l-.084-1.608c.17.022.37.042.602.061.246.017.5.02.76.006.475-.025.876-.138 1.203-.34a2.35 2.35 0 00.856-.804c.228-.335.415-.728.56-1.181l.558-1.665-5.609-12.097zm66.236-5.982c-.872.046-1.653.24-2.341.584a4.614 4.614 0 00-1.723 1.403c-.46.592-.799 1.308-1.016 2.149-.218.825-.3 1.75-.246 2.777.071 1.347.339 2.508.804 3.481.481.973 1.149 1.706 2.004 2.198.87.492 1.933.705 3.189.64a10.91 10.91 0 002.034-.291 18.813 18.813 0 001.86-.559l.094 1.792a9.94 9.94 0 01-1.88.605c-.638.141-1.408.235-2.312.283-1.669.087-3.08-.184-4.234-.815-1.154-.63-2.048-1.566-2.681-2.808-.618-1.241-.971-2.72-1.061-4.435-.065-1.24.044-2.382.327-3.426.298-1.044.757-1.959 1.376-2.744a6.653 6.653 0 012.39-1.852c.959-.465 2.073-.73 3.344-.797a11.529 11.529 0 012.448.125 8.82 8.82 0 012.128.602l-.736 1.79a12.779 12.779 0 00-1.732-.532 7.02 7.02 0 00-2.036-.17zm16.407 3.355l-4.02.211.556 10.611-1.998.105-.556-10.611-3.974.208-.089-1.7 9.992-.523.089 1.7zm5.115 5.56c.007.137.01.337.008.598.013.245.02.513.02.805l-.004.806c-.003.246-.008.446-.015.6l6.052-10.659 2.48-.13.645 12.311-1.883.1-.38-7.259-.051-.965-.015-1.173a24.263 24.263 0 01-.001-.899l-6.007 10.633-2.504.132-.645-12.312 1.907-.1.393 7.511zm22.955 3.61l-2.044.107-.558-10.635-3.629.19c-.051 1.953-.155 3.625-.313 5.015-.158 1.375-.391 2.5-.698 3.376-.307.876-.695 1.526-1.164 1.95a2.655 2.655 0 01-1.692.687c-.199.01-.399.006-.599-.014a1.265 1.265 0 01-.466-.091l-.079-1.516a1.7 1.7 0 00.302.053c.108.01.216.012.323.006.337-.017.636-.171.897-.461.261-.29.484-.724.669-1.302.2-.579.369-1.302.508-2.169a34.7 34.7 0 00.321-3.103c.076-1.186.129-2.525.158-4.016l7.419-.388.645 12.31zm9.68-7.786c1.071-.056 1.966.028 2.684.251.718.224 1.267.587 1.647 1.089.394.486.611 1.12.652 1.9.04.766-.101 1.441-.424 2.026-.307.584-.812 1.048-1.516 1.392-.703.344-1.622.546-2.755.605l-5.581.293-.645-12.311 2.021-.106.265 5.053 3.652-.192zm2.968 3.46c-.04-.75-.334-1.24-.884-1.473-.535-.248-1.277-.347-2.226-.298l-3.423.18.207 3.95 3.469-.181c.857-.045 1.554-.236 2.089-.57.55-.337.806-.872.768-1.607zm16.235-3.383c.054 1.025-.036 1.944-.27 2.754-.219.795-.567 1.481-1.044 2.059a4.796 4.796 0 01-1.748 1.358c-.69.313-1.471.492-2.344.538a6.017 6.017 0 01-2.273-.296 5.091 5.091 0 01-1.857-1.17c-.535-.524-.968-1.17-1.3-1.935-.317-.781-.502-1.685-.556-2.711-.072-1.363.098-2.524.508-3.482.41-.973 1.031-1.727 1.862-2.262.831-.55 1.836-.856 3.015-.918 1.118-.059 2.112.142 2.98.604.883.445 1.587 1.13 2.112 2.054.539.908.844 2.044.915 3.407zm-9.302.487c.05.965.217 1.8.5 2.507.297.691.724 1.214 1.28 1.569.556.354 1.247.51 2.074.467.827-.044 1.498-.27 2.014-.682.516-.41.878-.975 1.086-1.692.223-.733.309-1.582.258-2.547-.051-.98-.225-1.808-.522-2.483-.296-.675-.722-1.183-1.277-1.522-.541-.356-1.232-.511-2.074-.467-1.256.066-2.145.527-2.669 1.383-.523.857-.746 2.013-.67 3.467zm22.725-4.231c.04.766-.158 1.375-.595 1.828-.437.452-1.011.774-1.723.965l.005.092a4.107 4.107 0 012.042.722c.589.4.907 1.058.956 1.977a3.503 3.503 0 01-.223 1.462 2.89 2.89 0 01-.813 1.195c-.381.342-.881.622-1.499.838-.619.202-1.373.326-2.261.372l-5.305.278-.646-12.311 5.283-.277c.873-.046 1.659.013 2.359.176.714.147 1.282.44 1.704.878.437.422.675 1.024.716 1.805zm-1.406 5.693c-.037-.704-.331-1.195-.883-1.473-.552-.279-1.349-.39-2.39-.336l-3.009.158.207 3.95 3.055-.16c1.011-.053 1.776-.239 2.297-.558.52-.334.761-.861.723-1.58zm-.625-5.333c-.03-.582-.267-.992-.709-1.23-.428-.254-1.116-.356-2.066-.306l-3.146.165.176 3.376 2.78-.145c.995-.053 1.746-.23 2.252-.533.506-.303.744-.745.713-1.327zm3.753-3.56l2.159-.113 3.032 6.866c.175.406.333.796.476 1.173.158.375.3.744.426 1.106.126.347.228.687.307 1.02l.092-.004c.072-.388.191-.893.358-1.516.166-.639.34-1.277.522-1.916l2.137-7.114 2.182-.114-4.571 14.289a9.096 9.096 0 01-.929 2.052 3.944 3.944 0 01-1.354 1.407c-.535.35-1.2.546-1.996.588-.368.02-.691.013-.969-.018a6.329 6.329 0 01-.718-.078l-.084-1.608c.17.022.371.042.602.061.247.018.5.02.76.006.475-.025.876-.138 1.203-.34a2.34 2.34 0 00.856-.804 4.52 4.52 0 00.56-1.181l.558-1.665-5.609-12.096zm20.178 3.872c-.094-1.792.002-3.325.288-4.599.301-1.29.807-2.33 1.518-3.12.726-.805 1.679-1.37 2.86-1.692a81.59 81.59 0 012.886-.727c.941-.219 1.821-.418 2.641-.6l.437 1.751a41.69 41.69 0 00-1.32.3c-.486.102-.979.212-1.48.33-.501.103-.987.213-1.457.33-.455.1-.857.199-1.205.294-.5.133-.942.34-1.326.622-.385.266-.712.62-.981 1.065-.253.443-.447.983-.583 1.62-.135.636-.196 1.384-.182 2.243l.138-.007c.199-.302.475-.616.826-.942.367-.326.805-.61 1.314-.852.525-.242 1.124-.381 1.798-.416 1.072-.056 1.972.134 2.702.572.743.422 1.313 1.037 1.708 1.845.411.808.646 1.763.703 2.865.072 1.363-.106 2.516-.532 3.46-.427.944-1.049 1.667-1.867 2.17-.819.489-1.788.762-2.905.82-.842.045-1.617-.076-2.322-.361a4.934 4.934 0 01-1.846-1.377c-.524-.618-.941-1.394-1.251-2.33-.31-.936-.497-2.024-.562-3.264zm6.054 5.648c.673-.036 1.248-.204 1.724-.505.49-.302.857-.775 1.1-1.417.243-.642.337-1.484.282-2.525-.066-1.256-.355-2.23-.867-2.926-.498-.71-1.283-1.038-2.355-.982a3.721 3.721 0 00-1.813.556 5.35 5.35 0 00-1.325 1.083c-.348.402-.591.737-.731 1.005.04.75.131 1.475.275 2.174a7.15 7.15 0 00.652 1.877c.304.537.703.962 1.195 1.274.507.296 1.128.424 1.863.386zm19.585-5.771c.054 1.026-.036 1.944-.27 2.755-.22.794-.568 1.48-1.044 2.058a4.798 4.798 0 01-1.748 1.359c-.69.312-1.472.491-2.344.537a6.017 6.017 0 01-2.273-.296 5.103 5.103 0 01-1.858-1.169c-.534-.525-.967-1.17-1.299-1.936-.317-.781-.503-1.685-.556-2.711-.072-1.363.098-2.523.508-3.482.41-.973 1.03-1.727 1.862-2.262.831-.55 1.836-.856 3.015-.918 1.118-.059 2.111.142 2.98.604.883.445 1.587 1.13 2.111 2.054.539.908.845 2.044.916 3.407zm-9.302.487c.05.965.217 1.8.5 2.507.297.691.723 1.214 1.279 1.569.556.354 1.248.51 2.075.467.827-.044 1.498-.27 2.014-.682.516-.41.878-.974 1.086-1.692.222-.733.308-1.582.258-2.547-.052-.98-.225-1.807-.522-2.483-.296-.675-.722-1.183-1.277-1.522-.541-.356-1.232-.511-2.075-.467-1.255.066-2.145.527-2.668 1.383-.523.857-.747 2.013-.67 3.467zm18.508-7.35c1.516-.079 2.761.386 3.735 1.394.99 1.007 1.54 2.576 1.652 4.704.073 1.393-.08 2.584-.458 3.57-.364.972-.916 1.722-1.655 2.252-.726.514-1.602.798-2.627.852-.628.033-1.192-.022-1.69-.165a4.648 4.648 0 01-1.297-.576 5.336 5.336 0 01-.92-.85l-.138.007c.044.258.092.586.144.983.051.396.085.74.1 1.03l.265 5.054-2.022.106-.934-17.824 1.654-.087.364 1.663.091-.005a5.2 5.2 0 01.823-1.01 4.06 4.06 0 011.204-.754c.481-.195 1.051-.309 1.709-.344zm-.278 1.72c-.827.043-1.485.239-1.973.587-.489.332-.832.819-1.029 1.458-.197.64-.278 1.443-.243 2.408l.021.39c.053 1.011.205 1.863.456 2.556.252.694.64 1.21 1.164 1.552.54.34 1.254.487 2.142.44.75-.04 1.352-.278 1.805-.716.468-.44.799-1.017.992-1.734.207-.732.287-1.558.238-2.477-.073-1.408-.408-2.52-1.003-3.332-.58-.815-1.437-1.192-2.57-1.133zm20.068 3.623c.054 1.026-.036 1.944-.27 2.755a5.478 5.478 0 01-1.044 2.059 4.788 4.788 0 01-1.748 1.358c-.69.312-1.471.492-2.344.537a6.018 6.018 0 01-2.273-.295 5.091 5.091 0 01-1.857-1.17c-.534-.524-.967-1.17-1.299-1.935-.318-.782-.503-1.686-.557-2.712-.071-1.363.098-2.523.508-3.481.41-.974 1.031-1.728 1.863-2.263.831-.55 1.836-.856 3.015-.918 1.117-.058 2.111.143 2.979.604.884.445 1.587 1.13 2.112 2.054.539.909.844 2.044.915 3.407zm-9.302.488c.051.964.217 1.8.5 2.507.297.69.724 1.213 1.28 1.568s1.247.51 2.074.467c.827-.043 1.498-.27 2.014-.681.516-.411.878-.975 1.086-1.692.223-.734.309-1.583.258-2.547-.051-.98-.225-1.808-.521-2.484-.297-.675-.723-1.182-1.278-1.522-.541-.355-1.232-.51-2.074-.467-1.256.066-2.145.527-2.668 1.384-.524.856-.747 2.012-.671 3.467zm21.805-7.293l.556 10.612 1.792-.094.313 5.972-1.953.102-.223-4.272-8.568.449.224 4.272-1.929.101-.313-5.972.988-.051a14.988 14.988 0 001.578-3.284 18.31 18.31 0 00.866-3.685 21.29 21.29 0 00.192-3.81l6.477-.34zm-4.602 1.83a19.311 19.311 0 01-.313 3.265 21.4 21.4 0 01-.844 3.222c-.346 1.032-.767 1.929-1.264 2.692l5.627-.295-.473-9.026-2.733.143zm7.357-1.974l2.156-.113 3.03 6.866c.18.405.34.796.48 1.172.16.376.3.745.43 1.107.12.346.22.686.3 1.02l.1-.005c.07-.388.19-.893.35-1.516.17-.638.34-1.277.52-1.916l2.14-7.113 2.18-.115-4.57 14.29c-.25.78-.56 1.464-.93 2.052-.35.602-.8 1.07-1.35 1.406-.53.35-1.2.547-2 .589-.36.019-.69.013-.964-.019a6.324 6.324 0 01-.718-.077l-.085-1.608c.171.022.371.042.602.06.247.018.505.02.765.007.47-.025.87-.138 1.2-.34.34-.186.63-.455.85-.805.23-.334.42-.727.56-1.18l.56-1.665-5.606-12.097z" fill="#161513"/><g clip-path="url(#clip4_75_712)" fill-rule="evenodd" clip-rule="evenodd"><path d="M1160.75 74.2l-1.14.722-.38-.563 1.08-.685c.13.188.28.363.44.526zm14.49-18.613l-10.42 13.202 1.02.762 4.42-2.963c1.51-2.602 5.7-8.575 5.9-11.199.08-.943.07-1.062-.92.198z" fill="#E94D35"/><path d="M1164.19 67.983a3.896 3.896 0 00-2.55.338 3.765 3.765 0 00-1.76 1.84 3.669 3.669 0 00-.17 2.505 3.75 3.75 0 001.51 2.035c.72.487 1.6.713 2.48.64a3.886 3.886 0 002.35-1.047c.63-.602 1.03-1.4 1.13-2.256.1-.857-.11-1.72-.59-2.443-.27-.41-.62-.764-1.03-1.04a3.896 3.896 0 00-1.37-.572zm-2.17 1.579a2.565 2.565 0 013.18.338c.41.407.66.94.71 1.508.05.567-.1 1.135-.44 1.605-.33.47-.81.815-1.38.975-.56.16-1.16.125-1.69-.1a2.495 2.495 0 01-1.25-1.127 2.41 2.41 0 01.16-2.527c.19-.267.43-.495.7-.672h.01zm-.22-13.271l11.73 12.04-.93.865-4.7-2.485c-1.78-2.428-6.58-7.93-7.05-10.52-.17-.93-.17-1.048.95.1z" fill="#E94D35"/><path d="M1174.09 67.464a3.9 3.9 0 012.57.07c.82.312 1.51.894 1.94 1.645.43.752.58 1.626.42 2.475a3.69 3.69 0 01-1.28 2.18c-.67.562-1.52.878-2.41.897a3.849 3.849 0 01-2.43-.796 3.651 3.651 0 01-1.04-4.616 3.8 3.8 0 01.92-1.144c.39-.318.83-.56 1.31-.71zm2.32 1.344a2.59 2.59 0 00-1.69-.212c-.57.122-1.08.433-1.44.88a2.413 2.413 0 00.05 3.125 2.563 2.563 0 004.28-.703 2.427 2.427 0 00-.43-2.496 2.497 2.497 0 00-.77-.594z" fill="#E94D35"/><path d="M1168.64 64.384a1.253 1.253 0 01.95.07c.15.072.28.172.38.294.11.122.19.263.24.415.1.307.07.64-.08.928a1.254 1.254 0 01-1.67.536 1.269 1.269 0 01-.39-.294c-.1-.122-.18-.263-.23-.415-.11-.307-.08-.64.07-.928.15-.288.41-.506.73-.606zm.84-.379a.072.072 0 01-.05.035.095.095 0 01-.07-.016.12.12 0 01-.04-.056c0-.023.01-.046.02-.064l6.16-8.123c.01-.018.03-.03.06-.033.02-.004.04.002.06.016.02.013.03.033.04.055 0 .023-.01.046-.02.064l-6.16 8.122zm-.96-.058c.02.017.02.038.02.061s-.01.044-.03.06c-.01.015-.04.023-.06.022a.097.097 0 01-.06-.028l-6.97-7.434a.13.13 0 01-.02-.062c0-.023.01-.044.03-.059a.1.1 0 01.07-.022c.02 0 .04.01.06.027l6.96 7.435zm.88.875a.847.847 0 00-1.03.222.805.805 0 00-.07.892c.08.138.2.251.35.323a.857.857 0 00.63.048.835.835 0 00.48-.402.805.805 0 00.09-.302.825.825 0 00-.04-.312.76.76 0 00-.16-.275.88.88 0 00-.25-.194z" fill="#fff"/><path d="M1163.3 70.085a1.596 1.596 0 00-1.49 1.324c-.05.354.02.716.21 1.022a1.604 1.604 0 001.9.653 1.529 1.529 0 001.03-1.689 1.512 1.512 0 00-.5-.917 1.71 1.71 0 00-.53-.308c-.2-.067-.41-.096-.62-.085zm-1.31.317c.29-.317.69-.525 1.12-.59.43-.064.87.019 1.24.235.38.217.66.553.81.952.15.4.15.837 0 1.237-.14.401-.43.74-.8.96a1.912 1.912 0 01-2.36-.331c-.3-.313-.47-.717-.49-1.14-.03-.486.15-.962.48-1.323zm13.19-.94c-.37.02-.71.162-.98.403-.28.24-.45.566-.51.919-.05.353.03.713.21 1.019.19.305.48.537.83.656a1.6 1.6 0 001.89-.668c.19-.307.26-.668.21-1.02a1.574 1.574 0 00-1.65-1.309zm-1.31.317c.29-.316.68-.524 1.11-.589.43-.064.87.019 1.25.235.37.216.66.553.8.952.15.4.15.836.01 1.237-.15.4-.43.74-.8.96-.38.22-.82.307-1.25.247-.43-.06-.82-.265-1.12-.578a1.804 1.804 0 01-.48-1.141c-.03-.485.14-.96.48-1.323z" fill="#E94D35"/></g><path d="M1063.85 66.995c.93-.05 1.75.038 2.45.262.71.21 1.26.549 1.67 1.019.41.454.63 1.026.67 1.715.04.75-.14 1.359-.53 1.824-.39.45-.94.794-1.65 1.031v.092c.5.112.96.28 1.39.503.43.223.77.528 1.04.913.28.385.44.89.47 1.518a3.15 3.15 0 01-.48 1.868c-.34.57-.89 1.037-1.65 1.4-.75.361-1.73.574-2.94.637-.58.03-1.14.03-1.68-.004a8.894 8.894 0 01-1.44-.2 6.23 6.23 0 01-1.13-.38l-.09-1.814c.53.218 1.16.408 1.87.57.73.161 1.52.22 2.36.176.61-.032 1.16-.13 1.64-.294.5-.164.89-.4 1.16-.706.28-.321.4-.742.37-1.263-.02-.474-.17-.85-.45-1.128-.27-.292-.67-.501-1.2-.627-.52-.127-1.17-.17-1.97-.128l-1.65.087-.09-1.654 1.33-.07c1.06-.055 1.9-.237 2.51-.545.63-.325.92-.832.89-1.521-.03-.582-.3-1.005-.81-1.27-.49-.267-1.18-.376-2.09-.329a7.11 7.11 0 00-1.78.3c-.5.15-1.05.37-1.64.663l-.8-1.57a9.503 9.503 0 012.03-.752 11.94 11.94 0 012.22-.323zm13.16-.667c1.5-.079 2.63.192 3.39.813.75.62 1.17 1.65 1.24 3.09l.44 8.383-1.47.077-.48-1.725-.09.005c-.33.463-.68.857-1.05 1.183-.35.31-.77.547-1.25.71-.47.164-1.05.263-1.73.3-.74.038-1.41-.058-2.02-.287-.6-.23-1.08-.603-1.44-1.122-.37-.533-.57-1.214-.62-2.04-.06-1.225.37-2.193 1.3-2.901.93-.725 2.4-1.17 4.4-1.336l2.09-.179-.04-.735c-.06-1.026-.32-1.726-.78-2.101-.47-.375-1.1-.541-1.91-.498-.65.033-1.26.165-1.83.394-.57.215-1.1.458-1.59.729l-.7-1.483a8.875 8.875 0 011.86-.835 8.26 8.26 0 012.28-.442zm.95 6.537c-1.53.142-2.58.443-3.16.903-.56.459-.82 1.079-.78 1.86.04.689.27 1.183.7 1.483.45.3 1 .432 1.66.397 1.04-.054 1.89-.383 2.55-.986.66-.618.96-1.524.89-2.718l-.05-1.103-1.81.164zm9.76-2.4c.04.72.27 1.245.68 1.577.43.315 1.03.452 1.8.412.76-.04 1.45-.191 2.07-.454.61-.278 1.24-.633 1.88-1.066l-.28-5.282 2.02-.106.65 12.31-2.02.107-.29-5.49c-.67.48-1.33.868-1.99 1.164-.65.28-1.44.444-2.37.493-1.26.065-2.25-.212-2.99-.834-.73-.622-1.12-1.485-1.17-2.587l-.25-4.617 2.03-.106.23 4.48zm14.58-5.255l.65 12.31-2.02.107-.65-12.311 2.02-.106zm-1.23-4.565c.31-.016.58.077.82.28.26.185.4.5.42.945.03.428-.08.756-.31.983-.22.227-.48.348-.79.364-.34.018-.63-.075-.87-.277s-.37-.518-.39-.947c-.03-.444.07-.771.29-.982.22-.227.5-.349.83-.366zm11.21 16.617c-1.09.057-2.07-.114-2.95-.513-.87-.4-1.57-1.054-2.11-1.963-.52-.909-.82-2.09-.9-3.545-.08-1.516.11-2.762.56-3.738.46-.976 1.1-1.708 1.94-2.197.85-.49 1.82-.764 2.93-.822a7.81 7.81 0 011.82.112c.59.092 1.07.22 1.45.385l-.53 1.709c-.38-.119-.81-.226-1.31-.323a5.693 5.693 0 00-1.39-.112c-.82.044-1.5.255-2.01.636-.52.38-.89.921-1.12 1.624-.22.703-.3 1.567-.25 2.593.05.98.22 1.808.52 2.483.3.676.72 1.176 1.25 1.5.54.326 1.2.468 1.98.427.68-.036 1.26-.135 1.76-.3.52-.165.98-.358 1.4-.58l.09 1.792c-.4.236-.85.42-1.35.554-.48.149-1.08.241-1.78.278zm13.2-13.267l2.2-.115-4.95 6.201 6.04 6.087-2.35.122-5.88-5.956.32 6.248-2.02.106-.64-12.311 2.02-.106.31 5.972 4.95-6.248zm3.43-.18l2.15-.113 3.04 6.866c.17.406.33.796.47 1.173.16.375.3.744.43 1.106.12.347.23.687.31 1.02l.09-.005c.07-.387.19-.892.36-1.515.16-.639.34-1.277.52-1.916l2.13-7.114 2.19-.114-4.58 14.289c-.25.78-.56 1.465-.92 2.052-.36.602-.81 1.07-1.36 1.407-.53.35-1.2.546-1.99.588-.37.02-.69.013-.97-.018a6.261 6.261 0 01-.72-.078l-.08-1.608c.17.022.37.042.6.061.24.018.5.02.76.006.47-.025.87-.138 1.2-.34.34-.186.63-.454.86-.804.22-.334.41-.728.56-1.181l.55-1.665-5.6-12.097z" fill="#161513"/><g clip-path="url(#clip5_75_712)" fill-rule="evenodd" clip-rule="evenodd"><path d="M1393.74 61.99l-1.14.722-.38-.563 1.08-.685c.13.187.28.363.44.525zm14.49-18.614l-10.42 13.202 1.02.762 4.42-2.963c1.52-2.601 5.71-8.575 5.9-11.198.08-.944.07-1.062-.92.197z" fill="#E94D35"/><path d="M1397.18 55.772a3.896 3.896 0 00-2.55.338 3.765 3.765 0 00-1.76 1.84 3.61 3.61 0 00-.16 2.506c.24.827.77 1.547 1.5 2.034a3.898 3.898 0 004.83-.406 3.72 3.72 0 001.13-2.257c.1-.857-.11-1.72-.59-2.442-.27-.41-.62-.765-1.03-1.041a3.91 3.91 0 00-1.37-.572zm-2.17 1.58a2.564 2.564 0 011.65-.387 2.5 2.5 0 011.53.724 2.423 2.423 0 01.28 3.114 2.569 2.569 0 01-3.08.875 2.495 2.495 0 01-1.25-1.127 2.41 2.41 0 01.16-2.527c.19-.267.43-.495.7-.672h.01zm-.22-13.272l11.74 12.041-.94.865-4.7-2.485c-1.78-2.429-6.58-7.931-7.05-10.52-.16-.93-.17-1.049.95.1z" fill="#E94D35"/><path d="M1407.08 55.254a3.902 3.902 0 012.57.069c.82.313 1.51.894 1.94 1.646.43.751.58 1.626.42 2.475-.15.848-.6 1.62-1.28 2.18-.67.561-1.52.878-2.4.896a3.857 3.857 0 01-2.44-.795 3.65 3.65 0 01-1.04-4.616c.23-.437.54-.826.93-1.144.38-.319.82-.56 1.3-.711zm2.32 1.343a2.59 2.59 0 00-1.69-.212c-.57.122-1.08.434-1.44.881a2.45 2.45 0 00-.55 1.574c.01.57.22 1.118.6 1.551.38.433.9.725 1.48.825.57.1 1.17.002 1.68-.276.51-.279.9-.721 1.12-1.252a2.427 2.427 0 00-.43-2.497 2.387 2.387 0 00-.77-.594z" fill="#E94D35"/><path d="M1401.63 52.173a1.25 1.25 0 01.95.07c.15.073.28.173.38.294.11.122.19.263.24.416.1.306.07.64-.08.927a1.253 1.253 0 01-1.67.536 1.267 1.267 0 01-.39-.294c-.1-.122-.18-.263-.23-.415a1.2 1.2 0 01.07-.928c.15-.288.42-.506.73-.606zm.84-.378a.071.071 0 01-.05.034.095.095 0 01-.07-.016.066.066 0 01-.03-.056c-.01-.022 0-.045.01-.064l6.16-8.122c.01-.018.03-.03.06-.034.02-.003.04.002.06.016.02.014.03.034.04.056 0 .022-.01.045-.02.063l-6.16 8.123zm-.96-.059c.02.017.03.039.02.062 0 .022-.01.044-.02.059a.1.1 0 01-.07.022c-.02 0-.04-.01-.06-.027l-6.97-7.435a.13.13 0 01-.02-.062c0-.022.01-.043.03-.058a.1.1 0 01.07-.023c.02.001.04.01.06.027l6.96 7.435zm.88.875a.844.844 0 00-.63-.047.876.876 0 00-.4.27.805.805 0 00-.07.892.847.847 0 00.98.371.835.835 0 00.48-.403.805.805 0 00.09-.302.824.824 0 00-.04-.312.76.76 0 00-.16-.275.761.761 0 00-.25-.194z" fill="#fff"/><path d="M1396.3 57.874c-.37.019-.72.161-.99.403-.27.241-.45.567-.5.921-.06.355.02.716.21 1.022.18.307.48.54.82.658.35.12.73.118 1.07-.005.35-.122.64-.357.83-.665.19-.308.26-.67.2-1.024a1.512 1.512 0 00-.5-.917c-.16-.136-.34-.24-.53-.307-.2-.068-.41-.097-.61-.086zm-1.32.317c.29-.316.69-.524 1.12-.589.43-.065.87.018 1.24.235.38.216.66.553.81.952.15.399.15.836 0 1.237-.14.4-.43.74-.8.96a1.911 1.911 0 01-2.36-.332 1.816 1.816 0 01-.49-1.14c-.02-.486.15-.961.48-1.323zm13.19-.939c-.36.019-.71.161-.98.402-.27.241-.45.566-.5.92-.06.353.02.713.21 1.018.18.306.48.538.82.657a1.6 1.6 0 001.89-.668c.19-.308.26-.668.21-1.021a1.574 1.574 0 00-1.65-1.308zm-1.31.317c.29-.316.68-.525 1.11-.59.43-.064.87.02 1.25.236.37.216.66.552.81.952.14.399.14.836 0 1.236-.15.401-.43.74-.8.96-.38.22-.82.308-1.25.247a1.91 1.91 0 01-1.12-.578 1.805 1.805 0 01-.48-1.14c-.03-.486.14-.961.48-1.323z" fill="#E94D35"/></g><g clip-path="url(#clip6_75_712)" fill-rule="evenodd" clip-rule="evenodd"><path d="M1587.11 51.855l-1.14.722-.37-.563 1.08-.684c.13.187.27.363.43.525zm14.49-18.613l-10.42 13.202 1.02.762 4.42-2.963c1.52-2.602 5.71-8.575 5.91-11.199.07-.943.07-1.061-.93.198z" fill="#E94D35"/><path d="M1590.55 45.638a3.912 3.912 0 00-2.55.338 3.808 3.808 0 00-1.76 1.84 3.683 3.683 0 001.34 4.54 3.898 3.898 0 004.83-.406 3.647 3.647 0 00.55-4.7c-.27-.41-.63-.764-1.04-1.04a3.838 3.838 0 00-1.37-.572zm-2.17 1.58a2.593 2.593 0 011.66-.388c.58.062 1.12.318 1.53.725.41.407.66.94.7 1.508a2.42 2.42 0 01-.43 1.605c-.33.471-.82.815-1.38.975a2.59 2.59 0 01-1.7-.099 2.434 2.434 0 01-1.24-1.128 2.409 2.409 0 01.16-2.527c.18-.267.42-.495.7-.672zm-.22-13.272l11.74 12.04-.94.866-4.7-2.486c-1.78-2.428-6.57-7.93-7.04-10.52-.17-.93-.18-1.048.94.1z" fill="#E94D35"/><path d="M1600.45 45.12a3.9 3.9 0 012.57.069c.83.312 1.51.894 1.94 1.645.43.752.59 1.626.43 2.475-.16.85-.61 1.62-1.28 2.18a3.92 3.92 0 01-2.41.897 3.877 3.877 0 01-2.44-.796 3.721 3.721 0 01-1.36-2.125 3.595 3.595 0 01.33-2.49c.22-.437.54-.826.92-1.144.38-.319.82-.56 1.3-.712zm2.32 1.343a2.56 2.56 0 00-1.68-.212c-.57.122-1.08.434-1.45.881a2.44 2.44 0 00-.54 1.573c.01.57.22 1.118.6 1.552.37.433.9.725 1.47.825.58.1 1.17.002 1.68-.276.51-.279.91-.721 1.12-1.252a2.464 2.464 0 00-.42-2.497 2.54 2.54 0 00-.78-.594z" fill="#E94D35"/><path d="M1595 42.04a1.271 1.271 0 011.34.363c.1.122.18.263.23.415.1.307.08.64-.07.928-.15.287-.41.506-.73.608-.15.05-.32.069-.48.057a1.313 1.313 0 01-.47-.129 1.12 1.12 0 01-.38-.294 1.15 1.15 0 01-.24-.415 1.2 1.2 0 01.08-.928c.15-.288.41-.506.72-.606zm.85-.38a.125.125 0 01-.06.035c-.02.003-.05-.002-.06-.016-.02-.013-.04-.033-.04-.056s0-.046.02-.064l6.15-8.122c.02-.019.04-.03.06-.034.02-.003.05.002.07.016.02.013.03.033.03.056 0 .022 0 .045-.02.063l-6.15 8.122zm-.96-.058c.01.017.02.039.02.061 0 .023-.01.044-.03.06a.093.093 0 01-.06.022.1.1 0 01-.07-.027l-6.96-7.435c-.02-.017-.03-.04-.02-.062 0-.023.01-.044.03-.059.01-.015.04-.023.06-.022.02 0 .05.01.06.027l6.97 7.435zm.87.875a.84.84 0 00-.63-.047.847.847 0 00-.39.27.778.778 0 00-.17.435c-.02.159.02.317.1.456s.2.251.34.323a.845.845 0 00.91-.106.625.625 0 00.2-.248.804.804 0 00.09-.302.665.665 0 00-.04-.312.738.738 0 00-.41-.47z" fill="#fff"/><path d="M1589.67 47.74c-.37.019-.72.16-.99.402a1.529 1.529 0 00.54 2.602 1.601 1.601 0 001.89-.67c.19-.308.26-.67.21-1.024a1.578 1.578 0 00-1.65-1.31zm-1.31.317c.29-.316.68-.525 1.11-.59.43-.064.87.02 1.25.236.37.216.66.552.8.952.15.399.15.836.01 1.236-.15.401-.43.74-.8.96-.38.22-.82.308-1.25.247a1.91 1.91 0 01-1.12-.578 1.805 1.805 0 01-.48-1.14c-.03-.486.14-.961.48-1.323zm13.18-.94c-.36.02-.71.162-.98.403a1.52 1.52 0 00-.29 1.938c.19.306.48.538.83.656.34.119.72.117 1.06-.004.35-.122.64-.357.82-.664a1.508 1.508 0 00-.29-1.936c-.16-.135-.34-.24-.53-.307-.2-.068-.41-.097-.62-.086zm-1.31.318c.29-.317.69-.525 1.12-.59.43-.064.87.019 1.24.235.38.217.66.553.81.952.15.4.15.837 0 1.237-.14.4-.43.74-.8.96a1.911 1.911 0 01-2.36-.331c-.3-.314-.47-.717-.49-1.141-.03-.485.15-.96.48-1.322z" fill="#E94D35"/></g><path d="M1297.21 54.765c.93-.05 1.75.038 2.45.263.71.209 1.26.548 1.67 1.018.41.455.63 1.026.67 1.715.03.75-.14 1.359-.53 1.824-.39.45-.94.794-1.65 1.031v.092c.5.112.96.28 1.39.503.43.224.77.528 1.04.913.28.385.44.89.47 1.519.03.673-.13 1.296-.48 1.867-.34.57-.89 1.037-1.65 1.4-.75.361-1.73.574-2.94.637-.58.03-1.14.03-1.68-.004a8.894 8.894 0 01-1.44-.2 6.23 6.23 0 01-1.13-.38l-.09-1.814c.53.218 1.16.408 1.87.57.73.161 1.52.22 2.36.176.61-.032 1.16-.13 1.64-.294.5-.164.89-.4 1.16-.705.28-.322.4-.743.37-1.264-.02-.474-.17-.85-.45-1.127-.27-.293-.68-.502-1.2-.628-.52-.127-1.17-.17-1.97-.128l-1.65.087-.09-1.654 1.33-.07c1.06-.055 1.89-.237 2.51-.545.63-.325.92-.832.89-1.52-.03-.583-.3-1.006-.81-1.271-.49-.267-1.18-.376-2.09-.329-.67.036-1.27.136-1.78.301-.5.15-1.05.37-1.65.662l-.79-1.57a9.503 9.503 0 012.03-.752 11.82 11.82 0 012.22-.323zm13.16-.667c1.5-.079 2.63.192 3.39.813.75.62 1.16 1.65 1.24 3.09l.44 8.384-1.47.077-.48-1.725-.09.004c-.33.463-.68.857-1.05 1.183-.35.31-.77.548-1.25.711-.47.163-1.05.262-1.74.298-.73.039-1.4-.057-2.01-.286-.6-.23-1.08-.603-1.44-1.122-.37-.533-.57-1.213-.62-2.04-.06-1.225.37-2.192 1.3-2.901.93-.725 2.4-1.17 4.4-1.336l2.09-.179-.04-.735c-.06-1.026-.32-1.726-.78-2.1-.47-.376-1.1-.542-1.92-.5a5.64 5.64 0 00-1.82.396c-.57.214-1.1.457-1.59.728l-.7-1.483a8.875 8.875 0 011.86-.835 8.26 8.26 0 012.28-.442zm.94 6.538c-1.52.141-2.57.442-3.15.902-.56.46-.82 1.08-.78 1.86.04.69.27 1.184.7 1.484.45.299 1 .43 1.66.396 1.04-.054 1.89-.383 2.55-.985.66-.618.96-1.525.89-2.719l-.05-1.102-1.82.164zm9.77-2.4c.04.719.26 1.244.68 1.576.43.315 1.03.453 1.8.412.76-.04 1.45-.191 2.07-.454.61-.278 1.24-.633 1.88-1.066l-.28-5.282 2.02-.106.65 12.311-2.02.106-.29-5.49c-.67.48-1.33.868-1.99 1.164-.65.28-1.44.444-2.37.493-1.26.066-2.25-.212-2.99-.834-.73-.622-1.12-1.485-1.17-2.587l-.25-4.617 2.02-.106.24 4.48zm14.58-5.256l.65 12.31-2.02.107-.65-12.311 2.02-.106zm-1.23-4.565c.31-.016.58.077.82.28.26.186.4.5.42.945.02.428-.08.757-.32.984-.21.226-.48.347-.78.363-.34.018-.63-.074-.87-.277-.24-.202-.37-.517-.39-.946-.03-.444.07-.772.29-.983.22-.226.5-.348.83-.366zm11.21 16.617c-1.09.057-2.07-.114-2.95-.513-.87-.4-1.57-1.054-2.11-1.962-.52-.91-.82-2.092-.9-3.546-.08-1.516.11-2.762.56-3.738.46-.976 1.1-1.708 1.94-2.197.85-.49 1.82-.764 2.93-.821.62-.033 1.23.004 1.82.111.59.092 1.07.22 1.45.385l-.53 1.71c-.38-.12-.81-.227-1.31-.324a5.73 5.73 0 00-1.39-.111c-.82.043-1.5.255-2.01.635-.52.38-.89.922-1.12 1.624-.22.703-.31 1.567-.25 2.593.05.98.22 1.808.52 2.483.3.676.71 1.176 1.25 1.5.54.326 1.2.468 1.98.427.68-.035 1.26-.135 1.76-.3.51-.165.98-.358 1.4-.58l.09 1.792c-.4.236-.85.421-1.35.555-.48.148-1.08.24-1.78.277zm13.2-13.267l2.2-.115-4.95 6.201 6.03 6.087-2.34.123-5.88-5.956.32 6.247-2.02.106-.64-12.311 2.02-.106.31 5.972 4.95-6.248zm3.42-.18l2.16-.113 3.04 6.866c.17.406.33.797.47 1.173.16.376.3.744.43 1.106.12.347.23.687.3 1.02l.1-.004c.07-.388.19-.893.35-1.516.17-.638.34-1.277.53-1.916l2.13-7.114 2.19-.114-4.58 14.289c-.25.78-.56 1.465-.92 2.052-.36.602-.81 1.071-1.36 1.407-.53.35-1.2.547-2 .588-.36.02-.69.014-.96-.018a6.261 6.261 0 01-.72-.078l-.09-1.607c.17.021.38.042.61.06.24.018.5.02.76.006.47-.024.87-.138 1.2-.339.34-.187.63-.455.86-.805.22-.334.41-.728.56-1.18l.55-1.665-5.61-12.097zm77.62 9.28l-2.25-4.973-6.5.34-1.68 5.18-2.09.109 5.54-16.805 1.86-.097 7.25 16.134-2.13.112zm-5.06-11.643c-.05-.12-.14-.338-.26-.654-.13-.316-.25-.64-.38-.97-.11-.348-.2-.612-.27-.792-.06.31-.13.628-.2.954-.06.31-.13.598-.21.864-.06.264-.12.49-.17.676l-1.6 5.06 5.19-.273-2.1-4.865zm8.61 4.04c-.1-1.791 0-3.324.29-4.598.3-1.29.8-2.33 1.51-3.12.73-.806 1.68-1.37 2.86-1.693a86.16 86.16 0 012.89-.727c.94-.218 1.82-.418 2.64-.599l.44 1.75c-.4.083-.84.183-1.32.3-.49.102-.98.213-1.48.331-.5.103-.99.213-1.46.33-.45.1-.86.198-1.2.293-.5.134-.95.341-1.33.622a3.38 3.38 0 00-.98 1.065 5.55 5.55 0 00-.58 1.62c-.14.637-.2 1.384-.19 2.244l.14-.008a5.4 5.4 0 01.83-.941c.36-.327.8-.61 1.31-.852.53-.243 1.13-.382 1.8-.417 1.07-.056 1.97.135 2.7.573.75.421 1.31 1.036 1.71 1.845.41.807.65 1.762.7 2.865.07 1.363-.1 2.516-.53 3.46-.43.943-1.05 1.667-1.87 2.17-.82.488-1.78.762-2.9.82-.84.044-1.62-.076-2.32-.362-.71-.3-1.33-.76-1.85-1.377s-.94-1.394-1.25-2.33c-.31-.936-.5-2.024-.56-3.264zm6.05 5.648c.68-.035 1.25-.203 1.73-.505.49-.302.85-.774 1.1-1.416.24-.643.33-1.484.28-2.525-.07-1.256-.36-2.231-.87-2.926-.5-.711-1.28-1.038-2.35-.982-.68.035-1.28.22-1.82.555-.53.32-.98.681-1.32 1.083-.35.402-.59.737-.73 1.006.04.75.13 1.475.27 2.173.15.7.36 1.325.65 1.878.31.537.71.961 1.2 1.273.51.296 1.13.425 1.86.386zm19.59-5.77c.05 1.025-.04 1.943-.27 2.754-.22.795-.57 1.48-1.05 2.059a4.746 4.746 0 01-1.75 1.358c-.69.313-1.47.492-2.34.537a5.996 5.996 0 01-2.27-.295 5.021 5.021 0 01-1.86-1.17 6.086 6.086 0 01-1.3-1.935c-.32-.782-.5-1.686-.56-2.712-.07-1.362.1-2.523.51-3.481.41-.974 1.03-1.728 1.87-2.263.83-.55 1.83-.856 3.01-.918 1.12-.058 2.11.143 2.98.604.88.445 1.59 1.13 2.11 2.055.54.908.85 2.043.92 3.406zm-9.31.487c.06.964.22 1.8.5 2.507.3.69.73 1.213 1.28 1.568.56.355 1.25.51 2.08.467.83-.043 1.5-.27 2.01-.681.52-.411.88-.975 1.09-1.692.22-.734.31-1.583.26-2.547-.05-.98-.23-1.808-.53-2.483-.29-.676-.72-1.183-1.27-1.523-.54-.355-1.23-.51-2.08-.467-1.25.066-2.14.527-2.67 1.384-.52.856-.74 2.012-.67 3.467zm347.18-21.639l-4.02.211.55 10.611-1.99.105-.56-10.611-3.97.208-.09-1.7 9.99-.523.09 1.7zm7.46-2.302c1.51-.08 2.63.192 3.39.813.75.62 1.17 1.65 1.24 3.09l.44 8.383-1.47.077-.48-1.725-.09.005c-.33.462-.68.857-1.05 1.183-.35.31-.77.547-1.25.71-.47.163-1.05.263-1.73.299-.74.038-1.41-.057-2.02-.286-.6-.23-1.08-.604-1.44-1.122-.37-.534-.57-1.214-.62-2.04-.06-1.226.37-2.193 1.3-2.902.93-.724 2.4-1.17 4.4-1.336l2.09-.178-.04-.735c-.06-1.026-.32-1.726-.78-2.101-.47-.375-1.1-.541-1.91-.499-.65.034-1.26.166-1.83.395-.57.214-1.1.457-1.59.729l-.7-1.484a8.875 8.875 0 011.86-.835 8.26 8.26 0 012.28-.441zm.95 6.537c-1.53.142-2.58.442-3.16.903-.56.459-.82 1.079-.78 1.86.04.689.27 1.183.7 1.483.45.3 1 .431 1.66.397 1.04-.055 1.89-.383 2.55-.986.66-.618.96-1.524.89-2.718l-.05-1.103-1.81.164zm-615.62 21.784c2.14-.112 3.73.227 4.75 1.018 1.03.79 1.58 1.951 1.66 3.483.03.673-.05 1.33-.24 1.97a4.352 4.352 0 01-1 1.71c-.48.517-1.13.943-1.96 1.278-.83.32-1.85.511-3.08.576l-1.88.098.33 6.386-2.06.108-.86-16.4 4.34-.227zm-.09 1.778l-2.09.11.34 6.477 1.65-.087c1.04-.054 1.9-.207 2.58-.457.68-.266 1.17-.653 1.48-1.16.31-.508.45-1.16.41-1.957-.06-1.056-.44-1.827-1.14-2.312-.7-.486-1.78-.69-3.23-.614zm21.1 7.37c.05 1.026-.04 1.944-.27 2.755-.22.794-.57 1.48-1.05 2.058a4.795 4.795 0 01-1.74 1.359c-.69.312-1.48.491-2.35.537a5.996 5.996 0 01-2.27-.295 5.103 5.103 0 01-1.86-1.17 6.085 6.085 0 01-1.3-1.935c-.32-.782-.5-1.686-.55-2.712-.08-1.363.09-2.523.5-3.481.41-.974 1.03-1.728 1.87-2.263.83-.55 1.83-.856 3.01-.918 1.12-.059 2.11.143 2.98.604.88.445 1.59 1.13 2.11 2.054.54.909.85 2.044.92 3.407zm-9.3.487c.05.965.21 1.8.5 2.508.29.69.72 1.213 1.27 1.568.56.355 1.25.51 2.08.467.83-.043 1.5-.27 2.01-.681.52-.411.88-.975 1.09-1.693.22-.733.31-1.582.26-2.547-.05-.98-.23-1.807-.52-2.483-.3-.675-.73-1.182-1.28-1.522-.54-.355-1.23-.511-2.08-.467-1.25.066-2.14.527-2.66 1.384-.53.856-.75 2.012-.67 3.466zm12.27-1.864c-.09-1.791.01-3.324.29-4.598.3-1.29.81-2.33 1.52-3.12.73-.806 1.68-1.37 2.86-1.693.98-.266 1.95-.509 2.89-.727.94-.218 1.82-.418 2.64-.599l.43 1.75c-.39.083-.83.183-1.32.3-.48.102-.98.213-1.48.331-.5.103-.98.213-1.45.33-.46.1-.86.198-1.21.293-.5.134-.94.341-1.32.622-.39.266-.72.621-.99 1.065-.25.444-.44.983-.58 1.62-.13.637-.19 1.385-.18 2.244l.14-.008c.2-.302.47-.616.82-.941.37-.326.81-.61 1.32-.852.52-.243 1.12-.381 1.8-.417 1.07-.056 1.97.135 2.7.573.74.421 1.31 1.036 1.71 1.845.41.807.64 1.762.7 2.865.07 1.363-.11 2.516-.53 3.46-.43.943-1.05 1.667-1.87 2.17-.82.488-1.79.762-2.91.82-.84.044-1.61-.076-2.32-.362-.7-.3-1.32-.76-1.84-1.377-.53-.617-.94-1.394-1.25-2.33-.31-.935-.5-2.023-.57-3.264zm6.06 5.648c.67-.035 1.25-.203 1.72-.505.49-.302.86-.774 1.1-1.416.24-.642.34-1.484.28-2.525-.06-1.256-.35-2.231-.86-2.926-.5-.711-1.29-1.038-2.36-.982-.67.035-1.28.22-1.81.555-.54.32-.98.681-1.33 1.083-.34.402-.59.738-.73 1.006.04.75.13 1.475.28 2.174.14.698.36 1.324.65 1.877.3.537.7.961 1.19 1.273.51.296 1.13.425 1.87.386zm10.86-3.932c.01.138.01.338.01.599.01.245.02.513.02.805-.01.276-.01.545-.01.806 0 .246-.01.446-.01.6l6.05-10.659 2.48-.13.64 12.312-1.88.098-.38-7.258c-.01-.245-.03-.566-.05-.964-.01-.4-.01-.79-.02-1.174v-.898l-6 10.632-2.51.132-.64-12.311 1.9-.1.4 7.51zm26.14-8.901l.65 12.311-1.82.095-.41-7.855-.03-1.012c.01-.354.03-.7.04-1.038l-.07.003-3.5 10.11-1.7.09-4.42-9.695-.07.003c.05.336.08.68.1 1.031.03.352.06.711.08 1.079l.41 7.786-1.82.095-.64-12.311 2.68-.14 4.4 9.695 3.44-10.106 2.68-.141zm15.44 5.34c.05 1.026-.04 1.945-.27 2.755-.22.795-.57 1.481-1.05 2.059a4.747 4.747 0 01-1.75 1.358c-.69.313-1.47.492-2.34.538a5.996 5.996 0 01-2.27-.296 5.022 5.022 0 01-1.86-1.17 6.086 6.086 0 01-1.3-1.935c-.32-.782-.5-1.686-.56-2.712-.07-1.362.1-2.523.51-3.48.41-.974 1.03-1.728 1.87-2.263.83-.55 1.83-.857 3.01-.919 1.12-.058 2.11.143 2.98.604.88.445 1.59 1.13 2.11 2.055.54.908.85 2.044.92 3.407zm-9.31.488c.06.965.22 1.8.5 2.507.3.691.73 1.214 1.28 1.568.56.355 1.25.51 2.08.468.83-.044 1.5-.271 2.01-.682.52-.41.88-.975 1.09-1.692.22-.733.31-1.582.26-2.547-.05-.98-.23-1.808-.52-2.483-.3-.675-.73-1.183-1.28-1.522-.54-.356-1.23-.512-2.08-.467-1.25.065-2.14.527-2.66 1.383-.53.857-.75 2.012-.68 3.467zm209.64-13.209c-.1-1.791 0-3.324.29-4.598.3-1.29.8-2.33 1.51-3.12.73-.805 1.68-1.37 2.86-1.693a86.16 86.16 0 012.89-.727c.94-.218 1.82-.417 2.64-.599l.44 1.75c-.4.083-.84.183-1.32.3-.49.103-.98.213-1.48.331-.5.103-.99.213-1.46.33-.45.1-.86.198-1.2.293-.5.134-.95.342-1.33.623-.39.266-.71.62-.98 1.065a5.55 5.55 0 00-.58 1.62c-.14.636-.2 1.384-.19 2.243l.14-.007a5.4 5.4 0 01.83-.942c.36-.326.8-.61 1.31-.852a4.916 4.916 0 011.8-.416c1.07-.057 1.97.134 2.7.572.75.422 1.32 1.037 1.71 1.845.41.808.65 1.763.7 2.865.07 1.363-.1 2.516-.53 3.46-.43.943-1.05 1.667-1.87 2.17-.82.489-1.78.762-2.9.82-.84.045-1.62-.076-2.32-.361a4.892 4.892 0 01-1.85-1.378c-.52-.617-.94-1.394-1.25-2.33-.31-.935-.5-2.023-.56-3.264zm6.05 5.648c.68-.035 1.25-.203 1.73-.505.49-.302.85-.774 1.1-1.416.24-.642.33-1.484.28-2.525-.07-1.256-.36-2.231-.87-2.926-.5-.71-1.28-1.038-2.35-.982-.68.035-1.28.22-1.82.556-.53.32-.97.68-1.32 1.083-.35.402-.59.737-.73 1.005.04.75.13 1.475.27 2.174.15.698.36 1.324.65 1.877.31.537.71.961 1.2 1.273.51.296 1.13.425 1.86.386zm19.59-5.77c.05 1.025-.04 1.944-.27 2.754-.22.795-.57 1.481-1.05 2.059a4.746 4.746 0 01-1.75 1.358c-.68.313-1.47.492-2.34.538a5.994 5.994 0 01-2.27-.296 5.022 5.022 0 01-1.86-1.17 6.086 6.086 0 01-1.3-1.935c-.32-.782-.5-1.686-.56-2.712-.07-1.362.1-2.523.51-3.48.41-.974 1.03-1.729 1.87-2.263.83-.55 1.83-.857 3.01-.918 1.12-.059 2.11.142 2.98.603.88.446 1.59 1.13 2.11 2.055.54.908.85 2.044.92 3.407zm-9.31.487c.06.965.22 1.8.5 2.507.3.691.73 1.214 1.28 1.568.56.355 1.25.51 2.08.468.83-.044 1.5-.27 2.01-.682.52-.41.88-.975 1.09-1.692.22-.733.31-1.582.26-2.547-.05-.98-.23-1.808-.52-2.483-.3-.675-.73-1.183-1.28-1.522-.54-.356-1.23-.512-2.08-.467-1.25.065-2.14.527-2.66 1.383-.53.857-.75 2.012-.68 3.467zm18.51-7.35c1.52-.08 2.76.385 3.74 1.394.99 1.007 1.54 2.575 1.65 4.704.07 1.393-.08 2.583-.46 3.57-.36.972-.91 1.722-1.65 2.252-.73.514-1.6.798-2.63.852-.63.033-1.19-.022-1.69-.165-.5-.143-.93-.335-1.3-.577a5.336 5.336 0 01-.92-.85l-.13.007c.04.26.09.587.14.983.05.397.08.74.1 1.032l.26 5.052-2.02.106-.93-17.823 1.65-.087.37 1.663.09-.005c.22-.365.5-.702.82-1.01.34-.31.74-.562 1.2-.755.49-.194 1.05-.308 1.71-.343zm-.28 1.72c-.82.042-1.48.238-1.97.586-.49.333-.83.82-1.03 1.46-.19.639-.27 1.442-.24 2.407l.02.39c.05 1.011.21 1.863.46 2.556.25.693.64 1.21 1.16 1.551.54.34 1.26.487 2.14.44.75-.038 1.36-.277 1.81-.716.47-.439.8-1.016.99-1.733.21-.732.29-1.558.24-2.477-.08-1.408-.41-2.52-1.01-3.333-.58-.814-1.43-1.191-2.57-1.132zm20.07 3.623c.06 1.026-.03 1.944-.27 2.755-.22.794-.56 1.48-1.04 2.058a4.747 4.747 0 01-1.75 1.359c-.69.312-1.47.491-2.34.537a6.076 6.076 0 01-2.28-.296 5.065 5.065 0 01-1.85-1.169c-.54-.525-.97-1.17-1.3-1.935-.32-.782-.51-1.686-.56-2.712-.07-1.363.1-2.523.51-3.482.41-.973 1.03-1.727 1.86-2.262.83-.55 1.84-.856 3.02-.918 1.11-.059 2.11.143 2.98.604.88.445 1.58 1.13 2.11 2.054.54.909.84 2.044.91 3.407zm-9.3.487c.05.965.22 1.8.5 2.508.3.69.72 1.213 1.28 1.568.56.354 1.25.51 2.08.467.82-.043 1.49-.27 2.01-.681.52-.411.88-.975 1.09-1.693.22-.733.3-1.582.25-2.547-.05-.98-.22-1.807-.52-2.483-.29-.675-.72-1.182-1.28-1.522-.54-.355-1.23-.511-2.07-.467-1.26.066-2.15.527-2.67 1.383-.52.857-.74 2.013-.67 3.467zm21.81-7.292l.55 10.612 1.79-.094.32 5.971-1.96.103-.22-4.272-8.57.449.23 4.272-1.93.101-.31-5.972.98-.052a14.728 14.728 0 001.58-3.284c.41-1.188.7-2.416.87-3.684.18-1.284.24-2.554.19-3.81l6.48-.34zm-4.61 1.83c0 1.045-.11 2.133-.31 3.264a21.04 21.04 0 01-.84 3.223c-.35 1.032-.77 1.929-1.27 2.692l5.63-.295-.47-9.027-2.74.144zm7.36-1.974l2.16-.113 3.03 6.865c.18.406.33.797.48 1.173.16.376.3.744.42 1.106.13.347.23.687.31 1.02l.09-.004c.07-.388.19-.893.36-1.516.17-.638.34-1.277.52-1.916l2.14-7.113 2.18-.115-4.57 14.289c-.25.78-.56 1.465-.93 2.052-.35.602-.8 1.071-1.35 1.407-.54.35-1.2.547-2 .588-.37.02-.69.014-.97-.018a6.806 6.806 0 01-.72-.077l-.08-1.608c.17.022.37.042.6.06.25.018.5.02.76.007.48-.025.88-.138 1.21-.34.34-.187.62-.455.85-.805.23-.334.42-.728.56-1.18l.56-1.665-5.61-12.097zm81.75 8.06l-2.34.123-4.71-6.893-4.04 7.352-2.18.114 4.99-8.83-5.51-7.588 2.3-.12 4.36 6.22 3.7-6.642 2.18-.115-4.66 8.075 5.91 8.304zm12.91-6.871c.05 1.026-.04 1.944-.27 2.755-.22.794-.57 1.48-1.05 2.058a4.746 4.746 0 01-1.75 1.358c-.69.313-1.47.492-2.34.538a5.994 5.994 0 01-2.27-.296 5.021 5.021 0 01-1.86-1.17c-.54-.524-.97-1.17-1.3-1.935-.32-.782-.5-1.685-.56-2.711-.07-1.363.1-2.524.51-3.482.41-.973 1.03-1.727 1.86-2.262.83-.55 1.84-.856 3.02-.918 1.12-.059 2.11.142 2.98.604.88.445 1.59 1.13 2.11 2.054.54.908.84 2.044.92 3.407zm-9.31.487c.05.965.22 1.8.5 2.507.3.691.73 1.214 1.28 1.569.56.354 1.25.51 2.08.467.82-.044 1.5-.27 2.01-.682.52-.41.88-.975 1.09-1.692.22-.733.31-1.582.26-2.547-.06-.98-.23-1.807-.53-2.483-.29-.675-.72-1.183-1.27-1.522-.54-.356-1.24-.511-2.08-.467-1.25.066-2.14.527-2.67 1.383-.52.857-.74 2.012-.67 3.467zm14.45-2.415c.03.72.26 1.245.68 1.576.43.316 1.03.453 1.79.413.77-.04 1.46-.191 2.07-.454a12 12 0 001.88-1.066l-.27-5.282 2.02-.107.64 12.312-2.02.106-.29-5.49c-.66.48-1.33.868-1.99 1.164-.64.28-1.43.444-2.36.492-1.26.066-2.26-.212-3-.833-.72-.622-1.11-1.485-1.17-2.587l-.24-4.617 2.02-.106.24 4.479zm17.3-5.628c1.06-.056 1.97.127 2.75.547.79.419 1.4 1.04 1.84 1.86.46.806.72 1.767.78 2.885l.06 1.217-8.43.442c.11 1.392.51 2.438 1.23 3.137.72.684 1.7.994 2.92.93.78-.042 1.47-.147 2.06-.316.6-.185 1.22-.432 1.85-.742l.09 1.769a8.9 8.9 0 01-1.83.695c-.6.17-1.33.277-2.17.32-1.16.062-2.21-.121-3.14-.549-.91-.428-1.64-1.096-2.2-2.003-.54-.924-.84-2.067-.91-3.43-.07-1.347.09-2.515.48-3.503.41-.989 1.01-1.765 1.79-2.328.8-.564 1.74-.874 2.83-.931zm.06 1.654c-.96.051-1.71.405-2.24 1.063-.52.641-.81 1.516-.86 2.624l6.27-.329c-.03-.704-.17-1.311-.41-1.82a2.66 2.66 0 00-1.06-1.166c-.44-.284-1.01-.408-1.7-.372zm25.34-2.755l.64 12.31-16.69.876-.65-12.311 2.02-.106.56 10.611 5.3-.278-.55-10.611 2.02-.106.56 10.611 5.32-.279-.55-10.611 2.02-.106zm10.48 4.38c-.1-1.792 0-3.325.29-4.599.3-1.29.8-2.33 1.51-3.12.73-.805 1.68-1.37 2.86-1.693a86.16 86.16 0 012.89-.727c.94-.218 1.82-.418 2.64-.599l.44 1.75c-.4.083-.84.183-1.32.3-.49.103-.98.213-1.48.331-.5.103-.99.213-1.46.33-.45.1-.86.198-1.2.293-.5.134-.95.341-1.33.623-.39.266-.71.62-.98 1.064a5.55 5.55 0 00-.58 1.62c-.14.637-.2 1.385-.19 2.244l.14-.008a5.4 5.4 0 01.83-.941c.36-.326.8-.61 1.31-.852.53-.242 1.13-.381 1.8-.417 1.07-.056 1.97.135 2.7.573.74.421 1.31 1.036 1.71 1.845.41.808.64 1.763.7 2.865.07 1.363-.1 2.516-.53 3.46-.43.943-1.05 1.667-1.87 2.17-.82.488-1.78.762-2.9.82-.84.045-1.62-.076-2.32-.361a4.892 4.892 0 01-1.85-1.378c-.52-.617-.94-1.394-1.25-2.33-.31-.935-.5-2.023-.56-3.264zm6.05 5.647c.67-.035 1.25-.203 1.72-.505.5-.302.86-.774 1.11-1.416.24-.642.33-1.484.28-2.525-.07-1.256-.36-2.231-.87-2.926-.5-.71-1.28-1.038-2.35-.982-.68.035-1.28.22-1.82.556-.53.32-.98.68-1.32 1.082-.35.403-.59.738-.73 1.006.04.75.13 1.475.27 2.174.15.698.36 1.324.65 1.877.31.537.71.961 1.2 1.273.51.296 1.13.425 1.86.386zm19.59-5.77c.05 1.025-.04 1.944-.27 2.754-.22.795-.57 1.481-1.05 2.059a4.746 4.746 0 01-1.75 1.358c-.69.313-1.47.492-2.34.537a5.994 5.994 0 01-2.27-.295 5.022 5.022 0 01-1.86-1.17 6.086 6.086 0 01-1.3-1.935c-.32-.782-.5-1.686-.56-2.712-.07-1.362.1-2.523.51-3.48.41-.974 1.03-1.729 1.86-2.264.84-.55 1.84-.856 3.02-.918 1.12-.058 2.11.143 2.98.604.88.445 1.59 1.13 2.11 2.055.54.908.84 2.044.92 3.406zm-9.31.487c.05.965.22 1.8.5 2.507.3.69.73 1.214 1.28 1.568.56.355 1.25.51 2.08.467.82-.043 1.5-.27 2.01-.68.52-.412.88-.976 1.09-1.693.22-.733.31-1.582.26-2.547-.06-.98-.23-1.808-.53-2.483-.29-.676-.72-1.183-1.27-1.522-.54-.356-1.24-.512-2.08-.468-1.25.066-2.14.528-2.67 1.384-.52.857-.74 2.012-.67 3.467zm18.51-7.35c1.52-.08 2.76.385 3.74 1.394.99 1.007 1.54 2.575 1.65 4.704.07 1.393-.08 2.583-.46 3.57-.36.971-.91 1.722-1.65 2.252-.73.514-1.61.798-2.63.852-.63.033-1.19-.022-1.69-.165-.5-.143-.93-.335-1.3-.577a5.336 5.336 0 01-.92-.85l-.14.007a18.076 18.076 0 01.25 2.014l.26 5.053-2.02.106-.93-17.823 1.65-.087.36 1.662.1-.004c.22-.365.5-.702.82-1.01.34-.31.74-.562 1.2-.755.48-.194 1.05-.308 1.71-.343zm-.28 1.72c-.82.042-1.48.238-1.97.586-.49.333-.83.82-1.03 1.459-.19.64-.28 1.443-.24 2.408l.02.39c.05 1.011.21 1.863.46 2.556.25.693.64 1.21 1.16 1.551.54.34 1.25.487 2.14.44.75-.038 1.35-.277 1.81-.716.47-.439.8-1.017.99-1.733.21-.732.29-1.558.24-2.477-.08-1.409-.41-2.52-1.01-3.333-.58-.814-1.43-1.191-2.57-1.132zm20.07 3.623c.06 1.026-.03 1.944-.27 2.755-.22.794-.56 1.48-1.04 2.058a4.83 4.83 0 01-1.75 1.358c-.69.313-1.47.492-2.34.538a6.049 6.049 0 01-2.28-.296 5.065 5.065 0 01-1.85-1.169c-.54-.525-.97-1.17-1.3-1.936-.32-.781-.51-1.685-.56-2.711-.07-1.363.1-2.523.51-3.482.41-.973 1.03-1.727 1.86-2.262.83-.55 1.84-.856 3.02-.918 1.11-.059 2.11.143 2.98.604.88.445 1.58 1.13 2.11 2.054.54.908.84 2.044.91 3.407zm-9.3.487c.05.965.22 1.8.5 2.508.3.69.72 1.213 1.28 1.568.56.354 1.25.51 2.07.467.83-.044 1.5-.27 2.02-.682.51-.41.88-.974 1.08-1.692.23-.733.31-1.582.26-2.547-.05-.98-.22-1.807-.52-2.483-.3-.675-.72-1.183-1.28-1.522-.54-.356-1.23-.511-2.07-.467-1.26.066-2.15.527-2.67 1.383-.52.857-.75 2.013-.67 3.467zm21.81-7.292l.55 10.611 1.79-.093.32 5.971-1.96.103-.22-4.272-8.57.449.23 4.272-1.93.1-.32-5.97.99-.053a15.178 15.178 0 001.58-3.284c.41-1.188.7-2.416.87-3.684.17-1.284.24-2.554.19-3.81l6.48-.34zm-4.61 1.83c0 1.045-.11 2.133-.31 3.264a21.04 21.04 0 01-.84 3.223c-.35 1.031-.77 1.929-1.27 2.692l5.63-.295-.47-9.027-2.74.144zm7.36-1.974l2.16-.113 3.03 6.865c.18.406.33.797.48 1.173.15.376.3.744.42 1.106.13.347.23.687.31 1.02l.09-.004c.07-.388.19-.893.36-1.516.17-.638.34-1.277.52-1.916l2.14-7.114 2.18-.114-4.57 14.289c-.25.78-.56 1.465-.93 2.052-.35.602-.8 1.071-1.35 1.407-.54.35-1.2.547-2 .588-.37.02-.69.014-.97-.018a6.525 6.525 0 01-.72-.078l-.08-1.607c.17.022.37.042.6.06.25.018.5.02.76.007.48-.025.88-.139 1.21-.34.34-.187.62-.455.85-.805.23-.334.42-.728.56-1.18l.56-1.665-5.61-12.097zm63.12-4.54c.93-.049 1.75.039 2.45.263.7.21 1.26.548 1.67 1.018.4.455.63 1.027.66 1.716.04.75-.13 1.358-.52 1.824-.4.45-.95.794-1.65 1.03v.093c.5.112.96.28 1.39.503.42.223.77.528 1.03.913.29.384.44.89.47 1.518.04.674-.12 1.296-.47 1.868-.34.57-.89 1.037-1.66 1.4-.75.36-1.72.573-2.93.637-.59.03-1.15.029-1.69-.004-.52-.034-1-.101-1.43-.201-.42-.101-.8-.227-1.13-.379l-.1-1.814c.54.217 1.16.407 1.88.57.73.16 1.51.22 2.36.175.61-.032 1.16-.13 1.64-.293.5-.164.88-.4 1.16-.706.27-.321.4-.742.37-1.263-.02-.475-.17-.85-.45-1.128-.28-.292-.68-.502-1.21-.628-.51-.126-1.17-.169-1.96-.127l-1.66.087-.08-1.654 1.33-.07c1.06-.055 1.89-.237 2.5-.546.63-.324.93-.831.89-1.52-.03-.582-.3-1.006-.8-1.27-.49-.267-1.19-.376-2.09-.329-.67.035-1.27.136-1.78.3-.5.15-1.05.37-1.65.663l-.79-1.57a9.503 9.503 0 012.03-.752c.71-.176 1.45-.284 2.22-.324zm13.16-.667c1.5-.078 2.63.193 3.38.813.76.621 1.17 1.651 1.25 3.09l.44 8.384-1.47.077-.49-1.725-.09.005c-.33.462-.67.857-1.04 1.183-.35.31-.77.547-1.25.71-.47.163-1.05.263-1.74.299-.73.038-1.41-.057-2.02-.286a3.131 3.131 0 01-1.44-1.122c-.36-.534-.57-1.214-.61-2.04-.07-1.226.37-2.193 1.3-2.902.93-.724 2.39-1.17 4.4-1.336l2.08-.178-.04-.735c-.05-1.026-.31-1.727-.77-2.101-.47-.375-1.11-.541-1.92-.499-.64.034-1.25.166-1.82.395a12 12 0 00-1.6.729l-.7-1.484c.52-.319 1.15-.597 1.87-.835.72-.252 1.48-.4 2.28-.442zm.94 6.538c-1.53.142-2.58.442-3.15.902-.56.46-.82 1.08-.78 1.86.04.69.27 1.184.7 1.484.45.3 1 .431 1.66.397 1.04-.055 1.89-.383 2.55-.986.66-.618.95-1.524.89-2.718l-.06-1.103-1.81.164zm9.77-2.4c.03.72.26 1.245.68 1.576.43.316 1.03.453 1.79.413.77-.04 1.46-.192 2.07-.454a12 12 0 001.88-1.066l-.27-5.283 2.02-.106.64 12.311-2.02.106-.29-5.49c-.66.481-1.32.869-1.98 1.165-.65.28-1.44.443-2.37.492-1.26.066-2.26-.212-3-.833-.72-.623-1.11-1.485-1.17-2.588l-.24-4.616 2.02-.106.24 4.479zm14.58-5.256l.64 12.312-2.02.105-.64-12.31 2.02-.107zm-1.23-4.564c.31-.017.58.076.82.279.26.186.4.501.42.945.02.429-.08.757-.32.984-.22.227-.48.348-.79.364-.33.018-.62-.075-.86-.277s-.37-.518-.4-.947c-.02-.444.08-.771.3-.982.22-.227.49-.349.83-.366zm11.2 16.617c-1.08.057-2.07-.114-2.95-.513-.86-.4-1.56-1.054-2.1-1.963-.53-.909-.83-2.09-.9-3.546-.08-1.515.1-2.761.56-3.737.46-.976 1.1-1.709 1.94-2.198.84-.49 1.82-.763 2.92-.82.63-.034 1.24.003 1.83.11.59.093 1.07.221 1.45.386l-.54 1.709c-.37-.119-.81-.227-1.3-.323a5.73 5.73 0 00-1.39-.112c-.83.043-1.5.255-2.02.636-.51.38-.88.921-1.11 1.624-.22.703-.31 1.567-.25 2.593.05.98.22 1.808.52 2.483.29.675.71 1.176 1.25 1.5.54.325 1.2.467 1.98.426.67-.035 1.26-.135 1.76-.299.51-.165.98-.358 1.4-.58l.09 1.792c-.4.236-.85.42-1.35.554-.49.148-1.08.24-1.79.278zm13.21-13.267l2.2-.116-4.95 6.202 6.03 6.087-2.34.122-5.89-5.956.33 6.248-2.02.105-.65-12.31 2.03-.107.31 5.972 4.95-6.247zm3.42-.18l2.16-.113 3.03 6.866c.18.405.34.796.48 1.172.16.376.3.745.42 1.107.13.346.23.686.31 1.02l.09-.005c.07-.387.19-.893.36-1.516.17-.638.34-1.276.52-1.916l2.14-7.113 2.18-.114-4.57 14.288a8.981 8.981 0 01-.93 2.053c-.35.602-.8 1.07-1.35 1.407-.54.35-1.2.546-2 .588-.37.02-.69.013-.97-.018a6.322 6.322 0 01-.71-.078l-.09-1.608c.17.022.37.042.6.06.25.019.5.02.76.007.48-.025.88-.138 1.21-.34.34-.186.63-.455.85-.804.23-.335.42-.728.56-1.181l.56-1.665-5.61-12.097z" fill="#161513"/><defs><clipPath id="clip0_75_712"><path fill="#fff" transform="rotate(-3 2214.728 -167.038)" d="M0 0h20v20H0z"/></clipPath><clipPath id="clip1_75_712"><path fill="#fff" transform="rotate(-3 2040.38 -6824.787)" d="M0 0h20v20H0z"/></clipPath><clipPath id="clip2_75_712"><path fill="#fff" transform="rotate(-3 1924.198 -11261.607)" d="M0 0h20v20H0z"/></clipPath><clipPath id="clip3_75_712"><path fill="#fff" transform="rotate(-3 1832.511 -14762.96)" d="M0 0h20v20H0z"/></clipPath><clipPath id="clip4_75_712"><path fill="#fff" transform="rotate(-3 1640.697 -22088.093)" d="M0 0h20v20H0z"/></clipPath><clipPath id="clip5_75_712"><path fill="#fff" transform="rotate(-3 1524.04 -26542.963)" d="M0 0h20v20H0z"/></clipPath><clipPath id="clip6_75_712"><path fill="#fff" transform="rotate(-3 1427.219 -30240.281)" d="M0 0h20v20H0z"/></clipPath></defs></svg>