<svg width="1027" height="104" fill="none" xmlns="http://www.w3.org/2000/svg"><path d="M1023 0h4v50h-4V0z" fill="#F2F1EF"/><path fill="#F2F1EF" d="M.393 53.83L1022.99.238l2.616 49.931L3.01 103.761z"/><g clip-path="url(#clip0_75_707)" fill-rule="evenodd" clip-rule="evenodd"><path d="M13.662 86.89l-1.138.722-.376-.563 1.079-.685c.128.188.274.363.434.526zm14.491-18.613l-10.42 13.201 1.019.763 4.42-2.964c1.517-2.6 5.708-8.574 5.905-11.198.074-.943.068-1.061-.924.198z" fill="#E94D35"/><path d="M17.103 80.673a3.91 3.91 0 00-2.552.338 3.779 3.779 0 00-1.757 1.84 3.642 3.642 0 00-.164 2.505 3.718 3.718 0 001.502 2.035 3.886 3.886 0 002.488.64 3.874 3.874 0 002.343-1.047 3.703 3.703 0 001.134-2.256c.1-.857-.108-1.72-.589-2.443a3.738 3.738 0 00-1.037-1.04 3.842 3.842 0 00-1.368-.572zm-2.17 1.579a2.58 2.58 0 011.655-.387 2.551 2.551 0 011.53.725c.407.407.657.94.707 1.507a2.422 2.422 0 01-.435 1.606c-.331.47-.819.815-1.38.975a2.584 2.584 0 01-1.699-.1 2.493 2.493 0 01-1.245-1.127 2.407 2.407 0 01-.227-1.644 2.447 2.447 0 011.09-1.555h.004zm-.222-13.271l11.738 12.04-.934.865-4.704-2.485c-1.78-2.428-6.572-7.93-7.043-10.52-.168-.93-.175-1.049.943.1z" fill="#E94D35"/><path d="M27.001 80.154a3.91 3.91 0 012.573.07 3.779 3.779 0 011.94 1.645 3.65 3.65 0 01.425 2.475 3.718 3.718 0 01-1.282 2.18 3.886 3.886 0 01-2.407.897 3.875 3.875 0 01-2.44-.796 3.702 3.702 0 01-1.363-2.125 3.648 3.648 0 01.33-2.491 3.72 3.72 0 01.923-1.144 3.84 3.84 0 011.301-.711zm2.323 1.344a2.58 2.58 0 00-1.687-.212 2.543 2.543 0 00-1.445.88 2.43 2.43 0 00-.546 1.574c.01.57.222 1.118.6 1.551.379.434.9.725 1.475.825.575.1 1.168.003 1.679-.276.51-.278.906-.72 1.12-1.251a2.407 2.407 0 00-.424-2.497 2.499 2.499 0 00-.772-.594z" fill="#E94D35"/><path d="M21.55 77.074a1.274 1.274 0 01.954.07 1.2 1.2 0 01.544 1.637 1.248 1.248 0 01-1.208.664 1.27 1.27 0 01-.851-.422 1.191 1.191 0 01-.16-1.343c.15-.288.41-.506.726-.606h-.004zm.849-.379a.09.09 0 01-.123.019.085.085 0 01-.019-.12l6.155-8.123a.09.09 0 01.125-.018c.018.014.03.034.034.056a.085.085 0 01-.016.064l-6.156 8.122zm-.963-.058a.085.085 0 01-.006.12.092.092 0 01-.125-.005l-6.968-7.434a.085.085 0 01.01-.121.092.092 0 01.125.005l6.964 7.435zm.876.874a.846.846 0 00-.631-.047.83.83 0 00-.392.27.798.798 0 00-.071.892.815.815 0 00.655.408.844.844 0 00.602-.192.81.81 0 00.288-.55.795.795 0 00-.45-.781z" fill="#fff"/><path d="M16.22 82.775a1.611 1.611 0 00-.988.402 1.518 1.518 0 00-.293 1.944c.19.306.482.539.828.658s.724.117 1.07-.005c.345-.122.637-.358.825-.666a1.518 1.518 0 00-.301-1.94 1.615 1.615 0 00-1.141-.393zm-1.314.317a1.919 1.919 0 012.361-.354c.375.216.66.552.808.951.147.4.148.837.003 1.237-.146.4-.43.74-.803.96a1.92 1.92 0 01-1.243.247 1.89 1.89 0 01-1.12-.578 1.807 1.807 0 01-.487-1.141 1.81 1.81 0 01.481-1.322zm13.189-.94a1.61 1.61 0 00-.984.403 1.53 1.53 0 00-.501.919 1.51 1.51 0 00.21 1.019c.189.305.48.537.825.656a1.62 1.62 0 001.066-.005 1.58 1.58 0 00.823-.663 1.514 1.514 0 00-.298-1.936 1.612 1.612 0 00-1.141-.393zm-1.313.317a1.92 1.92 0 012.361-.354c.374.216.66.553.807.952.148.4.149.836.003 1.237-.146.4-.43.74-.803.96-.373.22-.812.307-1.243.247a1.89 1.89 0 01-1.12-.578 1.808 1.808 0 01-.487-1.141c-.025-.485.148-.96.482-1.323z" fill="#E94D35"/></g><path d="M233.487 67.023l-4.019.21.556 10.612-1.998.105-.556-10.612-3.974.209-.089-1.7 9.991-.523.089 1.7zm7.468-2.303c1.5-.078 2.628.193 3.382.813.754.621 1.169 1.651 1.244 3.09l.44 8.384-1.47.077-.482-1.725-.092.005a7.015 7.015 0 01-1.044 1.183c-.352.31-.77.547-1.252.71-.468.163-1.046.262-1.735.299-.735.038-1.408-.057-2.019-.286a3.083 3.083 0 01-1.441-1.122c-.365-.534-.57-1.214-.613-2.041-.064-1.225.369-2.192 1.299-2.9.929-.725 2.395-1.17 4.398-1.337l2.086-.178-.038-.735c-.054-1.026-.313-1.727-.778-2.101-.465-.375-1.103-.542-1.915-.499a5.649 5.649 0 00-1.822.395c-.572.214-1.104.457-1.597.728l-.699-1.483c.52-.319 1.143-.597 1.868-.835a8.16 8.16 0 012.28-.442zm.941 6.538c-1.528.141-2.579.442-3.154.902-.56.46-.819 1.08-.778 1.86.036.69.269 1.184.7 1.484.445.299.997.431 1.656.397 1.041-.055 1.891-.383 2.551-.986.658-.618.956-1.524.894-2.719l-.058-1.102-1.811.164zM60.734 85.716l-2.343.123-4.714-6.893-4.037 7.351-2.182.115 4.996-8.83-5.511-7.588 2.297-.12 4.356 6.22 3.706-6.643 2.182-.114-4.667 8.075 5.917 8.304zm12.901-6.872c.054 1.026-.036 1.945-.27 2.755-.22.795-.567 1.481-1.044 2.059a4.796 4.796 0 01-1.748 1.358c-.69.313-1.471.492-2.344.537a6.015 6.015 0 01-2.273-.295 5.093 5.093 0 01-1.857-1.17c-.535-.524-.968-1.17-1.3-1.935-.317-.782-.502-1.686-.556-2.712-.072-1.362.098-2.523.508-3.481.41-.973 1.03-1.728 1.863-2.263.83-.55 1.836-.856 3.015-.918 1.117-.058 2.11.143 2.98.604.883.445 1.586 1.13 2.11 2.055.54.908.845 2.043.916 3.406zm-9.302.488c.05.965.217 1.8.5 2.507.297.69.724 1.214 1.28 1.568.556.355 1.247.51 2.074.467.827-.043 1.498-.27 2.014-.681.516-.41.878-.975 1.086-1.692.223-.733.309-1.582.258-2.547-.051-.98-.225-1.808-.522-2.483-.296-.676-.722-1.183-1.277-1.523-.54-.355-1.232-.51-2.074-.466-1.256.065-2.145.526-2.668 1.383-.524.857-.747 2.012-.671 3.467zm14.443-2.415c.037.72.264 1.245.681 1.576.431.315 1.03.453 1.795.413a6.064 6.064 0 002.072-.454 12.608 12.608 0 001.879-1.066l-.277-5.283 2.021-.106.645 12.311-2.02.106-.288-5.49a11.33 11.33 0 01-1.99 1.164c-.645.28-1.435.444-2.369.493-1.255.066-2.252-.212-2.991-.833-.724-.623-1.115-1.485-1.172-2.588l-.242-4.616 2.02-.106.236 4.479zm17.304-5.629c1.057-.055 1.972.127 2.747.547.79.42 1.405 1.04 1.848 1.861.456.805.714 1.767.773 2.885l.063 1.217-8.43.442c.105 1.392.513 2.437 1.225 3.137.727.684 1.702.993 2.927.93.781-.042 1.467-.147 2.057-.316a12.45 12.45 0 001.849-.742l.093 1.769a9.04 9.04 0 01-1.829.694c-.605.17-1.329.277-2.171.322-1.164.06-2.21-.123-3.138-.55-.913-.428-1.647-1.096-2.201-2.004-.54-.923-.845-2.067-.917-3.43-.07-1.347.091-2.514.484-3.502.41-.99 1.006-1.765 1.79-2.328.8-.564 1.743-.875 2.83-.932zm.064 1.655c-.965.05-1.714.405-2.248 1.062-.519.642-.803 1.516-.852 2.625l6.27-.33c-.037-.703-.176-1.31-.418-1.82a2.599 2.599 0 00-1.051-1.165c-.445-.284-1.012-.408-1.701-.372zm25.336-2.755l.645 12.31-16.698.876-.645-12.311 2.021-.106.556 10.611 5.306-.278-.556-10.611 2.021-.106.556 10.611 5.329-.28-.556-10.61 2.021-.106zm10.477 4.38c-.094-1.792.002-3.325.289-4.6.301-1.29.807-2.33 1.518-3.119.725-.806 1.678-1.37 2.859-1.693a81.086 81.086 0 012.887-.727c.94-.218 1.82-.418 2.64-.599l.437 1.75c-.395.083-.835.182-1.32.3a67.37 67.37 0 00-1.48.33c-.501.104-.986.214-1.456.33-.456.101-.857.199-1.206.294a3.96 3.96 0 00-1.326.622 3.415 3.415 0 00-.98 1.065c-.254.443-.448.983-.583 1.62-.136.636-.197 1.384-.182 2.243l.138-.007a5.27 5.27 0 01.825-.941 5.51 5.51 0 011.315-.852c.524-.243 1.124-.382 1.797-.417 1.072-.056 1.973.135 2.702.573.744.421 1.313 1.036 1.709 1.845.411.807.645 1.762.703 2.865.071 1.362-.106 2.516-.533 3.46-.426.943-1.049 1.666-1.867 2.17-.819.488-1.787.762-2.905.82-.842.044-1.616-.076-2.322-.362a4.934 4.934 0 01-1.846-1.377c-.523-.618-.94-1.394-1.25-2.33-.31-.936-.498-2.024-.563-3.264zm6.054 5.647c.674-.035 1.248-.204 1.724-.505.491-.302.858-.774 1.1-1.416.243-.643.337-1.484.283-2.526-.066-1.255-.355-2.23-.868-2.925-.498-.711-1.283-1.038-2.354-.982a3.726 3.726 0 00-1.814.555c-.536.32-.978.681-1.325 1.083-.347.402-.591.737-.73 1.006.039.75.131 1.475.275 2.173.144.7.361 1.325.651 1.878.304.537.703.961 1.195 1.273.507.296 1.128.425 1.863.386zm19.585-5.77c.054 1.025-.036 1.943-.27 2.754-.219.795-.567 1.48-1.044 2.058a4.788 4.788 0 01-1.748 1.359c-.69.312-1.471.492-2.344.537a6.02 6.02 0 01-2.273-.295 5.091 5.091 0 01-1.857-1.17c-.534-.524-.967-1.17-1.299-1.935-.318-.782-.503-1.686-.557-2.712-.071-1.363.098-2.523.508-3.481.41-.974 1.031-1.728 1.863-2.263.831-.55 1.836-.856 3.015-.918 1.117-.058 2.111.143 2.979.604.884.445 1.587 1.13 2.112 2.054.539.909.844 2.044.915 3.407zm-9.302.487c.051.964.217 1.8.5 2.507.297.69.724 1.213 1.28 1.568s1.247.51 2.074.467c.827-.043 1.498-.27 2.014-.681.516-.411.878-.975 1.086-1.692.223-.734.309-1.583.258-2.547-.051-.98-.225-1.808-.521-2.483-.297-.676-.723-1.183-1.278-1.523-.541-.355-1.232-.51-2.074-.467-1.256.066-2.145.527-2.668 1.384-.524.856-.747 2.012-.671 3.467zm18.509-7.35c1.516-.08 2.761.385 3.735 1.393.989 1.008 1.54 2.576 1.651 4.704.073 1.394-.079 2.584-.458 3.571-.363.971-.915 1.722-1.655 2.252-.725.514-1.601.798-2.627.852-.628.032-1.191-.022-1.69-.165a4.667 4.667 0 01-1.297-.577 5.373 5.373 0 01-.92-.85l-.138.007c.045.259.093.586.144.983.052.396.085.74.1 1.031l.265 5.053-2.021.106-.934-17.823 1.653-.087.364 1.662.092-.005c.226-.365.5-.701.822-1.01a4.06 4.06 0 011.204-.754c.481-.194 1.051-.309 1.71-.343zm-.279 1.719c-.827.043-1.484.239-1.973.587-.489.333-.832.819-1.029 1.459-.197.64-.277 1.442-.242 2.408l.02.39c.053 1.01.205 1.863.457 2.556.251.693.639 1.21 1.163 1.551.54.34 1.254.487 2.142.44.751-.039 1.352-.278 1.805-.716.469-.439.799-1.017.992-1.733.207-.733.287-1.558.239-2.477-.074-1.409-.409-2.52-1.004-3.333-.58-.814-1.437-1.192-2.57-1.132zm20.069 3.623c.053 1.026-.037 1.945-.27 2.755-.22.795-.568 1.481-1.044 2.059a4.796 4.796 0 01-1.748 1.358c-.69.313-1.472.492-2.345.538a6.01 6.01 0 01-2.272-.296 5.098 5.098 0 01-1.858-1.17c-.534-.524-.967-1.17-1.299-1.935-.317-.782-.503-1.686-.557-2.712-.071-1.362.098-2.523.509-3.48.409-.974 1.03-1.728 1.862-2.263.831-.55 1.836-.857 3.015-.919 1.118-.058 2.111.143 2.98.604.883.446 1.587 1.13 2.111 2.055.539.908.844 2.044.916 3.406zm-9.303.488c.051.965.218 1.8.5 2.507.298.691.724 1.214 1.28 1.568.556.355 1.248.51 2.075.468.826-.044 1.498-.27 2.014-.682.515-.41.877-.975 1.086-1.692.222-.733.308-1.582.258-2.547-.052-.98-.226-1.808-.522-2.483-.297-.675-.722-1.183-1.277-1.522-.541-.356-1.233-.511-2.075-.467-1.255.065-2.145.527-2.668 1.383-.523.857-.747 2.012-.671 3.467zm21.806-7.292l.556 10.611 1.791-.094.313 5.972-1.952.103-.224-4.273-8.567.45.224 4.272-1.93.1-.313-5.971.988-.052a14.988 14.988 0 001.578-3.284c.414-1.189.703-2.417.867-3.684a21.38 21.38 0 00.191-3.81l6.478-.34zm-4.603 1.83a19.309 19.309 0 01-.313 3.264 21.28 21.28 0 01-.844 3.223c-.345 1.031-.767 1.928-1.264 2.692l5.627-.295-.473-9.027-2.733.143zm7.357-1.975l2.159-.113 3.032 6.866c.174.406.333.796.476 1.173.157.375.3.744.426 1.106.126.346.228.687.307 1.02l.092-.005c.072-.387.191-.892.358-1.515.166-.639.34-1.277.521-1.916l2.138-7.114 2.182-.114-4.572 14.289c-.25.78-.56 1.465-.928 2.052a3.946 3.946 0 01-1.355 1.407c-.534.35-1.199.546-1.996.588-.367.02-.69.013-.968-.018a6.329 6.329 0 01-.718-.078l-.084-1.608c.17.022.371.042.602.061.246.018.5.02.76.006.475-.025.876-.138 1.203-.34a2.36 2.36 0 00.856-.804c.228-.335.415-.728.56-1.181l.558-1.664-5.609-12.097z" fill="#161513"/><g clip-path="url(#clip1_75_707)" fill-rule="evenodd" clip-rule="evenodd"><path d="M361.862 68.641l-1.137.723-.376-.563 1.078-.685c.129.187.275.363.435.525zm14.492-18.613L365.933 63.23l1.02.762 4.42-2.963c1.517-2.601 5.708-8.575 5.905-11.198.074-.944.068-1.062-.924.197z" fill="#E94D35"/><path d="M365.304 62.424a3.911 3.911 0 00-2.552.338 3.776 3.776 0 00-1.757 1.84 3.644 3.644 0 00-.164 2.505 3.72 3.72 0 001.502 2.035 3.888 3.888 0 002.488.64 3.874 3.874 0 002.343-1.046 3.7 3.7 0 001.134-2.257 3.64 3.64 0 00-.589-2.442 3.727 3.727 0 00-1.037-1.041 3.846 3.846 0 00-1.368-.572zm-2.17 1.58a2.578 2.578 0 011.655-.388 2.543 2.543 0 011.529.725c.408.408.658.94.708 1.508a2.426 2.426 0 01-.435 1.606c-.331.47-.819.815-1.38.974a2.586 2.586 0 01-1.699-.099 2.492 2.492 0 01-1.245-1.127 2.427 2.427 0 01.159-2.527c.187-.267.426-.496.704-.672h.004zm-.222-13.271l11.738 12.04-.934.865-4.704-2.485c-1.781-2.429-6.573-7.931-7.043-10.52-.169-.93-.175-1.049.943.1z" fill="#E94D35"/><path d="M375.202 61.906a3.91 3.91 0 012.573.069 3.776 3.776 0 011.939 1.646 3.64 3.64 0 01.426 2.475 3.716 3.716 0 01-1.282 2.18 3.884 3.884 0 01-2.407.896 3.872 3.872 0 01-2.439-.795 3.698 3.698 0 01-1.364-2.126 3.645 3.645 0 01.33-2.49 3.73 3.73 0 01.923-1.144c.381-.319.824-.56 1.301-.711zm2.323 1.343a2.58 2.58 0 00-1.687-.212 2.544 2.544 0 00-1.445.881 2.42 2.42 0 00.055 3.125 2.53 2.53 0 001.474.825c.575.1 1.168.003 1.679-.276.51-.279.906-.721 1.12-1.252.215-.53.234-1.117.054-1.659a2.434 2.434 0 00-.478-.838 2.505 2.505 0 00-.772-.594z" fill="#E94D35"/><path d="M369.752 58.825a1.273 1.273 0 01.953.07 1.203 1.203 0 01.544 1.637 1.25 1.25 0 01-1.208.665 1.269 1.269 0 01-.851-.423 1.192 1.192 0 01-.161-1.343 1.24 1.24 0 01.727-.606h-.004zm.848-.378a.09.09 0 01-.124.018.087.087 0 01-.035-.056.082.082 0 01.016-.064l6.156-8.122a.092.092 0 01.125-.018.09.09 0 01.034.056.09.09 0 01-.016.063l-6.156 8.123zm-.963-.059a.085.085 0 01-.006.12.09.09 0 01-.064.023.09.09 0 01-.061-.027l-6.968-7.435a.084.084 0 01.009-.12.093.093 0 01.126.004l6.964 7.435zm.876.875a.832.832 0 00-1.023.222.791.791 0 00-.071.892.82.82 0 00.655.409.846.846 0 00.602-.192.813.813 0 00.288-.55.798.798 0 00-.451-.781z" fill="#fff"/><path d="M364.421 64.526a1.613 1.613 0 00-.988.403 1.517 1.517 0 00-.293 1.944c.19.306.482.538.828.657a1.613 1.613 0 001.894-.67 1.517 1.517 0 00-.3-1.94 1.59 1.59 0 00-1.141-.394zm-1.314.317a1.918 1.918 0 012.361-.355c.375.217.66.554.807.953.148.4.149.836.004 1.237-.146.4-.43.74-.803.96-.373.22-.812.307-1.243.247a1.892 1.892 0 01-1.12-.579 1.807 1.807 0 01-.487-1.14 1.816 1.816 0 01.481-1.323zm13.189-.939a1.603 1.603 0 00-.984.402 1.536 1.536 0 00-.501.92c-.053.353.021.713.21 1.018.188.306.48.538.825.656a1.62 1.62 0 001.066-.004c.345-.122.636-.356.823-.664.188-.307.261-.668.206-1.02a1.524 1.524 0 00-.504-.915 1.613 1.613 0 00-1.141-.393zm-1.314.317a1.92 1.92 0 012.362-.355c.374.217.659.553.807.953.147.399.149.836.003 1.236-.146.401-.43.74-.803.96a1.92 1.92 0 01-1.243.247 1.892 1.892 0 01-1.12-.578 1.807 1.807 0 01-.487-1.14 1.813 1.813 0 01.481-1.323z" fill="#E94D35"/></g><path d="M264.966 61.436c.934-.049 1.752.039 2.455.263.702.209 1.257.548 1.666 1.018.407.455.629 1.027.665 1.716.04.75-.136 1.358-.526 1.824-.391.45-.941.794-1.65 1.03l.005.092c.497.112.959.28 1.385.503.426.224.772.528 1.038.913.281.385.438.891.471 1.519a3.148 3.148 0 01-.478 1.868c-.338.57-.89 1.037-1.654 1.399-.748.362-1.728.574-2.937.638-.582.03-1.143.029-1.682-.004a9.046 9.046 0 01-1.438-.201 6.06 6.06 0 01-1.126-.38l-.095-1.814a12 12 0 001.873.57 8.75 8.75 0 002.358.176 6.115 6.115 0 001.643-.293c.498-.165.885-.4 1.161-.706.274-.322.398-.743.371-1.263-.025-.475-.175-.85-.451-1.128-.276-.293-.679-.502-1.207-.628-.514-.127-1.168-.169-1.965-.127l-1.653.086-.087-1.653 1.332-.07c1.057-.056 1.892-.237 2.505-.546.628-.325.924-.831.888-1.52-.031-.582-.299-1.006-.804-1.271-.49-.266-1.186-.376-2.09-.328-.674.035-1.267.135-1.781.3-.499.15-1.047.37-1.646.663l-.797-1.571a9.557 9.557 0 012.034-.752 11.835 11.835 0 012.217-.323zm13.165-.667c1.5-.078 2.628.193 3.382.813.754.621 1.169 1.651 1.244 3.09l.44 8.384-1.47.077-.482-1.725-.092.005a7.01 7.01 0 01-1.044 1.183c-.352.31-.769.547-1.252.71-.468.163-1.046.262-1.735.299-.735.038-1.408-.057-2.019-.286a3.076 3.076 0 01-1.44-1.122c-.366-.534-.571-1.214-.614-2.041-.064-1.225.369-2.192 1.299-2.901.929-.724 2.395-1.17 4.398-1.336l2.086-.178-.038-.735c-.054-1.026-.313-1.727-.778-2.102-.465-.374-1.103-.54-1.915-.498a5.651 5.651 0 00-1.822.395c-.572.214-1.104.457-1.597.728l-.699-1.483c.52-.319 1.143-.597 1.868-.835a8.16 8.16 0 012.28-.442zm.941 6.538c-1.528.141-2.579.442-3.154.902-.559.46-.819 1.08-.778 1.86.036.69.27 1.184.7 1.484.445.299.997.431 1.656.397 1.041-.055 1.891-.383 2.551-.986.658-.618.956-1.524.894-2.719l-.058-1.102-1.811.164zm9.764-2.4c.038.72.265 1.245.682 1.576.431.315 1.029.453 1.795.413a6.069 6.069 0 002.072-.454 12.634 12.634 0 001.879-1.066l-.277-5.283 2.021-.106.645 12.311-2.021.106-.288-5.49c-.665.48-1.328.869-1.988 1.164-.646.28-1.436.444-2.37.493-1.256.066-2.253-.212-2.992-.834-.723-.622-1.114-1.484-1.172-2.587l-.242-4.616 2.022-.106.234 4.478zm14.584-5.256l.645 12.311-2.021.106-.645-12.311 2.021-.106zm-1.23-4.565c.306-.016.58.077.821.28.255.186.395.501.418.945.022.429-.083.757-.317.984a1.142 1.142 0 01-.787.364 1.2 1.2 0 01-.867-.277c-.241-.203-.372-.518-.395-.947-.023-.444.075-.772.294-.983a1.2 1.2 0 01.833-.366zm11.205 16.618c-1.087.056-2.071-.114-2.952-.514-.865-.4-1.568-1.054-2.107-1.962-.523-.91-.823-2.091-.899-3.546-.08-1.516.108-2.762.564-3.738.455-.975 1.1-1.708 1.934-2.197.85-.49 1.826-.763 2.928-.821a7.864 7.864 0 011.826.111c.588.093 1.071.22 1.448.385l-.532 1.71a12.023 12.023 0 00-1.307-.324 5.704 5.704 0 00-1.388-.111c-.827.043-1.499.255-2.016.635-.518.38-.889.922-1.113 1.625-.224.702-.309 1.567-.255 2.593.051.98.225 1.807.521 2.483.297.675.714 1.175 1.253 1.5.54.325 1.2.467 1.98.426.674-.035 1.26-.135 1.758-.3a8.636 8.636 0 001.398-.58l.094 1.792a5.44 5.44 0 01-1.353.555c-.484.148-1.078.24-1.782.278zm13.2-13.267l2.205-.116-4.949 6.201 6.031 6.087-2.343.123-5.886-5.956.328 6.247-2.021.106-.646-12.31 2.022-.107.313 5.972 4.946-6.247zm3.427-.18l2.159-.113 3.031 6.866c.175.405.334.796.476 1.172.158.376.3.745.427 1.106.125.347.228.687.306 1.02l.092-.004c.072-.388.191-.893.358-1.516.167-.638.34-1.277.522-1.916l2.138-7.113 2.182-.115-4.572 14.29a9.054 9.054 0 01-.929 2.052 3.945 3.945 0 01-1.354 1.406c-.534.35-1.2.547-1.996.589-.367.019-.69.013-.968-.019a6.303 6.303 0 01-.718-.077l-.085-1.608c.17.022.371.042.602.06.247.018.501.02.761.007.474-.025.875-.138 1.203-.34.343-.187.628-.455.856-.805.228-.334.415-.728.56-1.18l.557-1.665-5.608-12.097z" fill="#161513"/><g clip-path="url(#clip2_75_707)" fill-rule="evenodd" clip-rule="evenodd"><path d="M593.909 56.48l-1.138.723-.376-.563 1.079-.685c.129.187.274.363.435.525zm14.492-18.613L597.98 51.07l1.019.762 4.421-2.963c1.517-2.601 5.707-8.575 5.905-11.198.074-.944.067-1.062-.924.197z" fill="#E94D35"/><path d="M597.35 50.263a3.912 3.912 0 00-2.552.338 3.785 3.785 0 00-1.757 1.84 3.645 3.645 0 00-.164 2.506 3.717 3.717 0 001.503 2.034 3.883 3.883 0 002.487.64 3.874 3.874 0 002.343-1.046 3.707 3.707 0 001.135-2.257 3.652 3.652 0 00-.589-2.442 3.74 3.74 0 00-1.037-1.041 3.842 3.842 0 00-1.369-.572zm-2.17 1.58a2.58 2.58 0 011.656-.388 2.544 2.544 0 011.529.725 2.42 2.42 0 01.272 3.113 2.528 2.528 0 01-1.38.975 2.582 2.582 0 01-1.698-.099 2.495 2.495 0 01-1.246-1.127 2.408 2.408 0 01-.227-1.645c.068-.316.2-.616.387-.882.187-.267.426-.496.703-.672h.004zm-.221-13.271l11.737 12.04-.934.865-4.704-2.485c-1.78-2.429-6.572-7.931-7.043-10.52-.168-.93-.174-1.049.944.1z" fill="#E94D35"/><path d="M607.248 49.745a3.91 3.91 0 012.573.069 3.778 3.778 0 011.94 1.646c.431.751.581 1.626.425 2.475a3.72 3.72 0 01-1.281 2.18 3.889 3.889 0 01-2.407.896 3.876 3.876 0 01-2.44-.795 3.703 3.703 0 01-1.364-2.126 3.645 3.645 0 01.33-2.49c.228-.437.541-.826.923-1.144.382-.319.824-.56 1.301-.711zm2.323 1.343a2.579 2.579 0 00-1.687-.212 2.542 2.542 0 00-1.444.881 2.418 2.418 0 00.054 3.125 2.53 2.53 0 001.474.825c.575.1 1.169.002 1.679-.276a2.49 2.49 0 001.121-1.252 2.41 2.41 0 00-.425-2.497 2.494 2.494 0 00-.772-.594z" fill="#E94D35"/><path d="M601.798 46.664a1.273 1.273 0 01.953.07 1.224 1.224 0 01.62.71c.101.306.074.64-.076.927a1.25 1.25 0 01-1.208.665 1.274 1.274 0 01-.469-.129 1.236 1.236 0 01-.619-.709 1.192 1.192 0 01.076-.928c.151-.288.412-.506.727-.606h-.004zm.848-.378a.09.09 0 01-.058.034.088.088 0 01-.065-.016.088.088 0 01-.036-.056.091.091 0 01.016-.064l6.157-8.122a.092.092 0 01.124-.018.082.082 0 01.034.056.08.08 0 01-.016.063l-6.156 8.123zm-.963-.059a.083.083 0 01.023.062.085.085 0 01-.028.059.093.093 0 01-.064.022.09.09 0 01-.062-.027l-6.968-7.435a.083.083 0 01-.02-.062.08.08 0 01.03-.058.09.09 0 01.125.004l6.964 7.435zm.876.875a.832.832 0 00-1.023.222.797.797 0 00.274 1.216.842.842 0 001.112-.355.768.768 0 00.05-.614.8.8 0 00-.413-.469z" fill="#fff"/><path d="M596.467 52.365a1.608 1.608 0 00-.987.403c-.272.241-.45.567-.503.921a1.51 1.51 0 00.21 1.022c.189.307.482.54.828.658a1.613 1.613 0 001.894-.67 1.516 1.516 0 00-.301-1.941 1.615 1.615 0 00-1.141-.393zm-1.313.317a1.92 1.92 0 012.361-.354c.374.216.659.553.807.952.148.399.149.836.003 1.237-.146.4-.429.74-.803.96-.373.22-.812.307-1.243.247a1.889 1.889 0 01-1.119-.579 1.808 1.808 0 01-.488-1.14 1.81 1.81 0 01.482-1.323zm13.188-.939a1.608 1.608 0 00-.984.402 1.536 1.536 0 00-.501.92c-.053.353.021.713.21 1.018.189.306.481.538.826.657a1.62 1.62 0 001.066-.005c.344-.122.635-.356.823-.663a1.52 1.52 0 00.206-1.021 1.53 1.53 0 00-.505-.915 1.61 1.61 0 00-1.141-.393zm-1.313.317a1.92 1.92 0 012.361-.354c.374.216.659.552.807.952.148.399.149.836.003 1.236-.146.401-.429.74-.802.96-.373.22-.813.308-1.244.247a1.892 1.892 0 01-1.119-.578 1.806 1.806 0 01-.006-2.463z" fill="#E94D35"/></g><g clip-path="url(#clip3_75_707)" fill-rule="evenodd" clip-rule="evenodd"><path d="M777.029 46.883l-1.138.723-.376-.563 1.079-.685c.129.187.274.363.435.525zm14.492-18.613L781.1 41.472l1.019.762 4.421-2.963c1.517-2.601 5.707-8.575 5.905-11.198.074-.944.067-1.062-.924.197z" fill="#E94D35"/><path d="M780.47 40.666a3.912 3.912 0 00-2.552.338 3.785 3.785 0 00-1.757 1.84 3.644 3.644 0 00-.164 2.506 3.716 3.716 0 001.503 2.034 3.884 3.884 0 002.487.64 3.874 3.874 0 002.343-1.046 3.707 3.707 0 001.135-2.257 3.652 3.652 0 00-.589-2.442 3.744 3.744 0 00-1.038-1.041 3.837 3.837 0 00-1.368-.572zm-2.17 1.58a2.58 2.58 0 011.656-.388c.58.062 1.121.318 1.529.726.407.407.657.94.707 1.507a2.42 2.42 0 01-.435 1.606c-.331.47-.819.815-1.38.974a2.583 2.583 0 01-1.698-.099 2.494 2.494 0 01-1.246-1.127 2.408 2.408 0 01-.227-1.645c.068-.316.2-.616.387-.882.187-.267.426-.495.703-.672h.004zm-.221-13.271l11.737 12.04-.934.865-4.704-2.485c-1.781-2.428-6.572-7.931-7.043-10.52-.168-.93-.174-1.049.944.1z" fill="#E94D35"/><path d="M790.368 40.148a3.91 3.91 0 012.573.069 3.782 3.782 0 011.94 1.646c.431.751.581 1.626.425 2.475a3.716 3.716 0 01-1.282 2.18 3.884 3.884 0 01-2.407.896 3.876 3.876 0 01-2.439-.795 3.698 3.698 0 01-1.364-2.126 3.645 3.645 0 01.33-2.49c.228-.437.541-.826.923-1.144a3.84 3.84 0 011.301-.711zm2.323 1.343a2.58 2.58 0 00-1.687-.212 2.544 2.544 0 00-1.445.881 2.435 2.435 0 00-.546 1.574c.01.57.223 1.118.601 1.551a2.53 2.53 0 001.474.825c.575.1 1.168.003 1.679-.276.51-.279.907-.721 1.121-1.252a2.41 2.41 0 00-.425-2.497 2.497 2.497 0 00-.772-.594z" fill="#E94D35"/><path d="M784.918 37.067a1.273 1.273 0 01.953.07 1.225 1.225 0 01.62.71c.101.306.074.64-.076.927a1.25 1.25 0 01-1.208.665 1.237 1.237 0 01-1.088-.838 1.191 1.191 0 01.076-.928c.151-.288.412-.506.727-.606h-.004zm.848-.378a.09.09 0 01-.124.019.087.087 0 01-.035-.057.09.09 0 01.016-.064l6.156-8.122a.092.092 0 01.125-.018.085.085 0 01.018.12l-6.156 8.122zm-.963-.059a.087.087 0 01.023.062.086.086 0 01-.029.059.09.09 0 01-.063.022.09.09 0 01-.062-.027l-6.968-7.435a.088.088 0 01-.021-.062.086.086 0 01.031-.058.09.09 0 01.125.005l6.964 7.434zm.876.875a.832.832 0 00-1.023.222.806.806 0 00-.174.436.8.8 0 00.448.78.84.84 0 001.112-.355.784.784 0 00-.108-.889.813.813 0 00-.255-.194z" fill="#fff"/><path d="M779.587 42.768a1.613 1.613 0 00-.988.403 1.542 1.542 0 00-.502.921c-.054.355.02.716.21 1.022.189.307.481.54.827.658a1.616 1.616 0 001.895-.67 1.522 1.522 0 00-.301-1.94 1.617 1.617 0 00-1.141-.393zm-1.314.317a1.92 1.92 0 012.362-.354c.374.216.659.553.807.952.147.4.149.836.003 1.237-.146.4-.43.74-.803.96-.373.22-.812.307-1.243.247a1.892 1.892 0 01-1.12-.579 1.807 1.807 0 01-.487-1.14 1.816 1.816 0 01.481-1.323zm13.189-.939a1.605 1.605 0 00-.984.402 1.536 1.536 0 00-.501.92 1.51 1.51 0 00.21 1.018c.189.306.48.538.825.657.345.118.722.117 1.067-.005.344-.122.635-.356.823-.663a1.52 1.52 0 00.206-1.021 1.53 1.53 0 00-.505-.915 1.61 1.61 0 00-1.141-.393zm-1.313.317a1.92 1.92 0 012.361-.355c.374.217.659.553.807.953.148.399.149.836.003 1.236-.146.401-.429.74-.802.96-.373.22-.813.308-1.244.247a1.89 1.89 0 01-1.119-.578 1.806 1.806 0 01-.006-2.463z" fill="#E94D35"/></g><path d="M497.38 49.256c.934-.05 1.752.038 2.455.263.702.209 1.257.548 1.666 1.018.407.455.629 1.026.665 1.715.04.75-.136 1.359-.526 1.824-.391.45-.941.794-1.65 1.031l.005.092c.497.112.958.28 1.385.503.426.224.772.528 1.038.913.281.385.438.89.471 1.519a3.155 3.155 0 01-.478 1.867c-.338.57-.89 1.037-1.654 1.4-.749.361-1.728.574-2.938.637-.581.03-1.142.03-1.681-.004a9.075 9.075 0 01-1.439-.2 6.147 6.147 0 01-1.125-.38l-.095-1.814a12.03 12.03 0 001.872.57c.731.161 1.517.22 2.359.176a6.127 6.127 0 001.643-.294c.498-.164.885-.4 1.16-.705.275-.322.399-.743.372-1.264-.025-.474-.175-.85-.451-1.127-.276-.293-.679-.502-1.207-.628-.514-.127-1.168-.17-1.965-.128l-1.653.087-.087-1.654 1.332-.07c1.057-.055 1.892-.237 2.505-.545.628-.325.924-.832.888-1.52-.031-.583-.299-1.006-.804-1.271-.49-.267-1.187-.376-2.09-.329-.674.036-1.267.136-1.781.301-.499.15-1.048.37-1.646.662l-.797-1.57a9.537 9.537 0 012.034-.752 11.827 11.827 0 012.217-.323zm13.164-.667c1.501-.079 2.628.192 3.383.813.754.62 1.169 1.65 1.244 3.09l.439 8.384-1.47.077-.482-1.726-.091.005a7.01 7.01 0 01-1.044 1.184c-.352.31-.77.547-1.252.71-.468.163-1.046.262-1.735.298-.735.039-1.408-.056-2.019-.285a3.083 3.083 0 01-1.441-1.123c-.365-.533-.57-1.213-.613-2.04-.064-1.225.369-2.192 1.299-2.901.929-.725 2.395-1.17 4.398-1.336l2.086-.179-.038-.735c-.054-1.026-.313-1.726-.778-2.1-.465-.376-1.103-.542-1.915-.5a5.651 5.651 0 00-1.822.395c-.572.215-1.104.458-1.597.73l-.699-1.484c.52-.32 1.143-.598 1.867-.835a8.174 8.174 0 012.28-.442zm.942 6.538c-1.528.141-2.58.442-3.154.902-.56.46-.819 1.08-.778 1.86.036.69.269 1.184.7 1.483.445.3.997.432 1.656.397 1.041-.054 1.891-.383 2.551-.986.658-.617.956-1.524.894-2.718l-.058-1.102-1.811.163zm9.764-2.4c.038.719.265 1.244.682 1.576.431.315 1.029.453 1.795.412.765-.04 1.456-.191 2.072-.454a12.634 12.634 0 001.879-1.066l-.277-5.282 2.021-.106.645 12.31-2.021.107-.288-5.49c-.666.48-1.329.868-1.989 1.164-.645.28-1.435.444-2.369.493-1.256.066-2.253-.212-2.992-.834-.723-.622-1.114-1.485-1.172-2.587l-.242-4.617 2.021-.106.235 4.48zm14.584-5.256l.645 12.31-2.021.107-.646-12.311 2.022-.106zm-1.23-4.565c.306-.016.58.077.821.28.255.185.395.5.418.945.022.428-.083.757-.317.984a1.144 1.144 0 01-.787.363 1.2 1.2 0 01-.867-.277c-.241-.202-.372-.517-.395-.946-.023-.444.075-.772.294-.983.218-.226.496-.349.833-.366zm11.205 16.617c-1.087.057-2.071-.114-2.952-.513-.866-.4-1.568-1.054-2.107-1.962-.523-.91-.823-2.092-.9-3.546-.079-1.516.109-2.762.565-3.738.455-.976 1.1-1.708 1.934-2.197.85-.49 1.826-.764 2.928-.821a7.864 7.864 0 011.826.111c.588.092 1.071.22 1.448.385l-.533 1.71c-.374-.12-.81-.227-1.306-.324a5.708 5.708 0 00-1.388-.111c-.827.043-1.499.255-2.016.635-.518.38-.889.922-1.113 1.624-.224.703-.309 1.567-.256 2.593.052.98.226 1.808.522 2.483.296.676.714 1.176 1.253 1.5.539.326 1.199.468 1.98.427.674-.036 1.26-.135 1.758-.3a8.664 8.664 0 001.398-.58l.093 1.792c-.402.236-.853.42-1.352.555-.484.148-1.078.24-1.782.277zm13.2-13.267l2.205-.115-4.949 6.201 6.031 6.087-2.343.123-5.886-5.956.328 6.247-2.022.106-.645-12.311 2.021-.106.313 5.972 4.947-6.248zm3.426-.18l2.159-.112 3.032 6.865c.175.406.333.797.476 1.173.158.375.3.744.426 1.106.126.347.228.687.307 1.02l.092-.004c.072-.388.191-.893.358-1.516.166-.638.34-1.277.522-1.916l2.137-7.114 2.182-.114-4.571 14.289a9.096 9.096 0 01-.929 2.052 3.945 3.945 0 01-1.354 1.407c-.535.35-1.2.547-1.996.588-.368.02-.69.013-.968-.018a6.277 6.277 0 01-.718-.078l-.085-1.607c.17.021.371.042.602.06.247.018.5.02.761.006.474-.024.875-.138 1.203-.339.343-.187.628-.455.856-.805.228-.334.414-.728.56-1.18l.557-1.665-5.609-12.097zm77.611 9.279l-2.241-4.972-6.5.34-1.686 5.179-2.091.11 5.546-16.805 1.86-.097 7.248 16.133-2.136.112zm-5.055-11.642c-.052-.12-.141-.338-.265-.654-.124-.316-.248-.64-.373-.97-.11-.348-.201-.612-.272-.793-.06.31-.128.629-.203.955-.061.31-.13.598-.208.863a18.9 18.9 0 01-.172.677l-1.6 5.059 5.19-.272-2.097-4.865zm8.608 4.04c-.094-1.791.002-3.324.288-4.598.301-1.29.807-2.33 1.518-3.12.726-.806 1.679-1.37 2.859-1.693a82.187 82.187 0 012.887-.727c.941-.218 1.821-.418 2.641-.599l.437 1.75c-.395.083-.835.182-1.32.3-.486.102-.979.212-1.48.33-.501.104-.987.214-1.457.33a26.15 26.15 0 00-1.205.294c-.5.134-.942.341-1.326.622a3.418 3.418 0 00-.981 1.065c-.253.443-.447.983-.583 1.62-.135.637-.196 1.384-.182 2.243l.138-.007a5.24 5.24 0 01.826-.941c.367-.327.805-.61 1.314-.852.525-.243 1.124-.382 1.798-.417 1.072-.056 1.972.135 2.701.572.744.422 1.314 1.037 1.709 1.846.411.807.646 1.762.703 2.865.072 1.362-.106 2.516-.532 3.46-.427.943-1.049 1.667-1.867 2.17-.819.488-1.788.762-2.905.82-.843.044-1.617-.076-2.323-.362a4.94 4.94 0 01-1.845-1.377c-.524-.617-.941-1.394-1.251-2.33-.31-.936-.497-2.024-.562-3.264zm6.054 5.648c.673-.035 1.248-.204 1.723-.505.491-.302.858-.774 1.101-1.416.243-.643.337-1.484.282-2.526-.066-1.255-.355-2.23-.867-2.925-.498-.711-1.283-1.039-2.355-.982a3.722 3.722 0 00-1.813.555c-.536.32-.978.681-1.325 1.083-.348.402-.591.737-.731 1.006.04.75.131 1.475.275 2.173.144.7.361 1.325.651 1.878a3.55 3.55 0 001.196 1.273c.507.296 1.128.425 1.863.386zm19.585-5.77c.054 1.025-.036 1.943-.27 2.754a5.507 5.507 0 01-1.044 2.059 4.796 4.796 0 01-1.748 1.358c-.69.312-1.472.492-2.344.537a6.017 6.017 0 01-2.273-.295 5.095 5.095 0 01-1.858-1.17c-.534-.524-.967-1.17-1.299-1.935-.317-.782-.503-1.686-.556-2.712-.072-1.363.098-2.523.508-3.481.41-.974 1.03-1.728 1.862-2.263.831-.55 1.836-.856 3.015-.918 1.118-.058 2.111.143 2.98.604.883.445 1.587 1.13 2.111 2.054.539.909.844 2.044.916 3.407zm-9.302.487c.05.964.217 1.8.5 2.507.297.69.723 1.213 1.279 1.568.556.355 1.248.51 2.075.467.827-.043 1.498-.27 2.014-.681.516-.411.878-.975 1.086-1.692.222-.734.308-1.583.258-2.547-.052-.98-.225-1.808-.522-2.483-.296-.676-.722-1.183-1.277-1.523-.541-.355-1.232-.51-2.075-.467-1.255.066-2.145.527-2.668 1.384-.523.856-.747 2.012-.67 3.467zM399.9 52.498c2.144-.112 3.728.227 4.752 1.018 1.024.79 1.576 1.951 1.656 3.483a5.625 5.625 0 01-.242 1.97 4.241 4.241 0 01-.993 1.71c-.479.517-1.133.943-1.96 1.278-.827.32-1.854.511-3.079.576l-1.883.098.335 6.385-2.068.109-.859-16.4 4.341-.227zm-.091 1.778l-2.09.11.339 6.477 1.654-.087c1.041-.055 1.901-.207 2.579-.458.677-.265 1.171-.652 1.482-1.16.311-.507.446-1.16.404-1.956-.055-1.056-.433-1.827-1.135-2.312-.701-.486-1.778-.69-3.233-.614zm21.099 7.37c.054 1.026-.036 1.944-.27 2.755-.219.794-.567 1.48-1.044 2.058a4.788 4.788 0 01-1.748 1.359c-.69.312-1.471.491-2.344.537a6.018 6.018 0 01-2.273-.295 5.093 5.093 0 01-1.857-1.17c-.534-.525-.967-1.17-1.299-1.936-.318-.781-.503-1.685-.557-2.711-.071-1.363.098-2.523.508-3.481.41-.974 1.031-1.728 1.863-2.263.831-.55 1.836-.856 3.015-.918 1.117-.059 2.111.143 2.979.604.884.445 1.587 1.13 2.112 2.054.539.909.844 2.044.915 3.407zm-9.302.487c.051.965.217 1.8.5 2.508.297.69.724 1.213 1.28 1.568s1.247.51 2.074.467c.827-.043 1.498-.27 2.014-.681.516-.411.878-.975 1.086-1.693.223-.733.309-1.582.258-2.547-.051-.98-.225-1.807-.521-2.483-.297-.675-.723-1.182-1.278-1.522-.541-.355-1.232-.511-2.074-.467-1.256.066-2.145.527-2.668 1.384-.524.856-.747 2.012-.671 3.466zm12.278-1.864c-.094-1.791.003-3.324.289-4.598.301-1.29.807-2.33 1.518-3.12.725-.806 1.678-1.37 2.859-1.693a81.086 81.086 0 012.887-.727c.94-.218 1.821-.418 2.64-.599l.437 1.75a41.69 41.69 0 00-1.32.3 60.97 60.97 0 00-1.479.331 36.59 36.59 0 00-1.457.33c-.456.1-.857.198-1.205.293a3.96 3.96 0 00-1.327.622 3.415 3.415 0 00-.98 1.065c-.253.443-.448.983-.583 1.62-.136.637-.197 1.384-.182 2.244l.138-.008c.199-.302.474-.616.825-.941a5.52 5.52 0 011.315-.852c.524-.243 1.124-.382 1.797-.417 1.072-.056 1.973.135 2.702.573.744.421 1.313 1.036 1.709 1.845.411.807.645 1.762.703 2.865.071 1.363-.106 2.516-.533 3.46-.426.943-1.049 1.667-1.867 2.17-.819.488-1.787.762-2.905.82-.842.044-1.616-.076-2.322-.362a4.934 4.934 0 01-1.846-1.377c-.523-.617-.94-1.394-1.25-2.33-.31-.935-.498-2.023-.563-3.264zm6.054 5.648c.674-.035 1.248-.203 1.724-.505.491-.302.858-.774 1.1-1.416.243-.643.337-1.484.283-2.526-.066-1.255-.355-2.23-.868-2.925-.498-.711-1.282-1.038-2.354-.982a3.725 3.725 0 00-1.814.555 5.37 5.37 0 00-1.325 1.083c-.347.402-.591.737-.73 1.006.039.75.131 1.475.275 2.173.144.7.361 1.325.651 1.878.305.537.703.961 1.195 1.273.507.296 1.128.425 1.863.386zm10.861-3.932c.007.138.01.338.008.599.013.245.019.513.019.805l-.004.806a16.57 16.57 0 01-.014.6l6.051-10.659 2.481-.13.645 12.311-1.883.1-.381-7.259-.05-.965-.016-1.173a26.737 26.737 0 01-.001-.898l-6.007 10.632-2.503.132-.645-12.311 1.906-.1.394 7.51zm26.145-8.901l.645 12.311-1.814.095-.412-7.855a22.871 22.871 0 01-.03-1.012l.038-1.038-.069.003-3.501 10.11-1.7.09-4.423-9.695-.069.003c.048.336.082.68.1 1.031.034.352.06.711.08 1.079l.408 7.786-1.815.095-.645-12.311 2.687-.14 4.401 9.695 3.432-10.106 2.687-.141zm15.434 5.34c.054 1.026-.037 1.945-.27 2.755-.22.795-.568 1.481-1.044 2.059a4.796 4.796 0 01-1.748 1.358c-.69.313-1.472.492-2.345.538a6.012 6.012 0 01-2.272-.296 5.095 5.095 0 01-1.858-1.17c-.534-.524-.967-1.17-1.299-1.935-.317-.782-.503-1.686-.557-2.711-.071-1.363.098-2.524.509-3.482.41-.973 1.03-1.727 1.862-2.262.831-.55 1.836-.857 3.015-.919 1.118-.058 2.111.143 2.98.604.883.445 1.587 1.13 2.111 2.055.539.908.844 2.044.916 3.406zm-9.302.488c.05.965.217 1.8.499 2.507.298.69.724 1.214 1.28 1.568.556.355 1.248.51 2.075.468.826-.044 1.498-.271 2.014-.682.516-.41.878-.975 1.086-1.692.222-.733.308-1.582.258-2.547-.052-.98-.226-1.808-.522-2.483-.296-.675-.722-1.183-1.277-1.522-.541-.356-1.233-.512-2.075-.467-1.255.065-2.145.527-2.668 1.383-.523.857-.747 2.012-.67 3.467zm209.63-13.208c-.094-1.792.003-3.325.289-4.599.301-1.29.807-2.33 1.518-3.12.725-.805 1.678-1.37 2.859-1.693a81.852 81.852 0 012.887-.727c.941-.218 1.821-.417 2.64-.599l.438 1.75c-.395.083-.835.183-1.321.3a60.97 60.97 0 00-1.479.331 36.59 36.59 0 00-1.457.33c-.455.1-.857.199-1.205.294-.5.133-.942.34-1.327.622-.385.266-.712.62-.98 1.065-.253.443-.448.983-.583 1.62-.136.636-.196 1.384-.182 2.243l.138-.007a5.24 5.24 0 01.826-.942c.366-.326.804-.61 1.314-.852.525-.242 1.124-.381 1.797-.416 1.072-.057 1.973.134 2.702.572.744.422 1.314 1.037 1.709 1.845.411.808.645 1.763.703 2.865.071 1.363-.106 2.516-.533 3.46-.426.943-1.049 1.667-1.867 2.17-.819.489-1.787.762-2.905.82-.842.045-1.616-.076-2.322-.361a4.925 4.925 0 01-1.845-1.378c-.524-.617-.941-1.394-1.251-2.33-.31-.935-.498-2.023-.563-3.263zm6.054 5.648c.674-.036 1.249-.204 1.724-.505.491-.303.858-.775 1.101-1.417.242-.642.336-1.484.282-2.525-.066-1.256-.355-2.231-.868-2.926-.497-.71-1.282-1.038-2.354-.982a3.727 3.727 0 00-1.814.556c-.536.32-.977.68-1.325 1.083-.347.402-.591.737-.73 1.005.039.75.131 1.475.275 2.174.144.699.361 1.324.651 1.877.305.537.703.962 1.195 1.273.507.296 1.128.425 1.863.386zm19.586-5.771c.053 1.025-.037 1.944-.271 2.755a5.486 5.486 0 01-1.043 2.058 4.79 4.79 0 01-1.749 1.358c-.69.313-1.471.492-2.344.538a6.01 6.01 0 01-2.272-.296 5.09 5.09 0 01-1.858-1.17c-.534-.524-.967-1.17-1.299-1.935-.317-.782-.503-1.685-.557-2.711-.071-1.363.098-2.524.509-3.482.409-.973 1.03-1.727 1.862-2.262.831-.55 1.836-.857 3.015-.918 1.118-.059 2.111.142 2.98.604.883.445 1.587 1.13 2.111 2.054.539.908.844 2.044.916 3.407zm-9.303.487c.051.965.218 1.8.5 2.507.297.691.724 1.214 1.28 1.569.556.354 1.247.51 2.074.467.827-.044 1.499-.27 2.014-.682.516-.41.878-.975 1.086-1.692.223-.733.309-1.582.258-2.547-.051-.98-.225-1.808-.521-2.483-.297-.675-.722-1.183-1.278-1.522-.54-.356-1.232-.511-2.074-.467-1.256.065-2.145.527-2.668 1.383-.523.857-.747 2.012-.671 3.467zm18.509-7.35c1.516-.08 2.761.385 3.735 1.394.989 1.007 1.54 2.575 1.651 4.704.073 1.393-.079 2.584-.457 3.57-.364.972-.916 1.722-1.656 2.252-.725.514-1.601.798-2.627.852-.628.033-1.191-.022-1.69-.165a4.664 4.664 0 01-1.297-.577 5.369 5.369 0 01-.92-.85l-.137.008c.044.258.092.586.143.982.052.397.085.74.1 1.032l.265 5.053-2.021.105-.934-17.823 1.654-.087.363 1.663.092-.005a5.23 5.23 0 01.822-1.01c.337-.31.739-.561 1.204-.755.482-.194 1.051-.308 1.71-.343zm-.279 1.72c-.826.043-1.484.238-1.973.586-.489.333-.832.82-1.029 1.46-.196.639-.277 1.442-.242 2.407l.021.39c.052 1.011.205 1.863.456 2.556.251.693.639 1.21 1.164 1.551.54.34 1.254.488 2.142.441.75-.04 1.352-.278 1.805-.717.468-.439.799-1.016.991-1.733.208-.732.287-1.558.239-2.477-.074-1.408-.408-2.52-1.004-3.333-.58-.814-1.436-1.191-2.57-1.132zm20.069 3.623c.054 1.026-.036 1.944-.27 2.755-.22.794-.568 1.48-1.044 2.058a4.798 4.798 0 01-1.748 1.359c-.69.312-1.472.491-2.344.537a6.017 6.017 0 01-2.273-.295 5.103 5.103 0 01-1.858-1.17c-.534-.524-.967-1.17-1.299-1.935-.317-.782-.503-1.686-.556-2.712-.072-1.363.098-2.523.508-3.481.41-.974 1.03-1.728 1.862-2.263.831-.55 1.836-.856 3.015-.918 1.118-.059 2.111.143 2.98.604.883.445 1.587 1.13 2.111 2.054.539.909.845 2.044.916 3.407zm-9.302.487c.05.965.217 1.8.5 2.508.297.69.723 1.213 1.279 1.568.556.355 1.248.51 2.075.467.827-.043 1.498-.27 2.014-.681.516-.411.878-.975 1.086-1.692.222-.734.308-1.583.258-2.548-.052-.98-.225-1.807-.522-2.483-.296-.675-.722-1.182-1.277-1.522-.541-.355-1.232-.511-2.075-.467-1.255.066-2.145.527-2.668 1.384-.523.856-.747 2.012-.67 3.466zm21.805-7.292l.556 10.612 1.791-.094.313 5.972-1.952.102-.224-4.272-8.567.449.224 4.272-1.93.101-.313-5.972.988-.052a14.988 14.988 0 001.578-3.284c.414-1.188.703-2.416.867-3.684.178-1.284.242-2.554.192-3.81l6.477-.34zm-4.603 1.83a19.305 19.305 0 01-.312 3.264 21.283 21.283 0 01-.845 3.223c-.345 1.032-.766 1.929-1.264 2.692l5.628-.295-.474-9.027-2.733.144zm7.357-1.974l2.159-.113 3.032 6.865c.175.406.333.797.476 1.173.158.376.3.745.426 1.106.126.347.228.687.307 1.02l.092-.004c.072-.388.191-.893.358-1.516.166-.638.34-1.277.522-1.916l2.137-7.113 2.182-.115-4.571 14.29a9.098 9.098 0 01-.929 2.051 3.945 3.945 0 01-1.354 1.407c-.535.35-1.2.547-1.996.589a5.917 5.917 0 01-.969-.019 6.352 6.352 0 01-.718-.077l-.084-1.608c.17.022.371.042.602.06.247.018.5.02.76.007.475-.025.876-.138 1.203-.34a2.35 2.35 0 00.856-.805c.229-.334.415-.728.56-1.18l.558-1.665-5.609-12.097zm66.237-5.982c-.873.046-1.653.24-2.342.584a4.62 4.62 0 00-1.723 1.403c-.46.592-.799 1.308-1.016 2.149-.217.825-.299 1.75-.246 2.776.071 1.348.339 2.508.805 3.482.481.973 1.149 1.706 2.003 2.198.871.492 1.934.705 3.189.64a10.89 10.89 0 002.035-.292 18.794 18.794 0 001.859-.558l.094 1.792a9.99 9.99 0 01-1.88.605c-.637.14-1.408.235-2.311.282-1.669.088-3.081-.184-4.235-.814-1.154-.63-2.047-1.566-2.68-2.808-.618-1.242-.972-2.72-1.062-4.435-.065-1.24.044-2.382.327-3.426.299-1.044.757-1.959 1.377-2.744a6.645 6.645 0 012.39-1.852c.958-.465 2.073-.73 3.344-.797a11.532 11.532 0 012.448.124 8.835 8.835 0 012.127.603l-.735 1.789a12.867 12.867 0 00-1.732-.531 7.026 7.026 0 00-2.036-.17zm16.406 3.355l-4.019.21.556 10.612-1.998.105-.557-10.611-3.973.208-.089-1.7 9.991-.523.089 1.7zm5.116 5.56c.007.137.01.336.008.597.013.245.019.514.019.805l-.004.807c-.002.246-.007.446-.014.6l6.051-10.659 2.481-.13.645 12.311-1.883.099-.381-7.258-.05-.965-.016-1.174a26.744 26.744 0 01-.001-.898l-6.007 10.633-2.503.131-.645-12.31 1.906-.1.394 7.51zm22.954 3.61l-2.044.107-.557-10.635-3.629.19c-.051 1.953-.156 3.625-.313 5.015-.158 1.375-.391 2.5-.698 3.376-.308.876-.696 1.526-1.165 1.95a2.653 2.653 0 01-1.691.687c-.199.01-.399.006-.6-.015a1.257 1.257 0 01-.465-.09l-.08-1.516c.094.026.194.043.302.053.108.01.216.012.323.006.337-.017.636-.171.897-.462.261-.29.484-.724.669-1.301.2-.579.369-1.302.508-2.169a34.75 34.75 0 00.321-3.103c.076-1.186.129-2.525.158-4.016l7.419-.389.645 12.312zm9.68-7.786c1.072-.056 1.967.028 2.685.251.718.224 1.267.586 1.646 1.089.394.486.611 1.12.652 1.9.041.766-.101 1.44-.423 2.026-.307.584-.813 1.048-1.516 1.392-.704.344-1.622.546-2.755.605l-5.582.293-.645-12.311 2.021-.106.265 5.053 3.652-.192zm2.968 3.46c-.039-.75-.334-1.24-.883-1.473-.535-.248-1.277-.348-2.227-.298l-3.422.18.207 3.95 3.468-.182c.858-.045 1.554-.235 2.089-.57.551-.336.807-.871.768-1.606zm16.236-3.383c.053 1.025-.037 1.944-.271 2.754-.219.795-.567 1.481-1.043 2.059a4.793 4.793 0 01-1.749 1.358c-.69.313-1.471.492-2.344.538a6.012 6.012 0 01-2.272-.296 5.087 5.087 0 01-1.858-1.17c-.534-.524-.967-1.17-1.299-1.935-.317-.782-.503-1.686-.557-2.712-.071-1.362.098-2.523.509-3.48.409-.974 1.03-1.728 1.862-2.263.831-.55 1.836-.857 3.015-.918 1.118-.06 2.111.142 2.98.603.883.445 1.587 1.13 2.111 2.055.539.908.844 2.044.916 3.407zm-9.303.487c.051.965.218 1.8.5 2.507.297.691.724 1.214 1.28 1.568.556.355 1.247.51 2.074.467.827-.043 1.499-.27 2.014-.68.516-.412.878-.976 1.086-1.693.223-.733.309-1.582.258-2.547-.051-.98-.225-1.808-.521-2.483-.297-.675-.722-1.183-1.278-1.522-.54-.356-1.232-.512-2.074-.467-1.256.065-2.145.527-2.668 1.383-.523.857-.747 2.012-.671 3.467zm22.726-4.231c.04.765-.158 1.375-.595 1.828-.437.452-1.012.774-1.723.965l.005.092a4.103 4.103 0 012.041.722c.589.399.908 1.058.956 1.977a3.503 3.503 0 01-.223 1.462c-.16.454-.431.852-.812 1.195-.382.342-.881.621-1.5.838-.619.201-1.372.325-2.26.372l-5.306.278-.645-12.311 5.283-.277c.872-.046 1.659.013 2.358.176.714.147 1.282.44 1.704.878.437.422.676 1.024.717 1.805zm-1.406 5.693c-.037-.704-.332-1.195-.883-1.474-.552-.278-1.349-.39-2.39-.335l-3.009.158.207 3.95 3.055-.16c1.01-.053 1.776-.239 2.297-.558.519-.334.761-.861.723-1.58zm-.625-5.333c-.031-.582-.267-.992-.709-1.23-.428-.254-1.117-.356-2.066-.306l-3.147.165.177 3.376 2.779-.146c.995-.052 1.746-.23 2.252-.532.507-.303.744-.745.714-1.327zm3.753-3.56l2.159-.113 3.031 6.866c.175.405.334.796.476 1.173.158.375.3.744.427 1.106.125.346.228.687.307 1.02l.091-.005c.072-.387.192-.893.359-1.516.166-.638.34-1.276.521-1.915l2.138-7.114 2.182-.114-4.572 14.288a9.055 9.055 0 01-.929 2.053 3.937 3.937 0 01-1.354 1.407c-.534.35-1.2.546-1.996.588-.367.02-.69.013-.968-.018a6.326 6.326 0 01-.718-.078l-.084-1.608c.17.022.37.042.602.06.246.019.5.02.76.007.475-.025.876-.138 1.203-.34a2.36 2.36 0 00.856-.804c.228-.335.415-.728.56-1.181l.557-1.665-5.608-12.097zm20.177 3.872c-.094-1.792.003-3.325.289-4.599.301-1.29.807-2.33 1.518-3.12.725-.805 1.678-1.37 2.859-1.693a81.303 81.303 0 012.887-.727c.94-.218 1.821-.417 2.64-.599l.437 1.75a41.97 41.97 0 00-1.32.3 60.97 60.97 0 00-1.479.331 36.59 36.59 0 00-1.457.33c-.456.1-.857.198-1.205.293a3.97 3.97 0 00-1.327.623c-.385.266-.712.62-.98 1.065-.253.443-.448.983-.583 1.62-.136.636-.197 1.384-.182 2.243l.138-.007a5.27 5.27 0 01.825-.942c.367-.326.805-.61 1.315-.852.524-.242 1.124-.381 1.797-.416 1.072-.057 1.973.134 2.702.572.744.422 1.313 1.037 1.709 1.845.411.808.645 1.763.703 2.865.071 1.363-.106 2.516-.533 3.46-.426.943-1.049 1.667-1.867 2.17-.819.489-1.787.762-2.905.82-.842.045-1.616-.076-2.322-.361a4.936 4.936 0 01-1.846-1.378c-.523-.617-.94-1.394-1.25-2.33-.31-.935-.498-2.023-.563-3.263zm6.054 5.648c.674-.036 1.248-.204 1.724-.505.491-.303.858-.775 1.1-1.417.243-.642.337-1.484.283-2.525-.066-1.256-.355-2.231-.868-2.926-.498-.71-1.282-1.038-2.354-.982a3.724 3.724 0 00-1.814.556c-.536.32-.977.68-1.325 1.083-.347.402-.591.737-.73 1.005.039.75.131 1.475.275 2.174.144.699.361 1.324.651 1.877.305.537.703.962 1.195 1.273.507.296 1.128.425 1.863.387zm19.585-5.771c.054 1.026-.036 1.944-.27 2.755a5.486 5.486 0 01-1.043 2.058 4.8 4.8 0 01-1.749 1.358c-.69.313-1.471.492-2.344.538a6.01 6.01 0 01-2.272-.296 5.088 5.088 0 01-1.858-1.17c-.534-.524-.967-1.17-1.299-1.935-.318-.782-.503-1.685-.557-2.711-.071-1.363.098-2.524.509-3.482.409-.973 1.03-1.727 1.862-2.262.831-.55 1.836-.857 3.015-.918 1.118-.059 2.111.142 2.979.604.884.445 1.587 1.13 2.112 2.054.539.908.844 2.044.915 3.407zm-9.302.487c.051.965.217 1.8.5 2.507.297.691.724 1.214 1.28 1.569.556.354 1.247.51 2.074.467.827-.044 1.498-.27 2.014-.682.516-.41.878-.975 1.086-1.692.223-.733.309-1.582.258-2.547-.051-.98-.225-1.808-.521-2.483-.297-.675-.723-1.183-1.278-1.522-.54-.356-1.232-.511-2.074-.467-1.256.065-2.145.527-2.668 1.383-.524.857-.747 2.012-.671 3.467zm18.509-7.35c1.516-.08 2.761.385 3.735 1.394.989 1.007 1.54 2.575 1.651 4.704.073 1.393-.079 2.583-.458 3.57-.363.972-.915 1.722-1.655 2.252-.725.514-1.601.798-2.627.852-.628.033-1.191-.022-1.69-.165a4.664 4.664 0 01-1.297-.577 5.369 5.369 0 01-.92-.85l-.137.008c.044.258.092.586.143.982.052.397.085.74.1 1.032l.265 5.053-2.021.105-.934-17.823 1.653-.087.364 1.663.092-.005c.226-.365.5-.702.822-1.01a4.06 4.06 0 011.204-.755c.481-.194 1.051-.308 1.71-.343zm-.279 1.72c-.827.043-1.484.238-1.973.586-.489.333-.832.82-1.029 1.46-.197.639-.277 1.442-.242 2.407l.02.39c.053 1.011.205 1.863.457 2.556.251.693.639 1.21 1.164 1.552.539.34 1.253.486 2.142.44.75-.04 1.351-.278 1.804-.717.469-.439.799-1.016.992-1.733.207-.732.287-1.558.239-2.477-.074-1.408-.409-2.52-1.004-3.333-.58-.814-1.437-1.191-2.57-1.132zm20.069 3.623c.054 1.026-.037 1.944-.27 2.755-.22.794-.568 1.48-1.044 2.058a4.798 4.798 0 01-1.748 1.359c-.69.312-1.472.491-2.344.537a6.015 6.015 0 01-2.273-.295 5.095 5.095 0 01-1.858-1.17c-.534-.525-.967-1.17-1.299-1.935-.317-.782-.503-1.686-.557-2.712-.071-1.363.099-2.523.509-3.481.41-.974 1.03-1.728 1.862-2.263.831-.55 1.836-.856 3.015-.918 1.118-.059 2.111.143 2.98.604.883.445 1.587 1.13 2.111 2.054.539.909.844 2.044.916 3.407zm-9.302.487c.05.965.217 1.8.499 2.508.298.69.724 1.213 1.28 1.568s1.248.51 2.075.467c.826-.043 1.498-.27 2.014-.681.516-.411.878-.975 1.086-1.692.222-.734.308-1.583.258-2.547-.052-.98-.226-1.808-.522-2.484-.296-.675-.722-1.182-1.277-1.522-.541-.355-1.233-.511-2.075-.467-1.255.066-2.145.527-2.668 1.384-.523.856-.747 2.012-.67 3.466zm21.805-7.292l.556 10.612 1.791-.094.313 5.972-1.952.102-.224-4.272-8.567.449.224 4.272-1.93.101-.313-5.972.988-.051a14.988 14.988 0 001.578-3.285c.414-1.188.703-2.416.867-3.684.178-1.284.242-2.554.191-3.81l6.478-.34zm-4.603 1.83a19.31 19.31 0 01-.313 3.264 21.281 21.281 0 01-.844 3.223c-.345 1.032-.766 1.929-1.264 2.692l5.627-.295-.473-9.027-2.733.144zm7.357-1.974l2.159-.113 3.03 6.866c.18.405.34.796.48 1.172.16.376.3.745.42 1.106.13.347.23.687.31 1.02l.09-.004c.07-.388.19-.893.36-1.516.17-.638.34-1.277.52-1.916l2.14-7.113 2.18-.115-4.57 14.289a9 9 0 01-.93 2.053c-.35.601-.8 1.07-1.35 1.406-.54.35-1.2.547-2 .588-.366.02-.689.014-.967-.018a6.352 6.352 0 01-.718-.077l-.084-1.608c.17.022.371.042.602.06.247.018.5.02.76.007.477-.025.877-.138 1.207-.34.34-.187.62-.455.85-.805.23-.334.42-.728.56-1.18l.56-1.665-5.609-12.097z" fill="#161513"/><defs><clipPath id="clip0_75_707"><path fill="#fff" transform="rotate(-3 1309.459 -179.036)" d="M0 0h20v20H0z"/></clipPath><clipPath id="clip1_75_707"><path fill="#fff" transform="rotate(-3 1135.118 -6836.779)" d="M0 0h20v20H0z"/></clipPath><clipPath id="clip2_75_707"><path fill="#fff" transform="rotate(-3 1018.936 -11273.618)" d="M0 0h20v20H0z"/></clipPath><clipPath id="clip3_75_707"><path fill="#fff" transform="rotate(-3 927.25 -14774.952)" d="M0 0h20v20H0z"/></clipPath></defs></svg>