<svg width="1282" height="118" fill="none" xmlns="http://www.w3.org/2000/svg"><path d="M1276 1h6v50h-6V1z" fill="#F2F1EF"/><path fill="#F2F1EF" d="M.569 67.529L1278.815.539l2.617 49.931L3.186 117.46z"/><g clip-path="url(#clip0_75_705)" fill-rule="evenodd" clip-rule="evenodd"><path d="M16.242 100.126l-1.137.723-.377-.563 1.08-.685c.128.187.273.363.434.525zm14.492-18.613l-10.42 13.202 1.018.762 4.421-2.963c1.517-2.601 5.707-8.575 5.905-11.198.074-.944.068-1.062-.924.197z" fill="#E94D35"/><path d="M19.683 93.91a3.91 3.91 0 00-2.551.337 3.78 3.78 0 00-1.757 1.84 3.643 3.643 0 00-.165 2.505 3.72 3.72 0 001.503 2.035 3.884 3.884 0 002.487.64 3.88 3.88 0 002.343-1.046 3.705 3.705 0 001.135-2.257c.1-.857-.109-1.72-.589-2.442a3.739 3.739 0 00-1.037-1.041 3.844 3.844 0 00-1.369-.572zm-2.17 1.578a2.58 2.58 0 011.656-.387c.58.062 1.121.318 1.529.725a2.422 2.422 0 01.273 3.113c-.331.471-.82.816-1.38.975a2.582 2.582 0 01-1.699-.099 2.492 2.492 0 01-1.245-1.127 2.407 2.407 0 01-.228-1.645c.069-.316.2-.616.387-.883.187-.266.426-.495.703-.672h.004zm-.221-13.27l11.738 12.04-.934.865-4.705-2.485c-1.78-2.429-6.572-7.931-7.043-10.52-.168-.931-.174-1.05.944.1z" fill="#E94D35"/><path d="M29.582 93.39a3.91 3.91 0 012.573.07 3.78 3.78 0 011.94 1.646c.43.75.58 1.626.425 2.475a3.718 3.718 0 01-1.282 2.18 3.884 3.884 0 01-2.407.896 3.879 3.879 0 01-2.44-.795 3.702 3.702 0 01-1.364-2.126 3.647 3.647 0 01.33-2.49c.228-.437.541-.826.923-1.144a3.84 3.84 0 011.302-.711zm2.323 1.344a2.58 2.58 0 00-1.688-.212 2.543 2.543 0 00-1.444.881 2.43 2.43 0 00-.546 1.573c.01.57.222 1.118.6 1.552.379.433.9.725 1.475.825.575.1 1.168.002 1.678-.276.51-.279.907-.721 1.121-1.252a2.407 2.407 0 00-.425-2.497 2.501 2.501 0 00-.771-.594z" fill="#E94D35"/><path d="M24.131 90.31a1.277 1.277 0 01.954.07 1.202 1.202 0 01.544 1.637 1.247 1.247 0 01-1.208.665 1.268 1.268 0 01-.852-.423 1.19 1.19 0 01-.16-1.343c.15-.288.411-.506.726-.606h-.004zm.848-.379a.089.089 0 01-.123.02.085.085 0 01-.02-.12l6.157-8.123a.091.091 0 01.124-.018.085.085 0 01.018.12l-6.155 8.12zm-.963-.058a.085.085 0 01-.005.12.092.092 0 01-.126-.004l-6.967-7.435a.084.084 0 01.009-.12.092.092 0 01.126.004l6.963 7.435zm.877.875a.83.83 0 00-1.023.222.798.798 0 00-.071.892.816.816 0 00.655.409.845.845 0 00.601-.192.812.812 0 00.289-.55.794.794 0 00-.45-.781z" fill="#fff"/><path d="M18.8 96.011a1.612 1.612 0 00-.987.403 1.54 1.54 0 00-.503.921c-.053.355.02.716.21 1.022.19.306.482.54.828.658a1.613 1.613 0 001.894-.67 1.518 1.518 0 00-.3-1.941 1.615 1.615 0 00-1.141-.393zm-1.313.317a1.918 1.918 0 012.361-.355c.374.217.66.554.807.953.148.399.149.836.003 1.237-.146.4-.43.74-.802.96-.373.22-.813.307-1.244.246a1.89 1.89 0 01-1.12-.578 1.807 1.807 0 01-.486-1.14 1.81 1.81 0 01.48-1.323zm13.188-.939a1.608 1.608 0 00-.984.402c-.27.241-.448.566-.5.92a1.51 1.51 0 00.21 1.018c.188.306.48.538.825.656a1.62 1.62 0 001.066-.004 1.58 1.58 0 00.823-.664 1.514 1.514 0 00-.298-1.935 1.582 1.582 0 00-1.142-.393zm-1.313.317a1.919 1.919 0 012.361-.355c.374.217.66.553.807.953.148.399.15.836.003 1.236-.145.401-.429.74-.802.96a1.92 1.92 0 01-1.243.247 1.891 1.891 0 01-1.12-.578 1.807 1.807 0 01-.487-1.14 1.81 1.81 0 01.481-1.323z" fill="#E94D35"/></g><path d="M236.068 80.26l-4.02.21.556 10.612-1.998.104-.556-10.611-3.974.208-.089-1.7 9.992-.523.089 1.7zm7.467-2.303c1.5-.079 2.628.192 3.382.813.754.62 1.169 1.65 1.244 3.09l.44 8.383-1.47.077-.482-1.725-.092.005a7.051 7.051 0 01-1.043 1.183c-.353.31-.77.547-1.253.71-.467.163-1.046.263-1.735.299-.735.038-1.408-.057-2.018-.286a3.079 3.079 0 01-1.441-1.122c-.366-.533-.57-1.214-.614-2.04-.064-1.225.369-2.192 1.299-2.901.929-.725 2.396-1.17 4.398-1.337l2.087-.178-.039-.735c-.054-1.026-.313-1.726-.778-2.101s-1.103-.541-1.915-.499a5.64 5.64 0 00-1.821.395 12 12 0 00-1.597.729l-.7-1.483c.521-.32 1.143-.598 1.868-.835a8.178 8.178 0 012.28-.442zm.941 6.537c-1.528.142-2.579.443-3.154.903-.559.459-.818 1.079-.777 1.86.036.689.269 1.183.699 1.483.446.3.998.432 1.656.397 1.041-.054 1.892-.383 2.551-.986.659-.618.957-1.524.894-2.718l-.058-1.103-1.811.164zM63.314 98.953l-2.343.122-4.714-6.892-4.037 7.35-2.182.115 4.996-8.83-5.51-7.587 2.296-.12 4.357 6.22 3.705-6.643 2.182-.115-4.667 8.076 5.917 8.303zm12.902-6.872c.053 1.026-.037 1.944-.27 2.755-.22.794-.568 1.48-1.044 2.058a4.796 4.796 0 01-1.749 1.359c-.69.312-1.47.491-2.344.537a6.015 6.015 0 01-2.272-.296 5.093 5.093 0 01-1.858-1.169c-.534-.525-.967-1.17-1.3-1.936-.316-.781-.502-1.685-.556-2.711-.071-1.363.098-2.523.509-3.481.41-.974 1.03-1.728 1.862-2.263.83-.55 1.836-.856 3.015-.918 1.118-.059 2.111.143 2.98.604.883.445 1.587 1.13 2.111 2.054.539.908.844 2.044.916 3.407zm-9.303.487c.05.965.218 1.8.5 2.508.297.69.724 1.213 1.28 1.568s1.248.51 2.074.467c.827-.044 1.499-.27 2.014-.681.516-.411.878-.975 1.086-1.693.223-.733.309-1.582.258-2.547-.05-.98-.225-1.807-.521-2.483-.297-.675-.722-1.182-1.278-1.522-.54-.356-1.232-.511-2.074-.467-1.255.066-2.145.527-2.668 1.383-.523.857-.747 2.013-.67 3.467zm14.443-2.415c.038.72.265 1.245.681 1.577.431.315 1.03.452 1.795.412.766-.04 1.457-.191 2.073-.454a12.603 12.603 0 001.878-1.066l-.277-5.282 2.022-.106.645 12.31-2.021.107-.288-5.49c-.666.48-1.329.868-1.989 1.164-.645.28-1.435.444-2.37.493-1.255.066-2.252-.212-2.991-.834-.724-.622-1.114-1.485-1.172-2.587L79.1 85.78l2.021-.106.235 4.48zm17.305-5.628c1.056-.056 1.972.127 2.746.547.79.42 1.406 1.04 1.848 1.86.457.806.714 1.767.773 2.885l.064 1.218-8.43.441c.104 1.392.512 2.438 1.224 3.138.727.683 1.703.993 2.928.929.781-.041 1.466-.146 2.056-.316a12.475 12.475 0 001.85-.741l.092 1.768a9.046 9.046 0 01-1.829.695c-.605.17-1.329.277-2.17.321-1.165.061-2.21-.122-3.139-.55-.913-.428-1.647-1.096-2.2-2.003-.54-.924-.846-2.067-.918-3.43-.07-1.347.091-2.515.485-3.503.409-.989 1.005-1.765 1.79-2.328.799-.564 1.742-.874 2.83-.931zm.063 1.655c-.964.05-1.714.404-2.247 1.062-.52.641-.804 1.516-.853 2.624l6.27-.329c-.037-.704-.176-1.31-.418-1.82a2.596 2.596 0 00-1.051-1.166c-.445-.284-1.012-.407-1.7-.371zm25.336-2.756l.645 12.311-16.698.875-.645-12.31 2.021-.107.556 10.612 5.306-.278-.556-10.612 2.021-.106.556 10.612 5.329-.28-.556-10.611 2.021-.106zm10.477 4.38c-.093-1.792.003-3.325.289-4.599.301-1.29.807-2.33 1.518-3.12.725-.805 1.679-1.37 2.859-1.692a81.633 81.633 0 012.887-.728c.941-.218 1.821-.417 2.64-.599l.438 1.751c-.395.082-.835.182-1.32.3-.486.102-.98.212-1.48.33-.501.103-.987.213-1.457.33-.455.1-.857.199-1.205.294-.5.133-.942.34-1.326.622-.386.266-.713.62-.981 1.065-.253.443-.448.983-.583 1.62-.136.636-.196 1.384-.182 2.243l.138-.007a5.24 5.24 0 01.826-.942c.366-.326.805-.61 1.314-.852.525-.242 1.124-.381 1.798-.416 1.071-.057 1.972.134 2.701.572.744.422 1.314 1.037 1.709 1.845.411.808.645 1.763.703 2.865.071 1.363-.106 2.516-.533 3.46-.426.944-1.048 1.667-1.867 2.17-.818.489-1.787.762-2.905.82-.842.045-1.616-.076-2.322-.361a4.93 4.93 0 01-1.845-1.378c-.524-.617-.941-1.394-1.251-2.33-.31-.935-.498-2.023-.563-3.263zm6.054 5.648c.674-.036 1.249-.204 1.724-.505.491-.303.858-.775 1.101-1.417.242-.642.336-1.484.282-2.525-.066-1.256-.355-2.23-.867-2.926-.498-.71-1.283-1.038-2.355-.982a3.728 3.728 0 00-1.814.556c-.535.32-.977.68-1.325 1.083-.347.402-.591.737-.73 1.005.039.75.131 1.475.275 2.174.144.699.361 1.324.651 1.877a3.55 3.55 0 001.196 1.273c.506.296 1.127.425 1.862.387zm19.586-5.771c.053 1.026-.037 1.944-.271 2.755a5.486 5.486 0 01-1.043 2.058 4.793 4.793 0 01-1.749 1.358c-.689.313-1.471.492-2.344.538a6.012 6.012 0 01-2.272-.296 5.095 5.095 0 01-1.858-1.17c-.534-.524-.967-1.17-1.299-1.935-.317-.782-.503-1.685-.557-2.711-.071-1.363.098-2.524.509-3.482.409-.973 1.03-1.727 1.862-2.262.831-.55 1.836-.857 3.015-.918 1.118-.059 2.111.142 2.98.604.883.445 1.587 1.13 2.111 2.054.539.908.844 2.044.916 3.407zm-9.303.487c.051.965.218 1.8.5 2.507.298.691.724 1.214 1.28 1.569.556.354 1.248.51 2.074.467.827-.044 1.499-.27 2.015-.682.515-.41.877-.975 1.085-1.692.223-.733.309-1.582.259-2.547-.052-.98-.226-1.808-.522-2.483-.297-.675-.722-1.183-1.278-1.522-.54-.356-1.232-.511-2.074-.467-1.255.066-2.145.527-2.668 1.383-.523.857-.747 2.013-.671 3.467zm18.509-7.35c1.516-.079 2.761.385 3.735 1.394.989 1.007 1.54 2.575 1.651 4.704.073 1.393-.079 2.584-.457 3.57-.364.972-.916 1.722-1.656 2.252-.725.514-1.601.798-2.627.852-.628.033-1.191-.022-1.69-.165a4.66 4.66 0 01-1.297-.577 5.329 5.329 0 01-.919-.85l-.138.008c.044.258.092.586.143.982.052.397.085.74.1 1.032l.265 5.053-2.021.106-.934-17.824 1.654-.087.363 1.663.092-.005c.227-.365.501-.702.822-1.01a4.07 4.07 0 011.205-.755c.481-.194 1.05-.308 1.709-.343zm-.279 1.72c-.826.043-1.484.238-1.972.586-.49.333-.833.82-1.03 1.46-.196.64-.277 1.442-.242 2.407l.021.39c.053 1.011.205 1.863.456 2.556.251.694.639 1.21 1.164 1.552.54.34 1.254.487 2.142.44.75-.04 1.352-.278 1.805-.716.468-.44.799-1.017.991-1.734.208-.732.287-1.558.239-2.477-.074-1.408-.408-2.52-1.004-3.333-.58-.814-1.436-1.191-2.57-1.132zm20.069 3.623c.054 1.026-.036 1.944-.27 2.755-.22.794-.567 1.48-1.044 2.058a4.796 4.796 0 01-1.748 1.359c-.69.312-1.471.491-2.344.537a6.015 6.015 0 01-2.273-.295 5.105 5.105 0 01-1.858-1.17c-.534-.525-.967-1.17-1.299-1.935-.317-.782-.503-1.686-.556-2.712-.072-1.363.098-2.523.508-3.481.41-.974 1.031-1.728 1.862-2.263.831-.55 1.836-.856 3.015-.918 1.118-.059 2.111.143 2.98.604.883.445 1.587 1.13 2.111 2.054.539.909.845 2.044.916 3.407zm-9.302.487c.05.965.217 1.8.5 2.508.297.69.724 1.213 1.28 1.568s1.247.51 2.074.467c.827-.043 1.498-.27 2.014-.681.516-.411.878-.975 1.086-1.693.222-.733.308-1.582.258-2.546-.051-.98-.225-1.808-.522-2.484-.296-.675-.722-1.182-1.277-1.522-.541-.355-1.232-.511-2.074-.467-1.256.066-2.145.527-2.669 1.384-.523.856-.746 2.012-.67 3.466zm21.805-7.292l.556 10.612 1.791-.094.313 5.972-1.952.102-.224-4.272-8.567.449.224 4.272-1.929.101-.313-5.972.987-.051a15.037 15.037 0 001.579-3.285 18.36 18.36 0 00.866-3.684c.178-1.284.242-2.554.192-3.81l6.477-.34zm-4.603 1.83a19.305 19.305 0 01-.312 3.264 21.281 21.281 0 01-.845 3.223c-.345 1.032-.766 1.929-1.264 2.692l5.628-.295-.473-9.026-2.734.143zm7.357-1.974l2.159-.113 3.032 6.866c.175.405.333.796.476 1.172.158.376.3.745.426 1.106.126.347.228.687.307 1.02l.092-.004c.072-.388.191-.893.358-1.516.166-.638.34-1.277.522-1.916l2.137-7.113 2.182-.115-4.571 14.29a9.096 9.096 0 01-.929 2.052 3.944 3.944 0 01-1.354 1.406c-.535.35-1.2.547-1.996.589a5.96 5.96 0 01-.969-.019 6.35 6.35 0 01-.718-.077l-.084-1.608c.17.022.371.042.602.06.247.018.5.02.761.007.474-.025.875-.138 1.202-.34a2.35 2.35 0 00.856-.805c.229-.334.415-.728.56-1.18l.558-1.665-5.609-12.097z" fill="#161513"/><g clip-path="url(#clip1_75_705)" fill-rule="evenodd" clip-rule="evenodd"><path d="M364.443 81.878l-1.138.722-.376-.563 1.079-.685c.129.188.274.363.435.526zm14.492-18.613l-10.421 13.201 1.019.763 4.421-2.964c1.517-2.6 5.707-8.574 5.905-11.198.074-.944.067-1.062-.924.198z" fill="#E94D35"/><path d="M367.884 75.66a3.911 3.911 0 00-2.552.339 3.785 3.785 0 00-1.757 1.84 3.644 3.644 0 00-.164 2.505 3.716 3.716 0 001.503 2.035 3.884 3.884 0 002.487.64 3.875 3.875 0 002.343-1.047 3.707 3.707 0 001.135-2.256 3.652 3.652 0 00-.589-2.443 3.753 3.753 0 00-1.037-1.04 3.84 3.84 0 00-1.369-.572zm-2.17 1.58a2.58 2.58 0 011.656-.387 2.544 2.544 0 011.529.725c.407.407.657.94.707 1.507a2.42 2.42 0 01-.435 1.606c-.331.47-.819.815-1.38.975a2.583 2.583 0 01-1.698-.1 2.494 2.494 0 01-1.246-1.127 2.408 2.408 0 01-.227-1.644c.068-.316.2-.616.387-.883s.426-.495.703-.672h.004zm-.221-13.27l11.737 12.04-.934.864-4.704-2.485c-1.78-2.428-6.572-7.93-7.043-10.52-.168-.93-.174-1.049.944.1z" fill="#E94D35"/><path d="M377.782 75.142a3.91 3.91 0 012.573.07 3.778 3.778 0 011.94 1.645c.431.751.581 1.626.425 2.475a3.716 3.716 0 01-1.282 2.18 3.885 3.885 0 01-2.407.897 3.876 3.876 0 01-2.439-.796 3.698 3.698 0 01-1.364-2.125 3.645 3.645 0 01.33-2.491 3.75 3.75 0 01.923-1.144 3.83 3.83 0 011.301-.71zm2.323 1.344a2.578 2.578 0 00-1.687-.212 2.542 2.542 0 00-1.444.88 2.435 2.435 0 00-.547 1.574c.01.57.223 1.118.601 1.551a2.53 2.53 0 001.474.825c.575.1 1.169.003 1.679-.276.51-.278.907-.72 1.121-1.251a2.41 2.41 0 00-.425-2.497 2.497 2.497 0 00-.772-.594z" fill="#E94D35"/><path d="M372.332 72.062a1.273 1.273 0 01.953.07 1.225 1.225 0 01.62.709c.101.306.074.64-.076.928a1.25 1.25 0 01-1.208.664 1.27 1.27 0 01-.851-.423 1.192 1.192 0 01-.161-1.343c.151-.287.412-.505.727-.605h-.004zm.848-.379a.09.09 0 01-.124.019.09.09 0 01-.035-.056.09.09 0 01.016-.064l6.157-8.123a.09.09 0 01.058-.033.086.086 0 01.1.072.085.085 0 01-.016.063l-6.156 8.122zm-.963-.058a.087.087 0 01.023.061.085.085 0 01-.028.06.094.094 0 01-.064.022.09.09 0 01-.062-.028l-6.968-7.434a.088.088 0 01-.021-.062.086.086 0 01.031-.059.09.09 0 01.125.005l6.964 7.435zm.876.874a.832.832 0 00-1.023.222.797.797 0 00.274 1.216.84.84 0 001.112-.354.767.767 0 00.05-.614.802.802 0 00-.413-.47z" fill="#fff"/><path d="M367.001 77.763a1.613 1.613 0 00-.988.402 1.542 1.542 0 00-.502.922c-.054.354.02.715.21 1.022.189.306.482.539.827.658.346.119.724.117 1.07-.005.345-.122.637-.358.825-.666a1.522 1.522 0 00-.301-1.94 1.58 1.58 0 00-.53-.308 1.62 1.62 0 00-.611-.085zm-1.314.317a1.92 1.92 0 012.362-.355c.374.217.659.553.807.952.148.4.149.837.003 1.237-.146.4-.43.74-.803.96a1.92 1.92 0 01-1.243.247 1.89 1.89 0 01-1.119-.578 1.808 1.808 0 01-.488-1.141c-.025-.485.148-.96.481-1.322zm13.189-.94c-.365.02-.713.162-.984.403a1.536 1.536 0 00-.501.919 1.51 1.51 0 00.21 1.019c.189.305.481.537.825.656a1.62 1.62 0 001.067-.005c.344-.122.635-.356.823-.663a1.52 1.52 0 00.206-1.02 1.53 1.53 0 00-.505-.916 1.61 1.61 0 00-1.141-.393zm-1.313.317a1.92 1.92 0 012.361-.355c.374.217.659.554.807.953.148.4.149.836.003 1.237-.146.4-.429.74-.802.96-.373.22-.813.307-1.244.247a1.89 1.89 0 01-1.119-.578 1.806 1.806 0 01-.006-2.463z" fill="#E94D35"/></g><path d="M267.546 74.672c.934-.048 1.753.04 2.456.263.701.21 1.257.549 1.665 1.019.408.454.63 1.026.666 1.715.039.75-.136 1.358-.526 1.824-.391.45-.942.794-1.651 1.03l.005.093c.497.112.959.28 1.385.503.427.223.773.528 1.038.913.282.384.439.89.472 1.518a3.155 3.155 0 01-.478 1.868c-.339.57-.89 1.037-1.654 1.4-.749.361-1.728.574-2.938.637-.582.03-1.142.03-1.682-.004a9.062 9.062 0 01-1.438-.201c-.42-.1-.795-.227-1.125-.379l-.095-1.814a12.06 12.06 0 001.872.57c.73.161 1.516.22 2.358.175a6.115 6.115 0 001.643-.293c.498-.164.885-.4 1.161-.706.275-.321.399-.742.371-1.263-.025-.475-.175-.85-.45-1.128-.277-.292-.679-.502-1.208-.627-.513-.127-1.168-.17-1.964-.128l-1.654.087-.087-1.654 1.333-.07c1.056-.055 1.891-.237 2.504-.545.628-.325.924-.832.888-1.521-.03-.582-.298-1.005-.804-1.27-.489-.267-1.186-.376-2.09-.329a7.068 7.068 0 00-1.78.3 11 11 0 00-1.647.663l-.796-1.57a9.548 9.548 0 012.033-.752 11.843 11.843 0 012.217-.323zm13.165-.666c1.501-.079 2.628.192 3.382.813.754.62 1.169 1.65 1.245 3.09l.439 8.383-1.47.077-.482-1.725-.092.005a7.056 7.056 0 01-1.043 1.183c-.353.31-.77.547-1.253.71-.467.163-1.046.263-1.735.299-.735.038-1.408-.057-2.018-.286a3.078 3.078 0 01-1.441-1.122c-.366-.534-.57-1.214-.614-2.04-.064-1.226.369-2.192 1.299-2.901.93-.725 2.396-1.17 4.398-1.337l2.087-.178-.039-.735c-.053-1.026-.313-1.726-.778-2.101s-1.103-.541-1.914-.499a5.637 5.637 0 00-1.822.395 11.9 11.9 0 00-1.597.729l-.7-1.484c.521-.319 1.143-.597 1.868-.834a8.174 8.174 0 012.28-.442zm.941 6.537c-1.528.142-2.579.443-3.154.903-.559.459-.818 1.079-.777 1.86.036.689.269 1.183.699 1.483.446.3.998.432 1.656.397 1.041-.054 1.892-.383 2.551-.986.659-.618.957-1.524.894-2.718l-.058-1.103-1.811.164zm9.765-2.4c.037.72.265 1.245.681 1.576.431.316 1.03.453 1.795.413.766-.04 1.457-.191 2.072-.454a12.575 12.575 0 001.879-1.066l-.277-5.282 2.021-.106.646 12.31-2.022.107-.287-5.49c-.666.48-1.329.868-1.989 1.164-.646.28-1.436.444-2.37.493-1.255.065-2.252-.213-2.991-.834-.724-.622-1.115-1.485-1.172-2.587l-.242-4.617 2.021-.106.235 4.479zM306 72.888l.645 12.31-2.021.107-.645-12.312 2.021-.105zm-1.229-4.565a1.14 1.14 0 01.82.28c.256.185.395.5.418.945.023.428-.083.756-.317.983a1.14 1.14 0 01-.787.364 1.198 1.198 0 01-.866-.277c-.241-.202-.373-.518-.395-.947-.024-.444.074-.771.294-.982a1.2 1.2 0 01.833-.366zm11.204 16.617c-1.087.057-2.071-.114-2.952-.513-.865-.4-1.567-1.054-2.106-1.963-.524-.909-.824-2.09-.9-3.545-.08-1.516.109-2.762.564-3.738.456-.976 1.101-1.708 1.935-2.197.849-.49 1.825-.764 2.928-.822a7.855 7.855 0 011.825.112c.588.092 1.071.22 1.448.385l-.532 1.709a11.94 11.94 0 00-1.307-.323 5.7 5.7 0 00-1.387-.112c-.827.044-1.5.255-2.017.636-.517.38-.888.921-1.112 1.624-.225.703-.31 1.567-.256 2.593.051.98.225 1.808.522 2.483.296.676.714 1.176 1.253 1.5.539.325 1.199.468 1.98.427.674-.036 1.259-.135 1.758-.3a8.624 8.624 0 001.397-.58l.094 1.792c-.402.236-.853.42-1.353.554-.483.148-1.077.241-1.782.278zm13.201-13.267l2.205-.116-4.949 6.202 6.03 6.087-2.342.122-5.886-5.956.327 6.248-2.021.106-.645-12.311 2.021-.106.313 5.971 4.947-6.247zm3.426-.18l2.159-.113 3.031 6.866c.175.405.334.796.476 1.173.158.375.3.744.427 1.106.126.346.228.687.307 1.02l.092-.005c.071-.387.191-.893.358-1.515.166-.639.34-1.277.521-1.916l2.138-7.114 2.182-.114-4.572 14.288a9.046 9.046 0 01-.928 2.053 3.948 3.948 0 01-1.355 1.407c-.534.35-1.199.546-1.996.588-.367.02-.69.013-.968-.018a6.352 6.352 0 01-.718-.078l-.084-1.608c.17.022.37.042.602.06.246.019.5.02.76.007.475-.025.876-.138 1.203-.34a2.36 2.36 0 00.856-.804c.228-.335.415-.728.56-1.181l.558-1.665-5.609-12.097z" fill="#161513"/><g clip-path="url(#clip2_75_705)" fill-rule="evenodd" clip-rule="evenodd"><path d="M596.489 69.717l-1.137.722-.377-.563 1.079-.685c.129.188.275.363.435.526zm14.492-18.613L600.56 64.305l1.02.763 4.42-2.964c1.517-2.6 5.708-8.574 5.905-11.198.074-.944.068-1.062-.924.198z" fill="#E94D35"/><path d="M599.93 63.5a3.908 3.908 0 00-2.551.338 3.776 3.776 0 00-1.757 1.84 3.639 3.639 0 00-.165 2.505 3.717 3.717 0 001.503 2.035 3.888 3.888 0 002.488.64 3.874 3.874 0 002.342-1.047 3.7 3.7 0 001.135-2.256 3.652 3.652 0 00-.589-2.443 3.74 3.74 0 00-1.037-1.04 3.844 3.844 0 00-1.369-.572zm-2.17 1.579a2.58 2.58 0 011.656-.387 2.543 2.543 0 011.529.725c.408.407.658.94.708 1.507a2.426 2.426 0 01-.436 1.606c-.33.47-.818.815-1.38.975a2.583 2.583 0 01-1.698-.1 2.488 2.488 0 01-1.245-1.127 2.427 2.427 0 01.159-2.527c.187-.267.426-.495.703-.672h.004zm-.221-13.271l11.738 12.04-.934.865-4.705-2.485c-1.78-2.428-6.572-7.93-7.043-10.52-.168-.93-.174-1.049.944.1z" fill="#E94D35"/><path d="M609.829 62.981a3.91 3.91 0 012.573.07 3.78 3.78 0 011.939 1.645c.431.751.582 1.626.426 2.475a3.726 3.726 0 01-1.282 2.18 3.886 3.886 0 01-2.407.897 3.877 3.877 0 01-2.44-.796 3.708 3.708 0 01-1.364-2.125 3.646 3.646 0 01.331-2.491 3.74 3.74 0 01.922-1.144 3.84 3.84 0 011.302-.71zm2.323 1.343a2.58 2.58 0 00-1.687-.211 2.541 2.541 0 00-1.445.88 2.429 2.429 0 00-.546 1.574c.01.57.222 1.118.6 1.551.379.434.9.725 1.475.825.575.1 1.168.003 1.678-.276a2.49 2.49 0 001.121-1.251 2.41 2.41 0 00-.424-2.497 2.507 2.507 0 00-.772-.594z" fill="#E94D35"/><path d="M604.378 59.9a1.275 1.275 0 01.954.07 1.233 1.233 0 01.619.71c.101.306.074.64-.076.928a1.244 1.244 0 01-1.207.664 1.265 1.265 0 01-.852-.422 1.192 1.192 0 01-.16-1.343c.15-.288.412-.506.726-.606h-.004zm.848-.378a.088.088 0 01-.058.034.088.088 0 01-.1-.071.082.082 0 01.016-.064l6.156-8.123a.091.091 0 01.124-.018.087.087 0 01.035.056.085.085 0 01-.017.064l-6.156 8.122zm-.963-.058a.083.083 0 01.023.061.085.085 0 01-.028.06.092.092 0 01-.126-.005l-6.967-7.435a.085.085 0 01.009-.12.092.092 0 01.126.005l6.963 7.434zm.877.875a.83.83 0 00-1.023.222.784.784 0 00-.071.892.812.812 0 00.655.408.844.844 0 00.601-.192.803.803 0 00.289-.55.785.785 0 00-.197-.586.82.82 0 00-.254-.194z" fill="#fff"/><path d="M599.047 65.602a1.612 1.612 0 00-.987.402 1.517 1.517 0 00-.293 1.944c.189.306.482.539.828.658s.724.117 1.069-.005c.346-.122.637-.358.825-.666a1.517 1.517 0 00-.301-1.94 1.615 1.615 0 00-1.141-.393zm-1.313.317a1.918 1.918 0 012.361-.355c.374.217.659.553.807.952.148.4.149.837.003 1.237-.146.4-.429.74-.802.96-.373.22-.813.308-1.244.247a1.892 1.892 0 01-1.119-.578 1.806 1.806 0 01-.006-2.463zm13.189-.939c-.366.018-.714.16-.985.401a1.514 1.514 0 00-.291 1.938c.189.306.481.538.826.657a1.62 1.62 0 001.066-.005 1.58 1.58 0 00.823-.663 1.514 1.514 0 00-.298-1.936 1.587 1.587 0 00-1.141-.393zm-1.314.316a1.918 1.918 0 012.361-.355c.374.217.66.554.807.953.148.4.149.836.003 1.237-.145.4-.429.74-.802.96-.373.22-.812.307-1.243.247a1.892 1.892 0 01-1.12-.578 1.807 1.807 0 01-.487-1.141 1.816 1.816 0 01.481-1.323z" fill="#E94D35"/></g><g clip-path="url(#clip3_75_705)" fill-rule="evenodd" clip-rule="evenodd"><path d="M779.609 60.12l-1.137.722-.376-.563 1.078-.685c.129.188.275.363.435.526zm14.492-18.613L783.68 54.709l1.02.762 4.42-2.964c1.517-2.6 5.708-8.574 5.905-11.198.074-.943.068-1.061-.924.198z" fill="#E94D35"/><path d="M783.05 53.903a3.908 3.908 0 00-2.551.338 3.776 3.776 0 00-1.757 1.84 3.644 3.644 0 00-.165 2.505 3.726 3.726 0 001.503 2.035 3.888 3.888 0 002.488.64 3.88 3.88 0 002.343-1.047 3.7 3.7 0 001.134-2.256c.1-.857-.109-1.72-.589-2.443a3.74 3.74 0 00-1.037-1.04 3.844 3.844 0 00-1.369-.572zm-2.17 1.579a2.581 2.581 0 011.656-.387 2.543 2.543 0 011.529.725c.408.407.658.94.708 1.508a2.425 2.425 0 01-.435 1.605c-.331.47-.819.815-1.38.975a2.585 2.585 0 01-1.699-.1 2.488 2.488 0 01-1.245-1.127 2.427 2.427 0 01.159-2.527c.187-.267.426-.495.704-.672h.003zm-.221-13.271l11.738 12.04-.934.865-4.704-2.485c-1.781-2.428-6.573-7.93-7.043-10.52-.169-.93-.175-1.048.943.1z" fill="#E94D35"/><path d="M792.949 53.384a3.91 3.91 0 012.573.07 3.776 3.776 0 011.939 1.645c.431.752.582 1.626.426 2.475a3.716 3.716 0 01-1.282 2.18 3.886 3.886 0 01-2.407.897 3.872 3.872 0 01-2.439-.796 3.704 3.704 0 01-1.365-2.125 3.651 3.651 0 01.331-2.49 3.74 3.74 0 01.922-1.145c.382-.318.824-.56 1.302-.71zm2.323 1.344a2.58 2.58 0 00-1.687-.212 2.544 2.544 0 00-1.445.88 2.43 2.43 0 00-.546 1.574c.01.57.222 1.118.6 1.552.379.433.9.724 1.475.825.575.1 1.168.002 1.679-.277.51-.278.906-.72 1.12-1.251a2.4 2.4 0 00.054-1.66 2.434 2.434 0 00-.478-.837 2.505 2.505 0 00-.772-.594z" fill="#E94D35"/><path d="M787.498 50.304a1.278 1.278 0 01.954.07 1.233 1.233 0 01.619.709 1.2 1.2 0 01-.075.928 1.249 1.249 0 01-1.208.664 1.267 1.267 0 01-.852-.422 1.192 1.192 0 01-.16-1.343c.15-.288.412-.506.726-.606h-.004zm.848-.379a.085.085 0 01-.057.035.09.09 0 01-.066-.016.083.083 0 01-.035-.056.082.082 0 01.016-.064l6.156-8.123a.09.09 0 01.059-.033.09.09 0 01.065.015.087.087 0 01.035.056.085.085 0 01-.017.064l-6.156 8.122zm-.963-.058a.083.083 0 01.023.061.085.085 0 01-.028.06.092.092 0 01-.126-.005l-6.967-7.435a.084.084 0 01.009-.12.093.093 0 01.064-.023.09.09 0 01.062.027l6.963 7.435zm.877.875a.846.846 0 00-.631-.048.828.828 0 00-.392.27.784.784 0 00-.071.892.837.837 0 001.456-.03.785.785 0 00-.108-.89.81.81 0 00-.254-.194z" fill="#fff"/><path d="M782.167 56.005a1.612 1.612 0 00-.987.402 1.517 1.517 0 00-.293 1.944c.19.306.482.539.828.658s.724.117 1.069-.005a1.58 1.58 0 00.825-.665 1.517 1.517 0 00-.3-1.941 1.595 1.595 0 00-1.142-.393zm-1.313.317a1.918 1.918 0 012.361-.355c.374.217.66.553.807.952.148.4.149.837.003 1.237-.145.4-.429.74-.802.96a1.92 1.92 0 01-1.243.247 1.892 1.892 0 01-1.12-.578 1.807 1.807 0 01-.487-1.14 1.81 1.81 0 01.481-1.323zm13.189-.94c-.366.02-.714.162-.985.403a1.54 1.54 0 00-.5.919 1.51 1.51 0 00.209 1.019c.189.305.481.537.826.656a1.62 1.62 0 001.066-.005 1.58 1.58 0 00.823-.663c.188-.307.261-.668.206-1.02a1.53 1.53 0 00-.504-.916 1.613 1.613 0 00-1.141-.393zm-1.314.318a1.918 1.918 0 012.361-.355c.375.216.66.553.808.952.147.4.148.836.003 1.237-.146.4-.43.74-.803.96-.373.22-.812.307-1.243.247a1.892 1.892 0 01-1.12-.578 1.807 1.807 0 01-.487-1.141c-.025-.485.148-.96.481-1.322z" fill="#E94D35"/></g><path d="M499.96 62.492c.934-.049 1.753.039 2.455.263.702.209 1.257.548 1.666 1.018.408.455.629 1.027.666 1.716.039.75-.137 1.358-.527 1.824-.391.45-.941.794-1.65 1.03l.005.093c.497.112.959.28 1.385.503.426.223.772.527 1.038.913.281.384.438.89.471 1.518a3.148 3.148 0 01-.478 1.868c-.338.57-.889 1.037-1.654 1.4-.748.36-1.728.573-2.937.637-.582.03-1.143.029-1.682-.004a9.046 9.046 0 01-1.438-.201 6.15 6.15 0 01-1.126-.379l-.095-1.814c.534.217 1.158.407 1.873.57.73.16 1.516.22 2.358.175a6.115 6.115 0 001.643-.293c.498-.164.885-.4 1.161-.706.275-.321.398-.743.371-1.263-.025-.475-.175-.85-.451-1.128-.276-.293-.678-.502-1.207-.628-.513-.126-1.168-.169-1.964-.127l-1.654.087-.087-1.654 1.332-.07c1.057-.055 1.892-.237 2.505-.546.628-.324.924-.831.888-1.52-.031-.582-.298-1.006-.804-1.271-.49-.266-1.186-.375-2.09-.328-.674.035-1.267.135-1.78.3a11 11 0 00-1.647.663l-.796-1.57a9.548 9.548 0 012.033-.752 11.851 11.851 0 012.217-.324zm13.165-.667c1.5-.078 2.628.193 3.382.813.754.621 1.169 1.651 1.244 3.09l.44 8.384-1.47.077-.482-1.725-.092.005a7.011 7.011 0 01-1.044 1.183c-.352.31-.769.547-1.252.71-.468.163-1.046.263-1.735.299-.735.038-1.408-.057-2.019-.286a3.08 3.08 0 01-1.44-1.122c-.366-.534-.571-1.214-.614-2.04-.064-1.226.369-2.193 1.299-2.902.929-.724 2.395-1.17 4.398-1.336l2.087-.178-.039-.735c-.054-1.026-.313-1.727-.778-2.101-.465-.375-1.103-.541-1.915-.499a5.637 5.637 0 00-1.821.395 12.06 12.06 0 00-1.598.729l-.699-1.484c.521-.319 1.143-.597 1.868-.835a8.16 8.16 0 012.28-.442zm.941 6.538c-1.528.141-2.579.442-3.154.902-.559.46-.819 1.08-.778 1.86.036.69.27 1.184.7 1.484.446.3.998.431 1.656.397 1.041-.055 1.892-.383 2.551-.986.658-.618.956-1.524.894-2.718l-.058-1.103-1.811.164zm9.765-2.4c.037.72.264 1.245.681 1.576.431.315 1.029.453 1.795.413a6.064 6.064 0 002.072-.454 12.625 12.625 0 001.879-1.066l-.277-5.283 2.021-.106.645 12.311-2.021.106-.287-5.49c-.666.481-1.329.869-1.989 1.165-.646.279-1.436.443-2.37.492-1.255.066-2.253-.212-2.991-.833-.724-.623-1.115-1.485-1.172-2.588l-.242-4.616 2.021-.106.235 4.479zm14.583-5.256l.645 12.311-2.021.106-.645-12.31 2.021-.107zm-1.23-4.565c.307-.016.58.077.821.28.256.186.395.501.418.945.023.429-.083.757-.317.984a1.142 1.142 0 01-.787.364 1.2 1.2 0 01-.867-.277c-.24-.203-.372-.518-.395-.947-.023-.444.075-.772.294-.983.219-.226.496-.348.833-.366zm11.205 16.618c-1.087.057-2.071-.114-2.952-.514-.865-.4-1.567-1.054-2.106-1.962-.524-.91-.824-2.091-.9-3.546-.08-1.516.108-2.761.564-3.737.455-.976 1.1-1.709 1.935-2.198.849-.49 1.825-.763 2.928-.821a7.859 7.859 0 011.825.112c.588.092 1.071.22 1.448.384l-.532 1.71a11.998 11.998 0 00-1.307-.324 5.704 5.704 0 00-1.388-.111c-.827.043-1.499.255-2.016.635-.518.38-.888.922-1.113 1.625-.224.703-.309 1.567-.255 2.593.051.98.225 1.808.521 2.483.297.675.715 1.175 1.254 1.5.539.325 1.199.467 1.98.426.673-.035 1.259-.135 1.757-.3.514-.164.98-.358 1.398-.579l.094 1.791a5.44 5.44 0 01-1.353.555c-.484.148-1.078.24-1.782.278zm13.201-13.267l2.205-.116-4.95 6.202 6.031 6.086-2.343.123-5.885-5.956.327 6.247-2.021.106-.645-12.31 2.021-.107.313 5.972 4.947-6.247zm3.426-.18l2.159-.113 3.031 6.866c.175.405.334.796.476 1.172.158.376.3.745.427 1.107.125.346.228.686.307 1.02l.091-.005c.072-.388.192-.893.359-1.516.166-.638.34-1.277.521-1.916l2.138-7.113 2.182-.115-4.572 14.29a9.055 9.055 0 01-.929 2.052 3.937 3.937 0 01-1.354 1.406c-.534.35-1.2.547-1.996.589-.367.019-.69.013-.968-.019a6.326 6.326 0 01-.718-.077l-.084-1.608c.17.022.37.042.602.06.246.018.5.02.76.007.475-.025.876-.138 1.203-.34a2.36 2.36 0 00.856-.805 4.53 4.53 0 00.56-1.18l.558-1.665-5.609-12.097zm77.611 9.279l-2.242-4.972-6.5.34-1.686 5.178-2.09.11 5.545-16.804 1.86-.098 7.249 16.134-2.136.112zm-5.056-11.642c-.052-.12-.14-.339-.264-.654-.124-.316-.249-.64-.374-.971-.11-.348-.201-.612-.271-.792-.061.31-.129.628-.204.955-.06.31-.13.598-.208.863-.063.264-.12.49-.172.677l-1.6 5.059 5.191-.273-2.098-4.864zm8.608 4.04c-.094-1.792.002-3.325.289-4.599.301-1.29.807-2.33 1.517-3.12.726-.805 1.679-1.37 2.86-1.692a81.086 81.086 0 012.887-.727c.94-.219 1.82-.418 2.64-.6l.437 1.751c-.395.082-.835.182-1.32.3-.486.102-.979.212-1.48.33-.501.103-.987.213-1.456.33-.456.1-.858.198-1.206.294a3.963 3.963 0 00-1.326.622c-.385.266-.712.62-.981 1.065-.253.443-.447.983-.583 1.62-.135.636-.196 1.384-.181 2.243l.137-.007c.2-.302.475-.616.826-.942.367-.326.805-.61 1.314-.852.525-.242 1.124-.381 1.798-.416 1.072-.057 1.973.134 2.702.572.744.422 1.313 1.037 1.709 1.845.411.808.645 1.763.703 2.865.071 1.363-.107 2.516-.533 3.46-.427.944-1.049 1.667-1.867 2.17-.819.489-1.787.762-2.905.82-.842.045-1.616-.076-2.322-.361a4.934 4.934 0 01-1.846-1.378c-.524-.617-.94-1.394-1.25-2.33-.311-.935-.498-2.023-.563-3.263zm6.054 5.648c.674-.036 1.248-.204 1.724-.505.491-.302.857-.775 1.1-1.417.243-.642.337-1.484.282-2.525-.065-1.256-.355-2.23-.867-2.926-.498-.71-1.283-1.038-2.355-.982a3.726 3.726 0 00-1.813.556 5.35 5.35 0 00-1.325 1.083c-.348.402-.591.737-.73 1.005.039.75.131 1.475.275 2.174.144.699.361 1.324.651 1.877.304.537.703.962 1.195 1.273.507.296 1.128.425 1.863.387zm19.585-5.771c.054 1.026-.036 1.944-.27 2.755-.219.794-.567 1.48-1.044 2.058a4.798 4.798 0 01-1.748 1.358c-.69.313-1.471.492-2.344.538a6.017 6.017 0 01-2.273-.296 5.091 5.091 0 01-1.857-1.17c-.535-.524-.968-1.17-1.299-1.935-.318-.781-.503-1.685-.557-2.711-.072-1.363.098-2.524.508-3.482.41-.973 1.031-1.727 1.862-2.262.831-.55 1.837-.856 3.016-.918 1.117-.059 2.111.142 2.979.604.883.445 1.587 1.13 2.112 2.054.539.908.844 2.044.915 3.407zm-9.302.487c.051.965.217 1.8.5 2.507.297.691.724 1.214 1.28 1.569.556.354 1.247.51 2.074.467.827-.044 1.498-.27 2.014-.682.516-.41.878-.975 1.086-1.692.223-.733.309-1.582.258-2.547-.051-.98-.225-1.807-.522-2.483-.296-.675-.722-1.183-1.277-1.522-.541-.356-1.232-.511-2.074-.467-1.256.066-2.145.527-2.669 1.383-.523.857-.746 2.013-.67 3.467zm371.824-22.93l-4.02.21.56 10.612-2 .105-.56-10.612-3.97.209-.09-1.7 9.99-.524.09 1.7zm7.47-2.303c1.5-.079 2.62.192 3.38.813.75.62 1.17 1.65 1.24 3.09l.44 8.384-1.47.077-.48-1.725-.09.004a6.96 6.96 0 01-1.05 1.184c-.35.31-.76.547-1.25.71-.47.163-1.04.262-1.73.298-.74.039-1.41-.056-2.02-.285a3.03 3.03 0 01-1.44-1.123c-.37-.533-.57-1.213-.62-2.04-.06-1.225.37-2.192 1.3-2.901.93-.724 2.4-1.17 4.4-1.336l2.09-.179-.04-.735c-.05-1.026-.31-1.726-.78-2.1-.46-.376-1.1-.542-1.91-.5-.65.035-1.25.166-1.83.396-.57.214-1.1.457-1.59.728l-.7-1.483c.52-.32 1.14-.598 1.87-.835.72-.253 1.48-.4 2.28-.442zm.94 6.538c-1.53.141-2.58.442-3.16.902-.56.46-.82 1.08-.77 1.86.03.69.27 1.184.7 1.484.44.299.99.431 1.65.397 1.04-.055 1.89-.384 2.55-.986.66-.618.96-1.524.9-2.719l-.06-1.102-1.81.164zM402.48 65.734c2.144-.112 3.728.227 4.752 1.018 1.024.79 1.576 1.952 1.657 3.483a5.649 5.649 0 01-.243 1.97 4.25 4.25 0 01-.992 1.71c-.48.517-1.133.943-1.96 1.278-.828.32-1.854.512-3.079.576l-1.884.099.335 6.385-2.067.108-.86-16.4 4.341-.227zm-.091 1.779l-2.09.11.34 6.476 1.653-.086c1.042-.055 1.901-.208 2.579-.458.677-.266 1.171-.653 1.482-1.16.311-.508.446-1.16.404-1.956-.055-1.057-.433-1.827-1.134-2.313-.701-.485-1.779-.69-3.234-.613zm21.1 7.37c.053 1.025-.037 1.944-.271 2.754-.219.795-.567 1.481-1.043 2.059a4.792 4.792 0 01-1.749 1.358c-.689.313-1.471.492-2.344.538a6.012 6.012 0 01-2.272-.296 5.095 5.095 0 01-1.858-1.17c-.534-.524-.967-1.17-1.299-1.935-.317-.782-.503-1.686-.557-2.712-.071-1.362.098-2.523.509-3.48.409-.974 1.03-1.728 1.862-2.263.831-.55 1.836-.857 3.015-.919 1.118-.058 2.111.143 2.98.604.883.445 1.587 1.13 2.111 2.055.539.908.844 2.044.916 3.406zm-9.303.487c.051.965.218 1.8.5 2.507.298.69.724 1.214 1.28 1.568.556.355 1.248.51 2.074.467.827-.043 1.499-.27 2.015-.68.515-.412.877-.976 1.085-1.693.223-.733.309-1.582.259-2.547-.052-.98-.226-1.808-.522-2.483-.297-.676-.722-1.183-1.278-1.522-.54-.356-1.232-.512-2.074-.468-1.255.066-2.145.527-2.668 1.384-.523.857-.747 2.012-.671 3.467zm12.278-1.864c-.093-1.792.003-3.325.289-4.599.301-1.29.807-2.33 1.518-3.12.726-.805 1.679-1.37 2.859-1.692a81.852 81.852 0 012.887-.727c.941-.219 1.821-.418 2.641-.6l.437 1.751a41.69 41.69 0 00-1.32.3c-.486.102-.98.212-1.48.33-.501.104-.987.213-1.457.33-.455.1-.857.199-1.205.294-.5.133-.942.34-1.326.622-.386.266-.713.62-.981 1.065-.253.443-.448.983-.583 1.62-.136.636-.196 1.384-.182 2.243l.138-.007c.199-.302.474-.616.826-.942.367-.326.805-.61 1.314-.852.525-.242 1.124-.381 1.798-.416 1.072-.056 1.972.134 2.701.572.744.422 1.314 1.037 1.709 1.845.411.808.645 1.763.703 2.865.072 1.363-.106 2.516-.533 3.46-.426.944-1.048 1.667-1.866 2.17-.819.489-1.788.762-2.906.82-.842.045-1.616-.076-2.322-.361a4.931 4.931 0 01-1.845-1.377c-.524-.618-.941-1.394-1.251-2.33-.31-.936-.498-2.024-.563-3.264zm6.054 5.648c.674-.036 1.249-.204 1.724-.505.491-.302.858-.775 1.101-1.417.242-.642.336-1.484.282-2.525-.066-1.256-.355-2.23-.867-2.926-.498-.71-1.283-1.038-2.355-.982a3.721 3.721 0 00-1.813.556c-.536.32-.978.68-1.326 1.083-.347.402-.59.737-.73 1.005.039.75.131 1.475.275 2.174.144.699.361 1.325.651 1.877a3.55 3.55 0 001.196 1.274c.506.296 1.127.424 1.862.386zm10.861-3.932c.007.138.01.337.008.598.013.245.02.514.02.805l-.004.807c-.003.245-.008.445-.015.6l6.052-10.659 2.48-.13.645 12.311-1.883.099-.38-7.258-.051-.965-.015-1.174a24.257 24.257 0 01-.001-.898l-6.007 10.633-2.504.131-.645-12.31 1.906-.1.394 7.51zm26.145-8.902l.645 12.312-1.814.095-.412-7.856a22.871 22.871 0 01-.03-1.011l.038-1.039-.069.004-3.501 10.11-1.699.089-4.424-9.695-.069.004c.049.335.082.679.101 1.03.033.352.06.712.079 1.08l.408 7.785-1.814.096-.646-12.311 2.688-.141 4.4 9.696 3.432-10.107 2.687-.14zm15.434 5.34c.054 1.027-.036 1.945-.27 2.756-.219.794-.567 1.48-1.044 2.058a4.798 4.798 0 01-1.748 1.359c-.69.312-1.471.491-2.344.537a6.017 6.017 0 01-2.273-.295 5.103 5.103 0 01-1.858-1.17c-.534-.525-.967-1.17-1.299-1.935-.317-.782-.502-1.686-.556-2.712-.072-1.363.098-2.523.508-3.481.41-.974 1.031-1.728 1.862-2.263.831-.55 1.836-.856 3.015-.918 1.118-.059 2.111.143 2.98.604.883.445 1.587 1.13 2.112 2.054.538.909.844 2.044.915 3.407zm-9.302.488c.05.965.217 1.8.5 2.508.297.69.724 1.213 1.28 1.568s1.247.51 2.074.467c.827-.043 1.498-.27 2.014-.681.516-.411.878-.975 1.086-1.693.223-.733.309-1.582.258-2.546-.051-.98-.225-1.808-.522-2.484-.296-.675-.722-1.182-1.277-1.522-.541-.355-1.232-.511-2.074-.467-1.256.066-2.145.527-2.669 1.384-.523.856-.746 2.012-.67 3.466zM685.287 58.94c-.094-1.791.002-3.324.288-4.598.301-1.29.807-2.33 1.518-3.12.726-.806 1.679-1.37 2.859-1.693a82.41 82.41 0 012.887-.727c.941-.218 1.821-.418 2.641-.6l.437 1.752c-.395.082-.835.181-1.32.299-.486.102-.979.212-1.48.33-.501.104-.987.214-1.457.33a26.15 26.15 0 00-1.205.294c-.5.134-.942.341-1.326.622a3.418 3.418 0 00-.981 1.065c-.253.443-.447.983-.583 1.62-.135.636-.196 1.384-.182 2.243l.138-.007a5.28 5.28 0 01.826-.941c.367-.327.805-.61 1.314-.852.525-.243 1.124-.382 1.798-.417 1.072-.056 1.972.135 2.701.572.744.422 1.314 1.037 1.709 1.846.411.807.646 1.762.703 2.865.072 1.362-.106 2.516-.532 3.46-.427.943-1.049 1.666-1.867 2.17-.819.488-1.788.762-2.905.82-.843.044-1.617-.076-2.323-.362a4.94 4.94 0 01-1.845-1.377c-.524-.618-.941-1.394-1.251-2.33-.31-.936-.497-2.024-.562-3.264zm6.054 5.648c.673-.035 1.248-.204 1.723-.505.491-.302.858-.774 1.101-1.416.243-.643.337-1.484.282-2.526-.066-1.255-.355-2.23-.867-2.925-.498-.711-1.283-1.039-2.355-.982a3.72 3.72 0 00-1.813.555 5.35 5.35 0 00-1.325 1.083c-.348.402-.591.737-.731 1.006.04.75.131 1.474.275 2.173.144.699.361 1.325.651 1.878a3.55 3.55 0 001.196 1.273c.507.296 1.128.424 1.863.386zm19.585-5.77c.054 1.025-.036 1.943-.27 2.754-.22.795-.568 1.48-1.044 2.058a4.796 4.796 0 01-1.748 1.359c-.69.312-1.472.492-2.344.537a6.015 6.015 0 01-2.273-.295 5.096 5.096 0 01-1.858-1.17c-.534-.524-.967-1.17-1.299-1.935-.317-.782-.503-1.686-.556-2.712-.072-1.363.098-2.523.508-3.481.41-.974 1.03-1.728 1.862-2.263.831-.55 1.836-.856 3.015-.918 1.118-.058 2.111.143 2.98.604.883.445 1.587 1.13 2.111 2.054.539.909.844 2.044.916 3.407zm-9.302.487c.05.964.217 1.8.5 2.507.297.69.723 1.213 1.279 1.568.556.355 1.248.51 2.075.467.827-.043 1.498-.27 2.014-.681.516-.411.878-.975 1.086-1.692.222-.734.308-1.583.258-2.547-.052-.98-.225-1.808-.522-2.483-.296-.676-.722-1.183-1.277-1.523-.541-.355-1.232-.51-2.075-.467-1.255.066-2.145.527-2.668 1.384-.523.856-.747 2.012-.67 3.467zm18.508-7.35c1.516-.08 2.761.385 3.735 1.393.99 1.008 1.54 2.576 1.652 4.704.073 1.394-.08 2.584-.458 3.571-.364.971-.916 1.722-1.656 2.252-.725.514-1.601.798-2.627.852-.627.032-1.191-.023-1.689-.165a4.654 4.654 0 01-1.297-.577 5.336 5.336 0 01-.92-.85l-.138.007c.044.259.092.586.144.983.051.396.084.74.1 1.031l.265 5.053-2.022.106-.934-17.823 1.654-.087.363 1.662.092-.005a5.18 5.18 0 01.823-1.01 4.06 4.06 0 011.204-.754c.481-.194 1.051-.309 1.709-.343zm-.278 1.719c-.827.043-1.485.239-1.973.587-.49.333-.833.819-1.029 1.459-.197.64-.278 1.442-.243 2.408l.021.39c.053 1.01.205 1.863.456 2.556.252.693.639 1.21 1.164 1.551.54.34 1.254.487 2.142.44.75-.039 1.352-.278 1.805-.716.468-.44.799-1.017.992-1.733.207-.733.286-1.558.238-2.477-.074-1.409-.408-2.52-1.003-3.333-.581-.814-1.437-1.192-2.57-1.132zm20.068 3.623c.054 1.026-.036 1.945-.27 2.755-.219.795-.567 1.481-1.044 2.059a4.79 4.79 0 01-1.748 1.358c-.69.313-1.471.492-2.344.538a6.017 6.017 0 01-2.273-.296 5.092 5.092 0 01-1.857-1.17c-.535-.524-.968-1.17-1.299-1.935-.318-.782-.503-1.686-.557-2.712-.072-1.362.098-2.523.508-3.48.41-.974 1.031-1.729 1.863-2.263.831-.55 1.836-.857 3.015-.919 1.117-.058 2.111.143 2.979.604.883.445 1.587 1.13 2.112 2.055.539.908.844 2.044.915 3.407zm-9.302.488c.051.965.217 1.8.5 2.507.297.691.724 1.214 1.28 1.568.556.355 1.247.51 2.074.468.827-.044 1.498-.271 2.014-.682.516-.41.878-.975 1.086-1.692.223-.733.309-1.582.258-2.547-.051-.98-.225-1.808-.522-2.483-.296-.675-.722-1.183-1.277-1.522-.541-.356-1.232-.512-2.074-.467-1.256.065-2.145.527-2.668 1.383-.524.857-.747 2.012-.671 3.467zm21.805-7.292l.556 10.611 1.792-.094.313 5.972-1.953.103-.224-4.273-8.567.45.224 4.271-1.929.102-.313-5.972.987-.052a14.991 14.991 0 001.579-3.284 18.38 18.38 0 00.866-3.684c.178-1.284.242-2.554.192-3.81l6.477-.34zm-4.602 1.83a19.31 19.31 0 01-.313 3.264 21.283 21.283 0 01-.845 3.223c-.345 1.031-.766 1.928-1.263 2.691l5.627-.294-.473-9.027-2.733.143zm7.357-1.975l2.159-.113 3.031 6.866c.175.405.334.796.476 1.173.158.375.3.744.427 1.106.125.346.227.687.306 1.02l.092-.005c.072-.387.191-.892.358-1.515.167-.639.34-1.277.522-1.916l2.137-7.114 2.182-.114-4.571 14.289a9.054 9.054 0 01-.929 2.052 3.945 3.945 0 01-1.354 1.407c-.534.35-1.2.546-1.996.588-.367.02-.69.013-.968-.018a6.326 6.326 0 01-.718-.078l-.085-1.608c.17.022.371.042.602.061.247.018.5.02.761.006.474-.025.875-.138 1.203-.34.343-.186.628-.454.856-.804.228-.334.415-.728.56-1.181l.557-1.664-5.608-12.098zm66.236-5.981c-.873.045-1.653.24-2.341.583a4.606 4.606 0 00-1.723 1.403c-.461.592-.799 1.309-1.016 2.15-.218.824-.3 1.75-.246 2.776.07 1.347.338 2.508.804 3.482.481.972 1.149 1.705 2.004 2.198.87.491 1.933.704 3.189.639a10.934 10.934 0 002.034-.291 18.787 18.787 0 001.86-.558l.093 1.791c-.6.262-1.227.464-1.88.605-.637.141-1.407.235-2.311.283-1.669.087-3.08-.184-4.234-.815-1.154-.63-2.048-1.566-2.681-2.807-.618-1.242-.972-2.72-1.062-4.436-.065-1.24.045-2.382.328-3.425.298-1.045.757-1.96 1.376-2.744a6.645 6.645 0 012.39-1.853c.959-.465 2.073-.73 3.344-.797a11.539 11.539 0 012.448.125 8.8 8.8 0 012.127.602l-.735 1.79a12.837 12.837 0 00-1.732-.532 7.026 7.026 0 00-2.036-.17zm16.407 3.355l-4.02.21.556 10.612-1.998.104-.556-10.611-3.974.208-.089-1.7 9.991-.523.09 1.7zm5.115 5.559c.007.137.01.337.008.598.013.245.019.513.019.805 0 .276-.002.545-.003.806-.003.246-.008.446-.015.6l6.051-10.658 2.481-.13.645 12.31-1.883.1-.381-7.259-.05-.964-.016-1.174a29.79 29.79 0 01-.001-.898l-6.006 10.633-2.504.13-.645-12.31 1.906-.1.394 7.51zm22.955 3.61l-2.045.107-.557-10.634-3.629.19c-.051 1.953-.155 3.624-.313 5.014-.158 1.375-.391 2.5-.698 3.376-.307.876-.696 1.526-1.165 1.95a2.653 2.653 0 01-1.691.688c-.199.01-.399.005-.6-.015a1.266 1.266 0 01-.465-.09l-.079-1.517c.093.026.194.044.302.053.108.01.215.012.322.007.337-.018.636-.172.898-.462.261-.29.484-.724.668-1.302.2-.578.37-1.301.509-2.168.138-.883.245-1.917.321-3.103.076-1.187.128-2.525.158-4.016l7.418-.389.646 12.311zm9.679-7.785c1.072-.056 1.967.027 2.685.25.718.224 1.267.587 1.646 1.089.394.486.612 1.12.653 1.9.04.766-.101 1.441-.424 2.026-.307.585-.812 1.049-1.516 1.393-.704.344-1.622.545-2.755.605l-5.581.292-.646-12.31 2.022-.107.264 5.053 3.652-.191zm2.969 3.46c-.04-.75-.334-1.241-.884-1.474-.535-.248-1.277-.347-2.226-.297l-3.423.179.207 3.95 3.469-.181c.857-.045 1.553-.235 2.089-.57.55-.336.806-.872.768-1.607zm16.235-3.384c.054 1.026-.036 1.944-.27 2.755-.22.794-.568 1.48-1.044 2.058a4.796 4.796 0 01-1.748 1.359c-.69.312-1.472.491-2.344.537a6.015 6.015 0 01-2.273-.295 5.096 5.096 0 01-1.858-1.17c-.534-.525-.967-1.17-1.299-1.936-.317-.781-.503-1.685-.556-2.711-.072-1.363.098-2.523.508-3.481.41-.974 1.03-1.728 1.862-2.263.831-.55 1.836-.856 3.015-.918 1.118-.059 2.111.143 2.98.604.883.445 1.587 1.13 2.111 2.054.539.909.844 2.044.916 3.407zm-9.302.487c.05.965.217 1.8.5 2.508.297.69.723 1.213 1.279 1.568.556.355 1.248.51 2.075.467.827-.043 1.498-.27 2.014-.681.516-.411.878-.975 1.086-1.693.222-.733.308-1.582.258-2.547-.052-.98-.225-1.807-.522-2.483-.296-.675-.722-1.182-1.277-1.522-.541-.355-1.232-.511-2.075-.467-1.255.066-2.145.527-2.668 1.384-.523.856-.747 2.012-.67 3.466zm22.725-4.23c.04.765-.158 1.374-.595 1.827-.437.453-1.011.775-1.723.965l.005.092a4.107 4.107 0 012.042.722c.589.4.907 1.058.955 1.977a3.502 3.502 0 01-.222 1.463 2.89 2.89 0 01-.813 1.194c-.381.342-.881.622-1.499.838-.619.202-1.373.326-2.261.372l-5.306.278-.645-12.31 5.283-.277c.873-.046 1.659.012 2.358.175.714.147 1.282.44 1.705.878.436.423.675 1.024.716 1.805zm-1.406 5.693c-.037-.705-.331-1.196-.883-1.474s-1.349-.39-2.39-.336l-3.009.158.207 3.95 3.055-.16c1.011-.052 1.776-.238 2.297-.557.52-.335.761-.862.723-1.581zm-.625-5.334c-.03-.582-.267-.992-.709-1.23-.428-.253-1.117-.356-2.066-.306l-3.147.165.177 3.377 2.779-.146c.996-.052 1.746-.23 2.253-.533.506-.303.744-.745.713-1.327zm3.753-3.56l2.159-.112 3.032 6.865c.174.406.333.797.476 1.173.157.376.3.744.426 1.106.126.347.228.687.307 1.02l.092-.004c.072-.388.191-.893.358-1.516.166-.638.34-1.277.521-1.916l2.138-7.114 2.182-.114-4.571 14.289a9.096 9.096 0 01-.929 2.052 3.947 3.947 0 01-1.355 1.407c-.534.35-1.199.547-1.996.588-.367.02-.69.013-.968-.018a6.329 6.329 0 01-.718-.078l-.084-1.607c.17.022.371.042.602.06.246.018.5.02.76.006.475-.024.876-.138 1.203-.339a2.36 2.36 0 00.856-.805c.228-.334.415-.728.56-1.18l.558-1.665-5.609-12.097zm20.177 3.872c-.093-1.791.003-3.324.289-4.598.301-1.29.807-2.33 1.518-3.12.726-.806 1.679-1.37 2.859-1.693a81.633 81.633 0 012.887-.727c.941-.218 1.821-.418 2.641-.6l.437 1.751c-.395.083-.835.182-1.32.3-.486.102-.98.212-1.48.33-.501.104-.987.214-1.457.33a26.15 26.15 0 00-1.205.294c-.5.134-.942.341-1.326.622a3.406 3.406 0 00-.981 1.065c-.253.443-.448.983-.583 1.62-.136.636-.196 1.384-.182 2.243l.138-.007a5.24 5.24 0 01.826-.941c.367-.327.805-.61 1.314-.852.525-.243 1.124-.382 1.798-.417 1.072-.056 1.972.135 2.701.572.744.422 1.314 1.037 1.709 1.846.411.807.645 1.762.703 2.865.072 1.362-.106 2.516-.533 3.46-.426.943-1.048 1.666-1.866 2.17-.819.488-1.788.762-2.906.82-.842.044-1.616-.076-2.322-.362a4.93 4.93 0 01-1.845-1.377c-.524-.618-.941-1.394-1.251-2.33-.31-.936-.498-2.024-.563-3.264zm6.054 5.648c.674-.035 1.249-.204 1.724-.505.491-.302.858-.774 1.101-1.416.242-.643.336-1.485.282-2.526-.066-1.255-.355-2.23-.867-2.925-.498-.711-1.283-1.039-2.355-.983a3.723 3.723 0 00-1.813.556c-.536.32-.978.681-1.326 1.083-.347.402-.59.737-.73 1.006.039.75.131 1.474.275 2.173.144.699.361 1.325.651 1.878a3.55 3.55 0 001.196 1.273c.506.296 1.127.425 1.862.386zm19.586-5.771c.054 1.026-.037 1.944-.27 2.755-.22.794-.568 1.48-1.044 2.058a4.796 4.796 0 01-1.748 1.359c-.69.312-1.472.491-2.345.537a6.012 6.012 0 01-2.272-.295 5.095 5.095 0 01-1.858-1.17c-.534-.524-.967-1.17-1.299-1.935-.317-.782-.503-1.686-.557-2.712-.071-1.363.098-2.523.509-3.481.409-.974 1.03-1.728 1.862-2.263.831-.55 1.836-.856 3.015-.918 1.118-.058 2.111.143 2.98.604.883.445 1.587 1.13 2.111 2.054.539.909.844 2.044.916 3.407zm-9.302.487c.05.965.217 1.801.499 2.508.298.69.724 1.213 1.28 1.568s1.248.51 2.075.467c.826-.043 1.498-.27 2.014-.681.515-.411.877-.975 1.086-1.692.222-.734.308-1.583.258-2.547-.052-.98-.226-1.808-.522-2.483-.296-.676-.722-1.183-1.277-1.523-.541-.355-1.233-.511-2.075-.467-1.255.066-2.145.527-2.668 1.384-.523.856-.747 2.012-.67 3.466zm18.508-7.35c1.516-.079 2.761.386 3.735 1.394.989 1.008 1.54 2.576 1.651 4.704.074 1.394-.079 2.584-.457 3.571-.364.971-.916 1.722-1.656 2.252-.725.514-1.601.798-2.627.852-.628.032-1.191-.023-1.69-.165a4.68 4.68 0 01-1.297-.577 5.329 5.329 0 01-.919-.85l-.138.007c.044.259.092.586.143.983.052.396.085.74.101 1.031l.264 5.053-2.021.106-.934-17.824 1.654-.086.363 1.662.092-.005c.227-.365.501-.702.822-1.01.337-.31.739-.561 1.205-.754.481-.194 1.051-.309 1.709-.343zm-.278 1.72c-.827.043-1.485.239-1.973.587-.49.333-.833.819-1.029 1.459-.197.64-.278 1.442-.243 2.408l.021.39c.053 1.01.205 1.863.456 2.556.251.693.639 1.21 1.164 1.55.54.341 1.254.488 2.142.441.75-.039 1.352-.278 1.805-.716.468-.44.799-1.017.991-1.733.208-.733.287-1.558.239-2.477-.074-1.409-.408-2.52-1.004-3.333-.58-.814-1.436-1.192-2.569-1.132zm20.068 3.623c.054 1.026-.036 1.945-.27 2.755-.219.795-.567 1.481-1.044 2.059a4.796 4.796 0 01-1.748 1.358c-.69.313-1.471.492-2.344.537a6.015 6.015 0 01-2.273-.295 5.094 5.094 0 01-1.857-1.17c-.535-.524-.968-1.17-1.3-1.935-.317-.782-.502-1.686-.556-2.712-.072-1.362.098-2.523.508-3.48.41-.974 1.031-1.729 1.862-2.264.831-.55 1.836-.856 3.015-.918 1.118-.058 2.111.143 2.98.604.883.445 1.587 1.13 2.112 2.055.539.908.844 2.044.915 3.406zm-9.302.488c.05.965.217 1.8.5 2.507.297.69.724 1.214 1.28 1.568.556.355 1.247.51 2.074.467.827-.043 1.498-.27 2.014-.68.516-.412.878-.976 1.086-1.693.223-.733.309-1.582.258-2.547-.051-.98-.225-1.808-.522-2.483-.296-.676-.722-1.183-1.277-1.522-.541-.356-1.232-.512-2.074-.468-1.256.066-2.145.528-2.669 1.384-.523.857-.746 2.012-.67 3.467zm21.805-7.292l.556 10.611 1.792-.094.313 5.972-1.953.102-.224-4.272-8.567.45.224 4.271-1.929.101-.313-5.971.987-.052a15.037 15.037 0 001.579-3.284c.413-1.189.702-2.417.866-3.685.178-1.283.242-2.553.192-3.81l6.477-.34zm-4.603 1.83a19.202 19.202 0 01-.312 3.264 21.281 21.281 0 01-.845 3.223c-.345 1.031-.766 1.928-1.264 2.691l5.628-.294-.473-9.027-2.734.143zm7.357-1.975l2.159-.113 3.03 6.866c.18.405.34.796.48 1.173.16.375.3.744.42 1.106.13.346.23.687.31 1.02l.09-.005c.07-.387.19-.892.36-1.515.17-.639.34-1.277.52-1.916l2.14-7.114 2.18-.114-4.57 14.288a8.981 8.981 0 01-.93 2.053c-.35.602-.8 1.07-1.35 1.407-.54.35-1.2.546-2 .588-.37.02-.69.013-.97-.018a6.299 6.299 0 01-.71-.078l-.09-1.608c.17.022.37.042.6.06.25.019.5.02.76.007.48-.025.88-.138 1.21-.34.34-.186.63-.455.85-.804.23-.335.42-.728.56-1.181l.56-1.665-5.609-12.097z" fill="#161513"/><g clip-path="url(#clip4_75_705)" fill-rule="evenodd" clip-rule="evenodd"><path d="M1162.71 40.042l-1.13.723-.38-.563 1.08-.685c.13.187.27.363.43.525zm14.5-18.612l-10.42 13.2 1.01.763 4.43-2.963c1.51-2.601 5.7-8.575 5.9-11.198.07-.944.07-1.062-.92.197z" fill="#E94D35"/><path d="M1166.16 33.825a3.934 3.934 0 00-2.56.338 3.789 3.789 0 00-1.75 1.84 3.669 3.669 0 00-.17 2.505 3.78 3.78 0 001.5 2.035 3.91 3.91 0 004.84-.406c.63-.603 1.03-1.4 1.13-2.257.1-.857-.11-1.72-.59-2.442-.27-.41-.62-.765-1.04-1.041a3.79 3.79 0 00-1.36-.572zm-2.17 1.58a2.565 2.565 0 013.18.337c.41.407.66.94.71 1.508a2.43 2.43 0 01-.44 1.606c-.33.47-.82.814-1.38.974a2.59 2.59 0 01-1.7-.099 2.515 2.515 0 01-1.24-1.128 2.41 2.41 0 01.16-2.527c.19-.266.42-.495.7-.672h.01zm-.23-13.271l11.74 12.04-.93.865-4.71-2.485c-1.78-2.429-6.57-7.931-7.04-10.52-.17-.931-.17-1.05.94.1z" fill="#E94D35"/><path d="M1176.05 33.306a3.933 3.933 0 012.58.07c.82.313 1.5.894 1.94 1.646.43.75.58 1.626.42 2.474-.15.85-.61 1.62-1.28 2.181-.67.561-1.52.878-2.41.896a3.896 3.896 0 01-2.44-.795 3.721 3.721 0 01-1.36-2.126 3.651 3.651 0 01.33-2.49c.23-.437.54-.826.92-1.144.38-.319.83-.56 1.3-.712zm2.33 1.344a2.583 2.583 0 00-3.14.67 2.44 2.44 0 00-.54 1.572c.01.57.22 1.118.6 1.552.38.433.9.725 1.47.825.58.1 1.17.002 1.68-.276.51-.279.91-.721 1.12-1.252.22-.53.24-1.117.06-1.659-.1-.307-.27-.592-.48-.838a2.623 2.623 0 00-.77-.594z" fill="#E94D35"/><path d="M1170.6 30.226a1.3 1.3 0 01.96.07c.14.073.27.172.38.294.11.122.19.263.24.415.1.307.07.64-.08.928a1.254 1.254 0 01-1.21.665 1.315 1.315 0 01-.47-.129 1.359 1.359 0 01-.38-.294 1.152 1.152 0 01-.24-.415 1.2 1.2 0 01.08-.928c.15-.288.41-.506.73-.606h-.01zm.85-.378c-.01.018-.03.03-.06.034a.081.081 0 01-.06-.016.12.12 0 01-.04-.056c0-.022 0-.045.02-.064l6.15-8.122c.02-.018.04-.03.06-.034.03-.003.05.002.07.016.02.013.03.033.03.056.01.022 0 .045-.01.063l-6.16 8.122zm-.96-.059c.01.017.02.039.02.061 0 .023-.01.044-.03.06-.01.015-.04.023-.06.022-.02 0-.05-.01-.06-.027l-6.97-7.435c-.02-.017-.02-.04-.02-.062 0-.023.01-.044.03-.059a.093.093 0 01.06-.022c.03 0 .05.01.06.027l6.97 7.435zm.87.875a.84.84 0 00-.63-.047.846.846 0 00-.39.27.805.805 0 00-.07.892c.08.138.2.25.35.323.09.048.2.076.31.085.1.008.21-.005.32-.038.1-.033.19-.085.28-.154a.805.805 0 00.29-.55c0-.105-.01-.211-.04-.312a.802.802 0 00-.42-.47z" fill="#fff"/><path d="M1165.27 35.927c-.36.019-.71.161-.99.403a1.58 1.58 0 00-.5.921c-.05.355.02.716.21 1.022.19.306.48.54.83.658.35.12.72.118 1.07-.005a1.563 1.563 0 001.03-1.689 1.477 1.477 0 00-.51-.917 1.49 1.49 0 00-.53-.307c-.19-.068-.4-.097-.61-.086zm-1.31.317a1.88 1.88 0 011.12-.59c.43-.064.87.02 1.24.236s.66.553.81.952c.14.399.15.836 0 1.237-.15.4-.43.74-.8.96-.38.22-.81.307-1.25.246a1.91 1.91 0 01-1.12-.578 1.804 1.804 0 01-.48-1.14c-.03-.486.15-.961.48-1.323zm13.19-.939c-.37.019-.72.16-.99.402-.27.24-.44.566-.5.92-.05.353.02.713.21 1.018.19.306.48.538.83.656.34.12.72.117 1.06-.004.35-.122.64-.356.83-.664.18-.307.26-.668.2-1.02a1.508 1.508 0 00-.5-.915 1.71 1.71 0 00-.53-.308 1.63 1.63 0 00-.61-.085zm-1.32.317c.3-.316.69-.525 1.12-.59.43-.064.87.019 1.25.235.37.217.65.553.8.952.15.4.15.837.01 1.237a1.912 1.912 0 01-3.17.629 1.816 1.816 0 01-.49-1.14c-.02-.486.15-.962.48-1.323z" fill="#E94D35"/></g><path d="M1065.82 32.837c.93-.05 1.75.038 2.45.263.7.209 1.26.548 1.67 1.018.41.455.63 1.026.66 1.715.04.75-.13 1.359-.52 1.825-.39.45-.94.794-1.65 1.03v.092c.5.112.96.28 1.39.503.42.224.77.528 1.04.913.28.385.43.89.47 1.519.03.673-.13 1.296-.48 1.867-.34.57-.89 1.037-1.66 1.4-.74.361-1.72.574-2.93.637-.58.03-1.15.03-1.68-.004a8.894 8.894 0 01-1.44-.2c-.42-.101-.8-.228-1.13-.38l-.09-1.814c.53.218 1.15.408 1.87.57.73.161 1.52.22 2.36.176.61-.032 1.16-.13 1.64-.294.5-.164.89-.4 1.16-.705.28-.322.4-.743.37-1.263-.02-.475-.17-.851-.45-1.128-.27-.293-.68-.502-1.21-.628-.51-.127-1.16-.17-1.96-.127l-1.65.086-.09-1.654 1.33-.07c1.06-.055 1.89-.237 2.51-.545.62-.325.92-.832.88-1.52-.03-.583-.29-1.006-.8-1.271-.49-.266-1.19-.376-2.09-.328-.67.035-1.27.135-1.78.3-.5.15-1.05.37-1.65.662l-.79-1.57a9.509 9.509 0 012.03-.752 11.82 11.82 0 012.22-.323zm13.16-.667c1.5-.079 2.63.192 3.38.813.76.62 1.17 1.65 1.25 3.09l.44 8.384-1.47.077-.48-1.725-.1.004c-.32.463-.67.857-1.04 1.184-.35.31-.77.547-1.25.71-.47.163-1.05.262-1.74.298a5 5 0 01-2.02-.285 3.13 3.13 0 01-1.44-1.123c-.36-.533-.57-1.213-.61-2.04-.06-1.225.37-2.192 1.3-2.901.93-.724 2.39-1.17 4.4-1.336l2.08-.179-.03-.735c-.06-1.026-.32-1.726-.78-2.1-.47-.376-1.11-.542-1.92-.5-.64.035-1.25.166-1.82.396-.57.214-1.1.457-1.6.728l-.7-1.483c.52-.32 1.15-.598 1.87-.835a8.26 8.26 0 012.28-.442zm.94 6.538c-1.52.141-2.58.442-3.15.902-.56.46-.82 1.08-.78 1.86.04.69.27 1.184.7 1.484.45.299 1 .431 1.66.396 1.04-.054 1.89-.383 2.55-.985.66-.618.95-1.525.89-2.719l-.06-1.102-1.81.164zm9.77-2.4c.04.719.26 1.245.68 1.576.43.315 1.03.453 1.79.413.77-.04 1.46-.192 2.08-.455.61-.277 1.24-.633 1.88-1.065l-.28-5.283 2.02-.106.64 12.311-2.02.106-.28-5.49c-.67.48-1.33.869-1.99 1.164-.65.28-1.44.444-2.37.493-1.26.066-2.26-.212-2.99-.834-.73-.622-1.12-1.484-1.18-2.587l-.24-4.617 2.02-.106.24 4.48zm14.58-5.256l.65 12.311-2.02.106-.65-12.311 2.02-.106zm-1.23-4.565c.31-.016.58.077.82.28.26.186.4.5.42.945.02.429-.08.757-.32.984-.21.226-.48.347-.78.363-.34.018-.63-.074-.87-.277-.24-.202-.37-.517-.4-.946-.02-.444.08-.772.3-.983.22-.226.49-.348.83-.366zm11.21 16.617c-1.09.057-2.07-.114-2.96-.513-.86-.4-1.56-1.054-2.1-1.962-.53-.91-.83-2.091-.9-3.546-.08-1.516.11-2.762.56-3.738.46-.975 1.1-1.708 1.94-2.197.85-.49 1.82-.764 2.93-.821.62-.033 1.23.004 1.82.111.59.092 1.07.22 1.45.385l-.53 1.71c-.38-.12-.81-.227-1.31-.324a5.73 5.73 0 00-1.39-.111c-.83.043-1.5.255-2.01.635-.52.38-.89.922-1.12 1.625-.22.702-.31 1.567-.25 2.592.05.98.22 1.808.52 2.483.3.676.71 1.176 1.25 1.501.54.325 1.2.467 1.98.426.68-.035 1.26-.135 1.76-.3.51-.165.98-.358 1.4-.58l.09 1.792c-.4.236-.85.421-1.35.555-.49.148-1.08.24-1.78.277zm13.2-13.267l2.2-.115-4.95 6.201 6.03 6.087-2.34.123-5.88-5.956.32 6.247-2.02.106-.64-12.311 2.02-.106.31 5.972 4.95-6.248zm3.42-.18l2.16-.112 3.03 6.865c.18.406.34.797.48 1.173.16.376.3.744.43 1.106.12.347.22.687.3 1.02l.09-.004c.08-.388.2-.893.36-1.516.17-.638.34-1.277.52-1.916l2.14-7.114 2.18-.114-4.57 14.289c-.25.78-.56 1.465-.93 2.052-.35.602-.8 1.071-1.35 1.407-.53.35-1.2.547-2 .588-.36.02-.69.014-.96-.018a6.241 6.241 0 01-.72-.078l-.09-1.607c.17.022.37.042.61.06.24.018.5.02.76.007.47-.025.87-.139 1.2-.34.34-.187.63-.455.85-.805.23-.334.42-.728.56-1.18l.56-1.665-5.61-12.097zm70.65-5.462c2.15-.113 3.73.227 4.76 1.017 1.02.791 1.57 1.952 1.65 3.483a5.46 5.46 0 01-.24 1.97 4.211 4.211 0 01-.99 1.711c-.48.517-1.14.943-1.96 1.278-.83.32-1.86.511-3.08.575l-1.88.1.33 6.384-2.07.109-.86-16.4 4.34-.227zm-.09 1.778l-2.09.11.34 6.477 1.66-.087c1.04-.055 1.9-.207 2.58-.458.67-.265 1.17-.652 1.48-1.16.31-.508.44-1.16.4-1.956-.05-1.056-.43-1.827-1.13-2.312-.7-.486-1.78-.69-3.24-.614zm21.1 7.37c.06 1.026-.03 1.944-.27 2.755-.22.794-.56 1.48-1.04 2.058a4.746 4.746 0 01-1.75 1.358c-.69.313-1.47.492-2.34.538a6.074 6.074 0 01-2.28-.295 5.065 5.065 0 01-1.85-1.17c-.54-.525-.97-1.17-1.3-1.936-.32-.781-.51-1.685-.56-2.711-.07-1.363.1-2.523.51-3.481.41-.974 1.03-1.728 1.86-2.263.83-.55 1.84-.856 3.02-.918 1.11-.059 2.11.143 2.98.604.88.445 1.58 1.13 2.11 2.054.54.908.84 2.044.91 3.407zm-9.3.487c.05.965.22 1.8.5 2.508.3.69.72 1.213 1.28 1.568s1.25.51 2.07.467c.83-.043 1.5-.27 2.02-.681.51-.411.88-.975 1.08-1.693.23-.733.31-1.582.26-2.547-.05-.98-.22-1.807-.52-2.483-.3-.675-.72-1.183-1.28-1.522-.54-.355-1.23-.511-2.07-.467-1.26.066-2.15.527-2.67 1.383-.52.857-.75 2.013-.67 3.467zm12.28-1.864c-.1-1.791 0-3.324.29-4.598.3-1.29.8-2.33 1.52-3.12.72-.806 1.67-1.37 2.85-1.693.99-.267 1.95-.509 2.89-.727.94-.218 1.82-.418 2.64-.599l.44 1.75c-.4.083-.84.183-1.32.3-.49.102-.98.213-1.48.33-.5.104-.99.214-1.46.33-.45.101-.85.2-1.2.294-.5.134-.94.341-1.33.622a3.5 3.5 0 00-.98 1.065 5.55 5.55 0 00-.58 1.62c-.14.637-.2 1.384-.18 2.244l.13-.008c.2-.302.48-.616.83-.941.37-.327.8-.61 1.31-.852.53-.243 1.13-.382 1.8-.417 1.07-.056 1.97.135 2.7.573.75.421 1.32 1.036 1.71 1.845.41.807.65 1.762.7 2.865.08 1.363-.1 2.516-.53 3.46-.42.943-1.05 1.666-1.87 2.17-.81.488-1.78.762-2.9.82-.84.044-1.62-.076-2.32-.362a4.97 4.97 0 01-1.85-1.377c-.52-.617-.94-1.394-1.25-2.33-.31-.935-.5-2.023-.56-3.264zm6.05 5.648c.68-.035 1.25-.203 1.73-.505.49-.302.85-.774 1.1-1.416.24-.643.33-1.484.28-2.526-.07-1.255-.36-2.23-.87-2.925-.5-.711-1.28-1.039-2.35-.982-.68.035-1.28.22-1.82.555-.53.32-.97.681-1.32 1.083-.35.402-.59.737-.73 1.006.04.75.13 1.475.27 2.173.15.7.36 1.325.65 1.878.31.537.71.961 1.2 1.273.51.296 1.13.425 1.86.386zm10.86-3.932c.01.138.01.338.01.599.01.245.02.513.02.805v.806c-.01.246-.01.446-.02.6l6.05-10.659 2.48-.13.65 12.311-1.88.1-.38-7.259c-.02-.245-.03-.566-.05-.965-.01-.399-.02-.79-.02-1.173-.01-.4-.01-.699 0-.898l-6.01 10.632-2.5.132-.65-12.311 1.91-.1.39 7.51zm26.15-8.901l.64 12.31-1.81.096-.41-7.855c-.02-.322-.03-.66-.03-1.012.01-.354.02-.7.04-1.038l-.07.003-3.5 10.11-1.7.09-4.43-9.695-.07.003c.05.335.09.68.1 1.031.04.352.06.711.08 1.079l.41 7.786-1.81.095-.65-12.311 2.69-.14 4.4 9.695 3.43-10.106 2.69-.141z" fill="#161513"/><defs><clipPath id="clip0_75_705"><path fill="#fff" transform="rotate(-3 1563.488 -221.69)" d="M0 0h20v20H0z"/></clipPath><clipPath id="clip1_75_705"><path fill="#fff" transform="rotate(-3 1389.149 -6879.443)" d="M0 0h20v20H0z"/></clipPath><clipPath id="clip2_75_705"><path fill="#fff" transform="rotate(-3 1272.965 -11316.263)" d="M0 0h20v20H0z"/></clipPath><clipPath id="clip3_75_705"><path fill="#fff" transform="rotate(-3 1181.28 -14817.597)" d="M0 0h20v20H0z"/></clipPath><clipPath id="clip4_75_705"><path fill="#fff" transform="rotate(-3 989.467 -22142.788)" d="M0 0h20v20H0z"/></clipPath></defs></svg>