<svg width="1512" height="130" fill="none" xmlns="http://www.w3.org/2000/svg"><path fill="#F2F1EF" d="M-2 79.548L1515.857 0l2.617 49.932L.617 129.479z"/><g clip-path="url(#clip0_73_329)" fill-rule="evenodd" clip-rule="evenodd"><path d="M19.257 112.188l-1.137.723-.376-.563 1.078-.685c.13.187.275.363.435.525zm14.492-18.612l-10.42 13.201 1.019.763 4.42-2.964c1.517-2.601 5.708-8.574 5.905-11.198.074-.944.068-1.062-.924.198z" fill="#E94D35"/><path d="M22.698 105.972a3.907 3.907 0 00-2.551.337 3.782 3.782 0 00-1.757 1.84 3.643 3.643 0 00-.165 2.506 3.714 3.714 0 001.503 2.034 3.884 3.884 0 002.488.64 3.875 3.875 0 002.342-1.046 3.703 3.703 0 001.135-2.257c.1-.856-.109-1.72-.589-2.442a3.736 3.736 0 00-1.037-1.041 3.83 3.83 0 00-1.369-.571zm-2.17 1.579a2.577 2.577 0 011.656-.387 2.54 2.54 0 011.53.725c.407.407.657.94.707 1.507a2.423 2.423 0 01-.435 1.606c-.331.47-.82.815-1.38.975a2.592 2.592 0 01-1.699-.099 2.496 2.496 0 01-1.245-1.128 2.407 2.407 0 01-.227-1.644 2.447 2.447 0 011.09-1.555h.004zm-.221-13.271l11.738 12.04-.934.865-4.704-2.485c-1.781-2.428-6.573-7.931-7.044-10.52-.168-.93-.174-1.049.944.1z" fill="#E94D35"/><path d="M32.597 105.453a3.908 3.908 0 012.573.069 3.778 3.778 0 011.94 1.646c.43.751.58 1.626.425 2.475a3.716 3.716 0 01-1.282 2.18 3.884 3.884 0 01-2.407.896 3.868 3.868 0 01-2.44-.795 3.705 3.705 0 01-1.364-2.125 3.648 3.648 0 01.33-2.491 3.73 3.73 0 01.923-1.144c.382-.318.824-.56 1.302-.711zm2.323 1.343a2.579 2.579 0 00-3.132.669 2.42 2.42 0 00.054 3.125c.379.434.9.725 1.475.825.575.1 1.168.003 1.678-.276a2.49 2.49 0 001.121-1.252 2.407 2.407 0 00-.424-2.496 2.507 2.507 0 00-.772-.595z" fill="#E94D35"/><path d="M27.146 102.373a1.26 1.26 0 011.336.364 1.193 1.193 0 01.161 1.342c-.15.288-.41.507-.723.608a1.28 1.28 0 01-.953-.071 1.243 1.243 0 01-.383-.295 1.193 1.193 0 01-.16-1.343c.15-.288.412-.505.726-.606l-.004.001zm.848-.379a.088.088 0 01-.057.034.088.088 0 01-.1-.071.087.087 0 01.015-.065l6.156-8.122a.091.091 0 01.124-.018.085.085 0 01.019.12l-6.157 8.122zm-.962-.059a.086.086 0 01-.006.121.09.09 0 01-.126-.005l-6.967-7.434a.084.084 0 01.01-.121.092.092 0 01.125.005l6.963 7.434zm.876.875a.852.852 0 00-.631-.047.826.826 0 00-.392.27.796.796 0 00.273 1.215.837.837 0 00.913-.107.816.816 0 00.288-.55.79.79 0 00-.196-.586.819.819 0 00-.255-.195z" fill="#fff"/><path d="M21.815 108.073a1.61 1.61 0 00-.987.403c-.272.241-.45.567-.503.922-.053.354.02.715.21 1.022.19.306.482.538.828.658.346.119.724.117 1.07-.005.345-.122.636-.358.824-.666a1.517 1.517 0 00-.3-1.941 1.623 1.623 0 00-1.141-.393zm-1.313.318a1.901 1.901 0 011.117-.59c.43-.064.87.019 1.244.235.374.217.66.553.807.952.148.399.15.836.003 1.237-.145.401-.43.74-.802.96-.373.22-.813.307-1.243.247a1.896 1.896 0 01-1.12-.578 1.81 1.81 0 01-.487-1.141 1.81 1.81 0 01.48-1.322zm13.188-.94a1.606 1.606 0 00-.983.402 1.536 1.536 0 00-.501.92 1.51 1.51 0 00.21 1.019c.188.305.48.537.825.656s.722.117 1.066-.005c.345-.122.636-.356.823-.663a1.514 1.514 0 00-.298-1.936 1.585 1.585 0 00-1.141-.393zm-1.313.317a1.913 1.913 0 012.361-.354c.375.216.66.553.808.952.147.399.148.836.003 1.237-.146.4-.43.74-.803.96-.373.22-.812.307-1.243.247a1.892 1.892 0 01-1.12-.579 1.805 1.805 0 01-.006-2.463z" fill="#E94D35"/></g><path d="M239.083 92.322l-4.019.21.556 10.612-1.999.105-.556-10.612-3.973.209-.089-1.7 9.991-.524.089 1.7zm7.467-2.303c1.501-.079 2.628.192 3.382.813.755.62 1.169 1.65 1.245 3.09l.439 8.384-1.47.077-.482-1.725-.092.004a7.021 7.021 0 01-1.043 1.184c-.352.31-.77.547-1.253.71-.467.163-1.045.262-1.734.298-.735.039-1.408-.056-2.019-.285a3.077 3.077 0 01-1.441-1.123c-.366-.533-.57-1.213-.614-2.04-.064-1.225.369-2.192 1.299-2.901.93-.724 2.396-1.17 4.399-1.336l2.086-.179-.038-.735c-.054-1.025-.314-1.726-.778-2.1-.465-.376-1.104-.542-1.915-.5a5.643 5.643 0 00-1.822.396 12.06 12.06 0 00-1.597.728l-.7-1.483c.521-.32 1.144-.598 1.868-.835a8.174 8.174 0 012.28-.442zm.942 6.538c-1.528.141-2.58.442-3.154.902-.56.46-.819 1.08-.778 1.86.036.689.269 1.184.699 1.484.446.299.998.431 1.656.397 1.042-.055 1.892-.384 2.551-.986.659-.618.957-1.525.894-2.719l-.057-1.102-1.811.164zM66.33 111.015l-2.343.123-4.715-6.893-4.036 7.351-2.182.115 4.995-8.83-5.51-7.588 2.296-.12 4.357 6.22 3.705-6.643 2.182-.114-4.666 8.075 5.916 8.304zm12.9-6.872c.055 1.026-.035 1.944-.27 2.755-.219.795-.566 1.481-1.043 2.059a4.807 4.807 0 01-1.748 1.358c-.69.312-1.472.492-2.344.537a6.015 6.015 0 01-2.273-.295 5.095 5.095 0 01-1.858-1.17c-.534-.524-.967-1.17-1.299-1.935-.317-.782-.503-1.686-.556-2.712-.072-1.363.098-2.523.508-3.481.41-.974 1.03-1.728 1.862-2.263.831-.55 1.836-.856 3.015-.918 1.118-.058 2.111.143 2.98.604.883.445 1.587 1.13 2.111 2.054.54.909.844 2.044.916 3.407zm-9.301.488c.05.964.217 1.8.5 2.507.297.691.723 1.213 1.28 1.568.555.355 1.247.511 2.074.467.827-.043 1.498-.27 2.014-.681.516-.411.878-.975 1.086-1.692.222-.734.308-1.583.258-2.547-.052-.98-.226-1.808-.522-2.483-.296-.676-.722-1.183-1.277-1.523-.541-.355-1.232-.51-2.075-.467-1.255.066-2.145.527-2.668 1.384-.523.856-.746 2.012-.67 3.467zm14.442-2.415c.038.719.265 1.245.682 1.576.43.315 1.03.453 1.795.413.765-.041 1.456-.192 2.072-.454a12.671 12.671 0 001.879-1.066l-.277-5.283 2.021-.106.645 12.311-2.021.106-.288-5.489a11.3 11.3 0 01-1.989 1.163c-.645.28-1.435.444-2.369.493-1.256.066-2.253-.212-2.992-.834-.723-.622-1.114-1.484-1.172-2.587l-.242-4.616 2.022-.106.234 4.479zm17.305-5.629c1.056-.055 1.972.127 2.746.547.79.42 1.406 1.04 1.848 1.861.457.805.715 1.767.773 2.884l.064 1.218-8.43.442c.104 1.391.512 2.437 1.224 3.137.727.683 1.703.993 2.928.929.781-.041 1.466-.146 2.056-.315a12.487 12.487 0 001.85-.742l.093 1.769a9.06 9.06 0 01-1.829.694c-.606.17-1.329.277-2.172.321-1.163.061-2.209-.122-3.138-.549-.913-.428-1.646-1.096-2.2-2.004-.54-.923-.846-2.067-.917-3.429-.07-1.348.09-2.516.484-3.504.409-.988 1.005-1.764 1.79-2.328.8-.563 1.743-.874 2.83-.93zm.064 1.655c-.965.05-1.714.405-2.248 1.062-.52.641-.803 1.516-.853 2.624l6.271-.328c-.037-.705-.177-1.311-.418-1.82a2.598 2.598 0 00-1.052-1.166c-.444-.284-1.011-.408-1.7-.372zm25.335-2.756l.646 12.311-16.698.876-.646-12.312 2.022-.106.556 10.612 5.305-.278-.556-10.612 2.022-.106.556 10.612 5.328-.279-.556-10.612 2.021-.106zm10.478 4.38c-.094-1.792.002-3.324.288-4.598.301-1.29.807-2.33 1.518-3.12.726-.806 1.679-1.37 2.86-1.693a81.81 81.81 0 012.886-.727c.941-.218 1.821-.418 2.641-.6l.437 1.751a41.69 41.69 0 00-1.32.3c-.486.102-.979.212-1.48.33-.501.104-.987.214-1.457.33a26.15 26.15 0 00-1.205.294c-.5.134-.942.341-1.326.622-.385.266-.712.62-.981 1.065-.253.443-.447.983-.583 1.62-.135.636-.196 1.384-.182 2.243l.138-.007c.199-.302.475-.616.826-.942.367-.326.805-.61 1.314-.851.525-.243 1.124-.382 1.798-.417 1.072-.056 1.972.135 2.702.572.743.422 1.313 1.037 1.708 1.845.411.808.646 1.763.703 2.866.072 1.362-.106 2.516-.532 3.459-.427.944-1.049 1.667-1.867 2.171-.819.488-1.787.761-2.905.82-.842.044-1.617-.077-2.322-.362a4.941 4.941 0 01-1.846-1.377c-.524-.618-.941-1.394-1.251-2.33-.31-.936-.497-2.024-.562-3.264zm6.054 5.648c.673-.035 1.248-.204 1.724-.505.49-.302.857-.774 1.1-1.417.243-.642.337-1.484.282-2.525-.066-1.255-.355-2.23-.867-2.925-.498-.711-1.283-1.039-2.355-.983a3.721 3.721 0 00-1.813.556c-.536.32-.978.68-1.325 1.083-.348.402-.591.737-.731 1.006.04.75.131 1.474.275 2.173.145.699.362 1.325.652 1.878.304.536.703.961 1.195 1.273.507.296 1.128.424 1.863.386zm19.585-5.771c.054 1.026-.036 1.944-.27 2.755-.22.794-.567 1.481-1.044 2.058a4.801 4.801 0 01-1.748 1.359c-.69.312-1.471.491-2.344.537a6.017 6.017 0 01-2.273-.295 5.105 5.105 0 01-1.858-1.17c-.534-.525-.967-1.17-1.299-1.935-.317-.782-.503-1.686-.556-2.712-.072-1.363.098-2.523.508-3.481.41-.974 1.03-1.728 1.862-2.263.831-.55 1.836-.856 3.015-.918 1.118-.059 2.111.143 2.98.604.883.445 1.587 1.13 2.111 2.054.539.909.845 2.044.916 3.407zm-9.302.487c.05.965.217 1.801.5 2.508.297.69.723 1.213 1.279 1.568.556.355 1.248.51 2.075.467.827-.043 1.498-.27 2.014-.681.516-.411.878-.975 1.086-1.693.222-.733.308-1.582.258-2.546-.052-.98-.225-1.808-.522-2.484-.296-.675-.722-1.182-1.277-1.522-.541-.355-1.232-.511-2.075-.467-1.255.066-2.145.527-2.668 1.384-.523.856-.746 2.012-.67 3.466zm18.508-7.35c1.516-.079 2.761.386 3.735 1.394.99 1.008 1.54 2.576 1.652 4.704.073 1.394-.08 2.584-.458 3.571-.364.971-.915 1.722-1.655 2.252-.726.514-1.602.798-2.627.851-.628.033-1.192-.022-1.69-.164a4.654 4.654 0 01-1.297-.577 5.364 5.364 0 01-.92-.85l-.138.007c.044.259.092.586.144.983.051.396.085.74.1 1.031l.265 5.053-2.022.106-.934-17.824 1.654-.086.364 1.662.091-.005a5.2 5.2 0 01.823-1.01 4.06 4.06 0 011.204-.754c.481-.195 1.051-.309 1.709-.343zm-.278 1.72c-.827.043-1.485.239-1.973.587-.489.332-.832.819-1.029 1.459-.197.64-.278 1.442-.243 2.408l.021.39c.053 1.011.205 1.863.456 2.556.252.693.64 1.21 1.164 1.551.54.34 1.254.487 2.142.44.75-.039 1.352-.278 1.805-.716.468-.439.799-1.017.992-1.733.207-.733.287-1.558.238-2.477-.073-1.409-.408-2.52-1.003-3.333-.58-.814-1.437-1.192-2.57-1.132zm20.068 3.623c.054 1.026-.036 1.945-.27 2.755-.219.795-.567 1.481-1.044 2.059a4.79 4.79 0 01-1.748 1.358c-.69.313-1.471.492-2.344.537a6.012 6.012 0 01-2.272-.295 5.099 5.099 0 01-1.858-1.169c-.534-.525-.967-1.17-1.299-1.936-.318-.782-.503-1.686-.557-2.712-.071-1.362.098-2.523.508-3.481.41-.974 1.031-1.728 1.863-2.263.831-.55 1.836-.856 3.015-.918 1.118-.058 2.111.143 2.979.604.884.445 1.587 1.13 2.112 2.055.539.908.844 2.044.915 3.406zm-9.302.488c.051.965.217 1.8.5 2.507.297.691.724 1.214 1.28 1.568.556.355 1.247.511 2.074.467.827-.043 1.498-.27 2.014-.681.516-.411.878-.975 1.086-1.692.223-.733.309-1.582.258-2.547-.051-.98-.225-1.808-.521-2.483-.297-.676-.723-1.183-1.278-1.522-.541-.356-1.232-.512-2.074-.468-1.256.066-2.145.527-2.668 1.384-.524.856-.747 2.012-.671 3.467zm21.805-7.292l.556 10.611 1.792-.094.313 5.972-1.953.102-.223-4.272-8.568.449.224 4.272-1.929.101-.313-5.971.988-.052a14.997 14.997 0 001.578-3.284c.414-1.189.702-2.417.866-3.685a21.29 21.29 0 00.192-3.81l6.477-.34zm-4.602 1.83a19.311 19.311 0 01-.313 3.264 21.4 21.4 0 01-.844 3.222c-.346 1.032-.767 1.929-1.264 2.692l5.627-.295-.473-9.026-2.733.143zm7.357-1.975l2.159-.113 3.031 6.866c.175.405.334.796.476 1.173.158.375.3.744.427 1.106.125.346.228.686.306 1.02l.092-.005c.072-.387.192-.893.359-1.516.166-.638.339-1.276.521-1.915l2.138-7.114 2.182-.114-4.572 14.288a9.067 9.067 0 01-.929 2.053 3.937 3.937 0 01-1.354 1.407c-.534.35-1.2.546-1.996.588-.367.019-.69.013-.968-.018a6.384 6.384 0 01-.718-.078l-.084-1.608c.17.022.37.042.602.061.246.018.5.02.76.006.475-.025.876-.138 1.203-.339.343-.187.628-.456.856-.805.228-.335.415-.728.56-1.181l.557-1.665-5.608-12.097z" fill="#161513"/><g clip-path="url(#clip1_73_329)" fill-rule="evenodd" clip-rule="evenodd"><path d="M367.458 93.94l-1.137.722-.377-.562 1.079-.685c.129.187.275.363.435.525zm14.492-18.613L371.529 88.53l1.02.762 4.42-2.963c1.517-2.601 5.707-8.575 5.905-11.198.074-.944.068-1.062-.924.197z" fill="#E94D35"/><path d="M370.899 87.723a3.908 3.908 0 00-2.551.338 3.776 3.776 0 00-1.757 1.84 3.639 3.639 0 00-.165 2.505 3.717 3.717 0 001.503 2.035 3.887 3.887 0 002.487.64 3.875 3.875 0 002.343-1.047 3.706 3.706 0 001.135-2.256 3.652 3.652 0 00-.589-2.443 3.74 3.74 0 00-1.037-1.04 3.842 3.842 0 00-1.369-.572zm-2.17 1.58a2.58 2.58 0 011.656-.388 2.544 2.544 0 011.529.725 2.42 2.42 0 01.272 3.113 2.53 2.53 0 01-1.38.975 2.582 2.582 0 01-1.698-.099 2.489 2.489 0 01-1.245-1.128 2.408 2.408 0 01.159-2.527c.187-.266.426-.495.703-.672h.004zm-.221-13.272l11.738 12.041-.934.865-4.705-2.486c-1.78-2.428-6.572-7.93-7.043-10.519-.168-.931-.174-1.05.944.1z" fill="#E94D35"/><path d="M380.798 87.204a3.91 3.91 0 012.573.07 3.78 3.78 0 011.939 1.645c.431.752.582 1.627.426 2.475a3.726 3.726 0 01-1.282 2.18 3.886 3.886 0 01-2.407.897 3.876 3.876 0 01-2.44-.795 3.708 3.708 0 01-1.364-2.126 3.646 3.646 0 01.331-2.49 3.72 3.72 0 01.922-1.144 3.84 3.84 0 011.302-.712zm2.323 1.344a2.58 2.58 0 00-1.687-.212 2.541 2.541 0 00-1.445.881 2.43 2.43 0 00-.546 1.573c.01.57.222 1.118.6 1.552.379.433.9.725 1.475.825a2.58 2.58 0 001.678-.276 2.49 2.49 0 001.121-1.252 2.41 2.41 0 00-.425-2.497 2.491 2.491 0 00-.771-.594z" fill="#E94D35"/><path d="M375.347 84.124a1.275 1.275 0 01.954.07 1.231 1.231 0 01.619.71c.101.306.074.64-.076.927a1.245 1.245 0 01-1.207.665 1.269 1.269 0 01-.852-.423 1.187 1.187 0 01-.16-1.343 1.24 1.24 0 01.726-.606h-.004zm.848-.379a.088.088 0 01-.058.035.089.089 0 01-.065-.016.083.083 0 01-.035-.056.082.082 0 01.016-.064l6.156-8.122a.09.09 0 01.124-.018.082.082 0 01.034.056.08.08 0 01-.016.063l-6.156 8.122zm-.963-.058a.083.083 0 01.023.061.085.085 0 01-.028.06.093.093 0 01-.126-.005l-6.967-7.435a.084.084 0 01.009-.12.092.092 0 01.126.004l6.963 7.435zm.877.875a.848.848 0 00-.632-.047.83.83 0 00-.391.27.784.784 0 00-.071.892.81.81 0 00.344.322.842.842 0 001.112-.354.786.786 0 00-.362-1.083z" fill="#fff"/><path d="M370.016 89.825a1.612 1.612 0 00-.987.403 1.517 1.517 0 00-.293 1.944c.189.306.482.538.828.657a1.613 1.613 0 001.894-.67 1.517 1.517 0 00-.301-1.941 1.615 1.615 0 00-1.141-.393zm-1.313.317a1.92 1.92 0 012.361-.355c.374.217.659.553.807.953.148.399.149.836.003 1.237-.146.4-.429.74-.802.96-.373.22-.813.307-1.244.246a1.889 1.889 0 01-1.119-.578 1.806 1.806 0 01-.006-2.463zm13.189-.939a1.61 1.61 0 00-.985.402 1.515 1.515 0 00-.291 1.938c.189.306.481.537.826.656a1.62 1.62 0 001.066-.004 1.58 1.58 0 00.823-.664 1.514 1.514 0 00-.298-1.936 1.587 1.587 0 00-1.141-.392zm-1.314.317a1.918 1.918 0 012.361-.354c.374.216.66.552.807.951.148.4.149.837.003 1.237-.145.4-.429.74-.802.96a1.92 1.92 0 01-1.243.247 1.892 1.892 0 01-1.12-.578 1.807 1.807 0 01-.487-1.141c-.025-.485.148-.96.481-1.322z" fill="#E94D35"/></g><path d="M270.562 86.735c.934-.05 1.752.038 2.455.263.702.209 1.257.548 1.665 1.018.408.455.63 1.026.666 1.715.039.75-.136 1.359-.526 1.825-.391.45-.941.794-1.651 1.03l.005.092c.497.112.959.28 1.385.503a2.84 2.84 0 011.039.913c.281.385.438.89.471 1.519a3.155 3.155 0 01-.478 1.867c-.339.57-.89 1.037-1.654 1.4-.749.361-1.728.574-2.938.637a14.7 14.7 0 01-1.681-.004 9.059 9.059 0 01-1.439-.2 6.173 6.173 0 01-1.125-.38l-.095-1.814c.533.218 1.157.408 1.872.57.73.161 1.516.22 2.359.176a6.108 6.108 0 001.642-.294c.499-.164.885-.4 1.161-.705.275-.322.399-.743.372-1.263-.025-.475-.176-.851-.451-1.128-.276-.293-.679-.502-1.208-.628-.513-.127-1.168-.17-1.964-.127l-1.654.086-.086-1.653 1.332-.07c1.056-.056 1.891-.238 2.505-.546.628-.325.923-.832.887-1.52-.03-.583-.298-1.006-.803-1.271-.49-.266-1.187-.376-2.09-.328-.674.035-1.268.135-1.781.3-.499.15-1.048.37-1.647.662l-.796-1.57a9.537 9.537 0 012.034-.752 11.835 11.835 0 012.217-.323zm13.164-.667c1.501-.079 2.628.192 3.382.813.755.62 1.169 1.65 1.245 3.09l.439 8.384-1.47.077-.482-1.725-.092.004a7.007 7.007 0 01-1.043 1.184c-.352.31-.77.547-1.253.71-.467.163-1.045.262-1.734.298-.735.039-1.408-.056-2.019-.285a3.079 3.079 0 01-1.441-1.122c-.366-.534-.57-1.214-.614-2.041-.064-1.225.369-2.192 1.299-2.901.93-.725 2.396-1.17 4.399-1.336l2.086-.179-.038-.735c-.054-1.026-.314-1.726-.779-2.1-.464-.376-1.103-.542-1.914-.5a5.645 5.645 0 00-1.822.396 12.06 12.06 0 00-1.597.728l-.7-1.483c.521-.32 1.144-.597 1.868-.835a8.174 8.174 0 012.28-.442zm.942 6.538c-1.528.141-2.58.442-3.155.902-.559.46-.818 1.08-.777 1.86.036.69.269 1.184.699 1.484.446.299.998.431 1.656.397 1.042-.055 1.892-.384 2.551-.986.659-.618.957-1.525.894-2.719l-.058-1.102-1.81.164zm9.764-2.4c.038.719.265 1.245.681 1.576.431.315 1.03.453 1.795.412.766-.04 1.457-.191 2.072-.454a12.584 12.584 0 001.879-1.065l-.277-5.283 2.022-.106.645 12.311-2.021.106-.288-5.49a11.32 11.32 0 01-1.989 1.164c-.645.28-1.435.444-2.369.493-1.256.066-2.253-.212-2.992-.834-.724-.622-1.114-1.484-1.172-2.587l-.242-4.617 2.021-.105.235 4.478zm14.583-5.256l.646 12.311-2.022.106-.645-12.311 2.021-.106zm-1.229-4.565c.306-.016.58.077.82.28.256.186.395.5.419.945.022.429-.084.757-.317.984a1.144 1.144 0 01-.787.364 1.2 1.2 0 01-.867-.278c-.241-.202-.373-.517-.395-.946-.023-.444.075-.772.294-.983.218-.226.496-.348.833-.366zm11.204 16.617c-1.087.057-2.071-.114-2.951-.513-.866-.4-1.568-1.054-2.107-1.962-.524-.91-.824-2.091-.9-3.546-.079-1.516.109-2.762.564-3.738.456-.976 1.101-1.708 1.935-2.197.85-.49 1.826-.764 2.928-.821a7.855 7.855 0 011.825.111c.589.092 1.071.22 1.448.385l-.532 1.71c-.375-.12-.81-.227-1.307-.324a5.7 5.7 0 00-1.387-.111c-.827.043-1.499.255-2.017.635-.517.38-.888.922-1.112 1.624-.224.703-.31 1.568-.256 2.593.051.98.225 1.808.522 2.484.296.675.714 1.175 1.253 1.5.539.325 1.199.467 1.98.426.674-.035 1.26-.135 1.758-.3a8.624 8.624 0 001.397-.58l.094 1.792a5.44 5.44 0 01-1.353.555c-.483.148-1.077.24-1.782.277zm13.201-13.267l2.205-.115-4.949 6.201 6.031 6.087-2.343.123-5.886-5.956.327 6.247-2.021.106-.645-12.311 2.021-.106.313 5.972 4.947-6.248zm3.426-.18l2.159-.112 3.032 6.865c.174.406.333.797.476 1.173.158.376.3.744.426 1.106.126.347.228.687.307 1.02l.092-.004c.072-.388.191-.893.358-1.516.166-.638.34-1.277.521-1.916l2.138-7.114 2.182-.114-4.571 14.289a9.098 9.098 0 01-.929 2.052 3.953 3.953 0 01-1.354 1.407c-.535.351-1.2.547-1.996.588-.368.02-.691.014-.969-.018a6.433 6.433 0 01-.718-.077l-.084-1.608c.17.022.371.042.602.06.247.018.5.02.76.007.475-.025.876-.139 1.203-.34a2.35 2.35 0 00.856-.805c.228-.334.415-.728.56-1.18l.558-1.665-5.609-12.097z" fill="#161513"/><g clip-path="url(#clip2_73_329)" fill-rule="evenodd" clip-rule="evenodd"><path d="M599.504 81.779l-1.137.722-.376-.562 1.078-.685c.129.187.275.363.435.525zm14.492-18.613l-10.421 13.202 1.02.762 4.42-2.963c1.517-2.601 5.708-8.575 5.905-11.198.074-.944.068-1.062-.924.197z" fill="#E94D35"/><path d="M602.946 75.562a3.911 3.911 0 00-2.552.338 3.776 3.776 0 00-1.757 1.84 3.644 3.644 0 00-.164 2.505 3.72 3.72 0 001.502 2.035 3.888 3.888 0 002.488.64 3.874 3.874 0 002.343-1.046 3.7 3.7 0 001.134-2.257 3.64 3.64 0 00-.589-2.443 3.728 3.728 0 00-1.037-1.04 3.845 3.845 0 00-1.368-.572zm-2.17 1.58a2.579 2.579 0 011.655-.388 2.544 2.544 0 011.529.725c.408.407.658.94.708 1.508a2.426 2.426 0 01-.435 1.606c-.331.47-.819.814-1.38.974a2.586 2.586 0 01-1.699-.099 2.492 2.492 0 01-1.245-1.128 2.428 2.428 0 01.159-2.527c.187-.266.426-.495.704-.672h.004zm-.222-13.272l11.738 12.041-.934.865-4.704-2.486c-1.781-2.428-6.573-7.93-7.043-10.52-.169-.93-.175-1.048.943.1z" fill="#E94D35"/><path d="M612.844 75.043a3.91 3.91 0 012.573.07 3.776 3.776 0 011.939 1.645 3.64 3.64 0 01.426 2.475 3.716 3.716 0 01-1.282 2.18 3.886 3.886 0 01-2.407.897 3.872 3.872 0 01-2.439-.795 3.704 3.704 0 01-1.365-2.126 3.651 3.651 0 01.331-2.49c.227-.437.541-.826.922-1.144.382-.319.824-.56 1.302-.712zm2.323 1.344a2.58 2.58 0 00-1.687-.212 2.544 2.544 0 00-1.445.881 2.42 2.42 0 00.055 3.125 2.53 2.53 0 001.474.825 2.59 2.59 0 001.679-.276c.51-.279.906-.721 1.12-1.252.215-.53.234-1.117.054-1.659a2.434 2.434 0 00-.478-.838 2.505 2.505 0 00-.772-.594z" fill="#E94D35"/><path d="M607.394 71.963a1.273 1.273 0 01.953.07 1.233 1.233 0 01.619.71c.101.306.074.64-.075.927a1.25 1.25 0 01-1.208.665 1.265 1.265 0 01-.851-.423 1.192 1.192 0 01-.161-1.343c.15-.288.412-.506.726-.606h-.003zm.847-.379a.086.086 0 01-.057.035.09.09 0 01-.066-.016.087.087 0 01-.035-.056.082.082 0 01.016-.064l6.156-8.122a.093.093 0 01.125-.018.09.09 0 01.034.056.09.09 0 01-.016.063l-6.157 8.122zm-.962-.058a.085.085 0 01-.006.12.09.09 0 01-.125-.004l-6.968-7.435a.084.084 0 01.009-.12.094.094 0 01.064-.023.09.09 0 01.062.027l6.964 7.435zm.876.875a.845.845 0 00-.631-.047.828.828 0 00-.392.27.791.791 0 00-.071.892.835.835 0 00.975.37.833.833 0 00.481-.402.785.785 0 00-.107-.889.825.825 0 00-.255-.194z" fill="#fff"/><path d="M602.063 77.664a1.613 1.613 0 00-.988.403 1.517 1.517 0 00-.293 1.944c.19.305.482.538.828.657.346.12.724.117 1.069-.005a1.58 1.58 0 00.825-.665 1.517 1.517 0 00-.3-1.941 1.595 1.595 0 00-1.141-.393zm-1.314.317a1.918 1.918 0 012.361-.355c.374.217.66.553.807.953.148.399.149.836.003 1.237-.145.4-.429.74-.802.96a1.92 1.92 0 01-1.243.246 1.892 1.892 0 01-1.12-.578 1.807 1.807 0 01-.487-1.14 1.815 1.815 0 01.481-1.323zm13.189-.94a1.61 1.61 0 00-.984.403 1.536 1.536 0 00-.501.92c-.053.353.021.713.21 1.018.188.306.48.537.825.656a1.62 1.62 0 001.066-.004c.345-.122.636-.357.823-.664.188-.307.261-.668.206-1.02a1.524 1.524 0 00-.504-.915 1.613 1.613 0 00-1.141-.393zm-1.314.318a1.92 1.92 0 012.362-.355c.374.217.659.553.807.952.147.4.149.837.003 1.237-.146.4-.43.74-.803.96-.373.22-.812.307-1.243.247a1.892 1.892 0 01-1.12-.578 1.807 1.807 0 01-.487-1.141c-.025-.485.148-.96.481-1.322z" fill="#E94D35"/></g><g clip-path="url(#clip3_73_329)" fill-rule="evenodd" clip-rule="evenodd"><path d="M782.624 72.182l-1.137.723-.376-.563 1.078-.685c.129.187.275.363.435.525zm14.492-18.612l-10.421 13.2 1.02.763 4.42-2.963c1.517-2.601 5.708-8.575 5.905-11.198.074-.944.068-1.062-.924.197z" fill="#E94D35"/><path d="M786.066 65.965a3.911 3.911 0 00-2.552.338 3.776 3.776 0 00-1.757 1.84 3.644 3.644 0 00-.164 2.505 3.72 3.72 0 001.502 2.035 3.888 3.888 0 002.488.64 3.874 3.874 0 002.343-1.046 3.7 3.7 0 001.134-2.257 3.64 3.64 0 00-.589-2.442 3.727 3.727 0 00-1.037-1.041 3.845 3.845 0 00-1.368-.572zm-2.17 1.58a2.579 2.579 0 011.655-.388 2.544 2.544 0 011.529.725c.408.407.658.94.708 1.508a2.426 2.426 0 01-.435 1.606c-.331.47-.819.815-1.38.974a2.586 2.586 0 01-1.699-.099 2.492 2.492 0 01-1.245-1.128 2.428 2.428 0 01.159-2.527c.187-.266.426-.495.704-.672h.004zm-.222-13.271l11.738 12.04-.934.865-4.704-2.485c-1.781-2.429-6.573-7.931-7.043-10.52-.169-.931-.175-1.05.943.1z" fill="#E94D35"/><path d="M795.964 65.447a3.91 3.91 0 012.573.069 3.776 3.776 0 011.939 1.645 3.64 3.64 0 01.426 2.475 3.716 3.716 0 01-1.282 2.181 3.884 3.884 0 01-2.407.896 3.872 3.872 0 01-2.439-.795 3.698 3.698 0 01-1.364-2.126 3.645 3.645 0 01.33-2.49c.227-.437.541-.826.923-1.144a3.84 3.84 0 011.301-.712zm2.323 1.343a2.58 2.58 0 00-1.687-.212 2.544 2.544 0 00-1.445.881 2.42 2.42 0 00.055 3.125 2.53 2.53 0 001.474.825 2.59 2.59 0 001.679-.276c.51-.279.906-.721 1.12-1.252.215-.53.234-1.117.054-1.659a2.434 2.434 0 00-.478-.838 2.505 2.505 0 00-.772-.594z" fill="#E94D35"/><path d="M790.514 62.366a1.273 1.273 0 01.953.07 1.233 1.233 0 01.619.71c.102.306.074.64-.075.927a1.25 1.25 0 01-1.208.665 1.267 1.267 0 01-.851-.423 1.192 1.192 0 01-.161-1.343c.15-.288.412-.506.726-.606h-.003zm.848-.379a.09.09 0 01-.124.02.087.087 0 01-.035-.057.082.082 0 01.016-.064l6.156-8.122a.092.092 0 01.125-.018.09.09 0 01.034.056.09.09 0 01-.016.063l-6.156 8.122zm-.963-.058a.085.085 0 01-.006.12.09.09 0 01-.125-.004L783.3 54.61a.084.084 0 01.009-.12.094.094 0 01.064-.023.09.09 0 01.062.027l6.964 7.435zm.876.875a.845.845 0 00-.631-.047.828.828 0 00-.392.27.791.791 0 00-.071.892.835.835 0 00.975.37.833.833 0 00.481-.402.785.785 0 00-.107-.889.825.825 0 00-.255-.194z" fill="#fff"/><path d="M785.183 68.067a1.613 1.613 0 00-.988.403 1.517 1.517 0 00-.293 1.944c.19.305.482.538.828.657a1.613 1.613 0 001.894-.67 1.517 1.517 0 00-.3-1.941 1.597 1.597 0 00-1.141-.393zm-1.314.317a1.918 1.918 0 012.361-.355c.374.217.66.554.807.953.148.399.149.836.003 1.237-.145.4-.429.74-.802.96a1.92 1.92 0 01-1.243.246 1.892 1.892 0 01-1.12-.578 1.807 1.807 0 01-.487-1.14 1.815 1.815 0 01.481-1.323zm13.189-.939c-.366.019-.714.16-.984.402a1.536 1.536 0 00-.501.92 1.51 1.51 0 00.21 1.018c.188.306.48.538.825.656a1.62 1.62 0 001.066-.004c.345-.122.636-.357.823-.664.188-.307.261-.667.206-1.02a1.524 1.524 0 00-.504-.915 1.613 1.613 0 00-1.141-.393zm-1.314.317a1.92 1.92 0 012.362-.354c.374.216.659.552.807.951.147.4.149.837.003 1.237-.146.4-.43.74-.803.96a1.92 1.92 0 01-1.243.247 1.892 1.892 0 01-1.12-.578 1.813 1.813 0 01-.487-1.14 1.815 1.815 0 01.481-1.323z" fill="#E94D35"/></g><path d="M502.976 74.555c.934-.05 1.752.038 2.455.262.702.21 1.257.549 1.665 1.019.408.454.63 1.026.666 1.715.039.75-.136 1.358-.526 1.824-.391.45-.941.794-1.651 1.031l.005.092c.497.112.959.28 1.385.503a2.84 2.84 0 011.039.913c.281.384.438.89.471 1.518a3.155 3.155 0 01-.478 1.868c-.339.57-.89 1.037-1.654 1.4-.749.361-1.728.574-2.938.637a14.7 14.7 0 01-1.681-.004 9.059 9.059 0 01-1.439-.2 6.173 6.173 0 01-1.125-.38l-.095-1.814c.533.218 1.157.408 1.872.57.73.161 1.516.22 2.359.175a6.108 6.108 0 001.642-.293c.499-.164.885-.4 1.161-.706.275-.321.399-.742.371-1.263-.024-.474-.175-.85-.45-1.128-.277-.292-.679-.501-1.208-.627-.513-.127-1.168-.17-1.964-.128l-1.654.087-.086-1.654 1.332-.07c1.056-.055 1.891-.237 2.505-.545.627-.325.923-.832.887-1.521-.03-.582-.298-1.005-.803-1.27-.49-.267-1.187-.376-2.09-.329-.674.036-1.268.136-1.781.3a11 11 0 00-1.647.663l-.796-1.57a9.549 9.549 0 012.033-.752 11.858 11.858 0 012.218-.323zm13.164-.667c1.501-.079 2.628.192 3.382.813.754.62 1.169 1.65 1.245 3.09l.439 8.383-1.47.077-.482-1.725-.092.005a7.007 7.007 0 01-1.043 1.183c-.352.31-.77.547-1.253.71-.467.163-1.045.263-1.735.299-.735.039-1.407-.057-2.018-.286a3.079 3.079 0 01-1.441-1.122c-.366-.533-.57-1.214-.614-2.04-.064-1.226.369-2.193 1.299-2.901.93-.725 2.396-1.17 4.398-1.337l2.087-.178-.039-.735c-.053-1.026-.313-1.726-.778-2.101-.464-.375-1.103-.541-1.914-.499a5.645 5.645 0 00-1.822.395 12.06 12.06 0 00-1.597.729l-.7-1.483c.521-.32 1.144-.598 1.868-.835a8.174 8.174 0 012.28-.442zm.942 6.537c-1.528.142-2.58.443-3.155.903-.559.459-.818 1.079-.777 1.86.036.689.269 1.183.699 1.483.446.3.998.432 1.656.397 1.042-.054 1.892-.383 2.551-.986.659-.618.957-1.524.894-2.718l-.058-1.103-1.81.164zm9.764-2.4c.038.72.265 1.245.681 1.576.431.316 1.03.453 1.795.413.766-.04 1.457-.191 2.072-.454a12.584 12.584 0 001.879-1.066l-.277-5.282 2.022-.106.645 12.31-2.021.107-.288-5.49c-.666.48-1.329.868-1.989 1.164-.645.28-1.435.444-2.369.492-1.256.066-2.253-.211-2.992-.833-.724-.622-1.114-1.485-1.172-2.587l-.242-4.617 2.021-.106.235 4.479zm14.583-5.255l.646 12.31-2.022.107-.645-12.311 2.021-.106zm-1.229-4.565c.306-.016.58.077.82.28.256.185.395.5.419.945.022.428-.084.756-.317.983a1.144 1.144 0 01-.787.364 1.2 1.2 0 01-.867-.277c-.241-.202-.373-.518-.395-.947-.024-.444.074-.771.294-.982.218-.227.496-.349.833-.366zm11.204 16.617c-1.087.057-2.071-.114-2.951-.513-.866-.4-1.568-1.054-2.107-1.963-.524-.909-.824-2.09-.9-3.545-.079-1.516.109-2.762.564-3.738.456-.976 1.101-1.708 1.935-2.197.849-.49 1.825-.764 2.928-.822a7.855 7.855 0 011.825.112c.589.092 1.071.22 1.448.385l-.532 1.709c-.375-.119-.81-.226-1.307-.323a5.7 5.7 0 00-1.387-.112c-.827.044-1.499.255-2.017.636-.517.38-.888.922-1.112 1.624-.224.703-.31 1.567-.256 2.593.051.98.225 1.808.522 2.483.296.676.714 1.176 1.253 1.5.539.326 1.199.468 1.98.427.674-.036 1.26-.136 1.758-.3a8.624 8.624 0 001.397-.58l.094 1.792c-.402.236-.853.42-1.353.554-.483.149-1.077.241-1.782.278zm13.201-13.267l2.205-.116-4.949 6.202 6.031 6.087-2.343.123-5.886-5.957.327 6.248-2.021.106-.645-12.311 2.021-.106.313 5.971 4.947-6.247zm3.426-.18l2.159-.113 3.032 6.866c.174.406.333.796.476 1.173.158.375.3.744.426 1.106.126.347.228.687.307 1.02l.092-.005c.072-.387.191-.892.358-1.515.166-.639.34-1.277.521-1.916l2.138-7.114 2.182-.114-4.571 14.289a9.098 9.098 0 01-.929 2.052 3.953 3.953 0 01-1.354 1.407c-.535.35-1.2.546-1.996.588-.368.02-.691.013-.969-.018a6.329 6.329 0 01-.718-.078l-.084-1.608c.17.022.371.042.602.061.247.018.5.02.76.006.475-.025.876-.138 1.203-.34a2.34 2.34 0 00.856-.804c.228-.334.415-.728.56-1.181l.558-1.665-5.609-12.097zm77.611 9.279l-2.242-4.972-6.5.34-1.686 5.179-2.09.11 5.545-16.805 1.861-.097 7.248 16.133-2.136.112zm-5.055-11.642a20.43 20.43 0 01-.265-.654c-.124-.316-.249-.64-.373-.97a13.959 13.959 0 00-.272-.793c-.061.31-.128.629-.203.955-.061.31-.13.598-.209.863-.063.265-.12.49-.171.677l-1.601 5.059 5.191-.272-2.097-4.865zm8.607 4.04c-.094-1.792.003-3.324.289-4.598.301-1.29.807-2.33 1.518-3.12.725-.806 1.678-1.37 2.859-1.693a81.086 81.086 0 012.887-.727 302.49 302.49 0 012.64-.6l.437 1.751c-.394.082-.834.182-1.32.3a60.97 60.97 0 00-1.479.33c-.502.104-.987.214-1.457.33a26.15 26.15 0 00-1.205.294c-.5.133-.942.341-1.327.622-.385.266-.712.62-.98 1.065-.253.443-.448.983-.583 1.62-.136.636-.196 1.384-.182 2.243l.138-.007c.199-.302.474-.616.826-.941.366-.327.804-.61 1.314-.852.524-.243 1.124-.382 1.797-.417 1.072-.056 1.973.135 2.702.572.744.422 1.313 1.037 1.709 1.845.411.808.645 1.763.703 2.865.071 1.363-.106 2.517-.533 3.46-.426.944-1.049 1.667-1.867 2.17-.819.489-1.787.762-2.905.821-.842.044-1.616-.077-2.322-.362a4.934 4.934 0 01-1.846-1.377c-.523-.618-.94-1.394-1.25-2.33-.31-.936-.498-2.024-.563-3.264zm6.054 5.648c.674-.035 1.248-.204 1.724-.505.491-.302.858-.774 1.1-1.417.243-.642.337-1.484.283-2.525-.066-1.255-.355-2.23-.868-2.925-.498-.711-1.282-1.039-2.354-.983a3.725 3.725 0 00-1.814.556 5.37 5.37 0 00-1.325 1.083c-.347.402-.591.737-.73 1.006.039.75.131 1.474.275 2.173.144.699.361 1.325.651 1.878.305.536.703.96 1.195 1.273.507.296 1.128.424 1.863.386zm19.585-5.771c.054 1.026-.036 1.944-.27 2.755a5.486 5.486 0 01-1.043 2.058 4.801 4.801 0 01-1.749 1.359c-.69.312-1.471.491-2.344.537a6.012 6.012 0 01-2.272-.295 5.087 5.087 0 01-1.858-1.17c-.534-.525-.967-1.17-1.299-1.935-.318-.782-.503-1.686-.557-2.712-.071-1.363.098-2.523.509-3.481.409-.974 1.03-1.728 1.862-2.263.831-.55 1.836-.856 3.015-.918 1.118-.059 2.111.143 2.98.604.883.445 1.586 1.13 2.111 2.054.539.909.844 2.044.915 3.407zm-9.302.487c.051.965.217 1.8.5 2.508.297.69.724 1.213 1.28 1.568s1.247.51 2.074.467c.827-.043 1.498-.27 2.014-.681.516-.411.878-.975 1.086-1.693.223-.733.309-1.582.258-2.546-.051-.98-.225-1.808-.521-2.484-.297-.675-.723-1.182-1.278-1.522-.54-.355-1.232-.511-2.074-.467-1.256.066-2.145.527-2.668 1.384-.524.856-.747 2.012-.671 3.466zm371.819-22.93l-4.02.211.56 10.611-2 .105-.55-10.611-3.98.208-.09-1.7 10-.523.08 1.7zm7.47-2.303c1.5-.078 2.63.193 3.38.813.76.621 1.17 1.651 1.25 3.09l.44 8.384-1.47.077-.48-1.725-.1.005c-.33.462-.67.857-1.04 1.183-.35.31-.77.547-1.25.71-.47.163-1.05.263-1.74.299-.73.038-1.41-.057-2.02-.286a3.13 3.13 0 01-1.44-1.122c-.36-.534-.57-1.214-.61-2.04-.06-1.226.37-2.193 1.3-2.902.93-.724 2.39-1.17 4.4-1.336l2.08-.178-.04-.735c-.05-1.026-.31-1.727-.77-2.101-.47-.375-1.11-.541-1.92-.499-.64.034-1.25.166-1.82.395-.57.214-1.1.457-1.6.729l-.7-1.484c.52-.319 1.15-.597 1.87-.835a8.26 8.26 0 012.28-.442zm.94 6.538c-1.53.142-2.58.442-3.15.902-.56.46-.82 1.08-.78 1.86.04.69.27 1.184.7 1.484.45.3 1 .431 1.66.397 1.04-.055 1.89-.383 2.55-.986.66-.618.95-1.524.89-2.718l-.06-1.103-1.81.164zM405.496 77.797c2.143-.113 3.727.227 4.751 1.017 1.025.791 1.577 1.952 1.657 3.484a5.648 5.648 0 01-.242 1.97 4.24 4.24 0 01-.993 1.71c-.48.517-1.133.942-1.96 1.278-.828.32-1.854.511-3.079.575l-1.883.1.334 6.384-2.067.109-.859-16.4 4.341-.227zm-.091 1.778l-2.091.11.34 6.477 1.654-.087c1.041-.055 1.9-.207 2.578-.458.677-.266 1.171-.652 1.483-1.16.311-.507.445-1.16.404-1.956-.056-1.056-.434-1.827-1.135-2.313-.701-.485-1.779-.69-3.233-.613zm21.099 7.37c.054 1.026-.036 1.944-.27 2.755-.22.794-.567 1.48-1.044 2.058a4.798 4.798 0 01-1.748 1.359c-.69.312-1.471.491-2.344.537a6.017 6.017 0 01-2.273-.296 5.103 5.103 0 01-1.858-1.169c-.534-.525-.967-1.17-1.299-1.936-.317-.781-.503-1.685-.556-2.711-.072-1.363.098-2.523.508-3.482.41-.973 1.03-1.727 1.862-2.262.831-.55 1.836-.856 3.015-.918 1.118-.059 2.111.142 2.98.604.883.445 1.587 1.13 2.111 2.054.539.908.845 2.044.916 3.407zm-9.302.487c.05.965.217 1.8.5 2.507.297.691.724 1.214 1.28 1.569.556.354 1.247.51 2.074.467.827-.044 1.498-.27 2.014-.682.516-.41.878-.975 1.086-1.692.222-.733.308-1.582.258-2.547-.051-.98-.225-1.807-.522-2.483-.296-.675-.722-1.183-1.277-1.522-.541-.356-1.232-.511-2.074-.467-1.256.066-2.146.527-2.669 1.383-.523.857-.746 2.013-.67 3.467zm12.278-1.864c-.094-1.791.002-3.324.289-4.598.3-1.29.806-2.33 1.517-3.12.726-.806 1.679-1.37 2.86-1.693a81.303 81.303 0 012.887-.727c.94-.218 1.82-.418 2.64-.6l.437 1.751a41.97 41.97 0 00-1.32.3 67.37 67.37 0 00-1.48.33c-.501.104-.987.214-1.457.33a26.15 26.15 0 00-1.205.294 3.954 3.954 0 00-1.326.622 3.43 3.43 0 00-.981 1.065c-.253.443-.447.983-.583 1.62-.135.636-.196 1.384-.182 2.243l.138-.007c.199-.302.475-.616.826-.941.367-.327.805-.61 1.314-.852.525-.243 1.124-.382 1.798-.417 1.072-.056 1.972.135 2.702.572.743.422 1.313 1.037 1.709 1.846.41.807.645 1.762.702 2.865.072 1.363-.106 2.516-.532 3.46-.427.943-1.049 1.666-1.867 2.17-.819.488-1.787.761-2.905.82-.842.044-1.616-.076-2.322-.362a4.936 4.936 0 01-1.846-1.377c-.524-.618-.941-1.394-1.251-2.33-.31-.936-.497-2.024-.562-3.264zm6.054 5.648c.673-.035 1.248-.204 1.724-.505.491-.302.857-.774 1.1-1.416.243-.643.337-1.484.282-2.526-.066-1.255-.355-2.23-.867-2.925-.498-.711-1.283-1.039-2.355-.982a3.724 3.724 0 00-1.813.555 5.35 5.35 0 00-1.325 1.083c-.348.402-.591.737-.731 1.006.04.75.131 1.475.276 2.173.144.699.361 1.325.651 1.878.304.537.703.961 1.195 1.273.507.296 1.128.424 1.863.386zm10.86-3.932c.008.138.01.337.009.599.013.245.019.513.019.805l-.004.806c-.002.246-.007.446-.015.6l6.052-10.659 2.48-.13.646 12.311-1.884.1-.38-7.259-.051-.965-.015-1.173a24.263 24.263 0 01-.001-.899l-6.007 10.633-2.503.132-.646-12.312 1.907-.1.393 7.511zm26.146-8.901l.645 12.31-1.815.096-.411-7.855a22.88 22.88 0 01-.03-1.012l.037-1.039-.069.004-3.5 10.11-1.7.09-4.423-9.696-.069.004c.048.335.081.679.1 1.031.034.352.06.711.079 1.078l.408 7.787-1.814.095-.645-12.311 2.687-.141 4.401 9.696 3.431-10.106 2.688-.141zm15.433 5.34c.054 1.026-.036 1.945-.27 2.755a5.49 5.49 0 01-1.043 2.059 4.801 4.801 0 01-1.749 1.358c-.69.313-1.471.492-2.344.537a6.012 6.012 0 01-2.272-.295 5.087 5.087 0 01-1.858-1.17c-.534-.524-.967-1.17-1.299-1.935-.318-.782-.503-1.686-.557-2.712-.071-1.362.098-2.523.509-3.481.409-.974 1.03-1.728 1.862-2.263.831-.55 1.836-.856 3.015-.918 1.118-.058 2.111.143 2.979.604.884.445 1.587 1.13 2.112 2.055.539.908.844 2.044.915 3.406zm-9.302.488c.051.964.217 1.8.5 2.507.297.69.724 1.213 1.28 1.568s1.247.51 2.074.467c.827-.043 1.498-.27 2.014-.681.516-.411.878-.975 1.086-1.692.223-.733.309-1.582.258-2.547-.051-.98-.225-1.808-.521-2.483-.297-.676-.723-1.183-1.278-1.522-.54-.356-1.232-.512-2.074-.468-1.256.066-2.145.527-2.668 1.384-.524.856-.747 2.012-.671 3.467zm209.631-13.209c-.094-1.791.002-3.324.289-4.598.301-1.29.806-2.33 1.517-3.12.726-.805 1.679-1.37 2.86-1.693a81.081 81.081 0 012.887-.727c.94-.218 1.82-.418 2.64-.599l.437 1.75c-.395.083-.835.183-1.32.3-.486.102-.979.213-1.48.331-.501.103-.987.213-1.456.33-.456.1-.858.198-1.206.293a3.963 3.963 0 00-1.326.623c-.385.265-.712.62-.981 1.064-.253.444-.447.983-.583 1.62-.135.637-.196 1.385-.181 2.244l.137-.007a5.28 5.28 0 01.826-.942c.367-.326.805-.61 1.314-.852.525-.242 1.124-.381 1.798-.417 1.072-.056 1.973.135 2.702.573.743.421 1.313 1.037 1.709 1.845.41.808.645 1.763.703 2.865.071 1.363-.107 2.516-.533 3.46-.427.943-1.049 1.667-1.867 2.17-.819.489-1.787.762-2.905.82-.842.045-1.616-.076-2.322-.361a4.936 4.936 0 01-1.846-1.378c-.524-.617-.94-1.394-1.25-2.33-.311-.935-.498-2.023-.563-3.264zm6.054 5.648c.674-.035 1.248-.203 1.724-.505.491-.302.857-.774 1.1-1.416.243-.642.337-1.484.282-2.525-.065-1.256-.355-2.231-.867-2.926-.498-.71-1.283-1.038-2.355-.982a3.725 3.725 0 00-1.813.556c-.536.32-.978.68-1.325 1.082-.348.403-.591.738-.731 1.006.04.75.132 1.475.276 2.174.144.698.361 1.324.651 1.877.304.537.703.961 1.195 1.273.507.296 1.128.425 1.863.386zm19.585-5.77c.054 1.025-.036 1.944-.27 2.754-.219.795-.567 1.481-1.044 2.059a4.796 4.796 0 01-1.748 1.358c-.69.313-1.471.492-2.344.537a6.015 6.015 0 01-2.273-.295 5.091 5.091 0 01-1.857-1.17c-.535-.524-.968-1.17-1.3-1.935-.317-.782-.502-1.686-.556-2.712-.072-1.362.098-2.523.508-3.48.41-.974 1.031-1.728 1.862-2.263.831-.55 1.836-.857 3.016-.919 1.117-.058 2.111.143 2.979.604.883.445 1.587 1.13 2.112 2.055.539.908.844 2.044.915 3.406zm-9.302.487c.05.965.217 1.8.5 2.507.297.69.724 1.214 1.28 1.568.556.355 1.247.51 2.074.467.827-.043 1.498-.27 2.014-.68.516-.412.878-.976 1.086-1.693.223-.733.309-1.582.258-2.547-.051-.98-.225-1.808-.522-2.483-.296-.676-.722-1.183-1.277-1.522-.541-.356-1.232-.512-2.074-.468-1.256.066-2.145.527-2.669 1.384-.523.857-.746 2.012-.67 3.467zm18.508-7.35c1.516-.08 2.761.385 3.735 1.394.99 1.007 1.54 2.575 1.652 4.704.073 1.393-.08 2.583-.458 3.57-.364.971-.915 1.722-1.655 2.252-.726.514-1.601.798-2.627.852-.628.033-1.191-.022-1.69-.165a4.667 4.667 0 01-1.297-.577 5.332 5.332 0 01-.92-.85l-.138.007c.045.26.092.587.144.983.051.397.085.74.1 1.031l.265 5.053-2.021.106-.935-17.823 1.654-.087.364 1.662.092-.004c.226-.365.5-.702.822-1.01a4.06 4.06 0 011.204-.755c.481-.194 1.051-.308 1.709-.343zm-.278 1.72c-.827.042-1.485.238-1.973.586-.489.333-.832.82-1.029 1.459-.197.64-.278 1.443-.242 2.408l.02.39c.053 1.011.205 1.863.456 2.556.252.693.64 1.21 1.164 1.551.54.34 1.254.487 2.142.44.751-.038 1.352-.277 1.805-.716.469-.439.799-1.017.992-1.733.207-.732.287-1.558.239-2.477-.074-1.408-.409-2.52-1.004-3.333-.58-.814-1.437-1.191-2.57-1.132zm20.069 3.623c.053 1.026-.037 1.944-.271 2.755a5.486 5.486 0 01-1.043 2.058 4.792 4.792 0 01-1.749 1.358c-.69.313-1.471.492-2.344.538a6.01 6.01 0 01-2.272-.296 5.088 5.088 0 01-1.858-1.169c-.534-.525-.967-1.17-1.299-1.936-.318-.781-.503-1.685-.557-2.711-.071-1.363.098-2.523.509-3.482.409-.973 1.03-1.727 1.862-2.262.831-.55 1.836-.856 3.015-.918 1.118-.059 2.111.142 2.98.604.883.445 1.587 1.13 2.111 2.054.539.908.844 2.044.916 3.407zm-9.303.487c.051.965.217 1.8.5 2.508.297.69.724 1.213 1.28 1.568.556.354 1.247.51 2.074.467.827-.043 1.499-.27 2.014-.681.516-.411.878-.975 1.086-1.693.223-.733.309-1.582.258-2.547-.051-.98-.225-1.807-.521-2.483-.297-.675-.722-1.183-1.278-1.522-.54-.355-1.232-.511-2.074-.467-1.256.066-2.145.527-2.668 1.383-.523.857-.747 2.013-.671 3.467zm21.805-7.292l.556 10.611 1.792-.093.313 5.972-1.952.102-.224-4.272-8.567.449.223 4.272-1.929.1-.313-5.97.988-.053a14.988 14.988 0 001.578-3.284 18.31 18.31 0 00.866-3.684 21.29 21.29 0 00.192-3.81l6.477-.34zm-4.602 1.83a19.31 19.31 0 01-.313 3.264 21.275 21.275 0 01-.844 3.223c-.345 1.031-.767 1.929-1.264 2.692l5.627-.295-.473-9.027-2.733.143zm7.357-1.974l2.159-.113 3.031 6.865c.175.406.334.797.476 1.173.158.376.3.744.427 1.106.125.347.228.687.307 1.02l.092-.004c.071-.388.191-.893.358-1.516.166-.638.34-1.277.521-1.916l2.138-7.114 2.182-.114-4.572 14.289a9.01 9.01 0 01-.929 2.052 3.936 3.936 0 01-1.354 1.407c-.534.35-1.199.547-1.996.588-.367.02-.69.013-.968-.018a6.303 6.303 0 01-.718-.078l-.084-1.607c.17.022.37.042.602.06.246.018.5.02.76.007.475-.025.876-.139 1.203-.34a2.36 2.36 0 00.856-.805c.228-.334.415-.728.56-1.18l.558-1.665-5.609-12.097zm66.237-5.982c-.873.046-1.654.24-2.342.583a4.613 4.613 0 00-1.723 1.403c-.46.593-.799 1.31-1.016 2.15-.218.825-.3 1.75-.246 2.776.071 1.348.339 2.508.804 3.482.481.973 1.149 1.706 2.004 2.198.87.492 1.933.705 3.189.639a11.06 11.06 0 002.035-.29 18.876 18.876 0 001.859-.559l.094 1.792a9.999 9.999 0 01-1.88.605c-.638.14-1.408.235-2.312.282-1.669.088-3.08-.184-4.234-.814-1.154-.63-2.047-1.567-2.681-2.808-.617-1.242-.971-2.72-1.061-4.435-.065-1.24.044-2.383.327-3.426.298-1.045.757-1.96 1.376-2.744a6.648 6.648 0 012.391-1.853c.958-.464 2.073-.73 3.343-.797a11.525 11.525 0 012.448.125c.79.128 1.499.329 2.128.603l-.736 1.789a12.778 12.778 0 00-1.732-.531 7.016 7.016 0 00-2.035-.17zm16.406 3.355l-4.02.21.556 10.612-1.998.105-.556-10.612-3.973.209-.09-1.7 9.992-.524.089 1.7zm5.115 5.559c.007.138.01.337.009.598.012.245.019.514.019.805l-.004.807a16.22 16.22 0 01-.015.6l6.052-10.66 2.48-.13.646 12.312-1.884.099-.38-7.258-.051-.965-.015-1.174a24.263 24.263 0 01-.001-.898l-6.007 10.633-2.504.131-.645-12.31 1.907-.1.393 7.51zm22.955 3.61l-2.044.108-.558-10.635-3.629.19c-.051 1.953-.155 3.624-.313 5.015-.158 1.374-.391 2.5-.698 3.376-.307.876-.695 1.526-1.164 1.95a2.655 2.655 0 01-1.692.687 3.92 3.92 0 01-.599-.015 1.267 1.267 0 01-.466-.09l-.079-1.517a1.7 1.7 0 00.302.054c.108.01.216.012.323.006.337-.018.636-.172.897-.462.261-.29.484-.724.669-1.302.2-.578.369-1.3.508-2.168a34.75 34.75 0 00.321-3.103 91.06 91.06 0 00.158-4.016l7.419-.389.645 12.311zm9.68-7.785c1.072-.056 1.966.028 2.684.251.718.223 1.267.586 1.647 1.088.394.486.611 1.12.652 1.9.04.766-.101 1.442-.423 2.027-.308.584-.813 1.048-1.517 1.392-.703.344-1.622.546-2.755.605l-5.581.293-.645-12.312 2.021-.105.265 5.053 3.652-.192zm2.968 3.46c-.039-.75-.334-1.241-.883-1.473-.536-.248-1.278-.348-2.227-.298l-3.422.18.207 3.95 3.468-.182c.857-.045 1.554-.235 2.089-.57.55-.336.806-.871.768-1.606zm16.235-3.384c.054 1.026-.036 1.944-.27 2.755a5.478 5.478 0 01-1.044 2.059 4.798 4.798 0 01-1.748 1.358c-.69.313-1.471.492-2.344.537a6.017 6.017 0 01-2.273-.295 5.091 5.091 0 01-1.857-1.17c-.535-.524-.968-1.17-1.299-1.935-.318-.782-.503-1.686-.557-2.712-.072-1.363.098-2.523.508-3.481.41-.974 1.031-1.728 1.862-2.263.832-.55 1.837-.856 3.016-.918 1.117-.058 2.111.143 2.979.604.883.445 1.587 1.13 2.112 2.054.539.909.844 2.044.915 3.407zm-9.302.488c.051.964.217 1.8.5 2.507.297.69.724 1.213 1.28 1.568s1.247.51 2.074.467c.827-.043 1.498-.27 2.014-.681.516-.411.878-.975 1.086-1.692.223-.734.309-1.583.258-2.547-.051-.98-.225-1.808-.522-2.483-.296-.676-.722-1.183-1.277-1.523-.541-.355-1.232-.51-2.074-.467-1.256.066-2.145.527-2.669 1.384-.523.856-.746 2.012-.67 3.467zm22.725-4.231c.041.765-.158 1.374-.595 1.827-.437.453-1.011.775-1.723.966l.005.092c.772.067 1.452.307 2.042.722.589.399.907 1.058.956 1.976a3.503 3.503 0 01-.223 1.463 2.882 2.882 0 01-.813 1.194c-.381.343-.881.622-1.499.839-.619.201-1.372.325-2.261.372l-5.305.278-.645-12.311 5.282-.277c.873-.046 1.659.013 2.359.176.714.146 1.282.44 1.704.878.437.422.676 1.024.716 1.805zm-1.405 5.693c-.037-.704-.332-1.196-.884-1.474s-1.348-.39-2.39-.335l-3.009.157.208 3.951 3.054-.16c1.011-.053 1.777-.239 2.297-.558.52-.334.761-.861.724-1.581zm-.625-5.334c-.031-.581-.267-.991-.71-1.23-.428-.253-1.116-.355-2.066-.306l-3.146.165.177 3.377 2.779-.146c.995-.052 1.746-.23 2.252-.532.506-.303.744-.746.714-1.328zm3.752-3.559l2.159-.113 3.032 6.866c.175.405.333.796.476 1.172.158.376.3.745.426 1.107.126.346.228.686.307 1.02l.092-.005c.072-.387.191-.893.358-1.516.166-.638.34-1.277.522-1.916l2.137-7.113 2.182-.115-4.571 14.29a9.098 9.098 0 01-.929 2.052 3.945 3.945 0 01-1.354 1.406c-.535.35-1.2.547-1.996.589-.368.019-.69.013-.968-.019a6.346 6.346 0 01-.719-.077l-.084-1.608c.17.022.371.042.602.06.247.018.5.02.761.007.474-.025.875-.138 1.202-.34.344-.186.629-.455.857-.805.228-.334.414-.727.559-1.18l.558-1.665-5.609-12.097zm20.178 3.871c-.094-1.791.002-3.324.289-4.598.3-1.29.806-2.33 1.517-3.12.726-.806 1.679-1.37 2.86-1.693a81.303 81.303 0 012.887-.727c.94-.218 1.82-.418 2.64-.599l.437 1.75a41.97 41.97 0 00-1.32.3c-.486.102-.979.213-1.48.331-.501.103-.987.213-1.457.33-.455.1-.857.198-1.205.293-.5.134-.942.341-1.326.623-.385.265-.712.62-.981 1.064-.253.444-.447.983-.583 1.62-.135.637-.196 1.385-.182 2.244l.138-.008a5.28 5.28 0 01.826-.941c.367-.326.805-.61 1.314-.852.525-.242 1.124-.381 1.798-.417 1.072-.056 1.972.135 2.702.573.743.421 1.313 1.036 1.709 1.845.41.807.645 1.763.702 2.865.072 1.363-.106 2.516-.532 3.46-.427.943-1.049 1.667-1.867 2.17-.819.489-1.787.762-2.905.82-.842.045-1.616-.076-2.322-.361a4.936 4.936 0 01-1.846-1.378c-.524-.617-.941-1.394-1.251-2.33-.31-.935-.497-2.023-.562-3.264zm6.054 5.648c.673-.035 1.248-.203 1.724-.505.491-.302.857-.774 1.1-1.416.243-.642.337-1.484.282-2.525-.066-1.256-.355-2.231-.867-2.926-.498-.71-1.283-1.038-2.355-.982a3.724 3.724 0 00-1.813.556 5.35 5.35 0 00-1.325 1.082c-.348.403-.591.738-.731 1.006.04.75.131 1.475.276 2.174.144.698.361 1.324.651 1.877.304.537.703.961 1.195 1.273.507.296 1.128.425 1.863.386zm19.585-5.77c.054 1.025-.036 1.944-.27 2.754-.219.795-.567 1.481-1.044 2.059a4.797 4.797 0 01-1.748 1.358c-.69.313-1.471.492-2.344.537a6.015 6.015 0 01-2.273-.295 5.104 5.104 0 01-1.858-1.17c-.534-.524-.967-1.17-1.299-1.935-.317-.782-.503-1.686-.556-2.712-.072-1.362.098-2.523.508-3.481.41-.973 1.031-1.728 1.862-2.262.831-.55 1.836-.857 3.015-.919 1.118-.058 2.111.143 2.98.604.883.445 1.587 1.13 2.112 2.055.538.908.844 2.044.915 3.406zm-9.302.487c.05.965.217 1.8.5 2.507.297.69.724 1.214 1.28 1.568.556.355 1.247.51 2.074.467.827-.043 1.498-.27 2.014-.68.516-.412.878-.976 1.086-1.693.222-.733.309-1.582.258-2.547-.051-.98-.225-1.808-.522-2.483-.296-.676-.722-1.183-1.277-1.522-.541-.356-1.232-.512-2.074-.468-1.256.066-2.145.528-2.669 1.384-.523.857-.746 2.012-.67 3.467zm18.508-7.35c1.516-.08 2.761.385 3.735 1.394.99 1.007 1.54 2.575 1.652 4.704.073 1.393-.08 2.583-.458 3.57-.364.972-.915 1.722-1.655 2.252-.726.514-1.601.798-2.627.852-.628.033-1.191-.022-1.69-.165a4.66 4.66 0 01-1.297-.577 5.332 5.332 0 01-.92-.85l-.138.007c.044.259.092.587.144.983.051.397.085.74.1 1.031l.265 5.053-2.022.106-.934-17.823 1.654-.087.364 1.662.092-.004c.226-.366.5-.702.822-1.01a4.06 4.06 0 011.204-.755c.481-.194 1.051-.308 1.709-.343zm-.278 1.72c-.827.042-1.485.238-1.973.586-.489.333-.832.82-1.029 1.459-.197.64-.278 1.443-.242 2.408l.02.39c.053 1.011.205 1.863.456 2.556.252.693.64 1.21 1.164 1.551.54.34 1.254.487 2.142.44.75-.038 1.352-.277 1.805-.716.468-.439.799-1.017.992-1.733.207-.733.287-1.558.238-2.477-.073-1.409-.408-2.52-1.003-3.333-.58-.814-1.437-1.191-2.57-1.132zm20.068 3.623c.054 1.026-.036 1.944-.27 2.755a5.486 5.486 0 01-1.043 2.058 4.801 4.801 0 01-1.749 1.358c-.69.313-1.471.492-2.344.538a6.012 6.012 0 01-2.272-.296 5.087 5.087 0 01-1.858-1.169c-.534-.525-.967-1.17-1.299-1.936-.318-.781-.503-1.685-.557-2.711-.071-1.363.098-2.524.509-3.482.409-.973 1.03-1.727 1.862-2.262.831-.55 1.836-.856 3.015-.918 1.118-.059 2.111.142 2.979.604.884.445 1.587 1.13 2.112 2.054.539.908.844 2.044.915 3.407zm-9.302.487c.051.965.217 1.8.5 2.508.297.69.724 1.213 1.28 1.568.556.354 1.247.51 2.074.467.827-.044 1.498-.27 2.014-.682.516-.41.878-.974 1.086-1.692.223-.733.309-1.582.258-2.547-.051-.98-.225-1.807-.521-2.483-.297-.675-.723-1.183-1.278-1.522-.54-.356-1.232-.511-2.074-.467-1.256.066-2.145.527-2.668 1.383-.524.857-.747 2.013-.671 3.467zm21.803-7.292l.56 10.611 1.79-.093.31 5.971-1.95.103-.22-4.272-8.571.449.224 4.272-1.929.1-.313-5.971.988-.052a14.988 14.988 0 001.578-3.284c.414-1.188.702-2.417.866-3.684a21.29 21.29 0 00.192-3.81l6.475-.34zm-4.6 1.83a19.31 19.31 0 01-.313 3.264 21.281 21.281 0 01-.844 3.223c-.346 1.031-.767 1.929-1.264 2.692l5.627-.295-.473-9.027-2.733.144zm7.36-1.974l2.16-.113 3.03 6.865c.17.406.33.797.47 1.173.16.376.3.744.43 1.106.13.347.23.687.31 1.02l.09-.004c.07-.388.19-.893.36-1.516.16-.638.34-1.277.52-1.916l2.14-7.114 2.18-.114-4.57 14.289c-.25.78-.56 1.465-.93 2.052a3.944 3.944 0 01-1.36 1.407c-.53.35-1.2.547-1.99.588-.37.02-.69.013-.97-.018a6.264 6.264 0 01-.72-.078l-.08-1.607c.17.022.37.042.6.06.25.018.5.02.76.007.47-.025.87-.139 1.2-.34.35-.187.63-.455.86-.805.23-.334.41-.728.56-1.18l.56-1.665-5.61-12.097z" fill="#161513"/><g clip-path="url(#clip4_73_329)" fill-rule="evenodd" clip-rule="evenodd"><path d="M1165.73 52.104l-1.14.723-.37-.563 1.07-.685c.13.187.28.363.44.525zm14.49-18.612l-10.42 13.201 1.02.763 4.42-2.964c1.52-2.601 5.71-8.574 5.91-11.198.07-.944.06-1.062-.93.198z" fill="#E94D35"/><path d="M1169.17 45.888a3.904 3.904 0 00-2.55.337 3.765 3.765 0 00-1.76 1.84 3.61 3.61 0 00-.16 2.506 3.68 3.68 0 001.5 2.034 3.898 3.898 0 004.83-.406c.63-.602 1.04-1.4 1.14-2.257.09-.856-.11-1.72-.59-2.442-.28-.41-.63-.764-1.04-1.041a3.818 3.818 0 00-1.37-.571zm-2.17 1.579a2.593 2.593 0 011.66-.387c.58.061 1.12.318 1.53.725.4.407.65.94.7 1.507.05.568-.1 1.135-.43 1.606-.33.47-.82.815-1.38.974a2.59 2.59 0 01-1.7-.099 2.495 2.495 0 01-1.25-1.127 2.405 2.405 0 01-.22-1.644 2.398 2.398 0 011.09-1.555zm-.22-13.271l11.74 12.04-.94.865-4.7-2.485c-1.78-2.428-6.57-7.931-7.04-10.52-.17-.93-.18-1.049.94.1z" fill="#E94D35"/><path d="M1179.07 45.369a3.9 3.9 0 012.57.07c.82.312 1.51.893 1.94 1.645.43.751.58 1.626.43 2.475-.16.849-.61 1.62-1.29 2.18a3.87 3.87 0 01-2.4.896 3.857 3.857 0 01-2.44-.795 3.687 3.687 0 01-1.37-2.126 3.71 3.71 0 01.33-2.49 3.827 3.827 0 012.23-1.855zm2.32 1.343a2.581 2.581 0 00-1.69-.211c-.57.122-1.08.433-1.44.88a2.45 2.45 0 00-.55 1.574c.01.57.23 1.118.6 1.551.38.434.9.725 1.48.825.57.1 1.17.003 1.68-.276s.9-.72 1.12-1.252a2.427 2.427 0 00-.43-2.496 2.385 2.385 0 00-.77-.595z" fill="#E94D35"/><path d="M1173.62 42.289a1.274 1.274 0 01.95.069c.15.073.28.173.38.295a1.198 1.198 0 01.17 1.343 1.24 1.24 0 01-.73.607c-.15.05-.32.07-.48.057a1.213 1.213 0 01-.47-.128 1.122 1.122 0 01-.38-.295 1.152 1.152 0 01-.24-.415 1.2 1.2 0 01.08-.928c.15-.288.41-.505.72-.606zm.85-.38a.125.125 0 01-.06.035.106.106 0 01-.07-.015.066.066 0 01-.03-.056c-.01-.023 0-.046.01-.065l6.16-8.122c.01-.018.04-.03.06-.034.02-.003.05.003.06.016.02.014.04.034.04.056 0 .023 0 .045-.02.064l-6.15 8.122zm-.97-.058a.08.08 0 01.03.062c0 .022-.01.044-.03.059a.1.1 0 01-.07.023.103.103 0 01-.06-.028l-6.97-7.434a.13.13 0 01-.02-.063.4.4 0 01.03-.058.1.1 0 01.07-.023c.02.001.04.011.06.028l6.96 7.434zm.88.875a.844.844 0 00-.63-.047.798.798 0 00-.39.27.872.872 0 00-.18.435.837.837 0 00.45.78.847.847 0 00.63.047.835.835 0 00.48-.401.805.805 0 00.09-.303.665.665 0 00-.04-.311.64.64 0 00-.16-.276.761.761 0 00-.25-.194z" fill="#fff"/><path d="M1168.29 47.99c-.37.018-.72.16-.99.402-.27.241-.45.567-.5.921-.06.355.02.716.21 1.023.19.306.48.538.82.657a1.622 1.622 0 001.9-.67c.19-.308.26-.67.21-1.024a1.578 1.578 0 00-.51-.917c-.16-.135-.34-.24-.53-.307-.2-.068-.41-.097-.61-.086zm-1.32.316c.3-.316.69-.524 1.12-.589.43-.064.87.019 1.25.235.37.216.65.553.8.952.15.4.15.836.01 1.237a1.911 1.911 0 01-3.17.629 1.816 1.816 0 01-.49-1.141c-.02-.485.15-.96.48-1.322zm13.19-.939c-.36.02-.71.161-.98.402-.27.241-.45.566-.5.92-.06.353.02.713.21 1.019.19.305.48.537.82.656a1.6 1.6 0 001.89-.668c.19-.307.26-.668.21-1.021a1.522 1.522 0 00-.51-.915 1.595 1.595 0 00-1.14-.393zm-1.31.317a1.919 1.919 0 012.36-.354c.37.216.66.553.81.952.15.399.15.836 0 1.237a1.885 1.885 0 01-2.05 1.206 1.86 1.86 0 01-1.11-.578c-.3-.313-.47-.716-.49-1.14-.03-.486.15-.961.48-1.323z" fill="#E94D35"/></g><path d="M1068.83 44.9c.94-.05 1.76.038 2.46.262.7.209 1.26.548 1.66 1.018.41.455.63 1.027.67 1.716.04.75-.14 1.358-.53 1.824-.39.45-.94.794-1.65 1.03l.01.093c.49.112.96.28 1.38.503.43.223.77.527 1.04.913.28.384.44.89.47 1.518.04.674-.12 1.296-.48 1.868-.33.57-.89 1.037-1.65 1.4-.75.36-1.73.573-2.94.637-.58.03-1.14.029-1.68-.004-.52-.034-1-.101-1.44-.201a6.043 6.043 0 01-1.12-.379l-.1-1.814c.54.217 1.16.407 1.87.57.73.16 1.52.22 2.36.175.62-.032 1.16-.13 1.65-.293.49-.164.88-.4 1.16-.706.27-.321.39-.742.37-1.263-.03-.475-.18-.85-.45-1.128-.28-.293-.68-.502-1.21-.628-.51-.126-1.17-.169-1.96-.127l-1.66.087-.09-1.654 1.34-.07c1.05-.055 1.89-.237 2.5-.546.63-.324.93-.831.89-1.52-.03-.582-.3-1.006-.8-1.271-.49-.266-1.19-.375-2.09-.328-.68.035-1.27.135-1.78.3-.5.15-1.05.37-1.65.663l-.8-1.57a9.587 9.587 0 012.04-.752c.71-.176 1.45-.284 2.21-.324zm13.17-.668c1.5-.078 2.63.193 3.38.813.75.621 1.17 1.651 1.24 3.09l.44 8.384-1.47.077-.48-1.725-.09.005c-.33.462-.68.857-1.04 1.183-.36.31-.77.547-1.26.71-.46.163-1.04.263-1.73.299-.74.038-1.41-.057-2.02-.286-.6-.23-1.08-.604-1.44-1.122-.37-.534-.57-1.214-.61-2.04-.07-1.226.36-2.193 1.29-2.902.93-.724 2.4-1.17 4.4-1.336l2.09-.178-.04-.735c-.05-1.026-.31-1.727-.78-2.101-.46-.375-1.1-.541-1.91-.499-.65.034-1.25.165-1.82.395-.58.214-1.11.457-1.6.729l-.7-1.484c.52-.319 1.14-.597 1.87-.835.72-.253 1.48-.4 2.28-.442zm.94 6.538c-1.53.141-2.58.442-3.16.902-.55.46-.81 1.08-.77 1.86.03.69.27 1.184.7 1.484.44.3.99.431 1.65.397 1.04-.055 1.89-.383 2.55-.986.66-.618.96-1.524.9-2.718l-.06-1.103-1.81.164zm9.76-2.4c.04.72.27 1.245.68 1.576.44.315 1.03.453 1.8.413.77-.04 1.46-.192 2.07-.454.62-.278 1.24-.633 1.88-1.066l-.28-5.283 2.02-.106.65 12.311-2.02.106-.29-5.49c-.66.481-1.33.869-1.99 1.164-.64.28-1.43.444-2.37.493-1.25.066-2.25-.212-2.99-.833-.72-.623-1.11-1.485-1.17-2.588l-.24-4.616 2.02-.106.23 4.479zm14.59-5.256l.64 12.311-2.02.106-.64-12.31 2.02-.107zm-1.23-4.565c.3-.016.58.077.82.28.25.186.39.501.42.945.02.429-.09.757-.32.984-.22.226-.48.348-.79.364-.34.017-.62-.075-.86-.277-.25-.203-.38-.518-.4-.947-.02-.444.07-.772.29-.983.22-.226.5-.348.84-.366zm11.2 16.618c-1.09.057-2.07-.114-2.95-.514-.87-.4-1.57-1.054-2.11-1.962-.52-.91-.82-2.091-.9-3.546-.08-1.516.11-2.762.57-3.737.45-.976 1.1-1.709 1.93-2.198.85-.49 1.83-.763 2.93-.821.63-.033 1.24.004 1.83.112.58.092 1.07.22 1.44.384l-.53 1.71c-.37-.119-.81-.227-1.31-.323a5.614 5.614 0 00-1.38-.112c-.83.043-1.5.255-2.02.635s-.89.922-1.11 1.625c-.23.703-.31 1.567-.26 2.593.05.98.23 1.808.52 2.483.3.675.72 1.175 1.26 1.5.54.325 1.2.467 1.98.426.67-.035 1.26-.135 1.75-.3.52-.164.98-.358 1.4-.579l.1 1.791a5.58 5.58 0 01-1.36.555c-.48.148-1.07.24-1.78.278zm13.2-13.267l2.21-.116-4.95 6.202 6.03 6.086-2.34.123-5.89-5.956.33 6.247-2.02.106-.65-12.31 2.02-.107.32 5.972 4.94-6.247zm3.43-.18l2.16-.113 3.03 6.866c.17.405.33.796.47 1.172.16.376.3.745.43 1.107.13.346.23.686.31 1.02l.09-.005c.07-.388.19-.893.36-1.516.16-.638.34-1.277.52-1.916l2.14-7.113 2.18-.115-4.57 14.29c-.25.78-.56 1.464-.93 2.052a3.87 3.87 0 01-1.36 1.407c-.53.35-1.19.546-1.99.588a5.93 5.93 0 01-.97-.019 6.264 6.264 0 01-.72-.077l-.08-1.608c.17.022.37.042.6.06.25.018.5.02.76.007.48-.025.88-.138 1.2-.34.35-.186.63-.455.86-.804.23-.335.41-.728.56-1.181l.56-1.665-5.61-12.097z" fill="#161513"/><g clip-path="url(#clip5_73_329)" fill-rule="evenodd" clip-rule="evenodd"><path d="M1398.72 39.894l-1.14.722-.37-.563 1.08-.685c.12.188.27.363.43.526zm14.49-18.614l-10.42 13.203 1.02.762 4.42-2.963c1.52-2.601 5.71-8.575 5.91-11.198.07-.944.06-1.062-.93.197z" fill="#E94D35"/><path d="M1402.16 33.677a3.913 3.913 0 00-2.55.338 3.765 3.765 0 00-1.76 1.84 3.61 3.61 0 00-.16 2.505c.24.828.77 1.547 1.5 2.035a3.898 3.898 0 004.83-.407 3.647 3.647 0 00.55-4.699c-.27-.41-.63-.764-1.04-1.04a3.838 3.838 0 00-1.37-.572zm-2.17 1.579a2.593 2.593 0 011.66-.387c.58.062 1.12.318 1.53.725.4.407.65.94.7 1.508a2.42 2.42 0 01-.43 1.605c-.33.47-.82.815-1.38.975a2.59 2.59 0 01-1.7-.1 2.434 2.434 0 01-1.24-1.127 2.41 2.41 0 01-.23-1.644c.07-.316.2-.616.38-.883.19-.267.43-.495.71-.672zm-.22-13.271l11.74 12.04-.94.866-4.7-2.486c-1.78-2.428-6.57-7.93-7.04-10.52-.17-.93-.18-1.048.94.1z" fill="#E94D35"/><path d="M1412.06 33.158a3.9 3.9 0 012.57.07c.83.312 1.51.894 1.94 1.645.43.752.58 1.626.43 2.475-.16.85-.61 1.62-1.28 2.18a3.92 3.92 0 01-2.41.897 3.877 3.877 0 01-2.44-.796 3.671 3.671 0 01-1.36-2.125 3.595 3.595 0 01.33-2.49 3.78 3.78 0 012.22-1.855zm2.32 1.344a2.56 2.56 0 00-1.68-.212 2.52 2.52 0 00-1.45.88 2.44 2.44 0 00-.54 1.574c.01.57.22 1.118.6 1.552.37.433.9.724 1.47.825.58.1 1.17.002 1.68-.276.51-.279.91-.721 1.12-1.252a2.463 2.463 0 00-.42-2.497 2.541 2.541 0 00-.78-.594z" fill="#E94D35"/><path d="M1406.61 30.078a1.271 1.271 0 011.34.364c.1.122.18.263.23.415.1.307.08.64-.07.928-.15.287-.41.506-.73.608-.15.05-.32.069-.48.056a1.313 1.313 0 01-.47-.128 1.12 1.12 0 01-.38-.294 1.151 1.151 0 01-.24-.415 1.2 1.2 0 01.08-.928c.15-.288.41-.506.72-.606zm.85-.379a.125.125 0 01-.06.035.106.106 0 01-.07-.016c-.01-.013-.03-.034-.03-.056 0-.023 0-.046.02-.064l6.15-8.122c.02-.019.04-.03.06-.034.02-.003.05.002.07.015.01.014.03.034.03.057 0 .022 0 .045-.02.063l-6.15 8.122zm-.97-.058a.08.08 0 01.03.061c0 .023-.01.044-.03.06a.093.093 0 01-.06.022.1.1 0 01-.07-.027l-6.96-7.435c-.02-.017-.03-.04-.02-.062 0-.023.01-.044.03-.059.01-.015.04-.023.06-.022.02 0 .05.01.06.027l6.96 7.435zm.88.875a.84.84 0 00-.63-.047.799.799 0 00-.39.27.872.872 0 00-.18.435.832.832 0 00.45.779.845.845 0 00.91-.107.725.725 0 00.2-.247.805.805 0 00.09-.302.665.665 0 00-.04-.312.738.738 0 00-.15-.275.921.921 0 00-.26-.194z" fill="#fff"/><path d="M1401.28 35.779c-.37.019-.72.16-.99.402-.27.242-.45.568-.5.922-.06.354.02.716.21 1.022.19.306.48.539.83.658a1.602 1.602 0 001.89-.67c.19-.308.26-.67.21-1.024a1.578 1.578 0 00-1.65-1.31zm-1.31.317c.29-.316.68-.525 1.11-.59.43-.064.87.02 1.25.236.37.216.66.552.8.952.15.399.15.836.01 1.236-.15.401-.43.74-.81.96a1.912 1.912 0 01-2.36-.331 1.871 1.871 0 01-.49-1.14c-.02-.486.15-.961.49-1.323zm13.18-.94c-.36.02-.71.162-.98.403a1.52 1.52 0 00-.29 1.938c.19.306.48.537.82.656.35.119.73.117 1.07-.005.35-.121.64-.356.82-.663a1.508 1.508 0 00-.29-1.936c-.16-.135-.34-.24-.53-.307-.2-.068-.41-.097-.62-.086zm-1.31.318c.29-.317.69-.525 1.12-.59.43-.064.87.019 1.24.235.38.217.66.553.81.952.15.4.15.837 0 1.237-.14.4-.43.74-.8.96a1.911 1.911 0 01-2.36-.331c-.3-.314-.47-.717-.49-1.141-.03-.485.15-.96.48-1.322z" fill="#E94D35"/></g><path d="M1302.19 32.67c.94-.05 1.75.038 2.46.262.7.21 1.25.548 1.66 1.018.41.455.63 1.027.67 1.716.04.75-.14 1.358-.53 1.824-.39.45-.94.794-1.65 1.03l.01.093c.49.112.96.28 1.38.503.43.223.77.528 1.04.913.28.384.44.89.47 1.518a3.08 3.08 0 01-.48 1.868c-.34.57-.89 1.037-1.65 1.4-.75.361-1.73.574-2.94.637-.58.03-1.14.03-1.68-.004-.52-.034-1-.101-1.44-.201a5.97 5.97 0 01-1.12-.379l-.1-1.814c.53.218 1.16.407 1.87.57.73.16 1.52.22 2.36.175.61-.032 1.16-.13 1.64-.293.5-.164.89-.4 1.17-.706.27-.321.39-.742.37-1.263-.03-.475-.18-.85-.45-1.128-.28-.292-.68-.502-1.21-.627-.51-.127-1.17-.17-1.97-.128l-1.65.087-.09-1.654 1.34-.07c1.05-.055 1.89-.237 2.5-.546.63-.324.92-.831.89-1.52-.03-.582-.3-1.006-.8-1.27-.49-.267-1.19-.376-2.1-.329a7.11 7.11 0 00-1.78.3c-.49.15-1.04.37-1.64.663l-.8-1.57a9.503 9.503 0 012.03-.752 11.98 11.98 0 012.22-.324zm13.17-.668c1.5-.078 2.62.193 3.38.814.75.62 1.17 1.65 1.24 3.09l.44 8.383-1.47.077-.48-1.725-.09.005c-.33.462-.68.857-1.04 1.183-.36.31-.77.547-1.26.71-.46.163-1.04.263-1.73.299-.74.038-1.41-.057-2.02-.286-.6-.23-1.08-.604-1.44-1.122-.37-.534-.57-1.214-.62-2.04-.06-1.226.37-2.193 1.3-2.902.93-.724 2.4-1.17 4.4-1.336l2.09-.178-.04-.735c-.05-1.026-.31-1.726-.78-2.101-.46-.375-1.1-.541-1.91-.499-.65.034-1.25.166-1.82.395-.58.214-1.11.457-1.6.729l-.7-1.484c.52-.319 1.14-.597 1.87-.835.72-.253 1.48-.4 2.28-.442zm.94 6.538c-1.53.142-2.58.442-3.16.903-.56.459-.81 1.079-.77 1.86.03.689.27 1.183.7 1.483.44.3.99.431 1.65.397 1.04-.054 1.89-.383 2.55-.986.66-.618.96-1.524.9-2.718l-.06-1.103-1.81.164zm9.76-2.4c.04.72.27 1.245.68 1.576.43.316 1.03.453 1.8.413.76-.04 1.46-.191 2.07-.454.62-.278 1.24-.633 1.88-1.066l-.28-5.283 2.02-.106.65 12.312-2.02.106-.29-5.49c-.67.48-1.33.868-1.99 1.164-.64.28-1.43.443-2.37.492-1.25.066-2.25-.212-2.99-.833-.72-.622-1.11-1.485-1.17-2.587l-.24-4.617 2.02-.106.23 4.479zm14.59-5.256l.64 12.312-2.02.105-.65-12.31 2.03-.107zm-1.23-4.564c.3-.017.58.077.82.279.25.186.39.501.41.945.03.43-.08.757-.31.984-.22.227-.48.348-.79.364-.34.018-.62-.075-.87-.277-.24-.202-.37-.518-.39-.947-.02-.444.07-.771.29-.982.22-.227.5-.349.84-.366zm11.2 16.617c-1.09.057-2.07-.114-2.95-.513-.87-.4-1.57-1.054-2.11-1.963-.52-.909-.82-2.09-.9-3.545-.08-1.516.11-2.762.57-3.738.45-.976 1.1-1.708 1.93-2.197.85-.49 1.83-.764 2.93-.822.63-.033 1.24.005 1.82.112.59.092 1.08.22 1.45.384l-.53 1.71c-.37-.119-.81-.227-1.31-.323a5.652 5.652 0 00-1.38-.112c-.83.044-1.5.255-2.02.636-.52.38-.89.921-1.11 1.624-.23.703-.31 1.567-.26 2.593.05.98.23 1.808.52 2.483.3.675.72 1.176 1.26 1.5.54.325 1.2.467 1.98.427.67-.036 1.26-.136 1.75-.3.52-.165.98-.358 1.4-.58l.1 1.792c-.41.236-.86.42-1.36.554-.48.148-1.07.241-1.78.278zm13.2-13.267l2.21-.116-4.95 6.202 6.03 6.087-2.34.122-5.89-5.956.33 6.248-2.02.105-.65-12.31 2.02-.107.31 5.972 4.95-6.247zm3.43-.18l2.16-.113 3.03 6.866c.17.405.33.796.47 1.173.16.375.3.744.43 1.106.13.346.23.687.31 1.02l.09-.005c.07-.387.19-.893.36-1.515.16-.639.34-1.277.52-1.916l2.14-7.114 2.18-.114-4.57 14.288a8.981 8.981 0 01-.93 2.053c-.35.602-.81 1.07-1.36 1.407-.53.35-1.2.546-1.99.588-.37.02-.69.013-.97-.018a6.261 6.261 0 01-.72-.078l-.08-1.608c.17.022.37.042.6.06.25.019.5.02.76.007.47-.025.88-.138 1.2-.34.35-.186.63-.455.86-.804.23-.335.41-.728.56-1.181l.56-1.665-5.61-12.097zm77.61 9.28l-2.24-4.973-6.5.34-1.69 5.179-2.09.11 5.55-16.805 1.86-.098 7.24 16.134-2.13.112zm-5.06-11.643c-.05-.12-.14-.338-.26-.654-.13-.316-.25-.64-.38-.971-.11-.347-.2-.611-.27-.792-.06.31-.13.629-.2.955-.06.31-.13.598-.21.863-.06.264-.12.49-.17.677l-1.6 5.059 5.19-.272-2.1-4.865zm8.61 4.04c-.09-1.792 0-3.325.29-4.599.3-1.29.81-2.33 1.52-3.12.72-.805 1.68-1.37 2.86-1.692.98-.267 1.94-.51 2.88-.727.94-.218 1.82-.418 2.64-.6l.44 1.751c-.39.082-.83.182-1.32.3-.49.102-.98.212-1.48.33-.5.104-.99.213-1.46.33-.45.1-.85.199-1.2.294-.5.133-.94.34-1.33.622-.38.266-.71.62-.98 1.065a5.55 5.55 0 00-.58 1.62c-.14.636-.2 1.384-.18 2.243l.13-.007a5.4 5.4 0 01.83-.942c.37-.326.81-.61 1.31-.852.53-.242 1.13-.38 1.8-.416 1.07-.056 1.97.134 2.7.572.75.422 1.32 1.037 1.71 1.845.41.808.65 1.763.71 2.865.07 1.363-.11 2.516-.54 3.46-.42.944-1.05 1.667-1.86 2.17-.82.489-1.79.762-2.91.82-.84.045-1.61-.076-2.32-.361-.71-.3-1.32-.76-1.85-1.377-.52-.618-.94-1.394-1.25-2.33-.31-.936-.49-2.024-.56-3.264zm6.05 5.648c.68-.036 1.25-.204 1.73-.505.49-.302.86-.775 1.1-1.417.24-.642.34-1.484.28-2.525-.06-1.256-.35-2.23-.87-2.926-.49-.71-1.28-1.038-2.35-.982-.67.036-1.28.22-1.81.556-.54.32-.98.68-1.33 1.083-.35.402-.59.737-.73 1.005.04.75.13 1.475.28 2.174.14.699.36 1.325.65 1.878.3.536.7.96 1.19 1.273.51.296 1.13.424 1.86.386zm19.59-5.771c.05 1.026-.04 1.944-.27 2.755a5.58 5.58 0 01-1.04 2.058 4.914 4.914 0 01-1.75 1.358c-.69.313-1.47.492-2.35.538a5.996 5.996 0 01-2.27-.295 5.187 5.187 0 01-1.86-1.17c-.53-.525-.96-1.17-1.3-1.936-.31-.781-.5-1.685-.55-2.711-.07-1.363.1-2.523.51-3.481.41-.974 1.03-1.728 1.86-2.263.83-.55 1.83-.856 3.01-.918 1.12-.059 2.11.143 2.98.604.89.445 1.59 1.13 2.11 2.054.54.908.85 2.044.92 3.407zm-9.3.487c.05.965.21 1.8.5 2.508.29.69.72 1.213 1.28 1.568.55.355 1.24.51 2.07.467.83-.043 1.5-.27 2.02-.681.51-.411.87-.975 1.08-1.693.22-.733.31-1.582.26-2.547-.05-.98-.23-1.807-.52-2.483-.3-.675-.72-1.183-1.28-1.522-.54-.355-1.23-.511-2.07-.467-1.26.066-2.15.527-2.67 1.383-.53.857-.75 2.013-.67 3.467zm-260.04 4.38c2.15-.112 3.73.227 4.75 1.018 1.03.791 1.58 1.952 1.66 3.483.04.674-.05 1.33-.24 1.97-.18.624-.52 1.195-.99 1.711-.48.516-1.14.942-1.96 1.277-.83.32-1.86.512-3.08.576l-1.89.099.34 6.385-2.07.108-.86-16.399 4.34-.228zm-.09 1.779l-2.09.11.34 6.476 1.65-.086c1.05-.055 1.9-.207 2.58-.458.68-.266 1.17-.652 1.48-1.16.32-.508.45-1.16.41-1.956-.06-1.056-.43-1.827-1.14-2.313-.7-.485-1.77-.69-3.23-.613zm21.1 7.37c.05 1.026-.04 1.944-.27 2.755a5.58 5.58 0 01-1.04 2.058 4.829 4.829 0 01-1.75 1.358c-.69.313-1.47.492-2.35.538a6.023 6.023 0 01-2.27-.296 5.188 5.188 0 01-1.86-1.17c-.53-.524-.96-1.17-1.3-1.935-.31-.782-.5-1.686-.55-2.711-.07-1.363.1-2.524.51-3.482.41-.973 1.03-1.727 1.86-2.262.83-.55 1.83-.857 3.01-.918 1.12-.059 2.11.142 2.98.604.89.445 1.59 1.13 2.11 2.054.54.908.85 2.044.92 3.407zm-9.3.487c.05.965.22 1.8.5 2.507.3.691.72 1.214 1.28 1.569.55.354 1.25.51 2.07.467.83-.044 1.5-.27 2.02-.682.51-.41.87-.975 1.08-1.692.22-.733.31-1.582.26-2.547-.05-.98-.22-1.808-.52-2.483-.3-.675-.72-1.183-1.28-1.522-.54-.356-1.23-.511-2.07-.467-1.26.066-2.15.527-2.67 1.383-.52.857-.75 2.012-.67 3.467zm12.28-1.864c-.1-1.792 0-3.324.28-4.599.31-1.29.81-2.33 1.52-3.12.73-.805 1.68-1.37 2.86-1.692.99-.267 1.95-.509 2.89-.727.94-.218 1.82-.418 2.64-.6l.44 1.751c-.4.082-.84.182-1.32.3-.49.102-.98.212-1.48.33-.5.104-.99.214-1.46.33-.46.101-.86.199-1.21.294-.5.133-.94.34-1.32.622-.39.266-.71.62-.98 1.065-.26.443-.45.983-.59 1.62-.13.636-.19 1.384-.18 2.243l.14-.007a5.4 5.4 0 01.83-.942c.36-.326.8-.61 1.31-.852.53-.242 1.12-.38 1.8-.416 1.07-.056 1.97.134 2.7.572.74.422 1.31 1.037 1.71 1.845.41.808.64 1.763.7 2.865.07 1.363-.1 2.517-.53 3.46-.43.944-1.05 1.667-1.87 2.17-.82.489-1.78.762-2.9.821-.84.044-1.62-.076-2.32-.362a4.89 4.89 0 01-1.85-1.377c-.52-.618-.94-1.394-1.25-2.33-.31-.936-.5-2.024-.56-3.264zm6.05 5.648c.67-.036 1.25-.204 1.72-.505.49-.302.86-.774 1.1-1.417.25-.642.34-1.484.29-2.525-.07-1.255-.36-2.23-.87-2.925-.5-.711-1.28-1.039-2.36-.983a3.74 3.74 0 00-1.81.556c-.53.32-.98.68-1.32 1.083-.35.402-.59.737-.73 1.005.04.75.13 1.475.27 2.174.15.699.36 1.325.65 1.878.31.536.71.96 1.2 1.273.5.296 1.13.424 1.86.386zm10.86-3.932c.01.138.01.337.01.598.01.245.02.514.02.806 0 .276 0 .545-.01.806 0 .246 0 .445-.01.6l6.05-10.659 2.48-.13.65 12.311-1.89.099-.38-7.258c-.01-.245-.03-.567-.05-.965 0-.399-.01-.79-.01-1.174-.01-.398-.01-.698 0-.898l-6.01 10.633-2.5.131-.65-12.31 1.91-.1.39 7.51zm26.15-8.901l.64 12.31-1.81.096-.41-7.856a16.32 16.32 0 01-.03-1.011l.03-1.039-.07.004-3.5 10.11-1.7.089-4.42-9.695-.07.004c.05.335.08.679.1 1.031.04.351.06.71.08 1.078l.41 7.787-1.82.095-.64-12.311 2.69-.141 4.4 9.696 3.43-10.107 2.69-.14zm15.43 5.34c.05 1.026-.04 1.944-.27 2.755-.22.795-.57 1.48-1.04 2.058a4.914 4.914 0 01-1.75 1.359c-.69.312-1.47.492-2.35.537a5.994 5.994 0 01-2.27-.295 5.19 5.19 0 01-1.86-1.17c-.53-.524-.96-1.17-1.3-1.935-.31-.782-.5-1.686-.55-2.712-.07-1.363.1-2.523.51-3.481.41-.974 1.03-1.728 1.86-2.263.83-.55 1.83-.856 3.01-.918 1.12-.058 2.11.143 2.98.604.89.445 1.59 1.13 2.11 2.054.54.909.85 2.044.92 3.407zm-9.3.488c.05.964.21 1.8.5 2.507.29.69.72 1.213 1.28 1.568.55.355 1.24.51 2.07.467.83-.043 1.5-.27 2.02-.681.51-.411.87-.975 1.08-1.692.22-.734.31-1.583.26-2.547-.05-.98-.23-1.808-.52-2.483-.3-.676-.72-1.183-1.28-1.523-.54-.355-1.23-.51-2.07-.467-1.26.066-2.15.527-2.67 1.384-.53.856-.75 2.012-.67 3.467zm207.83-13.114c-.1-1.792 0-3.325.28-4.599.3-1.29.81-2.33 1.52-3.12.73-.805 1.68-1.37 2.86-1.692.99-.267 1.95-.51 2.89-.727.94-.219 1.82-.418 2.64-.6l.44 1.751c-.4.082-.84.182-1.32.3-.49.102-.98.212-1.48.33-.51.104-.99.213-1.46.33-.46.1-.86.199-1.21.294-.5.133-.94.34-1.32.622-.39.266-.71.62-.98 1.065-.26.443-.45.983-.59 1.62-.13.636-.19 1.384-.18 2.243l.14-.007c.2-.302.47-.616.83-.942.36-.326.8-.61 1.31-.852.52-.242 1.12-.381 1.8-.416 1.07-.056 1.97.134 2.7.572.74.422 1.31 1.037 1.71 1.845.41.808.64 1.763.7 2.865.07 1.363-.11 2.516-.53 3.46-.43.944-1.05 1.667-1.87 2.17-.82.489-1.79.762-2.9.82-.85.045-1.62-.076-2.33-.361-.7-.3-1.32-.76-1.84-1.377-.53-.618-.94-1.395-1.25-2.33-.31-.936-.5-2.024-.56-3.264zm6.05 5.648c.67-.036 1.25-.204 1.72-.505.49-.302.86-.774 1.1-1.417.25-.642.34-1.484.29-2.525-.07-1.256-.36-2.23-.87-2.926-.5-.71-1.28-1.038-2.36-.982a3.74 3.74 0 00-1.81.556c-.54.32-.98.68-1.32 1.083-.35.402-.6.737-.74 1.005.04.75.14 1.475.28 2.174.14.699.36 1.325.65 1.877.31.537.7.962 1.2 1.274.5.296 1.12.424 1.86.386zm19.58-5.771c.06 1.026-.03 1.944-.27 2.755-.21.794-.56 1.48-1.04 2.058a4.747 4.747 0 01-1.75 1.358c-.69.313-1.47.492-2.34.538a5.996 5.996 0 01-2.27-.296 5.021 5.021 0 01-1.86-1.169c-.54-.525-.97-1.17-1.3-1.936-.32-.781-.5-1.685-.56-2.711-.07-1.363.1-2.523.51-3.482.41-.973 1.03-1.727 1.86-2.262.83-.55 1.84-.856 3.02-.918 1.12-.059 2.11.142 2.98.604.88.445 1.58 1.13 2.11 2.054.54.908.84 2.044.91 3.407zm-9.3.487c.05.965.22 1.8.5 2.508.3.69.73 1.213 1.28 1.568.56.354 1.25.51 2.08.467.82-.044 1.49-.27 2.01-.682.52-.41.88-.974 1.09-1.692.22-.733.31-1.582.25-2.547-.05-.98-.22-1.807-.52-2.483-.29-.675-.72-1.183-1.27-1.522-.55-.356-1.24-.511-2.08-.467-1.25.066-2.14.527-2.67 1.383-.52.857-.74 2.013-.67 3.467z" fill="#161513"/><defs><clipPath id="clip0_73_329"><path fill="#fff" transform="rotate(-3 1795.317 -273.232)" d="M0 0h20v20H0z"/></clipPath><clipPath id="clip1_73_329"><path fill="#fff" transform="rotate(-3 1620.977 -6930.98)" d="M0 0h20v20H0z"/></clipPath><clipPath id="clip2_73_329"><path fill="#fff" transform="rotate(-3 1504.795 -11367.8)" d="M0 0h20v20H0z"/></clipPath><clipPath id="clip3_73_329"><path fill="#fff" transform="rotate(-3 1413.11 -14869.135)" d="M0 0h20v20H0z"/></clipPath><clipPath id="clip4_73_329"><path fill="#fff" transform="rotate(-3 1221.293 -22194.23)" d="M0 0h20v20H0z"/></clipPath><clipPath id="clip5_73_329"><path fill="#fff" transform="rotate(-3 1104.638 -26649.1)" d="M0 0h20v20H0z"/></clipPath></defs></svg>