<svg id="Слой_1" data-name="Слой 1" xmlns="http://www.w3.org/2000/svg" viewBox="0 0 40 40"><defs><style>.cls-1{fill:#e94d35;fill-rule:evenodd}</style></defs><path class="cls-1" d="M3 37.41L.69 38.74 0 37.58l2.23-1.26A7.16 7.16 0 003 37.41zM33.93 1.76L11.75 27l1.95 1.63 9.14-5.45c3.3-5 12.3-16.53 13-21.76.21-1.84.21-2.07-1.91.34z"/><path class="cls-1" d="M10.56 25.36a7.78 7.78 0 00-5.8.75 7.41 7.41 0 00-3.55 4.52A7.23 7.23 0 002 36.28a7.58 7.58 0 004.6 3.46 7.77 7.77 0 005.8-.74 7.46 7.46 0 003.6-4.52 7.27 7.27 0 00-.77-5.65 7.57 7.57 0 00-4.63-3.47zm-4.5 2.93a5.1 5.1 0 013.83-.49A5 5 0 0113 30.09a4.84 4.84 0 01.5 3.74 4.93 4.93 0 01-2.35 3 5.17 5.17 0 01-3.84.49A5 5 0 014.21 35a4.81 4.81 0 01-.51-3.74 4.91 4.91 0 012.36-2.97zM7 1.76L29.2 27l-2 1.63-9.1-5.42c-3.3-5-12.29-16.53-13-21.76-.2-1.87-.2-2.1 1.9.31z"/><path class="cls-1" d="M30.39 25.36a7.75 7.75 0 015.79.75 7.46 7.46 0 013.56 4.52 7.32 7.32 0 01-.74 5.65 7.58 7.58 0 01-4.64 3.46 7.74 7.74 0 01-5.81-.74A7.39 7.39 0 0125 34.48a7.23 7.23 0 01.76-5.65 7.59 7.59 0 014.64-3.47zm4.5 2.93a5.11 5.11 0 00-3.83-.49A5 5 0 0028 30.09a4.79 4.79 0 00-.51 3.74 5 5 0 002.36 3 5.15 5.15 0 003.83.49A5 5 0 0036.74 35a4.85 4.85 0 00.5-3.74 4.9 4.9 0 00-2.35-2.97z"/><path d="M19.83 18.64a2.51 2.51 0 011.89.24 2.41 2.41 0 011.16 1.48 2.37 2.37 0 01-.25 1.85 2.46 2.46 0 01-1.51 1.13 2.59 2.59 0 01-1.9-.24 2.45 2.45 0 01-1.16-1.48 2.37 2.37 0 01.25-1.85 2.46 2.46 0 011.52-1.13zm1.73-.64a.18.18 0 01-.25 0 .16.16 0 010-.24L34.42 2.17a.19.19 0 01.25 0 .17.17 0 010 .24L21.56 18zm-1.92-.22a.17.17 0 010 .24.18.18 0 01-.25 0L6.23 2.39a.17.17 0 010-.24.18.18 0 01.25 0l13.16 15.6zm1.66 1.84a1.75 1.75 0 00-1.3-.19 1.68 1.68 0 00-1 .75 1.59 1.59 0 00-.16 1.23 1.57 1.57 0 00.77 1 1.63 1.63 0 001.25.16 1.6 1.6 0 001-.75 1.56 1.56 0 00.17-1.22 1.66 1.66 0 00-.73-1.01z" fill="#fff" fill-rule="evenodd"/><path class="cls-1" d="M8.58 29.47a3.19 3.19 0 00-2.24.9 3 3 0 000 4.37 3.24 3.24 0 004.48 0 3 3 0 000-4.37 3.19 3.19 0 00-2.24-.9zM5.92 30a3.84 3.84 0 015.32 0 3.6 3.6 0 010 5.18 3.82 3.82 0 01-5.32 0 3.6 3.6 0 010-5.18zm26.44-.53a3.21 3.21 0 00-2.24.9 3.05 3.05 0 000 4.37 3.21 3.21 0 002.24.9 3.18 3.18 0 002.24-.9 3 3 0 000-4.37 3.18 3.18 0 00-2.24-.9zm-2.65.53A3.83 3.83 0 0135 30a3.6 3.6 0 010 5.18 3.8 3.8 0 01-5.31 0 3.6 3.6 0 010-5.18z"/></svg>