<svg id="Layer_1" data-name="Layer 1" xmlns="http://www.w3.org/2000/svg" viewBox="0 0 221.92 497.14"><defs><style>.cls-2,.cls-4{fill:#141559}.cls-2,.cls-3,.cls-6,.cls-7,.cls-8{fill-rule:evenodd}.cls-3{fill:#e94d35}.cls-5{opacity:.5}.cls-6{fill:#fff}.cls-7{fill:#ffb68b}.cls-8{fill:#b54833}.cls-9{opacity:.4}.cls-10{opacity:.3}.cls-13{opacity:.69}</style></defs><path class="cls-2" d="M111 468.39c53.07 0 96.1 6.44 96.1 14.38s-43 14.37-96.1 14.37-96.1-6.44-96.1-14.37 43-14.38 96.1-14.38" opacity=".17"/><path class="cls-3" d="M96.66 179.75a54.09 54.09 0 0029.19-.35c44.08 5 80.36 57.45 88.78 98.08 2.14 10.32-.63 15.73-12.78 17.48q-10.68 2.91-14.24-6.61a114.21 114.21 0 00-21.74-45.83 440.56 440.56 0 01-3.82 59.64A92.43 92.43 0 0160.4 303q-4.08-30.35-5.59-61c-7.41 10.42-12.49 28.74-23.35 51.7-2.19 4.62-9.76 3-14.57 1.31a17.44 17.44 0 01-10.41-10.19c7.22-41.47 45.89-99.05 90.18-105.07z"/><path class="cls-4" d="M110.55 320.37A94.82 94.82 0 0159 305.16a2.49 2.49 0 01-1.13-1.78 727.483 727.483 0 01-5.15-52.83c-2.52 5-5 11.12-7.83 18.2-3.11 7.74-6.64 16.51-11.18 26.11-2.3 4.87-8.75 5.81-17.7 2.6a19.87 19.87 0 01-11.89-11.75 2.49 2.49 0 01-.12-1.32c3.76-21.63 15.61-46.67 31.69-67 18.31-23.05 39.82-37.31 60.63-40.14a2.35 2.35 0 011 .06 51.68 51.68 0 0027.83-.33 2.41 2.41 0 011-.09c20.67 2.36 41.77 15.35 59.42 36.58 15.34 18.47 27.13 42.2 31.55 63.5 1.29 6.25.81 10.7-1.51 14s-6.61 5.47-13.23 6.45c-8.25 2.19-14.33-.72-17.13-8.21 0-.11-.07-.22-.1-.33a112.18 112.18 0 00-16.79-38.72 443.7 443.7 0 01-3.8 52.31 2.57 2.57 0 01-1.1 1.77 94.9 94.9 0 01-52.91 16.13zm-47.81-18.83a89.82 89.82 0 0096.95-.85 438.39 438.39 0 003.65-58.16 2.53 2.53 0 014.51-1.57A117.42 117.42 0 01190 287.62c1.92 5 5.36 6.48 11.16 4.9l.3-.06c5.17-.74 8.43-2.18 10-4.37s1.69-5.31.7-10.1c-7.64-36.88-41.78-90.6-86.1-96a56.64 56.64 0 01-29.55.35c-19.37 2.79-39.51 16.35-56.86 38.22C24.24 240 12.86 263.87 9.1 284.55a14.83 14.83 0 008.65 8.16c4.86 1.74 10.28 2.42 11.42 0 4.48-9.47 8-18.16 11.07-25.84 4.47-11.12 8-19.91 12.51-26.25a2.52 2.52 0 014.58 1.38c.98 19.81 2.8 39.85 5.41 59.54z"/><g class="cls-5"><path class="cls-6" d="M214.87 288.66a17.33 17.33 0 002-3.84c-7.12-40.95-44.87-97.6-88.5-104.82q61.13 27.75 86.5 108.65m-206.37 0a17.79 17.79 0 01-2-3.84C13.61 243.87 51.4 187.22 95 180Q33.87 207.76 8.5 288.66z"/></g><path class="cls-4" d="M110.55 320.37A94.82 94.82 0 0159 305.16a2.49 2.49 0 01-1.13-1.78 727.483 727.483 0 01-5.15-52.83c-2.52 5-5 11.12-7.83 18.2-3.11 7.74-6.64 16.51-11.18 26.11-2.3 4.86-8.75 5.81-17.7 2.6a19.87 19.87 0 01-11.89-11.75 2.48 2.48 0 01-.12-1.32c3.76-21.63 15.61-46.67 31.69-67C54 194.34 75.5 180.08 96.32 177.25a2.36 2.36 0 011 .06 51.68 51.68 0 0027.83-.33 2.41 2.41 0 011-.09c20.67 2.36 41.77 15.35 59.42 36.58 15.34 18.47 27.13 42.2 31.55 63.5 1.29 6.25.81 10.7-1.51 14s-6.61 5.47-13.23 6.45c-8.25 2.19-14.33-.72-17.13-8.21a3.18 3.18 0 01-.1-.33 112.18 112.18 0 00-16.79-38.72 443.7 443.7 0 01-3.8 52.31 2.53 2.53 0 01-1.1 1.76 94.83 94.83 0 01-52.91 16.14zm-47.81-18.83a89.82 89.82 0 0096.95-.85 438.39 438.39 0 003.65-58.16 2.53 2.53 0 014.51-1.57A117.42 117.42 0 01190 287.62c1.92 5 5.36 6.48 11.16 4.9l.3-.06c5.17-.74 8.43-2.18 10-4.37s1.7-5.31.7-10.1c-7.64-36.88-41.78-90.6-86.1-96a56.64 56.64 0 01-29.55.35c-19.37 2.79-39.51 16.35-56.86 38.22-15.41 19.45-26.79 43.31-30.56 64a14.85 14.85 0 008.66 8.16c4.86 1.74 10.28 2.42 11.42 0 4.48-9.46 8-18.16 11.07-25.83 4.47-11.13 8-19.92 12.52-26.26a2.53 2.53 0 014.58 1.37c.97 19.8 2.79 39.84 5.4 59.54z"/><path class="cls-7" d="M96.66 179.75a54.09 54.09 0 0029.19-.35c1.51.17 3 .4 4.49.68a20 20 0 01-37 .23c1.1-.22 2.21-.41 3.32-.56z"/><path class="cls-4" d="M111.79 194.75a22.11 22.11 0 01-20.45-13.61 2.17 2.17 0 011.59-3c1.25-.24 2.38-.43 3.44-.58a2.21 2.21 0 01.85.06 51.88 51.88 0 0028-.34 2.27 2.27 0 01.86-.07c1.5.17 3.06.41 4.64.71a2.16 2.16 0 011.61 2.93 22.12 22.12 0 01-20.42 13.86zM96.62 182a17.81 17.81 0 0015.17 8.44h.11a17.79 17.79 0 0015.21-8.68l-1.11-.16a56.32 56.32 0 01-29.38.4z"/><path class="cls-7" d="M48.5 125.6c1 20.51 14.89 43 36.73 49.65a54.09 54.09 0 0052.14-.74c21.68-7.43 34.48-27.74 36.87-50.53s7.53-45.65 9.7-69.62a10.06 10.06 0 00-12.63-11A65.25 65.25 0 0050.86 42c-22.65-1.52-3.31 63.08-2.36 83.6z"/><path class="cls-4" d="M110.64 184.15a56.62 56.62 0 01-26.38-6.56c-23.89-7.42-37.33-31.68-38.26-51.88-.24-5.13-1.68-13.17-3.34-22.48-4.26-23.82-9.08-50.81-.59-60.29a10.24 10.24 0 017.17-3.45A67.61 67.61 0 01110.8 0h.75a67.59 67.59 0 0161.3 40.5 12.59 12.59 0 0113.6 14.13c-1.17 12.92-3.21 25.62-5.18 37.9-1.76 10.92-3.41 21.24-4.51 31.72a68.6 68.6 0 01-11.65 32.2 54.26 54.26 0 01-26.69 20.37 56.56 56.56 0 01-27.78 7.33zM51 125.48c.86 18.5 13.14 40.7 34.93 47.35a2.25 2.25 0 01.45.19 51.35 51.35 0 0049.72-.7 2.3 2.3 0 01.42-.2c19.55-6.7 32.7-24.8 35.18-48.4 1.12-10.62 2.86-21.48 4.55-32 2-12.21 4-24.84 5.15-37.6a.31.31 0 010-.1 7.54 7.54 0 00-9.4-8.25 2.52 2.52 0 01-3-1.49A62.72 62.72 0 0053.18 43a2.52 2.52 0 01-2.49 1.53 5.55 5.55 0 00-4.88 1.77C39 54 44 81.92 47.61 102.34c1.7 9.49 3.16 17.68 3.42 23.14z"/><path class="cls-8" d="M48.13 121.32c.09.78.17 1.52.23 2.23m.14 2c1 20.51 14.89 43 36.73 49.65l.69.36.15.07.7.35 1.51.72.71.31h.05l.79.34.72.28.65.25.11.05.79.29.78.28h.08l.72.25.72.23h.19l.66.2h.06l.18.05.55.16h.08a54.07 54.07 0 0030.74-.68l1.62-.54.73-.27h.05c.52-.19 1-.4 1.57-.61l.78-.32h.11l1.43-.64.69-.33h.17l.64-.32h.05l.67-.34.73-.4h.06l.69-.39c21.68-7.43 34.48-27.74 36.87-50.53s7.53-45.65 9.7-69.62a10.06 10.06 0 00-12.63-11A65.25 65.25 0 0050.86 42H48.8q-.42.06-.81.15h-.16a5.43 5.43 0 00-.61.18l-.23.08a5.3 5.3 0 00-.65.28h-.06a7.44 7.44 0 00-.66.38l-.18.12-.48.34-.15.13a6.91 6.91 0 00-.57.51l-.09.11a5.12 5.12 0 00-.44.49l-.15.17c-.15.19-.29.39-.43.59l-.05.08c-.16.23-.3.47-.44.71l-.11.21c-.11.2-.21.4-.31.61l-.1.21c-.13.27-.24.55-.36.83l-.06.16-.27.76-.08.25c-.08.26-.16.53-.23.8v.18c-.09.32-.17.64-.24 1l-.07.31c0 .27-.11.53-.16.8l-.05.28c-.06.36-.12.72-.17 1.09v.21l-.12 1v.37c0 .29-.06.59-.08.89v.32c0 .39-.06.79-.08 1.2V64c0 .45 0 .9.05 1.36v.42l.06 1.11v.38l.08 1.26V69l.09 1.15v.55l.11 1.19v.29l.15 1.53v.39l.13 1.12.06.55.12 1.12.08.68.18 1.37v.31l.15 1.09.1.73v.06l.18 1.28v.17l.06.45.25.97.13.84v.15l.18 1.18v.19l.24 1.49.06.37c.17 1.06.34 2.12.52 3.18v.13l.2 1.15.1.63.11.64.2 1.13v.13l.26 1.25.06.35.16.9.15.84.07.41.22 1.23v.09l.07.4.09.48.08.48.1.36v.14l.08.47.09.48.08.47v.12l.07.35.08.47.08.47.07.37v.09l.09.47.08.46.08.45v.17l.05.29.08.45.08.46.07.4.08.45.19 1.08v.24l.07.44.07.43.08.43.21 1.27v.42l.2 1.24.18 1.17v.4l.18 1.16v.38l.14 1v.13l.15 1.08v.13c.05.39.1.77.14 1.15v.1c.09.78.17 1.52.23 2.23 0 .35.06.69.08 1 .39.49.41.77.42 1.09zm96.23 13.67a104.33 104.33 0 00-67-.89C59.56 150.2 42.65 109 53.65 96.37c8.29-9.53 12.8-18.24 7.93-32.17a104 104 0 0099.46.15 19.18 19.18 0 001.76 26.59q7.51 6.14 7.93 12.49.33 41.7-26 35.84z"/><g class="cls-9"><path class="cls-2" d="M132 12.34c-17.89 17.17-3.71 48.46-8.37 39.33a36.72 36.72 0 014.8-40.59q1.82.59 3.57 1.26m2.09-6.59a1.93 1.93 0 012.71.37 1.91 1.91 0 01.24 1.93c-1.27-.56-2.57-1.09-3.88-1.57.34-.24.65-.48.97-.73zM109.2 2.54l1.3-1.18a1.55 1.55 0 012.19.15 1.52 1.52 0 01.39 1.06h-1.55c-.78-.05-1.53-.04-2.33-.03zM96.09 9.42A41.62 41.62 0 0098.54 70a102 102 0 0012 .78 46.05 46.05 0 01-6.47-62.47c1.38-.11 2.76-.18 4.15-.2a43 43 0 007.2 62.61q3.33-.12 6.7-.43a33 33 0 01-11.49-38C112.55 27 105 58 128.52 69.5a130.8 130.8 0 0019.2-4.26 31 31 0 01-13.62-34.65c2.48-9-6 23.09 18.59 33a122.73 122.73 0 0016.94-7.34C160.84 69.52 159 79.41 165 85c4.67 4.38 7.45 8.77 8.2 13.3-.13 2.07-.2 4.09-.19 6a21.56 21.56 0 01-2.39 6q.53-15.47-9.51-21.14-6.17-5.62-3.58-20.92a1.94 1.94 0 01-1.83.45c-.81-.23-1.61-.48-2.39-.77a136.05 136.05 0 01-15.89 5.33 1.88 1.88 0 01.14 1.2 2 2 0 01-2.31 1.55 33 33 0 01-4.41-1.2c-2.43.51-4.85.92-7.25 1.25a1.48 1.48 0 01-.1 1 1.55 1.55 0 01-2.06.76c-.83-.38-1.64-.79-2.44-1.22a97.31 97.31 0 01-12.15.38 2.06 2.06 0 01-.23.7 1.93 1.93 0 01-2.63.77c-1-.57-2.08-1.19-3.08-1.85a91.9 91.9 0 01-22.69-5.1q-31.12-9.73-24.47-30.84l.48-.85c4.35 15.62 18.93 25.28 37.71 29.08A46.08 46.08 0 0187.48 63a45.47 45.47 0 012-51.81 62.39 62.39 0 016.61-1.77zm2.81-7.57a1.94 1.94 0 012.71.42 2 2 0 01.36.86q-3.07.42-6.07 1.12 1.44-1.25 3-2.4zM76 17.42a37.84 37.84 0 00-3.77 38.29c2.22 4.81-12.41-12.66-3.55-33A62.55 62.55 0 0176 17.42zM78.29 9a2 2 0 012.71.15 2 2 0 01.3.42A64.25 64.25 0 0073.87 14a49.42 49.42 0 014.42-5z"/></g><path class="cls-4" d="M110.66 184.12a56.57 56.57 0 01-14.92-2l-.83-.23h-.1l-1.6-.49h-.08l-.76-.26-.88-.31h-.08l-.8-.29-.79-.3-.1-.05-.71-.28h-.09l-.8-.34-.11-.05-.67-.3h-.07c-.55-.25-1.07-.49-1.6-.75h-.08l-.67-.34-.66-.34c-23.88-7.61-37.33-31.88-38.26-52.08v-.99c0-.27 0-.59-.07-.91-.06-.69-.14-1.41-.23-2.16v-.07c0-.39-.09-.76-.14-1.14v-.08l-.16-1.2v-.1l-.61-4v-.1l-.47-2.84-.51-3v-.08l-3-17.2c-.18-1.06-.35-2.12-.52-3.19L39 81.48v-.12L38.12 74c0-.53-.11-1-.16-1.56l-.29-3.49v-.06l-.2-3.39v-7.75c0-.45.05-.87.08-1.28v-.33l.09-.94v-.39c0-.35.08-.69.13-1v-.19c.07-.43.13-.82.19-1.2v-.28c.06-.32.12-.6.18-.88l.07-.32c.09-.4.17-.76.27-1.11l.06-.21c.08-.28.16-.57.25-.85l.1-.3c.09-.29.2-.58.3-.86l.06-.16c.14-.35.27-.67.41-1l.14-.27q.16-.37.36-.72l.12-.21c.18-.33.36-.63.55-.91l.09-.13c.15-.22.33-.46.51-.69l.17-.21c.19-.23.38-.44.58-.65l.07-.08c.29-.29.55-.52.81-.74l.19-.15c.21-.16.41-.31.63-.46l.2-.13c.33-.21.63-.38.92-.53h.1a8.41 8.41 0 01.87-.37l.26-.09c.29-.1.56-.18.84-.25h.21c.34-.08.69-.14 1-.19h.75A67.58 67.58 0 01110.8 0h.75a67.59 67.59 0 0161.3 40.5 12.59 12.59 0 0113.6 14.13c-1.17 12.92-3.21 25.62-5.18 37.9-1.76 10.92-3.41 21.24-4.51 31.72a68.6 68.6 0 01-11.65 32.2 54.32 54.32 0 01-26.69 20.37l-.52.29h-.05l-.09.05-.69.37H137l-.71.36h-.09l-1.58.77-1.54.69h-.17l-.74.31-.11.05-1.59.62h-.06l-.74.27h-.07l-1.65.56h-.08a56.46 56.46 0 01-17.21 2.96zM96.23 177l.77.21a51.45 51.45 0 0029.35-.64h.08c.45-.14 1-.32 1.47-.5l.67-.24 1.5-.59h.08l.66-.28h.12l1.38-.62 1.47-.71h.07l.67-.35.73-.39h.06l.67-.37a2.39 2.39 0 01.43-.2c19.55-6.7 32.7-24.8 35.18-48.4 1.12-10.62 2.86-21.48 4.55-32 2-12.21 4-24.84 5.15-37.6a.31.31 0 010-.1 7.54 7.54 0 00-9.29-8.45 2.52 2.52 0 01-3-1.49A62.72 62.72 0 0053.18 43a2.55 2.55 0 01-2.48 1.53h-1.61c-.17 0-.34.05-.5.09h-.12l-.44.13-.2.07a4 4 0 00-.4.17l-.41.23-.13.09a2.79 2.79 0 00-.32.23l-.14.12a4.12 4.12 0 00-.35.31l-.05.06-.33.37-.13.16c-.09.12-.2.26-.31.42l-.07.11c-.08.12-.19.31-.3.5l-.1.18c-.08.15-.17.31-.25.48l-.1.22c-.08.17-.18.4-.27.65v.12l-.24.67-.08.25c-.06.19-.13.43-.2.68v.2c-.07.25-.14.55-.21.84l-.06.28-.15.75v.25c-.06.33-.11.67-.17 1v.17c0 .31-.08.61-.11.91v.36c0 .26-.05.54-.08.83v.32c0 .36-.06.74-.08 1.13v7.25l.2 3.32L43 72l.15 1.49.9 7.27v.12l1.05 7c.17 1.06.35 2.11.52 3.17l3 17.13v.07l.53 3.07a.13.13 0 000 .06l.47 2.89a.36.36 0 010 .11l.48 2.62v.09l.19 1.3a.28.28 0 000 .09l.17 1.22c.05.43.1.83.15 1.22s0 .07 0 .1c.09.8.17 1.56.24 2.29 0 .39.06.74.08 1.09v.06c0 .34 0 .68.06 1 .86 18.5 13.14 40.7 34.93 47.35a2.77 2.77 0 01.43.18l.83.43.65.32.09.05 1.38.65.75.33h.08l.71.29h.07l1.45.58.74.27h.08l.77.27.65.22 1.52.47z"/><g class="cls-9"><path class="cls-6" d="M45.65 105.73q2.15 1.48 4.52 3-9.46-48.83-1.44-64.22c-.77-.62-1.52-1.21-2.25-1.78l-.14.06h-.06a6.24 6.24 0 00-.66.38l-.18.12c-.16.1-.32.22-.48.34l-.15.13a6.91 6.91 0 00-.57.51l-.1.11c-.15.15-.29.32-.43.49l-.15.17c-.15.19-.29.39-.43.59l-.05.08c-.16.23-.3.47-.44.71l-.11.21c-.11.2-.21.4-.31.61l-.1.21c-.13.27-.24.54-.36.83l-.06.16-.27.76-.08.25c-.08.26-.16.53-.23.8v.18c-.09.32-.17.64-.24 1l-.07.31c0 .26-.11.53-.16.8l-.05.28c-.06.36-.12.72-.17 1.09v.21l-.12 1v.37c0 .29-.06.59-.08.89v.32c0 .39-.06.79-.08 1.2V64c0 .45 0 .9.05 1.36v.41l.06 1.12v.38l.08 1.26V69l.09 1.15v.55l.11 1.19v.29l.15 1.53v.39l.13 1.12.06.55.12 1.12.08.68.18 1.37v.31l.15 1.09.09.73v.06l.18 1.28v.17l.06.45.26.97.13.84v.15l.19 1.18v.19l.24 1.49.06.37c.17 1.06.34 2.12.52 3.18v.13l.2 1.15.1.63.11.64.2 1.12v.15l.25 1.24.06.35.16.9.15.84.07.41.22 1.23v.09l.07.4.09.48.08.48.1.36v.14l.08.47.09.48.08.47v.12l.07.35.08.47.08.47.07.37v.09z"/></g><g class="cls-9"><path class="cls-6" d="M138.47 39.56a50.65 50.65 0 0014.3 20.38 28.87 28.87 0 01-14.3-20.38m-84.73 1.1q-.08-2.25 0-4.47a65.25 65.25 0 01117.6 7.15 10.06 10.06 0 0112.63 11c-1.79 19.83-5.62 38.94-8.24 57.81l-2 1c-4.66-23.65 14.21-72.48-3-63.66a1.47 1.47 0 01-2.28-.41 63.28 63.28 0 00-21.27-28.34 38.4 38.4 0 002.26 27.84 30.89 30.89 0 01-4.61-29.52 62.67 62.67 0 00-9.17-5.19q-10.83 5.26-12.84 26.7c-.53-8.69.72-20.06 9.24-28.23a63.24 63.24 0 00-18.27-4.11l-1.17-.08q-14 9.14-14.29 34a43 43 0 019.92-34 63.7 63.7 0 00-9.91.85 50 50 0 00-12.57 40.81A41.62 41.62 0 0196.09 9.42a63.15 63.15 0 00-17.53 6.51 49.86 49.86 0 00-9.81 25.89A37.86 37.86 0 0176 17.43a63.31 63.31 0 00-22.26 23.23z"/></g><path class="cls-4" d="M110.64 184.11a56.72 56.72 0 01-14.84-2h-.14l-.74-.21h-.14l-1.58-.48h-.06l-.77-.26-.88-.31-.82-.3-.79-.31h-.1l-.71-.29-.89-.37-.11-.05-.67-.3-.2-.23c-.46-.21-1-.45-1.49-.7l-.55-.28-.85-.44c-23.94-7.4-37.39-31.67-38.31-51.87v-.93c0-.32 0-.62-.07-.92a.28.28 0 010-.09c-.06-.69-.14-1.41-.23-2.16s0-.06 0-.09c0-.36-.09-.73-.14-1.1a.19.19 0 000-.08l-.16-1.18v-.06l-.62-4a.28.28 0 000-.09l-.47-2.85a.13.13 0 010-.06l-3.68-20.36c-.17-1-.34-2.07-.51-3.13L39 81.48v-.11L38.12 74c0-.52-.11-1-.16-1.55L37.68 69a.37.37 0 010-.11l-.2-3.43v-7.78c0-.41.05-.81.08-1.21v-.32l.09-.94v-.38c0-.36.08-.7.13-1v-.19c.06-.42.13-.82.2-1.2v-.28c.07-.32.12-.61.18-.89l.07-.31c.08-.39.17-.75.27-1.1l.06-.22c.07-.27.16-.56.25-.85l.1-.3c.1-.3.2-.58.3-.86l.06-.16c.14-.36.28-.68.42-1l.13-.26q.16-.36.36-.72l.1-.19v-.07c.17-.29.34-.58.52-.85l.06-.08.06-.08c.13-.2.31-.44.49-.67l.18-.21c.18-.22.36-.43.55-.63l.11-.12c.27-.27.53-.5.79-.72l.19-.15c.2-.16.41-.31.63-.46l.2-.13a10.14 10.14 0 01.92-.53l.12-.05a8.35 8.35 0 01.85-.36l.26-.09c.28-.1.56-.18.84-.25h.21c.34-.08.69-.14 1-.19h.75a67.76 67.76 0 01123.63 1 12.58 12.58 0 0113.6 14.13c-1.17 12.92-3.21 25.62-5.18 37.9-1.76 10.92-3.41 21.24-4.51 31.72a68.6 68.6 0 01-11.65 32.2 54.32 54.32 0 01-26.69 20.37l-.36.2-.2.11-.1.06-.69.37h-.07l-.7.36h-.06l-.09.05-1.52.74h-.1l-1.44.65-.12.05-.8.33h-.09c-.53.22-1.07.43-1.61.63l-.79.29h-.1c-.54.2-1.08.38-1.63.56a56.68 56.68 0 01-17.1 2.73zM97 177.22h.08a51.49 51.49 0 0029.31-.64l1.55-.53h.08l.66-.24c.54-.2 1-.4 1.54-.6h.08l.68-.29h.11c.46-.2.92-.4 1.37-.62l1.42-.69.08-.05.62-.31.73-.4h.06l.17-.1.51-.28a2.19 2.19 0 01.44-.2c19.54-6.7 32.69-24.8 35.17-48.4 1.12-10.62 2.86-21.48 4.55-32 2-12.21 4-24.84 5.15-37.6a.41.41 0 010-.11 7.54 7.54 0 00-9.36-8.39 2.52 2.52 0 01-3-1.49A62.72 62.72 0 0053.18 43a2.53 2.53 0 01-2.47 1.53h-1.63l-.49.09h-.12c-.17 0-.3.08-.43.13l-.21.07-.41.17h-.07c-.09 0-.23.13-.38.22l-.14.09-.29.22-.16.13a4.12 4.12 0 00-.35.31l-.07.08-.3.34-.14.17c-.09.11-.2.26-.3.41l-.06.09c-.11.16-.21.34-.32.51l-.09.17c-.09.17-.17.34-.25.5l-.11.23c-.08.18-.18.41-.27.64v.13c-.09.23-.16.45-.24.68l-.08.24c-.06.19-.13.43-.2.67v.21c-.07.24-.14.53-.21.83l-.06.29c0 .26-.1.5-.15.75v.25c-.06.33-.12.67-.16 1v.18c0 .31-.08.61-.11.91v.36c0 .27-.05.55-.08.84v.31c0 .35-.05.72-.08 1.09V64c0 .42 0 .86.05 1.3l.18 3.25L43 72c0 .46.1 1 .15 1.47l.9 7.28v.11l1.05 7c.17 1 .34 2.1.52 3.15l3.56 20.28a.22.22 0 000 .08l.47 2.87v.09l.42 2.7v.08l.18 1.26v.14l.1.73a2.54 2.54 0 011.05 2.88l-.54 1.75v.59c0 .4 0 .74.07 1.07.86 18.5 13.14 40.7 34.93 47.35a2.05 2.05 0 01.43.18l1 .52.43.22h.06l1.44.68h.07l.68.3h.08l.71.29 1.51.6.7.26h.12l.78.28.66.22 1.53.47z"/><g class="cls-10"><path class="cls-2" d="M146.19 139.56a75.19 75.19 0 01-70-.29 14.07 14.07 0 0013.37 11.84 24.24 24.24 0 0041.88 0 15.49 15.49 0 0014.74-11.55"/></g><path class="cls-4" d="M66.92 68.72a1.69 1.69 0 01-.65-.12 25.4 25.4 0 01-14-13.31A25.09 25.09 0 0151.79 36a1.81 1.81 0 013.37 1.31 21.45 21.45 0 00.4 16.55 21.75 21.75 0 0012 11.41 1.8 1.8 0 01-.65 3.48zm44.83 62.75c-4.33 0-8.72-1.25-11.6-3.69-3.83-3.26-4.51-8-1.85-13a2.52 2.52 0 114.45 2.37c-1.52 2.86-1.3 5.07.67 6.75 3.68 3.12 11.84 3.38 15.6.5.79-.6 3.2-2.44.89-7.36a2.53 2.53 0 114.57-2.15c2.56 5.47 1.69 10.4-2.39 13.53a17.36 17.36 0 01-10.34 3.05z"/><path class="cls-2" d="M93.84 146.23a17.72 17.72 0 0033.75.28c-5.15-1.52-10.77-6-16.28-13.21-5.6 7.7-11.86 11.77-17.47 12.93z"/><path class="cls-4" d="M110.77 161.2h-.18A20.18 20.18 0 0191.43 147a2.53 2.53 0 01.24-2 2.47 2.47 0 011.66-1.19c5.54-1.15 11.2-5.39 15.93-11.94a2.52 2.52 0 012-1 2.57 2.57 0 012 1c5.06 6.66 10.24 10.92 15 12.31a2.52 2.52 0 011.74 3.12 20.18 20.18 0 01-19.23 13.9zm-13.53-13.31a15.15 15.15 0 0013.4 8.26h.13a15.14 15.14 0 0013.49-8.2c-4.29-1.93-8.68-5.52-12.92-10.57-4.25 5.12-9.12 8.75-14.1 10.51z"/><path d="M99 154.25a17.42 17.42 0 0023.2 0 14.83 14.83 0 00-23.2 0z" fill="#ff6698" fill-rule="evenodd"/><path class="cls-4" d="M110.64 160.85a19.5 19.5 0 01-13-5 2.15 2.15 0 01-.25-3 17 17 0 0126.58 0 2.17 2.17 0 01-.25 3 19.55 19.55 0 01-13.08 5zm-8.39-6.85a15.23 15.23 0 0016.75 0 12.69 12.69 0 00-16.78 0z"/><path class="cls-6" d="M16.89 295.09l-.22-.09-.16-.06h-.06l-.13-.05h-.19l-.13-.05h-.06l-.15-.06-.18-.08-.18-.09-.16-.08-.13-.07h-.08l-.1-.05-.11-.06h-.07l-.14-.08-.17-.09-.18-.1-.16-.09-.13-.07-.07-.05-.1-.06-.1-.06-.38-.24-.17-.11-.16-.11-.13-.1h-.06l-.16-.12-.07-.06-.12-.08-.14-.11-.16-.12-.15-.13-.15-.12-.1-.09-.08-.07-.07-.07-.1-.09-.33-.3-.14-.14-.13-.12-.1-.11-.06-.06-.08-.08-.08-.09-.05-.06-.11-.11-.13-.14-.14-.15-.12-.14-.1-.12v-.06l-.14-.16-.05-.07-.77-.87-.12-.15-.15-.2-.11-.16-.09-.13-.05-.07-.07-.1-.06-.09-.05-.08-.08-.12v-.05l-.1-.15-.11-.17-.1-.17-.08-.14v-.06l-.07-.12v-.17l-.29-.22v-.05l-.08-.15c-.6 7.03-1.39 11.13-1.17 13.2.22 2.31 2.66 6.89 6.35 8.07 9.3 3 14.15 2.61 15-2.38.87-3.32 1.68-7 2.31-10-3.16 2.15-9.01.82-12.99-.6z"/><path class="cls-4" d="M21.85 312.47a34.49 34.49 0 01-10.06-2c-4.72-1.52-7.77-7-8.08-10.24A36.37 36.37 0 014.1 294c.22-2 .49-4.44.72-7.42a2.52 2.52 0 014.78-.93l.06.1v.09l.4.69.06.1.56.82.22.28v.06l.35.44.06.07.21.23.81.84.91.8.43.33.13.1.08.06.42.29h.06l.28.18.35.22.16.09 1.14.58h.07l.18.08.94.37c4.78 1.72 9 2.06 10.67.88a2.52 2.52 0 013.91 2.58c-.54 2.61-1.38 6.46-2.32 10a7 7 0 01-3.25 5.06 9.15 9.15 0 01-4.64 1.48zm-12.6-19.13c0 .42-.08.81-.13 1.18a36.18 36.18 0 00-.38 5.22c.13 1.39 2 5.07 4.6 5.9 7 2.25 9.74 2 10.8 1.31a2.16 2.16 0 00.93-1.7 1.85 1.85 0 010-.23c.45-1.69.92-3.64 1.39-5.74A27 27 0 0116 297.46l-.41-.16h-.1l-.72-.29h-.17l-.13-.06-.39-.18H14l-.7-.36h-.07l-.17-.09H13l-.16-.09h-.08l-.1-.06-.1-.06-.45-.27-.41-.27-.08-.06-.13-.08h-.07l-.42-.3-.07-.05-.11-.08h-.05l-.18-.14-.07-.05-.14-.11-.07-.06-.12-.1a.39.39 0 01-.1-.08L10 294l-.45-.39-.06-.06-.1-.09z"/><path class="cls-7" d="M7.06 302.64Q7.26 308 4.17 316c-6.22 12.29 6.86 14.37 9.77 22a6.32 6.32 0 006.47 4.32c2.92-.31 5.77-2.66 5.43-5.57-.9-7.81 6.21-7.18 6.71-13.37a6.85 6.85 0 00-2.23-5.65 11.21 11.21 0 01-3.56-10c-1.85 2.84-6.5 2.68-14.19.2-2.57-.7-4.47-3.11-5.51-5.29z"/><path class="cls-4" d="M19.8 344.93a8.89 8.89 0 01-8.22-6c-.79-2.09-2.74-3.82-4.81-5.66-4.11-3.61-9.77-8.6-4.91-18.27 1.9-5 2.79-9.08 2.67-12.26a2.53 2.53 0 014.8-1.19c.73 1.53 2.22 3.51 4 4.09 8.52 2.74 10.74 1.69 11.3.83a2.53 2.53 0 014.62 1.75 8.63 8.63 0 002.76 7.7 9.49 9.49 0 013 7.72c-.31 3.79-2.45 5.72-4.18 7.27s-2.89 2.6-2.54 5.61a6.84 6.84 0 01-1.53 5.08 9.23 9.23 0 01-6.15 3.29 8.44 8.44 0 01-.81.04zM9 309a51.41 51.41 0 01-2.43 8 1.6 1.6 0 01-.1.23c-3.18 6.28-.45 8.7 3.69 12.36 2.43 2.16 5 4.39 6.18 7.64a3.79 3.79 0 003.85 2.71 4.18 4.18 0 002.73-1.43 1.77 1.77 0 00.45-1.34c-.64-5.59 2.15-8.1 4.18-9.94 1.57-1.41 2.39-2.22 2.53-3.93a4.36 4.36 0 00-1.42-3.57 13.7 13.7 0 01-4.23-7.44c-3.57.78-8.21-.36-12.6-1.77A9.92 9.92 0 019 309zm-4.83 7z"/><path class="cls-6" d="M214.71 287.15c.53 6.11 1.16 9.75 1 11.63-.22 2.3-2.67 6.89-6.35 8.07-9.29 3-14.15 2.61-15-2.38-.88-3.32-1.69-7-2.32-10a7.84 7.84 0 004.47 1.15 16.85 16.85 0 005.33-.66c7.57-1.09 11.49-3.59 12.87-7.81z"/><path class="cls-4" d="M200.08 311.28a9.26 9.26 0 01-4.93-1.21 7.07 7.07 0 01-3.25-5.07c-.75-2.84-1.53-6.21-2.32-10a2.53 2.53 0 013.91-2.59 5.5 5.5 0 003 .71h.14a14.19 14.19 0 004.52-.58l.3-.06c8.21-1.18 10.1-3.88 10.82-6.09a2.53 2.53 0 014.92.56c.19 2.28.4 4.18.59 5.85a34.4 34.4 0 01.39 6.24c-.31 3.22-3.36 8.71-8.08 10.23a34.23 34.23 0 01-10.01 2.01zm-4.66-13.18c.47 2.1.94 4 1.39 5.73 0 .07 0 .15.05.23a2.13 2.13 0 00.92 1.7c1.06.64 3.79.94 10.8-1.31 2.6-.84 4.47-4.51 4.6-5.91a31.27 31.27 0 00-.34-4.78c-3.12 2.29-7.17 3.19-10.47 3.68a19.58 19.58 0 01-5.92.71c-.36-.01-.7-.02-1.03-.05z"/><path class="cls-7" d="M214.86 301.45q-.2 5.35 2.89 13.38c6.22 12.29-6.86 14.37-9.77 22a6.31 6.31 0 01-6.47 4.32c-2.92-.3-5.77-2.65-5.43-5.56.9-7.81-6.21-7.18-6.71-13.38a6.87 6.87 0 012.23-5.65 11.2 11.2 0 003.56-9.94c1.85 2.84 6.5 2.67 14.19.2 2.53-.82 4.47-3.19 5.51-5.37z"/><g class="cls-10"><path class="cls-2" d="M193.83 305.13q-1.79-11.22 12.66-10.19-2.15 8.15 3 13.4-11.29 11.32-5.45 20.52-1.8 7.14 3.95 8.89a6.07 6.07 0 11-10.51-5.75 9.92 9.92 0 01-5.43-13.53q6.24-6.82 1.78-13.31"/></g><path class="cls-4" d="M202.12 343.74a8.44 8.44 0 01-.87 0 9.27 9.27 0 01-6.15-3.29 6.85 6.85 0 01-1.53-5.08c.35-3-.74-4-2.54-5.61s-3.87-3.49-4.18-7.27a9.49 9.49 0 013.05-7.72 8.66 8.66 0 002.76-7.71 2.53 2.53 0 014.62-1.75c.56.87 2.79 1.92 11.3-.82 1.79-.58 3.28-2.56 4-4.09a2.52 2.52 0 014.8 1.18c-.12 3.19.78 7.31 2.67 12.27 4.83 9.67-.8 14.65-4.91 18.3-2.06 1.83-4 3.56-4.81 5.65a8.89 8.89 0 01-8.21 5.94zM197.54 311a13.77 13.77 0 01-4.25 7.44 4.4 4.4 0 00-1.41 3.57c.14 1.7 1 2.52 2.53 3.93 2 1.83 4.82 4.34 4.18 9.94a1.77 1.77 0 00.45 1.34 4.21 4.21 0 002.73 1.42 3.79 3.79 0 003.85-2.7c1.23-3.25 3.75-5.48 6.18-7.64 4.14-3.67 6.87-6.09 3.69-12.36 0-.08-.07-.15-.1-.23a51.74 51.74 0 01-2.43-8 9.64 9.64 0 01-2.83 1.49c-4.39 1.47-9.03 2.61-12.59 1.8z"/><path class="cls-4" d="M194.23 326.3c.51.1 1 .27 1.74.39a13.33 13.33 0 002.39.2 12.68 12.68 0 002.69-.33 9.76 9.76 0 002.73-1 .33.33 0 01.45.13.37.37 0 010 .25 6.71 6.71 0 01-2 2.9 10.56 10.56 0 01-3.05 1.87 8.75 8.75 0 01-3.72.68 6.43 6.43 0 01-2.06-.43 6.31 6.31 0 01-1-.5 7.17 7.17 0 01-.91-.74 2.1 2.1 0 01-.06-3 2.08 2.08 0 011.93-.6z"/><path class="cls-6" d="M60.4 303a9.42 9.42 0 00-.25 12.26 88.23 88.23 0 00101.35 0 8.51 8.51 0 00.55-13.14A92.43 92.43 0 0160.4 303z"/><path class="cls-4" d="M110.83 333.77a90.68 90.68 0 01-52.13-16.41 2.19 2.19 0 01-.5-.46 11.88 11.88 0 01.31-15.54 2.52 2.52 0 013.26-.44 89.83 89.83 0 0098.87-.86 2.53 2.53 0 013.09.22 11 11 0 01-.7 17l-.07.05a90.7 90.7 0 01-52.13 16.44zM61.9 313.44a85.94 85.94 0 0098.11-.18 6 6 0 002.34-4.51 5.89 5.89 0 00-.8-3.25 94.88 94.88 0 01-100.42 1 6.85 6.85 0 00.77 6.94z"/><path d="M60.15 315.3q12.38 87 9.18 114.21a5.51 5.51 0 00-3.52 8.49 12.1 12.1 0 00-1 10.21 44.4 44.4 0 0141.42 7.64q2.86-69.35 4.71-108.11 2.13 75.19 2 108.7a51.78 51.78 0 0145.54-8.23 6.39 6.39 0 00-2.06-10.87 5.73 5.73 0 00-4-8.37 757.6 757.6 0 0110.43-115 8.55 8.55 0 01-1.41 1.34 88.23 88.23 0 01-101.29-.01z" fill="#4a4480" fill-rule="evenodd"/><g class="cls-10"><path class="cls-2" d="M98.7 344.5c8.48 2.83 15.39 1.87 25.77-.71-5.08 55.61-1.68 83.54 5.63 83.81q6 2 20.07.76l-13 7q-12.61 4.83-.16 11.15-11.17.74-24.19 10.71s-.65-36.52-1.94-109.56q-1.11 22.23-4.71 108.11-7.62-7.08-24.49-9.66 8.55-1 6.59-10.36-12.33 0-18.83-7.53 10.35 3.91 18.56 1.88 9.35-10.85 8.21-86.7"/></g><path class="cls-4" d="M113 458.92a2.53 2.53 0 01-2.52-2.53c0-9-.08-20.44-.31-34.15l-1.4 33.67a2.53 2.53 0 01-4.11 1.87 41.77 41.77 0 00-39.07-7.21A2.51 2.51 0 0162.4 449a14.57 14.57 0 01.6-11.06 8 8 0 014-10.3c1.74-18.44-1.4-56.1-9.34-112a2.52 2.52 0 014-2.42 85.94 85.94 0 0098.42 0 7.42 7.42 0 00.95-.91 2.52 2.52 0 014.43 2A762.78 762.78 0 00155 427.14a8.23 8.23 0 014.5 8.95 8.89 8.89 0 01.62 14 2.5 2.5 0 01-2.35.51 49.5 49.5 0 00-43.32 7.83 2.51 2.51 0 01-1.45.49zm-2-113.75a2.52 2.52 0 012.5 2.45c1.32 46.51 2 81.46 2.06 104a54.6 54.6 0 0142.15-6.31 3.86 3.86 0 00-2-5.64 2.52 2.52 0 01-1.38-3.59 3.21 3.21 0 00-2.22-4.68 2.54 2.54 0 01-2.11-2.5 760.36 760.36 0 019.47-109.18 91 91 0 01-96 .75c7.65 54.9 10.48 91.67 8.41 109.33a2.52 2.52 0 01-2 2.18 3 3 0 00-2.17 1.79 3 3 0 00.26 2.79 2.54 2.54 0 01.07 2.69 9.48 9.48 0 00-1.38 5.75 46.8 46.8 0 0137.22 6c1.8-43.74 3.32-78.52 4.5-103.44a2.54 2.54 0 012.53-2.39zm-41.67 84.34z"/><g class="cls-5"><path class="cls-6" d="M162.31 320q-11.62 83.1-8.52 109.53a5.51 5.51 0 013.53 8.45 12.17 12.17 0 011 10.21c-.92-.3-1.84-.56-2.76-.79a10.92 10.92 0 01-3.56-6.47q2.35-5.16-2.49-9.9-6.47-29.75 9.05-112.83l.72-.45q1.53 1.13 3 2.25m-101.5 0q11.63 83.1 8.52 109.53a5.51 5.51 0 00-3.49 8.47 12.1 12.1 0 00-1 10.21c.91-.3 1.83-.56 2.75-.79a11 11 0 003.57-6.47q-2.37-5.16 2.49-9.9 6.38-29.78-9.09-112.87l-.72-.45q-1.53 1.13-3 2.27z"/></g><path class="cls-4" d="M113 458.92a2.53 2.53 0 01-2.52-2.53c0-9-.08-20.43-.31-34.14q-.66 15.84-1.4 33.66a2.53 2.53 0 01-4.11 1.87 41.77 41.77 0 00-39.07-7.21 2.54 2.54 0 01-3.2-1.57 14.61 14.61 0 01.61-11.06 8 8 0 014-10.3c1.75-18.43-1.39-56.09-9.34-112a2.52 2.52 0 014-2.42 85.94 85.94 0 0098.41 0 6.42 6.42 0 001-.92 2.53 2.53 0 014.43 2A763 763 0 00155 427.14a8.23 8.23 0 014.5 8.95 8.9 8.9 0 01.63 14 2.53 2.53 0 01-2.36.51 49.49 49.49 0 00-43.32 7.83 2.51 2.51 0 01-1.45.49zm-2-113.75a2.52 2.52 0 012.5 2.45c1.32 46.52 2 81.46 2.06 104a54.6 54.6 0 0142.15-6.31 3.86 3.86 0 00-2-5.64 2.52 2.52 0 01-1.38-3.59 3.2 3.2 0 00-2.22-4.68 2.54 2.54 0 01-2.11-2.5 760.6 760.6 0 019.47-109.18 91 91 0 01-96 .75c7.65 54.91 10.48 91.68 8.41 109.33a2.52 2.52 0 01-2 2.18 3 3 0 00-2.18 1.79 3 3 0 00.26 2.79 2.54 2.54 0 01.07 2.69 9.48 9.48 0 00-1.37 5.75 46.8 46.8 0 0137.22 6c1.81-43.95 3.33-78.73 4.5-103.44a2.54 2.54 0 012.53-2.39zm-41.67 84.34z"/><path class="cls-4" d="M113 458.92a2.53 2.53 0 01-2.52-2.53c0-7.1 0-15.77-.18-25.78a2.52 2.52 0 013.85-2.18A32.71 32.71 0 00151 426.9a2.49 2.49 0 012-.45 8.24 8.24 0 016.58 9.64 8.89 8.89 0 01.62 14 2.5 2.5 0 01-2.35.51 49.5 49.5 0 00-43.32 7.83 2.51 2.51 0 01-1.53.49zm2.4-24.08c.07 6.19.12 11.8.13 16.79a54.6 54.6 0 0142.15-6.31 3.86 3.86 0 00-2-5.64 2.52 2.52 0 01-1.38-3.59 3.22 3.22 0 00-1.32-4.37 37.68 37.68 0 01-37.62 3.12zm-9.19 23.49a2.58 2.58 0 01-1.59-.55 41.77 41.77 0 00-39.07-7.21A2.51 2.51 0 0162.4 449a14.57 14.57 0 01.6-11.06A8 8 0 0168.84 427a2.52 2.52 0 012 .45 29.34 29.34 0 0035 .08 2.53 2.53 0 014 2.14l-1.09 26.21a2.51 2.51 0 01-2.52 2.42zm-27.77-14.84a46.72 46.72 0 0125.44 7.51c.23-5.74.47-11.32.69-16.73a34.34 34.34 0 01-35.64-2 3 3 0 00-1 4.24 2.54 2.54 0 01.07 2.69 9.48 9.48 0 00-1.34 5.8 47.33 47.33 0 0111.78-1.51zm20.1-99.85c2.15.13 4.19.37 6.23.51s4 .28 6.07.31 4 0 6.08-.19 4.09-.4 6.21-.63a.62.62 0 01.38 1.14 23.12 23.12 0 01-6.12 2.42 28.43 28.43 0 01-6.56.85 26.07 26.07 0 01-6.59-.73 20.12 20.12 0 01-6.09-2.54.62.62 0 01-.18-.86.63.63 0 01.56-.28z"/><path class="cls-3" d="M94.9 483.66c8.74-1.27 12.6-9.17 11.3-27.85a44.42 44.42 0 00-40.53-7.92C33 457.65 36 492.23 94.9 483.66z"/><path class="cls-4" d="M77.4 487.56c-22.55 0-32.81-8-34.74-16.76-2.28-10.32 6.89-20.73 22.29-25.33a46.93 46.93 0 0142.83 8.37 2.52 2.52 0 01.94 1.79c.92 13.17.21 28.54-13.46 30.53a124.21 124.21 0 01-17.86 1.4zm1-39a41.8 41.8 0 00-12 1.76c-14.23 4.24-20.23 13-18.81 19.4 1.95 8.82 17.21 15.78 47 11.45 5.23-.76 10.4-4.24 9.22-24.06a41.87 41.87 0 00-25.41-8.56z"/><g class="cls-9"><path class="cls-6" d="M91 447.79a51.73 51.73 0 00-27.7.38l-.17-.15c-19.91 7.34-25.05 23.91-10.32 32.54a17.89 17.89 0 002.82-8.88c-13.6-7.2 1.19-23 36.81-21a29.58 29.58 0 00-1.44-2.89"/></g><path class="cls-6" d="M94.9 483.66c5.08-.74 8.51-3.72 10.24-9.76-21.45 5.52-57.1 2-60-9-2.76 12.1 12.06 24.25 49.76 18.76z"/><path class="cls-4" d="M77.49 487.56c-18.85 0-27.36-5.65-31-9.62a14.72 14.72 0 01-3.77-13.6 2.53 2.53 0 014.91-.07c1 3.83 9.19 7.29 20.89 8.82 12.11 1.58 25.91 1 36-1.63a2.51 2.51 0 012.44.68 2.54 2.54 0 01.62 2.46c-1.94 6.76-6.08 10.65-12.31 11.56a124.38 124.38 0 01-17.78 1.4zm17.41-3.9zm-46.27-11.27a11.9 11.9 0 001.57 2.13c3.2 3.47 13.9 11.07 44.34 6.64a8.63 8.63 0 006.3-3.75c-17.04 3.08-41.05 1.72-52.21-5.02z"/><path class="cls-3" d="M124.85 484.59c-9.19-1.34-13.25-9.65-11.88-29.28v1.09a51.78 51.78 0 0145.54-8.23l.17-.15c31.02 11.45 26.17 45.3-33.83 36.57z"/><path class="cls-4" d="M143.14 488.55a130 130 0 01-18.65-1.46c-14.27-2.08-15-18.17-14-31.95a2.51 2.51 0 012.61-2.35 2.25 2.25 0 01.52.07 54.58 54.58 0 0144.79-7.35 2.61 2.61 0 011.17.14c14.53 5.36 22.56 15.75 20 25.85-2.31 8.9-13.17 17.05-36.44 17.05zm-17.93-6.46c30.92 4.5 47.1-2.7 49.42-11.83 1.83-7.19-4.74-15.15-16-19.57a2.28 2.28 0 01-.81-.1 49.5 49.5 0 00-42.44 7.19c-1 20 4.4 23.51 9.86 24.31z"/><g class="cls-9"><path class="cls-6" d="M130.79 447.79a51.76 51.76 0 0127.71.38l.17-.15c19.91 7.34 25.05 23.91 10.32 32.54a17.89 17.89 0 01-2.82-8.88c13.6-7.2-1.2-23-36.82-21 .44-1 .92-1.94 1.44-2.87"/></g><path class="cls-6" d="M124.85 484.59c-6.48-.94-10.4-5.35-11.68-14.74 14.07 12.08 60.14 7.4 64-4.56 2.54 12.53-13.12 25-52.32 19.3z"/><path class="cls-4" d="M143.13 488.56a130.2 130.2 0 01-18.64-1.47c-7.91-1.15-12.43-6.68-13.82-16.9a2.52 2.52 0 014.14-2.25c8.64 7.41 32.42 8.08 47.92 3.72 6.71-1.88 11.22-4.56 12.06-7.15a2.53 2.53 0 014.88.28 15.4 15.4 0 01-4.23 13.91c-3.85 4.07-12.78 9.86-32.31 9.86zM117 475.17c2 5.25 5.31 6.5 8.19 6.92 31.78 4.62 43.15-3.26 46.56-6.86a12.53 12.53 0 001.95-2.65 39.74 39.74 0 01-9.62 3.94c-14.55 4.09-34.98 4.15-47.08-1.35zm-5.91-270.55a28.71 28.71 0 01-27.89-21.68 2.52 2.52 0 014.89-1.25 23.75 23.75 0 0046.17-.63 2.53 2.53 0 014.93 1.11 28.72 28.72 0 01-27.7 22.44zm-57 14.91c2.38 0 3.27 21.49 3.65 26.47a2.72 2.72 0 01-5.43.4c-.29-3.92-1.65-26.55 1.78-26.87m112.04-2.28c2.23.23 2.49 24.34 2.45 28.59a2.72 2.72 0 01-5.43 0c0-4.05.45-28.75 3-28.55M92.3 94.36a2.17 2.17 0 01-2.15-2 9.46 9.46 0 00-18.47-1.86 2.16 2.16 0 11-4.14-1.25A13.79 13.79 0 0194.46 92a2.18 2.18 0 01-1.95 2.37zm35.12-.36h-.21a2.17 2.17 0 01-1.95-2.36A13.79 13.79 0 01152.18 89a2.16 2.16 0 01-4.18 1.21 9.46 9.46 0 00-18.47 1.85 2.16 2.16 0 01-2.11 1.94z"/><path class="cls-2" d="M85.43 98.78c4.07 0 7.38 4.62 7.38 10.31s-3.31 10.31-7.38 10.31-7.37-4.61-7.37-10.31 3.3-10.31 7.37-10.31"/><path class="cls-6" d="M87.41 106.18c1 0 1.9 1.19 1.9 2.65s-.85 2.65-1.9 2.65-1.89-1.19-1.89-2.65.85-2.65 1.89-2.65"/><path class="cls-4" d="M160 68a2.64 2.64 0 01-2.83-4.46c2.51-1.6 10-7.67 12.47-6.84 1.18 2.75-7.06 9.66-9.64 11.3"/><g class="cls-10"><path class="cls-2" d="M48.66 126.72a62.86 62.86 0 003.8 14.11q3.65 11.26 8 16.7a14.27 14.27 0 002.11.29 63.55 63.55 0 0023.91 17.84 25.32 25.32 0 01-.95-3.36 69.71 69.71 0 0050.8 0 26.08 26.08 0 01-1.09 3.75 63.47 63.47 0 0026.65-20.52 6.43 6.43 0 001.33-.75q5-6 8.33-17.76a64.22 64.22 0 002.45-10.65q3.57-18.93 4.25-48.26-3.52 49.13-16.87 67.92a67.59 67.59 0 01-100.44-.31q-9.39-11.52-19.5-65.38 3 27.94 7.22 46.38"/></g><g class="cls-10"><path class="cls-2" d="M58.14 60.73A43.69 43.69 0 0149.68 42q-5.41 11.52 7.51 25.43C63.26 88.3 42.73 87 46.88 106.49Q53.69 96.4 61.82 84q4.63-15.52-3.68-23.3"/></g><g class="cls-10"><path class="cls-2" d="M57.51 100.05C64 92.51 69.64 84.3 69.68 74.35a97.18 97.18 0 0082 0c-.25 9.78 4.58 18.54 11.64 25.32 5.87 5.65 7.41 14.51 5.74 22.49a69.4 69.4 0 001.55-11.85q.28-8.39-2.54-13.9a28 28 0 00-5.25-5.47 19.11 19.11 0 01-1.72-1.77 12.91 12.91 0 01-3.71-6.72 19.29 19.29 0 01-.46-9.63c.12-1.44.32-3 .59-4.57a1.94 1.94 0 01-1.83.45c-.72-.2-1.42-.42-2.11-.67-23.58 10.42-50.4 12.45-75.37 3.45a68.53 68.53 0 01-11.56-4.67 22.7 22.7 0 01-3.84-2l-1.22-.66a38.25 38.25 0 011.4 5A17 17 0 0163.3 71a24.58 24.58 0 01-1.48 13c-1.73 4.28-4.59 8.23-8.17 12.34l-1.6 2.41a21 21 0 00-1.88 9.94 44.47 44.47 0 006.89 21.92c-5.54-9.49-6.72-22.26.45-30.59"/></g><path class="cls-4" d="M71.13 142.66c-4.49 0-9-2.36-13-7C48.79 124.93 44.13 104 52 95c8.14-9.36 12-17.27 7.52-30a2.17 2.17 0 013.08-2.62 101.45 101.45 0 0097.39.15 2.16 2.16 0 012.68 3.3 17 17 0 001.52 23.55c5.44 4.46 8.36 9.16 8.68 14v.13c.15 17.74-3.2 29.13-10.23 34.81-4.67 3.77-10.86 4.84-18.4 3.16l-.25-.07a102.69 102.69 0 00-65.34-.95 14.08 14.08 0 01-7.52 2.2zM65 68.42c2.6 11.94-1.85 20.28-9.75 29.37-6.25 7.21-1.83 25.86 6.16 35.06 3.44 4 8.86 7.81 15.15 3.72a2.49 2.49 0 01.52-.25 107 107 0 0168.24.86c6.22 1.36 11 .6 14.62-2.33 5.85-4.72 8.75-15.27 8.63-31.34-.26-3.57-2.66-7.24-7.14-10.89l-.09-.08a21.25 21.25 0 01-5.75-23 105.9 105.9 0 01-44.14 9.66A105.84 105.84 0 0165 68.42z"/><path class="cls-7" d="M44.66 100.19c-24.1-9.57-18.56 28.87 3.84 25.41-.27-5.79-2-15.08-3.84-25.41z"/><g class="cls-10"><path class="cls-2" d="M31.5 113.9q16 22 15.23 3.46-.23-16.14-15.23-3.46"/></g><path class="cls-4" d="M45.7 128.34c-7 0-13.07-3.67-16.64-10.22s-3.48-14.22.32-18.51c2-2.27 6.78-5.51 16.21-1.76a2.52 2.52 0 011.56 1.9l.45 2.52c1.7 9.51 3.17 17.73 3.43 23.21a2.53 2.53 0 01-2.14 2.61 20.54 20.54 0 01-3.19.25zm-8-27.15a5.83 5.83 0 00-4.54 1.81c-2.34 2.64-2.19 8.12.33 12.75 1.33 2.43 5 7.68 12.31 7.6-.48-5.1-1.74-12.16-3.17-20.14l-.2-1.1a15.21 15.21 0 00-4.71-.92z"/><g class="cls-13"><path class="cls-6" d="M43.87 99.9c-14.58-5.29-17.75 7.58-12.59 17a13.44 13.44 0 002.26-.29q-4.48-16.82 10.76-13.76a13.13 13.13 0 00-.43-2.95"/></g><path class="cls-4" d="M45.7 128.34c-7 0-13.07-3.67-16.64-10.22s-3.48-14.22.32-18.51c2-2.27 6.78-5.51 16.21-1.76a2.52 2.52 0 011.56 1.9l.45 2.52c1.7 9.51 3.17 17.73 3.43 23.21a2.53 2.53 0 01-2.14 2.61 20.54 20.54 0 01-3.19.25zm-8-27.15a5.83 5.83 0 00-4.54 1.81c-2.34 2.64-2.19 8.12.33 12.75 1.33 2.43 5 7.68 12.31 7.6-.48-5.1-1.74-12.16-3.17-20.14l-.2-1.1a15.21 15.21 0 00-4.71-.92z"/><path class="cls-7" d="M178.36 100.19c24.1-9.57 18.56 28.87-3.84 25.41.27-5.79 2-15.08 3.84-25.41z"/><g class="cls-10"><path class="cls-2" d="M191.52 113.9q-16 22-15.23 3.46.22-16.14 15.23-3.46"/></g><path class="cls-4" d="M177.32 128.34a20.54 20.54 0 01-3.19-.25 2.52 2.52 0 01-2.13-2.61c.25-5.47 1.72-13.67 3.42-23.17l.45-2.56a2.52 2.52 0 011.56-1.9c9.43-3.75 14.21-.51 16.21 1.76 3.8 4.29 3.93 11.9.32 18.51s-9.65 10.22-16.64 10.22zm-.1-5h.16c7.17 0 10.83-5.19 12.15-7.6 2.53-4.63 2.67-10.11.33-12.75-1.77-2-5-2.3-9.27-.89l-.2 1.14c-1.39 7.93-2.69 14.97-3.17 20.06z"/><g class="cls-13"><path class="cls-6" d="M179.15 99.9c14.58-5.29 17.75 7.58 12.59 17a13.44 13.44 0 01-2.26-.29q4.49-16.84-10.76-13.78a13.73 13.73 0 01.43-2.95"/></g><path class="cls-4" d="M177.32 128.34a20.54 20.54 0 01-3.19-.25 2.52 2.52 0 01-2.13-2.61c.25-5.47 1.72-13.67 3.42-23.17l.45-2.56a2.52 2.52 0 011.56-1.9c9.43-3.75 14.21-.51 16.21 1.76 3.8 4.29 3.93 11.9.32 18.51s-9.65 10.22-16.64 10.22zm-.1-5h.16c7.17 0 10.83-5.19 12.15-7.6 2.53-4.63 2.67-10.11.33-12.75-1.77-2-5-2.3-9.27-.89l-.2 1.14c-1.39 7.93-2.69 14.97-3.17 20.06z"/><g class="cls-10"><path class="cls-2" d="M107.82 314.67q-37.38-5.58-40.37-26.2c0-.31-.09-.62-.12-.94a17.72 17.72 0 0017.2 4.79 37.78 37.78 0 01-19.76-25.82c-.23-1.59-.46-3.14-.69-4.66q-3.53-23.16-8.18-37.28c1.07 6.67 1.58 18 1.84 21.46a2.71 2.71 0 01-2.51 2.91q1.54 27.14 5.17 54.07a92.39 92.39 0 0066.17 13.39 188 188 0 01-18.75-1.76"/></g><g class="cls-10"><path class="cls-2" d="M113.11 314.67q37.38-5.58 40.37-26.2l.12-.94a17.72 17.72 0 01-17.2 4.79 37.81 37.81 0 0019.76-25.83c.22-1.59.45-3.14.68-4.66q3.51-23.16 8.18-37.28c-1.08 6.67-1.59 18-1.85 21.46a2.72 2.72 0 002.52 2.91q-1.58 27.15-5.21 54.12a92.42 92.42 0 01-66.18 13.39 187.92 187.92 0 0018.76-1.76"/></g><g class="cls-10"><path class="cls-2" d="M54.81 242.08q-.68-13.64-.72-22.55c-9 17.82-17 40.16-27.21 65.81-2.66 6.68-10.5 6-20.4-.52a18.65 18.65 0 0025 9q14.4-36.82 23.33-51.74"/></g><g class="cls-10"><path class="cls-2" d="M165.87 242.08q.67-13.64.72-22.55c9 17.82 17 40.16 27.21 65.81 2.66 6.68 10.5 6 20.4-.52a18.65 18.65 0 01-25 9q-14.41-36.75-23.35-51.7"/></g><path class="cls-6" d="M88.49 283.1a40.41 40.41 0 0042.59.46 46.64 46.64 0 01-11 0 22.65 22.65 0 0015.36-9.13 63.16 63.16 0 01-50.8 0 26.26 26.26 0 0013.69 9.43 16.64 16.64 0 01-9.89-.76" opacity=".2"/><g class="cls-10"><path class="cls-2" d="M159.32 302.24a84.36 84.36 0 01-96.94 0A9.29 9.29 0 0161 299.8a9 9 0 001.43 9 84.39 84.39 0 0096.94 0 8.14 8.14 0 002.55-9.77 8.24 8.24 0 01-2.55 3.22"/></g><g class="cls-10"><path class="cls-2" d="M114.34 455.4q9.63-5.75 16.24-7.7-15.75 35.3 39 23.3-27.29 16.73-47.38 13-13-7.11-7.86-28.56"/></g><g class="cls-10"><path class="cls-2" d="M104.08 455.4q-9.63-5.75-16.24-7.7 15.75 35.3-39 23.3 27.28 16.73 47.38 13 13-7.11 7.86-28.56"/></g><path class="cls-4" d="M77.4 487.56c-22.55 0-32.81-8-34.74-16.76-2.28-10.32 6.89-20.73 22.29-25.33a46.93 46.93 0 0142.83 8.37 2.52 2.52 0 01.94 1.79c.92 13.17.21 28.54-13.46 30.53a124.21 124.21 0 01-17.86 1.4zm1-39a41.8 41.8 0 00-12 1.76c-14.23 4.24-20.23 13-18.81 19.4 1.95 8.82 17.21 15.78 47 11.45 5.23-.76 10.4-4.24 9.22-24.06a41.87 41.87 0 00-25.41-8.56zm64.74 39.99a130 130 0 01-18.65-1.46c-14.27-2.08-15-18.17-14-31.95a2.51 2.51 0 012.61-2.35 2.25 2.25 0 01.52.07 54.58 54.58 0 0144.79-7.35 2.61 2.61 0 011.17.14c14.53 5.36 22.56 15.75 20 25.85-2.31 8.9-13.17 17.05-36.44 17.05zm-17.93-6.46c30.92 4.5 47.1-2.7 49.42-11.83 1.83-7.19-4.74-15.15-16-19.57a2.28 2.28 0 01-.81-.1 49.5 49.5 0 00-42.44 7.19c-1 20 4.4 23.51 9.86 24.31z"/><path class="cls-8" d="M145.69 132.88q-13 2.88-23.28-7.27a19.43 19.43 0 01-21.89 0c-10 1.32-14.22 12.18-22.84 5.58-1.75 16.72 18.42 23.15 33.63 2.11 13.85 18.23 28.4 18.7 34.38-.42z"/><g class="cls-10"><path class="cls-6" d="M102.73 126.91a13 13 0 01-2.21-1.3c-10 1.32-14.23 12.18-22.84 5.58-.06.54-.09 1.06-.1 1.57a8.67 8.67 0 005.65 3.9c5.23 1 14.67-6.59 19.5-9.75"/></g><g class="cls-10"><path class="cls-2" d="M107.67 128.55l4.18 2.38q-25.64 30.25-33.17 2.13 7.35 14.55 23 1.32 3.25-2.83-2-6.49a21.8 21.8 0 016.83 1.88c.43-.39.81-.77 1.2-1.22z"/></g><g class="cls-10"><path class="cls-2" d="M115.88 128.52c-2.67 1.6-4 2.41-4 2.41q20.31 27.52 31.63 4.26-10.89 10.22-22.3-.54-3.31-3.66 1-5.9a14.62 14.62 0 00-4.83 1.78c-.52-.64-1-1.31-1.55-2"/></g><g class="cls-10"><path class="cls-6" d="M119.7 127.83a7.57 7.57 0 001.66-1c10 1.31 14.22 12.18 22.84 5.57.06.54.09 1.06.1 1.57-8 9.37-20.46-2.69-24.6-6.12"/></g><path class="cls-4" d="M131.45 149.62c-6.41 0-13.4-4.25-20.11-12.23-9.64 11.66-20.27 13.15-26.74 10.68-6.66-2.55-10.27-9.11-9.43-17.14a2.52 2.52 0 014-1.74c3.63 2.78 5.6 1.68 10.11-1.3 3-2 6.32-4.18 10.87-4.78a2.58 2.58 0 011.75.41 16.83 16.83 0 0019 0 2.53 2.53 0 013.19.3c6.26 6.18 13.12 8.34 21 6.6a2.53 2.53 0 013 3.22c-3.64 11.61-9.74 15-14.22 15.77a14.07 14.07 0 01-2.42.21zm-18.4-18.15a3.65 3.65 0 01.27.3c6.86 9 14 13.65 19.69 12.67 4.23-.75 7-4.48 8.82-8.45-7.2.47-13.81-1.94-19.74-7.22a21.71 21.71 0 01-9.04 2.7zm-32.79 3.95a9.67 9.67 0 006.14 7.93c5.25 2 14.39.19 22.86-11.53a2.91 2.91 0 01.33-.37 22 22 0 01-9.62-3.19c-3 .62-5.47 2.25-7.87 3.84-3.41 2.26-7.19 4.76-11.84 3.32z"/><path class="cls-2" d="M136.65 98.78c-4.07 0-7.37 4.62-7.37 10.31s3.3 10.31 7.37 10.31 7.38-4.61 7.38-10.31-3.3-10.31-7.38-10.31"/><path class="cls-6" d="M134.67 106.18c-1 0-1.89 1.19-1.89 2.65s.85 2.65 1.89 2.65 1.9-1.19 1.9-2.65-.85-2.65-1.9-2.65"/><path class="cls-4" d="M27.14 332.8a6.42 6.42 0 01-3.28.1 8.52 8.52 0 01-2.94-1.25 8.2 8.2 0 01-2.28-2.19 5.36 5.36 0 01-1-2.91.27.27 0 01.28-.27.28.28 0 01.2.08 7.85 7.85 0 004.17 2.33 17.54 17.54 0 002.2.34c.72.07 1.41.11 2.09.2h.23a1.81 1.81 0 01.32 3.53z"/><g class="cls-10"><path class="cls-2" d="M29.17 305.13q1.83-11.22-12.66-10.19 2.13 8.15-3 13.4 11.32 11.32 5.49 20.52 1.8 7.14-3.95 8.89A6.07 6.07 0 1025.51 332 9.93 9.93 0 0031 318.44q-6.25-6.82-1.78-13.31"/></g></svg>