<svg id="Слой_1" data-name="Слой 1" xmlns="http://www.w3.org/2000/svg" viewBox="0 0 23.02 23.02"><path d="M12.18 7.94V5.19h-1.77a.93.93 0 00-.06.34.47.47 0 000 .16A2.65 2.65 0 018.7 7.81a1.51 1.51 0 01-.77.13v2.21h1.3v5a2.63 2.63 0 002.14 2.48 5.74 5.74 0 001.61.21 7.6 7.6 0 002.1-.37v-2.61l-1.1.33a1.54 1.54 0 01-1.59-.35.78.78 0 01-.12-.22 5.65 5.65 0 01-.1-1v-3.47H15V7.94zm0 0" fill="#e94d35"/><path fill="none" stroke="#e94d35" stroke-miterlimit="10" stroke-width="3" d="M1.5 1.5h20.02v20.02H1.5z"/></svg>