<svg id="Слой_1" data-name="Слой 1" xmlns="http://www.w3.org/2000/svg" viewBox="0 0 23 23"><defs><style>.cls-2{fill:#e94d35}</style></defs><g id="g4780"><g id="g15"><path id="path17-6" d="M16.06 14c-.33-.27-.69-.51-1-.76-.71-.49-1.35-.53-1.88.27a.83.83 0 01-1.14.27A5.08 5.08 0 019.4 11.2a1 1 0 01.32-1.4 1 1 0 00.53-.8 6 6 0 00-2-2.68 1 1 0 00-.69 0A1.92 1.92 0 006.3 9a14.18 14.18 0 007.86 7.9 3.38 3.38 0 00.56.16 2.55 2.55 0 002.1-1.6c.27-.77-.3-1.07-.76-1.44z" stroke-miterlimit="10" stroke="#e94a36" fill="#e94d35"/><path id="path19-1" class="cls-2" d="M11.94 6.52c2.69.41 3.93 1.69 4.27 4.39 0 .25-.06.63.29.64s.29-.37.29-.62a5.11 5.11 0 00-4.77-5c-.2 0-.6-.13-.62.31 0 .29.32.24.54.28z"/><path id="path21-2" class="cls-2" d="M12.47 7.26c-.26 0-.6-.15-.66.2s.31.34.56.4a2.68 2.68 0 012.51 2.62c0 .24 0 .61.37.55s.19-.37.22-.55a3.4 3.4 0 00-3-3.22z"/><path id="path23" class="cls-2" d="M12.62 8.55c-.17 0-.34 0-.41.21s.11.34.31.37a1.21 1.21 0 011.11 1.19c0 .19.14.34.31.31s.27-.24.26-.45a1.78 1.78 0 00-1.58-1.63z"/></g></g><path fill="none" stroke="#e94d35" stroke-width="3" stroke-miterlimit="10" d="M1.5 1.5h20v20h-20z"/></svg>