<svg id="Слой_1" data-name="Слой 1" xmlns="http://www.w3.org/2000/svg" viewBox="0 0 22.98 23.02"><path d="M14.72 12.15c-.14-.08-.84-.46-1-.51s-.23-.08-.33.06a7 7 0 01-.48.55c-.08.09-.17.1-.31 0a3.94 3.94 0 01-1.14-.76 4.81 4.81 0 01-.77-1c-.08-.15 0-.23.08-.3S11 10 11 9.94a1.2 1.2 0 00.15-.24.27.27 0 000-.25c0-.08-.3-.8-.41-1.1s-.23-.25-.32-.25h-.27a.51.51 0 00-.4.16 1.68 1.68 0 00-.55 1.19A2.8 2.8 0 009.77 11a6 6 0 002.39 2.29c1.45.63 1.45.44 1.72.42a1.41 1.41 0 001-.65 1.08 1.08 0 00.11-.68c0-.07-.13-.11-.27-.18zm-2.66 3.43a4.62 4.62 0 01-2.59-.78l-1.82.58.59-1.75a4.72 4.72 0 113.82 1.95zm0-10.4a5.67 5.67 0 00-4.85 8.61l-1 3.05 3.13-1a5.68 5.68 0 102.72-10.66z" fill="#e94d35" fill-rule="evenodd"/><path fill="none" stroke="#e94d35" stroke-miterlimit="10" stroke-width="3" d="M1.5 1.5h19.98v20.02H1.5z"/></svg>